<svg width="96" height="96" viewBox="0 0 96 96" xmlns="http://www.w3.org/2000/svg">
  <rect width="96" height="96" fill="#101820" />
  <g transform="translate(19 22) scale(2.35) translate(-173 0)">
    <path d="M173.733 15.6502C173.523 12.2523 174.95 8.47542 177.889 5.53603C184.281 -0.855361 197.591 0.040504 197.667 0.045652C197.63 0.0983981 187.9 14.2064 176.369 15.5259C175.478 15.6279 174.597 15.668 173.733 15.6502Z" fill="#03CA9B" />
    <path d="M175.083 19.9945C175.412 20.5195 175.801 21.0111 176.251 21.4612C180.197 25.4066 187.327 24.6733 192.177 19.8234C198.586 13.4138 197.667 0.045652 197.667 0.045652C197.631 0.124864 190.656 15.76 179.571 19.1704C178.066 19.6333 176.558 19.903 175.083 19.9945Z" fill="#03CA9B" />
  </g>
</svg>
