<svg viewBox="0 0 256 256" xmlns="http://www.w3.org/2000/svg">
  <path d="M0 0 C84.48 0 168.96 0 256 0 C256 84.48 256 168.96 256 256 C171.52 256 87.04 256 0 256 C0 171.52 0 87.04 0 0 Z " fill="#000000" transform="translate(0,0)"/>
  <path d="M0 0 C7.81 -0.08 15.61 -0.13 23.42 -0.16 C26.07 -0.18 28.72 -0.2 31.36 -0.23 C56.33 -0.47 80.52 -0.08 100.12 17.5 C110.11 27.89 113.46 41.21 113.25 55.18 C112.7 63.45 110.45 70.81 106.67 78.16 C106 80 106 80 107 83 C108.18 84.14 109.35 85.28 110.54 86.42 C121.69 98.44 122.73 111.8 122.18 127.44 C121.53 136.73 117.85 144.83 112 152 C111.45 152.69 110.9 153.37 110.33 154.08 C99.82 165.83 83.12 170.31 68 172 C62.62 172.25 57.24 172.24 51.86 172.2 C50.35 172.19 48.84 172.19 47.34 172.19 C43.42 172.18 39.5 172.16 35.59 172.14 C31.57 172.12 27.55 172.11 23.54 172.1 C15.69 172.08 7.85 172.04 0 172 C0 169.69 0 167.38 0 165 C0.81 164.99 1.63 164.99 2.47 164.98 C10.22 164.92 17.97 164.85 25.72 164.76 C29.7 164.72 33.68 164.68 37.66 164.65 C41.52 164.63 45.38 164.59 49.24 164.54 C50.7 164.52 52.15 164.51 53.61 164.5 C61.54 164.46 69.23 164 77.06 162.67 C77.74 162.55 78.43 162.44 79.13 162.32 C90.08 160.28 100.16 154.89 107 146 C113 137.19 113 137.19 113 134 C112.73 134.57 112.46 135.14 112.19 135.72 C107.18 145.58 99.87 151.16 89.59 154.87 C78.54 158.44 67.41 158.13 55.94 158.06 C54.39 158.06 52.84 158.05 51.29 158.05 C47.53 158.04 43.76 158.02 40 158 C40 155.69 40 153.38 40 151 C41.11 150.99 42.23 150.98 43.37 150.97 C47.57 150.93 51.76 150.87 55.95 150.79 C57.75 150.76 59.55 150.74 61.36 150.73 C88.03 150.51 88.03 150.51 98 142 C100.1 139.74 102.09 137.42 104 135 C103.2 135.76 102.39 136.53 101.56 137.31 C93.3 144.19 82.06 144.15 71.84 144.11 C70.85 144.11 69.85 144.11 68.82 144.11 C65.55 144.11 62.28 144.11 59 144.1 C56.73 144.1 54.45 144.09 52.17 144.09 C46.19 144.09 40.22 144.08 34.24 144.07 C28.13 144.06 22.02 144.05 15.92 144.05 C3.94 144.04 -8.03 144.02 -20 144 C-20 142.68 -20 141.36 -20 140 C-18.82 139.99 -17.64 139.99 -16.43 139.98 C-5.25 139.92 5.93 139.85 17.11 139.76 C22.86 139.72 28.6 139.68 34.35 139.65 C39.91 139.63 45.46 139.59 51.02 139.54 C53.13 139.52 55.24 139.51 57.34 139.5 C89.2 139.4 89.2 139.4 99 132 C103.09 127.35 103.47 122.81 103.4 116.79 C102.74 112.2 100.57 109.81 97 107 C85.22 98.5 66.96 100.59 53.19 100.38 C51.13 100.34 49.07 100.3 47.01 100.26 C42 100.16 37 100.08 32 100 C32 98.68 32 97.36 32 96 C39.17 95.9 46.33 95.83 53.5 95.78 C55.94 95.76 58.37 95.73 60.8 95.7 C91.72 95.27 91.72 95.27 101.81 103.75 C102.9 104.81 103.97 105.89 105 107 C100.64 99.23 93.93 94.12 85.43 91.51 C77.16 89.78 68.86 89.79 60.44 89.68 C59.04 89.66 57.64 89.64 56.23 89.62 C52.57 89.57 48.91 89.52 45.25 89.47 C41.5 89.42 37.75 89.36 34 89.31 C26.67 89.2 19.33 89.1 12 89 C12 86.69 12 84.38 12 82 C20.07 81.91 28.14 81.84 36.2 81.79 C39.95 81.77 43.7 81.74 47.45 81.7 C51.08 81.65 54.71 81.63 58.34 81.62 C60.37 81.61 62.4 81.58 64.43 81.55 C80.48 81.54 94.88 85.12 107 96 C101.23 87.09 93.03 80.98 82.72 78.07 C70.83 75.74 59.1 75.45 47 75.31 C44.95 75.28 42.91 75.24 40.86 75.21 C35.91 75.13 30.95 75.06 26 75 C26 72.69 26 70.38 26 68 C32.03 67.98 38.06 67.96 44.08 67.95 C46.13 67.94 48.18 67.93 50.22 67.92 C70.97 67.84 70.97 67.84 80.61 68.88 C84.28 69.07 86.2 68.37 89 66 C93.03 60.92 93.81 55.27 93.57 48.91 C92.59 43.92 89.99 41.02 86 38 C83.39 36.51 80.89 35.75 78 35 C77.38 34.83 76.75 34.65 76.11 34.47 C66.87 32.26 57.32 32.54 47.88 32.38 C46.04 32.34 44.21 32.3 42.38 32.26 C37.92 32.16 33.46 32.08 29 32 C29 30.68 29 29.36 29 28 C35.4 27.95 41.81 27.91 48.21 27.89 C50.39 27.88 52.57 27.87 54.74 27.85 C57.88 27.82 61.02 27.81 64.16 27.8 C64.64 27.8 64.64 27.8 67.08 27.77 C74.28 27.77 81.1 28.29 87.25 32.44 C87.9 32.87 88.56 33.31 89.23 33.76 C91.19 35.13 93.13 36.52 95 38 C89.43 29.65 80.62 24.95 71 23 C63.79 22.09 56.56 21.82 49.3 21.68 C48.34 21.66 47.38 21.64 46.39 21.62 C43.36 21.56 40.34 21.5 37.31 21.44 C35.24 21.39 33.17 21.35 31.1 21.31 C26.07 21.2 21.03 21.1 16 21 C16 19.02 16 17.04 16 15 C23.33 14.92 30.66 14.87 37.98 14.84 C40.47 14.82 42.96 14.8 45.45 14.77 C49.05 14.74 52.64 14.72 56.23 14.71 C57.33 14.69 58.43 14.68 59.56 14.66 C72.91 14.66 85.93 17.69 95.62 27.31 C96.76 28.53 97.89 29.75 99 31 C91.9 19.7 82.64 13.69 69.88 10.13 C55.9 7.14 41.74 7.44 27.5 7.31 C24.83 7.28 22.15 7.24 19.48 7.21 C12.99 7.12 6.49 7.06 0 7 C0 4.69 0 2.38 0 0 Z " fill="#ffffff" transform="translate(79,40)"/>
  <path d="M0 0 C7.33 -0.08 14.66 -0.13 21.98 -0.16 C24.47 -0.18 26.96 -0.2 29.45 -0.23 C33.05 -0.26 36.64 -0.28 40.23 -0.29 C41.33 -0.31 42.43 -0.32 43.56 -0.34 C56.95 -0.34 69.73 2.81 79.75 12.06 C85.53 18.33 90.16 24.75 90.14 33.55 C89.97 37.73 89.54 41.85 89 46 C87 47 87 47 84 47 C83.67 46.01 83.34 45.02 83 44 C82 43 82 43 79 42 C78.94 41.3 78.87 40.6 78.81 39.88 C77.85 32.48 75.9 27.73 70 23 C67.4 21.5 64.89 20.75 62 20 C61.38 19.83 60.75 19.65 60.11 19.47 C50.87 17.26 41.32 17.54 31.88 17.38 C30.04 17.34 28.21 17.3 26.38 17.26 C21.92 17.16 17.46 17.08 13 17 C13 15.68 13 14.36 13 13 C19.4 12.95 25.81 12.91 32.21 12.89 C34.39 12.88 36.57 12.87 38.74 12.85 C41.88 12.82 45.02 12.81 48.16 12.8 C48.64 12.8 48.64 12.8 51.08 12.77 C58.28 12.77 65.1 13.29 71.25 17.44 C71.58 17.66 71.58 17.66 73.23 18.76 C75.19 20.13 77.13 21.52 79 23 C73.43 14.65 64.62 9.95 55 8 C47.79 7.09 40.56 6.82 33.3 6.68 C32.34 6.66 31.38 6.64 30.39 6.62 C27.36 6.56 24.34 6.5 21.31 6.44 C19.24 6.39 17.17 6.35 15.1 6.31 C10.07 6.2 5.03 6.1 0 6 C0 4.02 0 2.04 0 0 Z " fill="#ffffff" transform="translate(95,55)"/>
  <path d="M0 0 C13.1 -0.05 26.2 -0.08 39.3 -0.1 C45.38 -0.11 51.46 -0.13 57.55 -0.15 C63.41 -0.17 69.28 -0.18 75.15 -0.19 C77.39 -0.19 79.63 -0.2 81.87 -0.21 C85.01 -0.23 88.14 -0.23 91.27 -0.23 C92.2 -0.23 93.13 -0.24 94.09 -0.25 C94.95 -0.25 95.8 -0.24 96.68 -0.24 C97.43 -0.24 98.17 -0.24 98.93 -0.25 C101.3 0.04 102.93 0.82 105 2 C101.9 4.07 101.27 4.25 97.77 4.24 C97.34 4.24 97.34 4.24 95.15 4.25 C94.21 4.24 93.27 4.23 92.3 4.23 C91.8 4.23 91.8 4.23 89.28 4.23 C85.98 4.23 82.69 4.21 79.39 4.2 C77.11 4.19 74.83 4.19 72.55 4.19 C66.53 4.18 60.52 4.16 54.51 4.14 C48.38 4.12 42.24 4.11 36.11 4.1 C24.07 4.08 12.04 4.04 0 4 C0 2.68 0 1.36 0 0 Z " fill="#ffffff" transform="translate(59,180)"/>
  <path d="M0 0 C7.17 -0.1 14.33 -0.17 21.5 -0.22 C23.94 -0.24 26.37 -0.27 28.8 -0.3 C59.37 -0.73 59.37 -0.73 69.62 7.38 C74.85 12.62 76.15 16.47 76.19 23.88 C76.14 25.92 76.08 27.96 76 30 C73.31 27.71 72.64 26.22 72.19 22.75 C71 16.83 68.12 13.28 63.29 9.75 C51.28 2.85 34.53 4.58 21.19 4.38 C19.13 4.34 17.07 4.3 15.01 4.26 C10 4.16 5 4.08 0 4 C0 2.68 0 1.36 0 0 Z " fill="#ffffff" transform="translate(111,136)"/>
  <path d="M0 0 C6.4 -0.05 12.81 -0.09 19.21 -0.11 C21.39 -0.12 23.57 -0.13 25.74 -0.15 C28.88 -0.18 32.02 -0.19 35.16 -0.2 C35.64 -0.2 35.64 -0.2 38.08 -0.23 C45.26 -0.23 52.08 0.31 58.25 4.38 C58.91 4.81 59.57 5.24 60.25 5.69 C62.37 7.27 64.13 9.13 66 11 C66.99 11 67.98 11 69 11 C69.16 12.32 69.16 12.32 70 19 C69.67 18.34 69.67 18.34 68 15 C67.24 15.23 66.49 15.46 65.71 15.7 C63 16 63 16 61.32 14.71 C61.05 14.39 61.05 14.39 59.69 12.81 C49.39 3.13 31.72 4.36 18.5 4.25 C16.69 4.22 14.89 4.19 13.08 4.16 C8.72 4.09 4.36 4.04 0 4 C0 2.68 0 1.36 0 0 Z " fill="#ffffff" transform="translate(108,68)"/>
  <path d="M0 0 C20.46 0 40.92 0 62 0 C61.67 1.32 61.34 2.64 61 4 C63.64 3.67 66.28 3.34 69 3 C69 3.66 69 4.32 69 5 C46.23 5 23.46 5 0 5 C0 3.35 0 1.7 0 0 Z " fill="#ffffff" transform="translate(80,206)"/>
  <path d="M0 0 C7.51 -0.03 15.02 -0.04 22.53 -0.05 C25.09 -0.06 27.65 -0.07 30.21 -0.08 C33.87 -0.09 37.54 -0.09 41.21 -0.1 C42.36 -0.1 43.51 -0.11 44.69 -0.11 C45.75 -0.11 46.81 -0.11 47.91 -0.11 C48.38 -0.11 48.38 -0.11 50.75 -0.12 C53 0 53 0 55 1 C55 1.66 55 2.32 55 3 C53.68 3 52.36 3 51 3 C50.67 3.99 50.34 4.98 50 6 C33.5 6 17 6 0 6 C0 4.02 0 2.04 0 0 Z " fill="#ffffff" transform="translate(95,55)"/>
  <path d="M0 0 C0 0.99 0 1.98 0 3 C1.5 4.69 1.5 4.69 3 6 C-3.65 8.61 -9.89 9.61 -17 10 C-17 9.34 -17 8.68 -17 8 C-19.64 8.33 -22.28 8.66 -25 9 C-24.67 7.68 -24.34 6.36 -24 5 C-44.46 5 -64.92 5 -86 5 C-86 6.65 -86 8.3 -86 10 C-63.89 10 -41.78 10 -19 10 C-19 10.33 -19 10.66 -19 11 C-41.44 11 -63.88 11 -87 11 C-87 8.69 -87 6.38 -87 4 C-86.59 4 -86.59 4 -84.53 3.98 C-76.78 3.92 -69.03 3.85 -61.28 3.76 C-57.3 3.72 -53.32 3.68 -49.34 3.65 C-45.48 3.63 -41.62 3.59 -37.76 3.54 C-36.3 3.52 -34.85 3.51 -33.39 3.5 C-23.8 3.46 -14.75 2.49 -5.33 0.64 C-2 0 -2 0 0 0 Z " fill="#ffffff" transform="translate(166,201)"/>
  <path d="M0 0 C21.12 0 42.24 0 64 0 C64 1.32 64 2.64 64 4 C42.88 4 21.76 4 0 4 C0 2.68 0 1.36 0 0 Z " fill="#ffffff" transform="translate(86,82)"/>
  <path d="M0 0 C3.08 3.08 3.2 5.95 3.31 10.12 C3.26 15.63 2.24 20.45 -1 25 C-2.93 26.12 -2.93 26.12 -5 27 C-6.11 27.66 -7.23 28.32 -8.38 29 C-12.25 31.21 -15.86 33.22 -20.44 32.75 C-21.28 32.5 -22.13 32.25 -23 32 C-23.63 31.82 -23.63 31.82 -26.81 30.94 C-27.34 30.78 -27.34 30.78 -30 30 C-30 29.67 -30 29.34 -30 29 C-28.91 28.83 -27.83 28.66 -26.71 28.48 C-25.27 28.24 -23.82 28 -22.38 27.75 C-21.66 27.64 -20.95 27.53 -20.21 27.42 C-14.43 26.41 -10.33 24.45 -6.2 20.11 C-4.72 17.5 -4.27 15.21 -3.81 12.25 C-3.65 11.27 -3.5 10.28 -3.33 9.27 C-3.28 8.89 -3.28 8.89 -3 7 C-2.67 7 -2.34 7 -2 7 C-1.34 9.31 -0.68 11.62 0 14 C0 9.38 0 4.76 0 0 Z " fill="#ffffff" transform="translate(186,150)"/>
  <path d="M0 0 C15.84 0 31.68 0 48 0 C48 1.32 48 2.64 48 4 C32.16 4 16.32 4 0 4 C0 2.68 0 1.36 0 0 Z " fill="#ffffff" transform="translate(102,151)"/>
  <path d="M0 0 C8.88 1.91 14.49 5.39 20 12.62 C21.6 18.01 21.22 23.42 21 29 C18.31 26.71 17.64 25.22 17.19 21.75 C16 15.83 13.12 12.28 8.29 8.75 C2.36 5.34 -4.31 4.78 -11 4 C-11 3.67 -11 3.34 -11 3 C-9.35 3 -7.7 3 -6 3 C-6 2.34 -6 1.68 -6 1 C-5.6 1.01 -5.6 1.01 -3.56 1.06 C-1 1 -1 1 0 0 Z " fill="#ffffff" transform="translate(166,137)"/>
  <path d="M0 0 C14.52 0 29.04 0 44 0 C44 1.32 44 2.64 44 4 C29.48 4 14.96 4 0 4 C0 2.68 0 1.36 0 0 Z " fill="#ffffff" transform="translate(70,164)"/>
  <path d="M0 0 C13.53 0 27.06 0 41 0 C41 1.32 41 2.64 41 4 C27.47 4 13.94 4 0 4 C0 2.68 0 1.36 0 0 Z " fill="#ffffff" transform="translate(70,193)"/>
  <path d="M0 0 C0.66 0 1.32 0 2 0 C2.38 1.66 2.71 3.32 3 5 C2 6 2 6 -0.66 6.12 C-1.26 6.12 -1.26 6.12 -4.26 6.11 C-4.59 6.11 -4.59 6.11 -6.24 6.11 C-8.41 6.11 -10.58 6.11 -12.75 6.1 C-14.25 6.1 -15.76 6.09 -17.26 6.09 C-21.21 6.09 -25.17 6.08 -29.13 6.07 C-33.16 6.06 -37.2 6.05 -41.23 6.05 C-49.15 6.04 -57.08 6.02 -65 6 C-64.67 5.01 -64.34 4.02 -64 3 C-42.88 2.67 -21.76 2.34 0 2 C0 1.34 0 0.68 0 0 Z " fill="#ffffff" transform="translate(156,123)"/>
  <path d="M0 0 C12.87 0 25.74 0 39 0 C39 1.32 39 2.64 39 4 C26.13 4 13.26 4 0 4 C0 2.68 0 1.36 0 0 Z " fill="#ffffff" transform="translate(69,93)"/>
  <path d="M0 0 C4.62 0.16 4.62 0.16 28 1 C27.67 1.99 27.34 2.98 27 4 C28.32 4.66 29.64 5.32 31 6 C20.77 6 10.54 6 0 6 C0 4.02 0 2.04 0 0 Z " fill="#ffffff" transform="translate(120,191)"/>
  <path d="M0 0 C0.33 0 0.66 0 1 0 C1 1.98 1 3.96 1 6 C4.63 5.84 4.63 5.84 23 5 C23 4.67 23 4.34 23 4 C23.8 3.88 24.61 3.75 25.44 3.62 C26.28 3.42 27.13 3.21 28 3 C28.33 2.34 28.66 1.68 29 1 C20.09 1 11.18 1 2 1 C2 0.67 2 0.34 2 0 C14.87 0 27.74 0 41 0 C41 1.65 41 3.3 41 5 C35.56 6.53 30.67 7.28 25 7.2 C24.64 7.19 24.64 7.19 22.81 7.19 C20.54 7.18 18.27 7.15 16 7.12 C14.45 7.11 12.89 7.11 11.34 7.1 C7.56 7.08 3.78 7.04 0 7 C0 4.69 0 2.38 0 0 Z " fill="#ffffff" transform="translate(119,191)"/>
  <path d="M0 0 C10.23 0 20.46 0 31 0 C31 1.32 31 2.64 31 4 C20.77 4 10.54 4 0 4 C0 2.68 0 1.36 0 0 Z " fill="#ffffff" transform="translate(118,93)"/>
  <path d="M0 0 C9.24 0 18.48 0 28 0 C28 1.32 28 2.64 28 4 C18.76 4 9.52 4 0 4 C0 2.68 0 1.36 0 0 Z " fill="#ffffff" transform="translate(122,164)"/>
  <path d="M0 0 C12.21 0 24.42 0 37 0 C37 0.33 37 0.66 37 1 C35.35 1.33 33.7 1.66 32 2 C32 2.33 32 2.66 32 3 C21.44 3 10.88 3 0 3 C0 2.01 0 1.02 0 0 Z " fill="#ffffff" transform="translate(109,68)"/>
  <path d="M0 0 C0.69 2.49 1 4.38 1 7 C-1.08 7.7 -3.16 8.38 -5.25 9.06 C-6.41 9.45 -7.57 9.83 -8.77 10.22 C-11.8 10.95 -13.16 11.12 -16 10 C-15.01 10 -14.02 10 -13 10 C-13.66 8.02 -14.32 6.04 -15 4 C-12.88 3.33 -10.75 2.66 -8.62 2 C-7.44 1.63 -6.26 1.26 -5.04 0.88 C-2 0 -2 0 0 0 Z " fill="#ffffff" transform="translate(173,186)"/>
  <path d="M0 0 C0.66 0.33 1.32 0.66 2 1 C1.53 1.58 1.05 2.16 0.56 2.75 C-1 5 -1 5 -1.33 7.03 C-2 9 -2 9 -3.89 10.08 C-11.66 12.49 -11.66 12.49 -16 11 C-17.26 10.65 -18.52 10.3 -19.81 9.94 C-20.86 9.63 -21.92 9.32 -23 9 C-23 8.67 -23 8.34 -23 8 C-22.46 7.91 -22.46 7.91 -19.71 7.48 C-18.27 7.24 -16.82 7 -15.38 6.75 C-14.66 6.64 -13.95 6.53 -13.21 6.42 C-7.9 5.49 -3.9 3.9 0 0 Z " fill="#ffffff" transform="translate(179,171)"/>
  <path d="M0 0 C1.6 13.2 1.6 13.2 -1 19 C-3.62 21.94 -3.62 21.94 -6 24 C-6.66 23.67 -7.32 23.34 -8 23 C-6.68 21.68 -5.36 20.36 -4 19 C-4.33 18.01 -4.66 17.02 -5 16 C-5.66 15.67 -6.32 15.34 -7 15 C-6.53 14.17 -6.05 13.35 -5.56 12.5 C-4.23 9.51 -3.74 7.82 -3.44 4.69 C-3.29 3.47 -3.15 2.25 -3 1 C-1 0 -1 0 0 0 Z " fill="#ffffff" transform="translate(176,89)"/>
  <path d="M0 0 C3.3 0 6.6 0 10 0 C10 2.31 10 4.62 10 7 C6.7 7 3.4 7 0 7 C0 4.69 0 2.38 0 0 Z " fill="#ffffff" transform="translate(60,205)"/>
</svg>
