<svg viewBox="0 0 80 80" fill="none" xmlns="http://www.w3.org/2000/svg">
  <rect width="80" height="80" fill="#003B2F" />
  <path
    d="M44.5967 20.0001C47.6374 19.9894 50.5231 20.9251 52.8037 22.962C52.8443 22.9981 52.8443 22.9984 52.8857 23.0352C53.0715 23.2013 53.2541 23.3704 53.4355 23.5411C53.4799 23.582 53.5246 23.623 53.5703 23.6651C55.0975 25.1217 55.9808 27.2809 56.2793 29.3341C56.2885 29.3919 56.2972 29.4502 56.3066 29.5099C56.4821 30.8735 56.3204 32.3093 55.8574 33.5987C55.8354 33.6646 55.8137 33.731 55.791 33.7989C55.2764 35.3002 54.3022 36.7455 53.041 37.7227C53.0096 37.7472 52.9777 37.7718 52.9453 37.797C51.4856 38.9172 51.4851 38.9171 51.0137 38.9171V39.0226C51.0453 39.0308 51.0768 39.0394 51.1094 39.0479C51.4551 39.1442 51.7605 39.278 52.0762 39.4474C52.1241 39.4728 52.1723 39.4983 52.2217 39.5245C52.869 39.8739 53.4587 40.2774 54.0146 40.7599C54.0583 40.7977 54.1025 40.8361 54.1475 40.8751C56.06 42.5656 57.3253 44.9561 57.5312 47.5186C57.5513 47.8689 57.5528 48.2196 57.5527 48.5704C57.5529 48.7009 57.5537 48.8315 57.5547 48.962C57.5565 49.4855 57.5214 49.9843 57.4375 50.502C57.4262 50.5812 57.4145 50.6602 57.4033 50.7393C56.972 53.3826 55.4503 55.9323 53.2773 57.505C51.7606 58.5942 50.0366 59.2507 48.2227 59.6642C48.1497 59.682 48.1496 59.6821 48.0752 59.7003C46.716 60.0272 45.331 60.0024 43.9424 59.9981C43.6605 59.9974 43.3785 59.998 43.0967 59.9981C42.61 59.9982 42.1234 59.9971 41.6367 59.9962C40.933 59.9949 40.2291 59.9944 39.5254 59.9942C38.3832 59.9939 37.2408 59.9928 36.0986 59.9913C34.9901 59.9898 33.881 59.989 32.7725 59.9884C32.7041 59.9883 32.6358 59.9884 32.5654 59.9884C32.2217 59.9882 31.8779 59.9876 31.5342 59.9874C28.6895 59.9858 25.8447 59.983 23 59.9796V54.5558C23.3302 54.521 23.6608 54.4871 24.001 54.4513C25.6217 54.0431 26.9439 53.2301 27.8545 51.7979C28.5027 50.7076 28.7067 49.6578 28.709 48.4073C28.7096 48.2464 28.7122 48.0849 28.7148 47.9239C28.7288 46.2188 28.1613 44.7621 26.9854 43.5177C25.855 42.4339 24.5113 42.0552 23 41.8663V37.0743C23.3822 37.0222 23.7644 36.9698 24.1582 36.9161C24.4496 36.8368 24.7204 36.7582 25.001 36.6534C25.0939 36.6194 25.0939 36.6187 25.1885 36.5841C26.664 36.0004 27.7137 34.8092 28.335 33.3751C28.746 32.277 28.8493 31.0067 28.582 29.8604C28.5627 29.7682 28.5627 29.768 28.543 29.6739C28.1977 28.198 27.2206 26.9834 25.96 26.1798C25.6863 26.0105 25.4052 25.8717 25.1064 25.753C25.0752 25.7405 25.0439 25.7279 25.0117 25.7149C24.7556 25.6147 24.4998 25.5429 24.2314 25.4835C24.1943 25.4746 24.1564 25.4653 24.1182 25.4561C23.7394 25.3713 23.4001 25.3607 23 25.3321V20.0138C25.8414 20.0114 28.683 20.009 31.5244 20.0079H32.7344C33.8154 20.0074 34.8965 20.0059 35.9775 20.005C37.0875 20.004 38.1977 20.0042 39.3076 20.004C39.9921 20.0039 40.6768 20.0029 41.3613 20.002C41.8311 20.0015 42.3008 20.0019 42.7705 20.002C43.0413 20.0021 43.3123 20.0016 43.583 20.0011C43.8315 20.0005 44.0806 20.0007 44.3291 20.0011C44.4183 20.0011 44.5075 20.0004 44.5967 20.0001ZM43.2998 41.9532C43.0296 41.953 42.7594 41.9531 42.4893 41.9542C42.278 41.9551 42.0667 41.956 41.8555 41.9561C41.5516 41.9563 41.5514 41.9564 40.9033 41.9571C40.3585 41.9586 39.8296 41.9596 39.3008 41.961C36.733 41.966 36.7327 41.9669 34.2158 41.9718V53.9767C35.9468 53.9789 37.6275 53.9813 39.3076 53.9835C40.0589 53.9848 40.8103 53.9868 41.5615 53.9874C41.819 53.9875 42.0765 53.9868 42.334 53.9874C42.6077 53.9881 42.8816 53.9894 43.1553 53.9893C43.2581 53.9893 43.3611 53.9893 43.4639 53.9893C44.1611 53.9922 44.8334 53.9798 45.5098 53.7852C45.5447 53.7745 45.5784 53.7634 45.6123 53.753C45.9539 53.6491 46.2881 53.5332 46.6143 53.3868C48.019 52.6774 49.1528 51.582 49.6641 50.0743C49.6754 50.0406 49.6863 50.0074 49.6973 49.9747C49.8662 49.4994 49.9174 49.0481 49.9277 48.546C49.9523 46.7167 49.603 45.0781 48.293 43.7218C47.0696 42.5152 45.2847 41.9422 43.5957 41.9522C43.4971 41.9529 43.3984 41.9532 43.2998 41.9532ZM41.4766 25.6876C41.228 25.6882 40.9791 25.6886 40.7305 25.6886C40.3139 25.6885 39.8971 25.6889 39.4805 25.6895C38.9958 25.6904 38.511 25.6906 38.0264 25.6905C37.5052 25.6905 36.984 25.691 36.4629 25.6915C36.3138 25.6916 36.1647 25.6915 36.0156 25.6915C35.7772 25.6915 35.5383 25.692 35.2998 25.6925C35.2124 25.6927 35.1245 25.6923 35.0371 25.6925C34.9146 25.6924 34.7915 25.6931 34.6689 25.6934C34.6137 25.6936 34.6135 25.6933 34.5596 25.6934C34.1949 25.6939 34.1573 25.6779 34.1562 26.0509C34.1564 26.0952 34.1571 26.1387 34.1572 26.1817V27.8165C34.1576 28.1267 34.1581 28.4369 34.1582 28.7472C34.1583 29.3328 34.1587 29.9184 34.1592 30.504C34.1598 31.1761 34.1599 31.8484 34.1602 32.5206C34.1607 33.9682 34.1619 35.4158 34.1631 36.8634C35.3186 36.8657 36.4744 36.8681 37.6299 36.8692C38.192 36.8698 38.7543 36.87 39.3164 36.8712C39.8097 36.8722 40.3035 36.8728 40.7969 36.8731C41.0576 36.8733 41.3184 36.8735 41.5791 36.8741C41.8282 36.8749 42.0781 36.8761 42.3271 36.8761C42.4193 36.876 42.5114 36.876 42.6035 36.8761C43.8068 36.8815 44.9617 36.678 46.0195 36.0772C46.0524 36.0583 46.0843 36.04 46.1162 36.0216C46.9749 35.5367 47.6954 34.8422 48.1504 33.9581C48.1749 33.9076 48.1989 33.8587 48.2227 33.8097C48.6019 33.0368 48.7141 32.2892 48.7188 31.4376C48.7189 31.3971 48.7196 31.3577 48.7197 31.3184C48.7222 31.0244 48.7188 30.7329 48.6963 30.4395C48.4608 29.0168 47.6702 27.9308 46.5723 27.0352C46.5426 27.0111 46.5141 26.9874 46.4854 26.964C45.344 26.0159 43.89 25.6825 42.4365 25.6876H41.4766Z"
    fill="#03FC9D" />
</svg>