<svg xmlns="http://www.w3.org/2000/svg" viewBox="0 0 400 400">
	<rect width="100%" height="100%" fill="#fff" />
	<g transform="translate(40, 30) scale(0.8)">
		<g transform="translate(0, 50)">
			<polygon fill="#F7A600" points="273.7,181.3 273.7,92.2 291.6,92.2 291.6,181.3     "></polygon>
			<path
				d="M65.1,207.7H26.7v-89h36.8c17.9,0,28.3,9.8,28.3,25c0,9.9-6.7,16.3-11.3,18.4c5.5,2.5,12.6,8.1,12.6,20      C93.2,198.7,81.5,207.7,65.1,207.7L65.1,207.7z M62.2,134.2H44.6v20.5h17.5c7.6,0,11.9-4.1,11.9-10.3      C74,138.3,69.8,134.2,62.2,134.2L62.2,134.2z M63.3,170.4H44.6v21.9h18.7c8.1,0,12-5,12-11S71.4,170.4,63.3,170.4z">
			</path>
			<polygon
				points="147.8,171.2 147.8,207.7 130,207.7 130,171.2 102.4,118.7 121.9,118.7 139,154.6 155.9,118.7 175.3,118.7           ">
			</polygon>
			<path
				d="M226.1,207.7h-38.4v-89h36.8c17.9,0,28.3,9.8,28.3,25c0,9.9-6.7,16.3-11.3,18.4c5.5,2.5,12.6,8.1,12.6,20      C254.1,198.7,242.4,207.7,226.1,207.7L226.1,207.7z M223.1,134.2h-17.5v20.5h17.5c7.6,0,11.9-4.1,11.9-10.3      C235,138.3,230.7,134.2,223.1,134.2z M224.3,170.4h-18.7v21.9h18.7c8.1,0,12-5,12-11S232.4,170.4,224.3,170.4L224.3,170.4z">
			</path>
			<polygon
				points="349.3,134.2 349.3,207.8 331.4,207.8 331.4,134.2 307.5,134.2 307.5,118.7 373.3,118.7 373.3,134.2     ">
			</polygon>
		</g>
	</g>
</svg>