<svg viewBox="-2 -0.3 24.4 24.4" fill="none" xmlns="http://www.w3.org/2000/svg">
  <rect x="-2" y="-0.3" width="24.4" height="24.4" fill="#002D74" />
  <path d="M6.31834 5.40324H13.9651L14.8874 9.34931H5.43266L6.31834 5.40324Z" fill="#F7F9FA" />
  <path
    d="M11.8223 12.1482L12.6383 9.94579H7.68861L8.52198 12.1482L8.26744 14.6207H10.1556L12.0594 14.6101L11.8223 12.1482Z"
    fill="#F7F9FA" />
  <path
    d="M14.9047 10.6835L12.6662 12.1589V14.7796L10.9541 16.442V17.2238L12.6034 18.7609H13.9825L17.4589 12.6301L14.9047 10.6835Z"
    fill="#F7F9FA" />
  <path
    d="M7.6799 12.1588L5.41342 10.7011L2.85055 12.63L6.34442 18.7786H7.74093L9.39023 17.2238V16.442L7.6799 14.7796V12.1588Z"
    fill="#F7F9FA" />
  <path fill-rule="evenodd" clip-rule="evenodd"
    d="M0.0261517 6.05619L10.1469 0.140625L20.2937 6.07031V17.9279L10.1486 23.8594L10.1225 23.8453L0 17.9297V6.07031L0.0261517 6.05619ZM10.1469 1.35127L1.03735 6.6774V17.3261L10.1469 22.6505L19.2581 17.3261V6.6774L10.1469 1.35127Z"
    fill="#F7F9FA" />
</svg>