<svg width="96" height="96" viewBox="0 0 96 96" xmlns="http://www.w3.org/2000/svg">
  <rect width="96" height="96" fill="#f2f2f7" />
  <g transform="translate(19 25) scale(1.68)">
    <path d="M0.844 9.14C0.352 10.052 0 11.107 0 12.161H7.385L10.409 9.138H0.844Z" fill="#191A34" />
    <path d="M13.503 6.116H6.048C3.798 6.116 1.828 7.382 0.774 9.139H10.409L13.503 6.116Z" fill="#191A34" />
    <path d="M34.602 0H27.147A6.122 6.122 0 0 0 21.029 6.116H13.574L19.692 0H12.237A6.122 6.122 0 0 0 6.12 6.116V16.802C6.12 22.918 11.113 27.839 17.161 27.839H28.414V6.046L34.603 0ZM20.536 15.888C19.552 14.904 19.552 13.217 20.536 12.232L24.193 15.888C23.209 16.943 21.591 16.943 20.536 15.888Z" fill="#191A34" />
  </g>
</svg>
