<svg width="338" height="338" viewBox="0 0 338 338" fill="none" xmlns="http://www.w3.org/2000/svg">
<rect y="0.703125" width="337.086" height="337.086" fill="#0A55FF"/>
<path d="M260.728 162.712V169.427C260.684 169.727 260.625 170.024 260.605 170.324C260.447 172.531 260.356 174.742 260.131 176.94C259.605 182.113 258.596 187.199 257.137 192.186C250.647 214.308 237.898 231.941 218.9 244.972C204.592 254.787 188.679 260.11 171.373 261.296C166.873 261.605 162.376 261.553 157.876 261.205C153.202 260.842 148.575 260.181 144.011 259.133C127.445 255.333 112.869 247.704 100.376 236.181C87.6421 224.435 78.7402 210.246 73.6704 193.669C72.0253 188.282 70.914 182.781 70.2418 177.194C70.1231 176.197 70.048 175.193 69.957 174.236C70.0559 174.172 70.0757 174.156 70.0994 174.145C70.1231 174.137 70.1469 174.129 70.1745 174.125C70.1983 174.121 70.2259 174.117 70.2497 174.113C70.2734 174.113 70.3011 174.113 70.3248 174.109C70.3485 174.109 70.3762 174.109 70.3999 174.109C70.4237 174.109 70.4514 174.109 70.4751 174.109C70.4988 174.109 70.5265 174.109 70.5502 174.109C70.6016 174.109 70.653 174.109 70.7045 174.109C112.275 174.109 153.85 174.109 195.421 174.109C195.473 174.109 195.524 174.109 195.575 174.109C195.599 174.109 195.627 174.109 195.651 174.109C195.702 174.109 195.753 174.109 195.805 174.109C195.829 174.109 195.856 174.109 195.88 174.109C195.904 174.109 195.931 174.109 195.955 174.105C195.979 174.105 196.007 174.097 196.03 174.093C196.054 174.089 196.082 174.085 196.105 174.073C196.129 174.065 196.149 174.05 196.169 174.034C196.188 174.018 196.208 174.002 196.232 173.986V158.172C196.161 158.136 196.137 158.124 196.113 158.116C196.09 158.105 196.066 158.097 196.042 158.089C196.018 158.081 195.991 158.081 195.967 158.081C195.943 158.081 195.916 158.077 195.892 158.073C195.868 158.073 195.84 158.073 195.817 158.073C195.793 158.073 195.765 158.073 195.742 158.073C195.718 158.073 195.69 158.073 195.666 158.073C195.643 158.073 195.615 158.073 195.591 158.073C195.568 158.073 195.54 158.073 195.516 158.073C153.918 158.073 112.319 158.073 70.7203 158.073C70.6965 158.073 70.6689 158.073 70.6451 158.073C70.6214 158.073 70.5937 158.073 70.57 158.073C70.5186 158.073 70.4672 158.073 70.4158 158.073C70.392 158.073 70.3644 158.073 70.3406 158.073C70.3169 158.073 70.2892 158.073 70.2655 158.073C70.2418 158.073 70.2141 158.069 70.1904 158.061C70.1666 158.057 70.1429 158.049 70.1192 158.041C70.0954 158.033 70.0717 158.018 70.0519 158.002C70.0322 157.986 70.0203 157.966 70.0045 157.946C69.9926 157.899 69.9649 157.852 69.9689 157.804C70.3327 153.644 70.9338 149.523 71.8632 145.454C76.9448 123.253 88.4132 105.034 106.312 90.9829C122.372 78.3558 140.713 71.6804 161.139 70.7827C161.36 70.7748 161.582 70.7036 161.803 70.6641C164.041 70.6641 166.28 70.6641 168.522 70.6641C168.771 70.7036 169.016 70.7629 169.265 70.7827C171.393 70.9409 173.528 71.0477 175.652 71.2573C180.568 71.7397 185.412 72.6532 190.17 73.9741C211.912 80.0049 229.502 92.11 242.738 110.361C253.878 125.724 259.878 142.954 260.609 161.968C260.617 162.217 260.688 162.467 260.728 162.712Z" fill="white"/>
</svg>
