<svg xmlns="http://www.w3.org/2000/svg" viewBox="0 0 200 200">
  <defs>
    <linearGradient id="aave" x1="0%" y1="0%" x2="100%" y2="100%">
      <stop offset="0%" stop-color="#B6509E"/>
      <stop offset="100%" stop-color="#2EBAC6"/>
    </linearGradient>
    <mask id="frame">
      <rect width="200" height="200" fill="white"/>
      <circle cx="100" cy="100" r="88" fill="black"/>
    </mask>
    <clipPath id="inner">
      <circle cx="100" cy="100" r="82"/>
    </clipPath>
  </defs>
  <rect width="200" height="200" fill="url(#aave)" mask="url(#frame)"/>
  <circle cx="100" cy="100" r="82" fill="white"/>
  <g clip-path="url(#inner)">
  <svg x="18" y="18" width="164" height="164" viewBox="0 0 190.5 190.5">
    <g>
	<rect fill="#9391F7" x="0" y="0" width="190.5" height="190.5"/>
	<path fill="#FFFFFF" d="M77.5,99.9c8.2-1.3,13.7-9,12.4-17.2c-1.3-8.2-9-13.7-17.2-12.4c-8.2,1.3-13.7,9-12.4,17.2
		C61.7,95.7,69.4,101.2,77.5,99.9L77.5,99.9z M116.7,99.9c8.2-1.3,13.7-9,12.4-17.2c-1.3-8.2-9-13.7-17.2-12.4
		c-8.2,1.3-13.7,9-12.4,17.2C100.8,95.7,108.5,101.2,116.7,99.9L116.7,99.9z"/>
	<path fill="#FFFFFF" d="M94.7,23.3C54,23.3,21,56.9,21,98.3h18.8c0-31.1,24.4-56.2,54.8-56.2c30.5,0,54.8,25.2,54.8,56.2h18.8
		C168.4,56.9,135.4,23.3,94.7,23.3L94.7,23.3L94.7,23.3z"/>
</g>
  </svg>
  </g>
</svg>
