<svg xmlns="http://www.w3.org/2000/svg" viewBox="0 0 200 200">
  <defs>
    <linearGradient id="aave" x1="0%" y1="0%" x2="100%" y2="100%">
      <stop offset="0%" stop-color="#B6509E"/>
      <stop offset="100%" stop-color="#2EBAC6"/>
    </linearGradient>
    <mask id="frame">
      <rect width="200" height="200" fill="white"/>
      <circle cx="100" cy="100" r="88" fill="black"/>
    </mask>
    <clipPath id="inner">
      <circle cx="100" cy="100" r="82"/>
    </clipPath>
  </defs>
  <rect width="200" height="200" fill="url(#aave)" mask="url(#frame)"/>
  <circle cx="100" cy="100" r="82" fill="white"/>
  <g clip-path="url(#inner)">
  <svg x="18" y="18" width="164" height="164" viewBox="0 0 512 512">
    <defs>
    <linearGradient id="gradient" x1="-5348.85556" y1="-1747.11011" x2="-5348.85556" y2="-1064.36965"
      gradientTransform="translate(1317.4002 346.68781) scale(.19844)" gradientUnits="userSpaceOnUse">
      <stop offset="0" stop-color="#090220" />
      <stop offset="1" stop-color="#170659" />
    </linearGradient>
  </defs>
  <rect x="0" y="0" width="512" height="512" fill="url(#gradient)" />
  <path
    d="m171.67807,192.35282c-2.0463-2.54025-5.15105-3.95149-8.46748-3.95149h-68.37487c-.5645,0-1.05843-.21168-1.48181-.56449-.35281-.35281-.5645-.77619-.5645-1.27011v-46.07718c0-.49393.21169-.91731.5645-1.27012.42338-.42338.91731-.63506,1.48181-.5645h72.25579c18.20506,0,33.94047,7.47961,47.20617,22.36825l17.57001,21.45093-34.22271,41.70232-25.96691-31.8236Zm126.3065-31.54135c13.19516-14.74752,29.00111-22.15656,47.41787-22.15656h72.04409c.49394-.07057.98789.14112,1.3407.42338.35281.35281.49394.84675.42336,1.41125v46.07719c0,.49394-.14113.9173-.42336,1.27011-.35281.42338-.84676.63506-1.3407.56449h-68.37486c-3.24587-.07057-6.35061,1.41125-8.46748,3.95149l-50.38147,61.31863,50.59317,61.74201c2.0463,2.32855,5.08049,3.73979,8.18523,3.66925h68.37486c.49394-.07057,1.05843.21168,1.3407.56449.28227.42338.49394.98787.42336,1.48181v46.07719c0,.49394-.14113.9173-.42336,1.27011-.35281.42336-.84676.63508-1.3407.56449h-71.97354c-18.41676,0-34.08158-7.47959-47.20617-22.36826l-41.914-51.15766-41.914,51.15766c-13.19516,14.88863-29.00111,22.36826-47.41786,22.36826h-72.11469c-.49393.07055-1.05843-.21168-1.34068-.56449-.35281-.42336-.49393-.98789-.42338-1.48179v-46.07717c0-.49394.14112-.9173.42338-1.27011.35281-.42338.84675-.63506,1.34068-.56449h68.37486c3.24587,0,6.35061-1.48181,8.46748-3.95149l49.46417-60.40133,76.84234-93.91846Z"
    fill="#00d1ff" />
  </svg>
  </g>
</svg>
