<svg xmlns="http://www.w3.org/2000/svg" viewBox="0 0 200 200">
  <defs>
    <linearGradient id="aave" x1="0%" y1="0%" x2="100%" y2="100%">
      <stop offset="0%" stop-color="#B6509E"/>
      <stop offset="100%" stop-color="#2EBAC6"/>
    </linearGradient>
    <mask id="frame">
      <rect width="200" height="200" fill="white"/>
      <circle cx="100" cy="100" r="88" fill="black"/>
    </mask>
    <clipPath id="inner">
      <circle cx="100" cy="100" r="82"/>
    </clipPath>
  </defs>
  <rect width="200" height="200" fill="url(#aave)" mask="url(#frame)"/>
  <circle cx="100" cy="100" r="82" fill="white"/>
  <g clip-path="url(#inner)">
  <svg x="18" y="18" width="164" height="164" viewBox="0 0 512 512">
    <rect x="0" y="0" width="512" height="512" fill="#2775ca"/>
  <path
    d="M314.4947,75.73994c-5.7732-1.84418-10.49301,1.58219-10.49301,7.64303v14.90524c0,4.06369,3.06181,8.68891,6.87703,10.08721,61.27485,22.44271,105.12242,81.33888,105.12242,150.29248s-43.84758,127.84655-105.12242,150.29131c-4.18391,1.53206-6.87703,5.63123-6.87703,10.08766v14.90366c0,6.06177,4.7198,9.48765,10.49301,7.64418,77.43343-24.74169,133.50528-97.28585,133.50528-182.92682s-56.07185-158.1872-133.50528-182.92797Z"
    fill="#fff" fill-rule="evenodd" stroke-width="0" />
  <path
    d="M208.00058,83.38297c0-6.06084-4.72026-9.48721-10.49301-7.64303-77.4355,24.74077-133.50757,97.28517-133.50757,182.92797s56.07207,158.18513,133.50757,182.92682c5.77252,1.84347,10.49301-1.58241,10.49301-7.64418v-14.90366c0-4.06482-3.06294-8.69073-6.87885-10.08766-61.27348-22.44476-105.12173-81.34024-105.12173-150.29131s43.84825-127.84978,105.12173-150.29248c3.8159-1.3983,6.87885-6.02352,6.87885-10.08744v-14.90502Z"
    fill="#fff" fill-rule="evenodd" stroke-width="0" />
  <path
    d="M321.46793,308.6276l-14.64487-6.54266c-3.2244-1.44044-7.02589-.09389-8.58768,3.07554-6.91138,14.02655-18.39826,22.96688-33.57442,22.96688-13.73801,0-24.75771-6.72817-33.20342-20.32418-3.3011-5.26024-5.92412-11.13191-7.92173-17.56467h39.32517c2.49158,0,4.77246-1.4038,5.89689-3.62973l9.38233-12.66397c2.21906-4.3946-.97328-9.58385-5.89458-9.58385h-53.13488c-.15412-2.72516-.24663-5.50299-.24663-8.36555-.02954-2.83738.05039-5.6175.19809-8.35639h43.79878c2.49158,0,4.77246-1.40151,5.89689-3.62744l9.38233-12.66397c2.22135-4.39462-.97328-9.58478-5.89458-9.58478h-48.75791c7.13168-23.25064,22.01929-38.48359,41.17325-38.18428,14.59677,0,25.92793,7.99113,33.19654,21.07852,1.62822,2.93357,5.29462,4.05775,8.36328,2.70273l14.72042-6.49824c3.52212-1.55495,5.01979-5.81398,3.1557-9.18242-13.58916-24.54038-33.40036-36.86704-59.43594-36.86704-23.75697,0-42.79208,9.44554-57.2471,28.19417-8.44822,11.04216-14.3293,23.99834-17.81932,38.75657h-21.38288c-2.49272,0-4.77314,1.40289-5.89664,3.62789l-9.38394,12.66444c-2.21906,4.3946.97419,9.58385,5.89664,9.58385h27.23373c-.13146,2.75034-.25718,5.50528-.25718,8.35639-.0348,2.82591.03183,5.60832.15137,8.36555h-17.74398c-2.49272,0-4.77314,1.4038-5.89664,3.62744l-9.38394,12.66397c-2.21906,4.3946.97419,9.58614,5.89664,9.58614h30.70474c9.7105,40.1354,37.66674,67.50606,75.1285,66.94043,26.59891,0,46.646-13.22275,60.02907-39.55143,1.70377-3.35264.21067-7.46558-3.22209-8.99991Z"
    fill="#fff" stroke-width="0" />
  </svg>
  </g>
</svg>
