<svg xmlns="http://www.w3.org/2000/svg" viewBox="0 0 200 200">
  <defs>
    <linearGradient id="aave" x1="0%" y1="0%" x2="100%" y2="100%">
      <stop offset="0%" stop-color="#B6509E"/>
      <stop offset="100%" stop-color="#2EBAC6"/>
    </linearGradient>
    <mask id="frame">
      <rect width="200" height="200" fill="white"/>
      <circle cx="100" cy="100" r="88" fill="black"/>
    </mask>
    <clipPath id="inner">
      <circle cx="100" cy="100" r="82"/>
    </clipPath>
  </defs>
  <rect width="200" height="200" fill="url(#aave)" mask="url(#frame)"/>
  <circle cx="100" cy="100" r="82" fill="white"/>
  <g clip-path="url(#inner)">
  <svg x="18" y="18" width="164" height="164" viewBox="0 0 194 195">
    <rect x="0" y="0" width="194" height="195" fill="#314012" />
  <path fill-rule="evenodd" clip-rule="evenodd"
    d="M168.887 102.452C166.099 139.698 134.987 169.051 97.0161 169.051C57.2109 169.051 24.9424 136.793 24.9424 97.0002C24.9424 57.2075 57.2109 24.9492 97.0161 24.9492C134.924 24.9492 165.997 54.2062 168.873 91.3651H134.414C141.936 74.7437 142.391 59.6421 134.165 52.7419C122.017 42.5517 95.537 54.1062 75.0201 78.5496C54.5032 102.993 47.7189 131.069 59.8668 141.259C72.0148 151.449 98.4949 139.895 119.012 115.451C122.588 111.191 125.747 106.82 128.461 102.452H168.887Z"
    fill="#C7E36C" />
  <path d="M102.43 102.452H131.251L120.121 117.025L102.43 109.924V102.452Z" fill="#C7E36C" />
  </svg>
  </g>
</svg>
