<svg xmlns="http://www.w3.org/2000/svg" viewBox="0 0 48 48">
  <rect width="48" height="48" fill="#476352"/>
  <g transform="translate(9.75 10)">
    <path d="m13.6 0v11.1c0 0.5-0.6 0.7-0.9 0.4l-5.2-5.1 2.2-5.7c0.1-0.4 0.5-0.7 0.9-0.7zm0 15.1v6.3c0 0.4-0.5 0.6-0.8 0.3l-8.1-7.6 2.4-6.2 5.9 5.8c0.4 0.4 0.6 0.9 0.6 1.4zm0 10.1v2.8h-12.5c-0.7 0-1.2-0.7-1-1.4l4.2-11 8.8 8.3c0.3 0.3 0.5 0.8 0.5 1.3zm4.3-25.2c0.5 0 0.8 0.3 1 0.7l2.2 5.7-5.2 5.1c-0.4 0.3-0.9 0.1-0.9-0.4v-11.1zm-3 15.1c0-0.5 0.2-1 0.6-1.4l5.9-5.8 2.4 6.2-8.1 7.6c-0.3 0.3-0.8 0.1-0.8-0.3v-6.3zm0 10.1c0-0.5 0.2-1 0.6-1.3l8.7-8.3 4.2 11c0.3 0.7-0.2 1.4-0.9 1.4h-12.6v-2.8z" fill="#f1d3aa"/>
  </g>
</svg>
