<svg xmlns="http://www.w3.org/2000/svg" viewBox="0 0 500 500">
  <rect width="500" height="500" fill="#141327"/>
  <path fill="#fff" d="M331.5 216.2c26.4 0 47.7-21.2 47.7-47.4s-21.3-47.5-47.7-47.5-47.7 21.2-47.7 47.4 21.3 47.5 47.7 47.5z"/>
  <path fill="#fff" d="M168.5 378.3c26.4 0 47.7-21.2 47.7-47.4 0-26.2-21.3-47.5-47.7-47.5s-47.7 21.3-47.7 47.4 21.4 47.5 47.7 47.5z"/>
  <path fill="#fff" d="M297.8 135.2c-45.2-18.7-99.2-9.7-136 26.8-36.7 36.6-45.8 90.3-27 135.3l163-162.1z"/>
  <path fill="#fff" d="M202.2 364.4c45.2 18.6 99.2 9.7 136-26.9 36.8-36.6 45.8-90.3 27-135.3l-163 162.2z"/>
</svg>
