<svg xmlns="http://www.w3.org/2000/svg" viewBox="0 0 512 512">
  <rect width="512" height="512" fill="#000" />
  <polygon
    points="145.12722 418.64317 194.40401 333.31019 243.68081 248.27768 292.65712 162.94469 300.76977 149.42362 304.37538 162.94469 319.39879 219.13226 302.57258 248.27768 253.29578 333.31019 204.31946 418.64317 263.21124 418.64317 312.48804 333.31019 338.02784 289.14136 350.04657 333.31019 372.88215 418.64317 425.76455 418.64317 402.92897 333.31019 380.09339 248.27768 374.08403 226.3435 410.74114 162.94469 357.25779 162.94469 355.45498 156.63487 336.82596 86.92623 334.4222 77.91219 283.04214 77.91219 281.84026 79.715 233.76535 162.94469 184.48856 248.27768 135.51224 333.31019 86.23545 418.64317 145.12722 418.64317"
    fill="#fff" />
</svg>