<svg xmlns="http://www.w3.org/2000/svg" viewBox="0 0 512 512">
  <rect width="100%" height="100%" fill="#fff"/>
  <circle cx="256" cy="256" r="256" fill="#fff"/>
  <path d="M100.24245,194.16195c-3.52405,2.81913-3.52405,8.17902,0,10.9983l18.27717,14.62174c2.58757,2.06999,6.26824,2.05605,8.84011-.03346l104.25488-84.70718c1.64591-1.33729,2.60151-3.34492,2.60151-5.46569v-27.94016c0-5.90508-6.83058-9.18806-11.44161-5.49918l-122.53206,98.02563ZM131.72395,279.57924c-2.57186,2.08966-6.25268,2.10287-8.84025.03376l-16.79416-13.43605c-3.50699-2.80577-3.52716-8.13263-.04154-10.96484l116.68498-94.8065c4.60225-3.73938,11.48315-.4643,11.48315,5.46569v27.08059c0,2.12063-.9556,4.1284-2.60151,5.46569l-99.89066,81.16166ZM110.4121,315.0418c-3.48562,2.83219-3.46544,8.16053.04153,10.96484l112.32072,89.85677c4.61119,3.68919,11.44176.40649,11.44176-5.49857v-181.11732c0-5.93-6.8809-9.20507-11.48315-5.46569l-112.32087,91.25997ZM248.30135,408.01692c0,6.27486,7.58528,9.41668,12.02141,4.98057l152.01532-152.01826c2.75-2.75001,2.75-7.20815,0-9.95817l-152.01532-152.01445c-4.43613-4.43642-12.02141-1.29433-12.02141,4.97974v304.03056Z" fill="#202723" fill-rule="evenodd"/>
</svg>
