<svg xmlns="http://www.w3.org/2000/svg" viewBox="0 0 512 512">
  <rect width="100%" height="100%" fill="#245ae5"/>
  <circle cx="255.68584" cy="268.0195" r="220.27922" fill="#fff"/>
  <path d="m256,0C114.61511,0,0,114.61523,0,256s114.61511,256,256,256,256-114.61523,256-256S397.38489,0,256,0Zm140.25,313c0,15.75-9,30.75-23.25,38.25l-98.25,50.25c-6,3-12.75,4.5-19.5,4.5s-13.5-1.5-19.5-4.5l-97.5-50.25c-14.25-7.5-23.25-21.75-23.25-38.25v-23.25h36v23.25c0,2.25,1.5,4.5,3.75,6l83.25,42v-42c-28.5-8.25-48.75-33.75-48.75-64.5,0-36.75,30-67.5,67.5-67.5,36.75,0,67.5,30,67.5,67.5,0,30.75-21,57-48.75,64.5v42l81-42c2.25-.75,3.75-3,3.75-6v-23.25h36v23.25Zm.75-90.75h-36v-23.25c0-2.25-1.5-4.5-3.75-6l-98.25-50.25c-1.5-.75-3.75-.75-6,0l-98.25,50.25c-2.25.75-3.75,3-3.75,6v23.25h-36v-23.25c0-15.75,9-30.75,23.25-38.25l98.25-50.25c12-6,26.25-6,39,0l98.25,50.25c14.25,7.5,23.25,21.75,23.25,38.25v23.25Z" fill="#245ae5"/>
  <circle cx="256" cy="254.5" r="30.75" fill="#245ae5"/>
</svg>
