<svg xmlns="http://www.w3.org/2000/svg"
  viewBox="0 0 512 512">
  <rect width="512" height="512" fill="#000" />
  <polygon points="308.12893 109.41967 358.45141 109.41967 402.58035 244.90327 361.54817 274.32256 308.12893 109.41967"
    fill="#fff" stroke-width="0" />
  <polygon points="296.51605 109.80677 311.2257 156.64538 139.35507 156.64538 154.45182 109.03257 296.51605 109.80677"
    fill="#fff" stroke-width="0" />
  <polygon points="265.93546 167.87117 315.48375 167.87117 334.06436 222.0646 293.80638 251.4839 265.93546 167.87117"
    fill="#fff" stroke-width="0" />
  <polygon points="254.83871 167.48407 270.58062 215.48397 181.16144 215.48397 197.03238 167.48407 254.83871 167.48407"
    fill="#fff" stroke-width="0" />
  <polygon points="184.64531 167.74213 134.58089 167.74213 90.71001 302.45154 130.96799 332.1289 184.64531 167.74213"
    fill="#fff" stroke-width="0" />
  <polygon points="227.22586 226.0646 177.67758 225.80653 159.35503 280.25804 199.61302 310.70959 227.22586 226.0646"
    fill="#fff" stroke-width="0" />
  <polygon points="225.41942 268.90322 209.93558 316.387 255.87097 350.96757 296.64508 321.29021 225.41942 268.90322"
    fill="#fff" stroke-width="0" />
  <polygon points="157.54859 291.09672 141.29055 337.80631 255.87097 422.96743 296.12895 393.032 157.54859 291.09672"
    fill="#fff" stroke-width="0" />
  <polygon points="404.51583 254.7097 421.28999 302.7096 305.93538 386.83847 265.41934 356.64498 404.51583 254.7097"
    fill="#fff" stroke-width="0" />
  <polygon points="336.645 233.03232 352.12884 280.5161 305.67732 314.83861 265.16127 284.90319 336.645 233.03232"
    fill="#fff" stroke-width="0" />
</svg>