<svg xmlns="http://www.w3.org/2000/svg"
  xmlns:xlink="http://www.w3.org/1999/xlink" viewBox="0 0 512 512">
  <defs>
    <linearGradient id="grad" x1="88.72466" y1="88.72466" x2="425.7328" y2="425.7328"
      gradientUnits="userSpaceOnUse">
      <stop offset="0" stop-color="#000" />
      <stop offset="1" stop-color="#3f0c80" />
    </linearGradient>
  </defs>
  <rect x="0" y="0" width="512" height="512" fill="url(#grad)" />
  <path
    d="M132.77954,327.15482h-1.15894l.00141-70.94269h1.15894c14.57009,0,27.87282-5.9802,38.46993-17.29432,10.43401-11.13993,17.80485-26.89867,21.31538-45.57255.70946-3.77899,3.95011-6.52208,7.7053-6.52208h57.35877v71.461h-1.15894c-23.77563,0-41.33653,23.71128-50.77069,36.44998-18.59822,25.11771-30.42475,32.42067-72.92116,32.42067Z"
    fill="#fff" />
  <path
    d="M312.6684,327.16496h-57.35854v-71.46217h1.15894c23.78081,0,41.33794-23.71128,50.77046-36.44998,18.60011-25.11677,30.42687-32.41925,72.92116-32.41925h1.15894l-.00141,70.94128h-1.15894c-14.56962,0-27.87187,5.98044-38.46923,17.29479-10.43425,11.14064-17.80485,26.89914-21.31467,45.57231v.00024c-.71111,3.77946-3.95223,6.52279-7.70671,6.52279Z"
    fill="#fff" />
</svg>