<svg xmlns="http://www.w3.org/2000/svg" viewBox="0 0 512 512">
  <rect width="512" height="512" fill="#000" />
  <path d="M276.29593 228.58224 382.9068 122.58298l-40.44428-40.21206-86.38915 85.89249-86.38915-85.89249-40.44428 40.21206 106.61173 105.99926c5.58391 5.55265 12.90322 8.32811 20.22171 8.32811s14.6378-2.77459 20.22257-8.32811Z" fill="#fff" />
  <path d="m430.63138 341.81878-86.38919-85.8917 86.38919-85.89431-40.44435-40.21232-106.61169 106.00038c-11.16782 11.10445-11.16782 29.10718 0 40.21164l106.61169 105.99967 40.44435-40.21248v-.00088Z" fill="#fff" />
  <path d="m255.92575 343.73651 86.38829 85.89258 40.44428-40.2125-106.61087-105.99883c-11.16954-11.10357-29.27646-11.10357-40.44428 0l-106.61087 105.99883 40.44342 40.2125 86.38915-85.89258h.00086Z" fill="#fff" />
  <path d="M228.42377 276.18003c5.36342-5.33214 8.37674-12.56467 8.37674-20.10625 0-7.5407-3.01333-14.77322-8.37674-20.10537L121.8129 129.9688l-40.44428 40.21241 86.39002 85.8917-86.39002 85.8943 40.44428 40.21251 106.61087-106.00057v.00088Z" fill="#fff" />
</svg>
