<svg xmlns="http://www.w3.org/2000/svg" viewBox="0 0 512 512">
  <rect width="512" height="512" fill="#0055d5" />
  <path
    d="m139.264,170.12431s-27.5456-21.8242-29.44,32.0765c-1.8944,41.77049-1.8432,122.8753,17.664,161.19453,8.2432,14.41413,19.2512,9.99853,39.7312-4.36483,17.81759-13.04377,82.27839-71.91835,109.56798-97.75211,27.28959-25.83376,82.63681-99.93452,94.15681-49.5866,4.55681,21.1644,10.18881,39.1313,5.888,86.07872-1.33119,14.46488-7.57759,25.42772-36.04481,5.8367-21.504-13.70357-41.93281-28.42221-41.93281-28.42221,0,0-3.94241-7.00404-13.26081,4.36483-7.32159,9.08497-11.008,11.31812.71681,18.22068,11.776,6.90252,71.32159,47.6072,94.15681,53.95144,18.84159,5.43068,29.59359,5.32916,30.15681-31.36593-.10241-29.13278-1.792-112.52151-12.49281-148.04927-8.08959-22.12872-19.968-32.178-45.61919-7.30857-25.65119,24.86943-106.5472,102.62448-150.784,137.8477-29.33759,21.8242-41.88159,41.51672-52.9408,5.12614-7.78241-27.55939-17.8688-113.33356,13.97759-96.9908,19.9168,9.44024,29.84959,9.38948,22.0672,15.3277-7.78241,5.88746-30.1568,26.2398-30.1568,26.2398,0,0-6.912,5.53218-3.68641,17.5101,3.22559,8.3744,3.22559,12.53623,20.58241-3.65429s30.1568-28.42221,30.1568-28.42221c0,0,2.7648-4.31409,11.008,3.65429,8.2432,7.96838,9.57441,10.20155,9.57441,10.20155,0,0,2.20159,5.93822,11.008-4.36484,8.85759-10.30305,14.5408-16.59655-2.20159-26.2398-16.69122-9.74473-91.85281-51.1092-91.85281-51.1092h0Z"
    fill="#fff"
    fill-rule="evenodd"
  />
</svg>
