<svg xmlns="http://www.w3.org/2000/svg" viewBox="0 0 56 56">
  <rect x="0" y="0" width="56" height="56" fill="#2E0700"/>
  <g transform="translate(2.66,2.66) scale(0.9051)">
  <path d="M28 11c.02 0 .04 0 .06.02l16.92 16.92.02.06c0 .02 0 .04-.02.06L28.06 44.98a.08.08 0 0 1-.12 0L11.02 28.06a.08.08 0 0 1 0-.12l16.92-16.92A.08.08 0 0 1 28 11Zm0 4.25-.04.02-12.69 12.69a.06.06 0 0 0 0 .08l12.7 12.69a.06.06 0 0 0 .07 0l12.7-12.69a.06.06 0 0 0 0-.08l-12.7-12.69a.06.06 0 0 0-.04-.02Zm.02 4.26.02.02 8.43 8.43a.06.06 0 0 1 0 .08l-8.43 8.43a.06.06 0 0 1-.08 0l-8.43-8.43a.06.06 0 0 1 0-.08l8.43-8.43a.06.06 0 0 1 .06-.02Zm.02 4.28a.06.06 0 0 0-.08 0l-4.17 4.17a.06.06 0 0 0 0 .08l4.17 4.18c.02.02.06.02.08 0l4.17-4.18a.06.06 0 0 0 0-.08l-4.17-4.17Z" fill="#D5FF2A"/>
  </g>
</svg>
