<svg xmlns="http://www.w3.org/2000/svg" xmlns:xlink="http://www.w3.org/1999/xlink" viewBox="0 0 100 100">
  <rect width="100" height="100" fill="#FF5000"/>
  <g transform="translate(10 10) scale(0.15625 0.15625)">
<path d="m256,0C114.61523,0,0,114.61523,0,256s114.61523,256,256,256,256-114.61523,256-256S397.38477,0,256,0Z" fill="#FF5000"/><path d="m412.48927,352.55971L262.27907,92.94312c-1.28912-2.24545-3.67905-3.63159-6.26811-3.6352-2.58906.0036-4.97898,1.38974-6.26781,3.6352L99.50171,352.55971c-1.29904,2.24966-1.29904,5.02133,0,7.27069l.04505-.02613c1.30294,2.1989,3.66283,3.5574,6.22275,3.56762h300.42041c2.56203.0009,4.92762-1.3504,6.23897-3.54509l.06037.03514c1.31105-2.25777,1.31105-5.04476,0-7.30223Zm-156.47831-157.88848v.03124l64.64359,111.75696h-129.33644l64.69285-111.7882Z" fill="#fff"/>
  </g>
</svg>
