<svg xmlns="http://www.w3.org/2000/svg" fill="none" viewBox="11.1 11.1 41.8 41.8">
  <rect width="64" height="64" fill="#F0B90B"/>

  <path fill="white" fill-rule="evenodd" clip-rule="evenodd" d="M17.7955 18.7156C14.5238 22.2115 12.5208 26.9095 12.5208 32.0753C12.5208 36.9953 14.3377 41.4909 17.3371 44.9278L18.6015 43.6635C15.951 40.5585 14.3508 36.5299 14.3508 32.1275C14.3508 27.4526 16.1552 23.1992 19.1056 20.0257L17.7955 18.7156ZM44.2304 45.1505C41.0569 48.1009 36.8034 49.9053 32.1286 49.9053C27.5131 49.9053 23.3084 48.1464 20.1483 45.2624L18.8922 46.5185C22.3691 49.694 26.9965 51.6309 32.0763 51.6309C37.2421 51.6309 41.9402 49.6279 45.436 46.3561L44.2304 45.1505ZM46.972 44.7463L45.7627 43.537C48.3491 40.4495 49.9063 36.4703 49.9063 32.1275C49.9063 27.5121 48.1475 23.3074 45.2635 20.1472L46.5195 18.8912C49.695 22.3681 51.6319 26.9955 51.6319 32.0753C51.6319 36.9092 49.878 41.3334 46.972 44.7463ZM20.7191 18.4934L19.4053 17.1797C22.8183 14.2736 27.2425 12.5198 32.0763 12.5198C36.9963 12.5198 41.4919 14.3367 44.9288 17.3361L43.6645 18.6004C40.5596 15.9499 36.5309 14.3497 32.1285 14.3497C27.7857 14.3497 23.8066 15.9069 20.7191 18.4934Z"/>
  <mask id="m1" maskUnits="userSpaceOnUse" style="mask-type:luminance" x="22" y="23" width="20" height="18">
    <path fill="white" d="M41.4247 23.5557H22.575V40.4446H41.4247V23.5557Z"/>
  </mask>
  <g mask="url(#m1)">
    <path fill="#0B0E11" d="M41.3276 36.8713L38.2159 40.2145C38.1483 40.2872 38.0664 40.345 37.9755 40.3846C37.8846 40.4242 37.7864 40.4446 37.6873 40.4446H22.9362C22.8658 40.4446 22.797 40.424 22.7381 40.3853C22.6792 40.3466 22.6329 40.2916 22.6049 40.2269C22.5768 40.1622 22.5682 40.0908 22.5802 40.0213C22.5921 39.9518 22.6241 39.8873 22.6721 39.8357L25.7861 36.4926C25.8536 36.4201 25.9352 36.3623 26.0258 36.3228C26.1165 36.2832 26.2143 36.2627 26.3132 36.2625H41.0635C41.1338 36.2625 41.2027 36.2831 41.2615 36.3218C41.3204 36.3605 41.3667 36.4155 41.3948 36.4802C41.4228 36.5449 41.4314 36.6164 41.4195 36.6858C41.4075 36.7553 41.3756 36.8198 41.3276 36.8713ZM38.2159 30.1391C38.1483 30.0665 38.0664 30.0086 37.9755 29.969C37.8846 29.9295 37.7864 29.909 37.6873 29.9091H22.9362C22.8658 29.9091 22.797 29.9297 22.7381 29.9684C22.6792 30.007 22.6329 30.0621 22.6049 30.1267C22.5768 30.1914 22.5682 30.2629 22.5802 30.3324C22.5921 30.4019 22.6241 30.4663 22.6721 30.5179L25.7861 33.8611C25.8536 33.9335 25.9352 33.9913 26.0258 34.0309C26.1165 34.0705 26.2143 34.0909 26.3132 34.0911H41.0635C41.1338 34.0911 41.2027 34.0705 41.2615 34.0318C41.3204 33.9932 41.3667 33.9381 41.3948 33.8734C41.4228 33.8088 41.4314 33.7373 41.4195 33.6678C41.4075 33.5983 41.3756 33.5339 41.3276 33.4823L38.2159 30.1391ZM22.9362 27.7377H37.6873C37.7864 27.7377 37.8846 27.7173 37.9755 27.6778C38.0664 27.6382 38.1483 27.5803 38.2159 27.5077L41.3276 24.1645C41.3756 24.1129 41.4075 24.0484 41.4195 23.9789C41.4314 23.9095 41.4228 23.838 41.3948 23.7733C41.3667 23.7086 41.3204 23.6536 41.2615 23.6149C41.2027 23.5763 41.1338 23.5557 41.0635 23.5557H26.3132C26.2143 23.5558 26.1165 23.5763 26.0258 23.6159C25.9352 23.6555 25.8536 23.7132 25.7861 23.7857L22.6729 27.1289C22.6249 27.1804 22.593 27.2448 22.581 27.3142C22.5691 27.3836 22.5776 27.455 22.6055 27.5197C22.6335 27.5843 22.6797 27.6393 22.7384 27.6781C22.7971 27.7168 22.8659 27.7375 22.9362 27.7377Z"/>
  </g>
</svg>
