<svg viewBox="0 0 250 250" xmlns="http://www.w3.org/2000/svg">
  <path d="M0 0 C82.5 0 165 0 250 0 C250 82.5 250 165 250 250 C167.5 250 85 250 0 250 C0 167.5 0 85 0 0 Z " fill="#191d1f" transform="translate(0,0)"/>
  <path d="M0 0 C8.67 -0.12 17.34 -0.21 26.01 -0.26 C30.03 -0.28 34.06 -0.32 38.09 -0.38 C64.12 -0.74 88.79 -0.5 108.85 18.68 C118.52 29.1 123.4 41.99 123.38 56.12 C123.37 56.54 123.37 56.54 123.37 58.62 C123.21 67.32 121.48 75.42 117.3 83.14 C116 86 116 86 116.05 88.09 C117.36 90.73 119.17 92.48 121.25 94.56 C132.44 106.64 133.59 120.63 133.31 136.34 C132.8 149.29 127.62 161.44 118.02 170.35 C100.44 184.71 78.95 187.52 57.03 187.29 C55.37 187.29 53.71 187.28 52.06 187.28 C47.75 187.27 43.44 187.24 39.13 187.21 C34.72 187.17 30.3 187.16 25.88 187.15 C17.25 187.11 8.63 187.06 0 187 C0 184.69 0 182.38 0 180 C0.81 179.99 1.61 179.99 2.45 179.98 C10.15 179.92 17.86 179.85 25.56 179.76 C29.52 179.72 33.48 179.68 37.44 179.65 C95.25 179.25 95.25 179.25 112.19 164.04 C117.56 158.41 120.85 152.06 124 145 C123.84 145.31 123.84 145.31 123 146.91 C116.94 157.82 108.68 164.55 97 169 C93.01 170.02 89.09 170.6 85 171 C84.63 171.04 84.63 171.04 82.73 171.26 C74.59 172.12 66.49 172.11 58.31 172.06 C56.92 172.06 55.52 172.05 54.13 172.05 C50.75 172.04 47.38 172.02 44 172 C44 169.36 44 166.72 44 164 C45.21 163.99 46.42 163.97 47.67 163.96 C52.21 163.9 56.75 163.82 61.29 163.74 C63.24 163.7 65.2 163.68 67.15 163.65 C98.37 163.28 98.37 163.28 110.14 151.94 C112.8 149 114.74 146.79 116 143 C115.62 143.53 115.24 144.06 114.86 144.61 C107.5 154.05 97.38 155.55 86 157 C82.24 157.24 78.49 157.26 74.72 157.23 C73.67 157.23 72.61 157.23 71.53 157.23 C68.09 157.23 64.64 157.21 61.2 157.2 C58.8 157.19 56.39 157.19 53.99 157.19 C47.7 157.18 41.4 157.16 35.11 157.14 C28.68 157.12 22.24 157.11 15.8 157.1 C3.2 157.08 -9.4 157.04 -22 157 C-22 155.35 -22 153.7 -22 152 C-20.7 151.99 -19.39 151.99 -18.05 151.98 C-5.69 151.92 6.67 151.85 19.02 151.76 C25.38 151.72 31.73 151.68 38.08 151.65 C44.22 151.63 50.36 151.59 56.5 151.54 C58.83 151.52 61.16 151.51 63.49 151.5 C98.21 151.4 98.21 151.4 107.52 144.5 C111.49 140.48 113.19 136.05 113.5 130.44 C113.18 124.87 111.23 121.12 107.26 117.34 C94.11 107.24 74.15 109.46 58.56 109.31 C56.17 109.28 53.79 109.24 51.4 109.21 C45.6 109.12 39.8 109.06 34 109 C34 107.35 34 105.7 34 104 C41.04 103.97 48.09 103.96 55.13 103.95 C57.52 103.94 59.91 103.93 62.31 103.92 C65.76 103.91 69.22 103.91 72.67 103.9 C73.2 103.9 73.2 103.9 75.86 103.89 C101.45 103.88 101.45 103.88 111.31 113.18 C112.97 115.06 114.53 116.96 116 119 C110.46 108.15 102.9 102.87 91.56 98.75 C81.83 96.7 71.83 96.81 61.93 96.68 C60.51 96.66 59.09 96.64 57.67 96.62 C53.97 96.57 50.27 96.52 46.58 96.47 C42.79 96.42 39 96.36 35.21 96.31 C27.81 96.2 20.4 96.1 13 96 C13 93.69 13 91.38 13 89 C21.44 88.93 29.88 88.88 38.33 88.84 C42.25 88.83 46.17 88.81 50.09 88.77 C53.89 88.74 57.69 88.72 61.49 88.72 C62.93 88.71 64.36 88.7 65.79 88.68 C73.71 88.6 81.31 89 89.11 90.35 C89.81 90.47 90.5 90.59 91.21 90.71 C102.16 92.79 110.22 98.26 118 106 C112.57 96.95 105.77 91.01 96 87 C95.28 86.7 94.56 86.41 93.82 86.1 C79.91 80.96 64.78 81.59 50.19 81.38 C48.03 81.34 45.87 81.3 43.72 81.26 C38.48 81.16 33.24 81.08 28 81 C28 78.36 28 75.72 28 73 C33.78 72.95 39.55 72.91 45.33 72.89 C47.28 72.88 49.24 72.87 51.2 72.85 C62.2 72.75 72.97 72.86 83.87 74.56 C88.88 75.25 91.76 74.76 96 72 C101.3 66.41 102.49 61.17 102.3 53.65 C101.67 48.13 98.45 45.2 94.38 41.81 C81.99 33.05 64.84 34.77 50.38 34.44 C48.59 34.39 46.8 34.35 45.02 34.31 C40.68 34.2 36.34 34.1 32 34 C32 32.68 32 31.36 32 30 C39.06 29.9 46.12 29.83 53.19 29.78 C55.58 29.76 57.98 29.73 60.38 29.7 C63.84 29.65 67.31 29.63 70.77 29.61 C71.83 29.59 72.89 29.57 73.98 29.55 C85.04 29.54 93.63 32.8 102 40 C95.38 30.61 86.19 26.37 75.13 24.43 C69.73 23.69 64.34 23.64 58.89 23.59 C57.69 23.57 56.48 23.55 55.24 23.53 C51.43 23.47 47.62 23.42 43.81 23.38 C41.21 23.34 38.61 23.3 36.01 23.26 C29.68 23.16 23.34 23.08 17 23 C17 20.36 17 17.72 17 15 C23.95 14.92 30.9 14.87 37.86 14.84 C40.21 14.82 42.57 14.8 44.93 14.77 C86.61 14.32 86.61 14.32 103.07 28.39 C105 30 105 30 106 30 C94.13 15.39 80.46 10.21 62 8 C57.06 7.7 52.12 7.63 47.17 7.59 C45.8 7.57 44.43 7.55 43.05 7.53 C39.49 7.48 35.93 7.44 32.37 7.4 C28.71 7.36 25.06 7.31 21.4 7.26 C14.27 7.16 7.13 7.08 0 7 C0 4.69 0 2.38 0 0 Z " fill="#18c0b8" transform="translate(72,32)"/>
  <path d="M0 0 C8.44 -0.07 16.88 -0.12 25.33 -0.16 C29.25 -0.17 33.17 -0.19 37.09 -0.23 C40.89 -0.26 44.69 -0.28 48.49 -0.28 C49.93 -0.29 51.36 -0.3 52.79 -0.32 C60.71 -0.4 68.32 0 76.13 1.36 C76.47 1.42 76.47 1.42 78.23 1.72 C89.92 3.94 99.78 10.56 108 19 C112.67 26.66 113.3 34.28 113.12 43 C113.12 43.87 113.11 44.74 113.1 45.64 C113.07 47.76 113.04 49.88 113 52 C112.34 52 111.68 52 111 52 C110.96 52.8 110.92 53.61 110.88 54.44 C108.55 63.89 101.3 70.74 93.24 75.7 C86.28 79.46 79.83 81.22 72 82 C71.25 82.09 70.5 82.17 69.73 82.26 C61.59 83.12 53.49 83.11 45.31 83.06 C43.92 83.06 42.52 83.05 41.13 83.05 C37.75 83.04 34.38 83.02 31 83 C31 80.36 31 77.72 31 75 C31.6 74.99 31.6 74.99 34.67 74.96 C39.21 74.9 43.75 74.82 48.29 74.74 C50.24 74.7 52.2 74.68 54.15 74.65 C85.37 74.28 85.37 74.28 97.14 62.94 C99.8 60 101.74 57.79 103 54 C102.62 54.53 102.24 55.06 101.86 55.61 C94.5 65.05 84.38 66.55 73 68 C69.24 68.24 65.49 68.26 61.72 68.23 C60.67 68.23 59.61 68.23 58.53 68.23 C55.09 68.23 51.64 68.21 48.2 68.2 C45.8 68.19 43.39 68.19 40.99 68.19 C34.7 68.18 28.4 68.16 22.11 68.14 C15.68 68.12 9.24 68.11 2.8 68.1 C-9.8 68.08 -22.4 68.04 -35 68 C-35 66.35 -35 64.7 -35 63 C-34.35 63 -34.35 63 -31.05 62.98 C-18.69 62.92 -6.33 62.85 6.02 62.76 C12.38 62.72 18.73 62.68 25.08 62.65 C31.22 62.63 37.36 62.59 43.5 62.54 C45.83 62.52 48.16 62.51 50.49 62.5 C85.21 62.4 85.21 62.4 94.52 55.5 C98.49 51.48 100.19 47.05 100.5 41.44 C100.18 35.87 98.23 32.12 94.26 28.34 C81.11 18.24 61.15 20.46 45.56 20.31 C43.17 20.28 40.79 20.24 38.4 20.21 C32.6 20.12 26.8 20.06 21 20 C21 18.35 21 16.7 21 15 C28.04 14.97 35.09 14.96 42.13 14.95 C44.52 14.94 46.91 14.93 49.31 14.92 C52.76 14.91 56.22 14.91 59.67 14.9 C60.2 14.9 60.2 14.9 62.86 14.89 C88.45 14.88 88.45 14.88 98.31 24.18 C99.97 26.06 101.53 27.96 103 30 C97.46 19.15 89.9 13.87 78.56 9.75 C68.83 7.7 58.83 7.81 48.93 7.68 C47.51 7.66 46.09 7.64 44.67 7.62 C40.97 7.57 37.27 7.52 33.58 7.47 C29.79 7.42 26 7.36 22.21 7.31 C14.81 7.2 7.4 7.1 0 7 C0 4.69 0 2.38 0 0 Z " fill="#18c0b8" transform="translate(85,121)"/>
  <path d="M0 0 C7.04 -0.03 14.09 -0.04 21.13 -0.05 C23.52 -0.06 25.91 -0.07 28.31 -0.08 C31.76 -0.09 35.22 -0.09 38.67 -0.1 C39.2 -0.1 39.2 -0.1 41.86 -0.11 C67.25 -0.12 67.25 -0.12 77.5 9.29 C83.85 16.24 84.53 21.89 84.34 31.03 C83.89 36.27 82.58 39.24 79 43 C78.18 43.91 77.35 44.81 76.5 45.75 C66.88 53.13 52.75 53.16 41.18 53.11 C40.65 53.11 40.65 53.11 37.98 53.11 C34.52 53.11 31.06 53.11 27.59 53.1 C25.18 53.1 22.77 53.09 20.36 53.09 C14.04 53.09 7.71 53.08 1.39 53.07 C-5.08 53.06 -11.54 53.05 -18 53.05 C-30.67 53.04 -43.33 53.02 -56 53 C-56 51.35 -56 49.7 -56 48 C-55.35 48 -55.35 48 -52.05 47.98 C-39.69 47.92 -27.33 47.85 -14.98 47.76 C-8.62 47.72 -2.27 47.68 4.08 47.65 C10.22 47.63 16.36 47.59 22.5 47.54 C24.83 47.52 27.16 47.51 29.49 47.5 C64.21 47.4 64.21 47.4 73.52 40.5 C77.49 36.48 79.19 32.05 79.5 26.44 C79.18 20.87 77.23 17.12 73.26 13.34 C60.11 3.24 40.15 5.46 24.56 5.31 C22.17 5.28 19.79 5.24 17.4 5.21 C11.6 5.12 5.8 5.06 0 5 C0 3.35 0 1.7 0 0 Z " fill="#18c0b8" transform="translate(106,136)"/>
  <path d="M0 0 C6.95 -0.08 13.9 -0.13 20.86 -0.16 C23.21 -0.18 25.57 -0.2 27.93 -0.23 C50.41 -0.47 70.27 -0.25 88 15 C88.44 15.32 88.44 15.32 90.65 16.94 C93.23 19.2 94.1 20.8 95.25 24 C95.56 24.85 95.88 25.69 96.2 26.56 C99.69 37.22 100.11 51.99 95.17 62.16 C93.88 64.19 92.48 66.1 91 68 C87.08 67.22 83.64 65.61 80 64 C80.4 63.56 80.8 63.13 81.21 62.68 C87.71 55.37 90.46 48.85 90.34 39.08 C89.48 31.27 86.05 23.77 80.14 18.53 C68.28 10.05 56.1 8.73 41.89 8.59 C40.69 8.57 39.48 8.55 38.24 8.53 C34.43 8.47 30.62 8.42 26.81 8.38 C24.21 8.34 21.61 8.3 19.01 8.26 C12.68 8.16 6.34 8.08 0 8 C0 5.36 0 2.72 0 0 Z " fill="#18c0b8" transform="translate(89,47)"/>
  <path d="M0 0 C7.06 -0.1 14.12 -0.17 21.19 -0.22 C23.58 -0.24 25.98 -0.27 28.38 -0.3 C31.84 -0.35 35.31 -0.37 38.77 -0.39 C39.83 -0.41 40.89 -0.43 41.98 -0.45 C52.5 -0.46 62.39 2.42 70 10 C75.42 17.12 76.65 23.13 76 32 C74.79 38.11 72.57 42.75 68 47 C64.69 47.88 64.69 47.88 62 48 C61.67 47.34 61.34 46.68 61 46 C61.48 45.41 61.96 44.82 62.46 44.21 C62.78 43.81 62.78 43.81 64.38 41.81 C65 41.04 65.63 40.26 66.27 39.46 C70.39 33.6 70.8 27.98 70 21 C67.21 14.85 61.78 10.59 55.61 7.99 C43.68 4.13 30.78 4.72 18.38 4.44 C16.59 4.39 14.8 4.35 13.02 4.31 C8.68 4.2 4.34 4.1 0 4 C0 2.68 0 1.36 0 0 Z " fill="#18c0b8" transform="translate(104,62)"/>
  <path d="M0 0 C14.85 0 29.7 0 45 0 C45 1.65 45 3.3 45 5 C30.15 5 15.3 5 0 5 C0 3.35 0 1.7 0 0 Z " fill="#18c0b8" transform="translate(62,198)"/>
  <path d="M0 0 C15.51 0 31.02 0 47 0 C47 1.32 47 2.64 47 4 C31.49 4 15.98 4 0 4 C0 2.68 0 1.36 0 0 Z " fill="#18c0b8" transform="translate(63,167)"/>
  <path d="M0 0 C17.16 0 34.32 0 52 0 C52 0.99 52 1.98 52 3 C34.84 3 17.68 3 0 3 C0 2.01 0 1.02 0 0 Z " fill="#18c0b8" transform="translate(97,153)"/>
  <path d="M0 0 C10.89 0 21.78 0 33 0 C33 0.99 33 1.98 33 3 C22.11 3 11.22 3 0 3 C0 2.01 0 1.02 0 0 Z " fill="#18c0b8" transform="translate(115,90)"/>
  <path d="M0 0 C6.32 0.4 10.65 2.71 16 6 C15.01 7.65 14.02 9.3 13 11 C11.42 10.38 9.83 9.75 8.25 9.12 C7.37 8.78 6.49 8.43 5.58 8.07 C3.33 7.14 1.16 6.12 -1 5 C-0.01 5 0.98 5 2 5 C2.33 3.68 2.66 2.36 3 1 C2.01 0.67 1.02 0.34 0 0 Z " fill="#18c0b8" transform="translate(165,137)"/>
  <path d="M0 0 C3.63 0 7.26 0 11 0 C11 2.31 11 4.62 11 7 C7.37 7 3.74 7 0 7 C0 4.69 0 2.38 0 0 Z " fill="#18c0b8" transform="translate(51,212)"/>
</svg>
