<svg xmlns="http://www.w3.org/2000/svg" xmlns:xlink="http://www.w3.org/1999/xlink" viewBox="0 0 100 100">
  <rect width="100" height="100" fill="#111111"/>
  <g transform="translate(10 10) scale(0.15625 0.15625)">
    <path d="M512,249.66185v15.72643c-.6692.57065-.36901,6.33523-.59432,9.47013-2.52265,35.09832-12.32334,69.03408-28.68011,100.21737-41.33614,78.80513-121.03342,130.82303-209.8543,136.59783-1.00751.0655-1.72796.08866-2.14782.37131h-29.38359c-36.52301-2.49718-71.96816-12.14052-104.66393-29.42759-43.53378-23.01739-79.18547-57.70726-103.43044-100.39823C-6.16047,312.8324-10.86655,228.42982,20.89748,155.14715c6.45785-14.89888,14.27238-29.29901,23.54714-42.91249,18.52151-27.18583,42.24382-50.64925,69.58325-68.92478C144.72356,22.79078,179.2295,9.35306,215.65112,3.35493c22.13336-3.64506,44.33716-4.40959,66.67201-2.04924,32.33969,3.41766,63.43993,12.858,92.185,27.92829,79.0457,41.44161,130.99293,121.09199,136.84364,210.28975.22969,3.5017.08526,6.89146.64822,10.13812ZM329.64819,467.33446c64.21931-22.29775,114.90858-72.8903,137.44483-136.77556,16.70287-47.34891,16.99616-99.26693.77997-146.7733-21.86694-64.06062-71.98151-115.0914-135.57211-138.1903-49.04606-17.81569-103.20529-17.84606-152.27812-.08296-63.58591,23.01646-113.73372,73.95934-135.69082,137.95722-16.38523,47.75771-16.06108,100.03874.8844,147.58616,22.7976,63.96792,73.7772,114.44854,138.02826,136.52918,47.22984,16.23109,98.92564,16.2345,146.40359-.25043Z"/><path d="M329.64819,467.33446c-47.47795,16.48494-99.17374,16.48153-146.40359.25043-64.25106-22.08063-115.23066-72.56126-138.02826-136.52918-16.94548-47.54742-17.26963-99.82846-.8844-147.58616,21.95709-63.99789,72.1049-114.94077,135.69082-137.95722,49.07283-17.76309,103.23206-17.73272,152.27812.08296,63.5906,23.09891,113.70517,74.12968,135.57211,138.1903,16.21619,47.50638,15.9229,99.42439-.77997,146.7733-22.53625,63.88526-73.22552,114.47781-137.44483,136.77556ZM306.24461,454.61422c-42.09035.89837-88.78262-9.37618-123.49204-32.39404-45.11017-29.91522-72.24596-80.87336-72.16777-134.85716.07383-50.97474,25.02974-98.37979,67.25087-127.04051,26.57075-18.08333,58.31756-27.46866,90.82847-26.97197l-.02438-34.92605c-20.65346-.29559-40.25587,2.46046-59.16065,8.13352-76.84947,23.31137-130.72331,93.21385-133.62339,173.59797-1.38061,38.26743,10.22772,78.56939,31.66219,110.73966,6.16261,9.24926,12.89032,18.63713,21.53412,25.63763,36.71389,29.7341,82.98017,44.65352,130.01604,44.04724,15.69085-.20225,32.68504-1.67593,47.17654-5.96628ZM372.63156,422.58007l-16.58858,2.66842c-9.74508,1.56758-19.12321,1.82892-29.07402,1.7314-19.46323-.19074-38.49196-2.01696-57.50306-6.38074-32.74487-7.5162-63.72777-24.45621-85.47846-50.2937-13.27442-15.76859-22.59365-34.37773-26.84051-54.53566-7.76621-36.86271,2.86886-75.27851,28.66292-102.63355,23.4889-24.91036,57.34241-37.79642,91.5618-35.03554,12.57344.98939,24.44197,3.92606,36.0445,8.5398l14.66727-31.20277c-14.15139-6.01567-28.41115-9.69409-43.00256-11.17844-72.2215-8.13947-139.77829,37.44463-159.32896,107.27926-10.27994,36.71974-6.27287,76.52955,11.9592,110.6023,10.94403,20.45261,26.66694,38.01432,45.65498,51.32211,16.97319,11.89568,32.91915,20.11389,53.05875,25.33689,14.91779,3.86878,29.74571,6.75536,45.1619,8.01298,13.45403,1.09755,26.77398,2.32781,40.20283,1.29226,18.42893-5.29007,36.10642-14.31816,51.86121-25.42341-.12391-.0371-.82464-.13291-1.0192-.10161ZM378.50814,387.94976c-29.65888,2.64545-68.63089,1.01593-97.20456-6.56322-20.02227-5.31089-38.44993-14.97555-53.71476-28.9539-20.73532-18.98781-32.68303-44.36722-27.04776-72.62427,5.82395-29.20316,29.29388-51.5919,57.93046-56.60665,30.33248-5.31174,60.16787,8.91878,75.40964,35.65896l31.19613-15.4958c-5.50897-10.50849-12.5946-19.40772-21.03365-27.31938-32.08118-30.07629-79.3329-37.45351-119.22324-18.28949-37.35442,17.94572-61.68303,56.79168-60.26745,99.26927.60331,18.10361,6.01868,35.7999,15.59062,51.47717,7.99692,13.09765,17.98053,24.55236,29.86554,34.31808,16.45417,13.52011,35.26713,23.73754,55.66226,29.92664,25.37118,7.69913,60.10901,9.04351,86.56353,7.42415,10.63822-.6512,21.43895-1.48515,31.50695-4.64553,11.93729-8.64126,21.95219-19.41137,31.49196-30.8518l-36.72566,3.27577Z" fill="#fff"/><path d="M372.63156,422.58007c.19456-.0313.89529.06452,1.0192.10161-15.75479,11.10526-33.43228,20.13335-51.86121,25.42341-13.42885,1.03555-26.7488-.19471-40.20283-1.29226-15.41619-1.25762-30.2441-4.1442-45.1619-8.01298-20.13959-5.223-36.08556-13.44121-53.05875-25.33689-18.98804-13.30779-34.71095-30.86951-45.65498-51.32211-18.23207-34.07275-22.23914-73.88257-11.9592-110.6023,19.55068-69.83463,87.10746-115.41873,159.32896-107.27926,14.59141,1.48435,28.85116,5.16277,43.00256,11.17844l-14.66727,31.20277c-11.60253-4.61374-23.47106-7.55041-36.0445-8.5398-34.21938-2.76088-68.0729,10.12518-91.5618,35.03554-25.79407,27.35503-36.42913,65.77083-28.66292,102.63355,4.24686,20.15794,13.56609,38.76707,26.84051,54.53566,21.75069,25.83749,52.73359,42.77751,85.47846,50.2937,19.0111,4.36377,38.03983,6.19,57.50306,6.38074,9.9508.09752,19.32894-.16382,29.07402-1.7314l16.58858-2.66842Z"/><path d="M378.50814,387.94976l36.72566-3.27577c-9.53977,11.44043-19.55467,22.21054-31.49196,30.8518-10.068,3.16038-20.86873,3.99434-31.50695,4.64553-26.45452,1.61936-61.19235.27498-86.56353-7.42415-20.39513-6.1891-39.20809-16.40653-55.66226-29.92664-11.88501-9.76571-21.86862-21.22043-29.86554-34.31808-9.57194-15.67727-14.98732-33.37356-15.59062-51.47717-1.41558-42.47759,22.91303-81.32355,60.26745-99.26927,39.89034-19.16402,87.14206-11.7868,119.22324,18.28949,8.43906,7.91166,15.52469,16.81089,21.03365,27.31938l-31.19613,15.4958c-15.24177-26.74018-45.07717-40.9707-75.40964-35.65896-28.63658,5.01476-52.10651,27.4035-57.93046,56.60665-5.63527,28.25705,6.31244,53.63646,27.04776,72.62427,15.26483,13.97835,33.69249,23.64301,53.71476,28.9539,28.57367,7.57915,67.54568,9.20866,97.20456,6.56322Z"/><path d="M306.24461,454.61422c-14.4915,4.29035-31.48569,5.76403-47.17654,5.96628-47.03587.60628-93.30215-14.31314-130.01604-44.04724-8.64379-7.0005-15.37151-16.38837-21.53412-25.63763-21.43447-32.17028-33.0428-72.47224-31.66219-110.73966,2.90008-80.38412,56.77392-150.2866,133.62339-173.59797,18.90478-5.67307,38.50718-8.42911,59.16065-8.13352l.02438,34.92605c-32.51091-.49669-64.25772,8.88864-90.82847,26.97197-42.22113,28.66072-67.17703,76.06577-67.25087,127.04051-.07819,53.9838,27.0576,104.94194,72.16777,134.85716,34.70942,23.01787,81.40168,33.29242,123.49204,32.39404Z"/>
  </g>
</svg>
