<svg xmlns="http://www.w3.org/2000/svg"
  viewBox="0 0 512 512">
  <rect x="0" y="0" width="512" height="512" fill="#0b0609" />
  <path
    d="m244.1758,226.05488c-2.97678,2.71245-5.85755,5.54327-8.98675,8.06792-.98663.79604-2.63842,1.07708-3.98646,1.0788-41.43509.05295-82.87031.01551-124.30532.0952-2.98596.00574-4.05763-1.00317-3.73801-3.86646.14418-1.29164-.29582-2.7292.12486-3.88504.38067-1.04596,1.5114-1.87084,2.43883-2.64052.31195-.25889,1.01531-.05257,1.53977-.05259,44.5821-.00176,89.16418-.00292,133.74628-.0041.77349-.00002,1.54698,0,2.3205,0,.28209.40226.56421.80453.8463,1.20679Z"
    fill="#f46825" />
  <path
    d="m245.00963,189.98948c-1.37963,0-2.75928.00019-4.13891-.00002-44.0635-.0071-88.12699-.01255-132.1905-.02371-4.91477-.00125-7.5564-4.33179-5.26805-8.73707.28943-.55717,1.15892-1.01785,1.82668-1.13137,1.14937-.19539,2.35145-.09645,3.53142-.09679,40.12927-.01167,80.25902.0702,120.3872-.14209,5.13514-.02716,9.11038,1.02582,12.30081,5.11684,1.09014,1.39787,2.83694,2.28663,4.2837,3.40801-.24413.5354-.48823,1.0708-.73236,1.6062Z"
    fill="#f46825" />
  <path
    d="m246.10923,165.52264c-3.35542,3.17244-5.99175,5.88799-8.89337,8.28411-.97983.80914-2.63158,1.13034-3.97686,1.13185-42.07979.04718-84.1597-.00423-126.23936.07827-3.28983.00644-4.25695-1.3052-3.80759-4.19955.36189-2.33096-1.58177-5.82821,3.33256-5.82239,45.75021.05408,91.50049.02735,137.25076.03504.37414.00006.74826.15116,2.33386.49267Z"
    fill="#f46825" />
  <path
    d="m244.22623,129.94029c-1.99792.09255-3.25854.20184-4.51915.20198-43.67603.00493-87.35208.01018-131.02806-.04345-1.7333-.00213-4.76634-.22898-4.96147-.95097-.65509-2.42388-.4062-5.12721-.22609-7.70433.0314-.44924,1.36809-1.01095,2.16815-1.15504,1.14524-.20627,2.35147-.08733,3.53165-.08753,39.4789-.0068,78.96131.26311,118.43381-.24028,8.2038-.10462,11.65028,4.75529,16.60116,9.97963Z"
    fill="#f46825" />
  <path
    d="m276.5875,224.84698c1.28753,0,2.57506-.0001,3.86258,0,38.81527.00304,77.63053-.00597,116.44571.05273,1.57226.00238,4.40584.44033,4.50039,1.02266.44947,2.76792.25441,5.66555-.00531,8.49011-.03282.35677-1.79966.79145-2.76358.79253-36.84822.04123-73.69649.04817-110.54464-.01827-1.18036-.00213-2.61545-.53303-3.49195-1.31048-2.92248-2.59226-5.64447-5.40931-8.4433-8.14021.14669-.29636.29338-.59271.4401-.88907Z"
    fill="#f46825" />
  <path
    d="m229.32316,239.78186c-5.12319,5.84605-9.11045,10.3637-17.54876,10.21671-34.34572-.59823-68.70803-.24623-103.06422-.25214-4.92161-.00086-7.58863-4.37031-5.29419-8.7646.29014-.55566,1.16173-.99521,1.83395-1.12336,1.01344-.19319,2.0886-.07158,3.13752-.07165,38.68351-.00252,77.36702-.00364,116.05053-.00495,1.3046-.00005,2.60921-.00001,4.88518-.00001Z"
    fill="#f46825" />
  <path
    d="m229.35785,115.17903c-2.13207,0-3.3036.00007-4.47513-.00001-38.96549-.00265-77.93101.0083-116.89639-.0583-1.54029-.00263-4.27157-.50863-4.40576-1.18369-.49459-2.48806-.3677-5.18963.09387-7.70728.10516-.57364,2.48435-1.02913,3.81973-1.03665,14.43124-.08125,28.86306-.06846,43.29471-.06868,20.20433-.0003,40.42702.51217,60.60425-.22216,8.49897-.3093,12.8162,4.125,17.96472,10.27677Z"
    fill="#f46825" />
  <path
    d="m291.54372,239.78218c1.1492,0,2.29837-.00006,3.44757,0,34.08291.00168,68.16599.05199,102.24847-.06766,3.53145-.0124,4.91788.82697,4.75146,4.55182-.14907,3.33621-.10808,5.60331-4.67961,5.577-31.06687-.17885-62.13549-.04739-93.20257-.20557-2.08123-.01059-4.39255-1.23779-6.17451-2.49454-2.5382-1.79009-4.68516-4.13172-6.99925-6.23777.20282-.37443.40562-.74886.60844-1.12329Z"
    fill="#f46825" />
  <path
    d="m320.86791,220.31106c-16.37227,0-31.51153.04235-46.64885-.10758-.88751-.00879-2.40102-1.47828-2.53714-2.4235-1.07591-7.47303-.64357-7.87778,6.96724-7.87821,8.89399-.0005,17.79255.1661,26.67972-.079,3.59094-.09902,6.23369.87195,8.52915,3.60531,1.82989,2.17896,4.06166,4.02236,7.00987,6.88298Z"
    fill="#f46825" />
  <path
    d="m208.0842,220.32115c1.9154-3.37105,3.55883-6.49518,5.47082-9.44633.41671-.6432,1.79194-.93075,2.72866-.93687,9.67431-.06325,19.34961.01341,29.02366-.06625,2.42892-.02001,3.31844,1.01868,3.1753,3.2824-.04104.64902.00247,1.30318.00185,1.95497q-.00509,5.2012-5.12772,5.2106c-11.75873.00468-23.51748.00147-35.27257.00147Z"
    fill="#f46825" />
  <path
    d="m121.08059,220.31362c-4.97821,0-9.95759-.06265-14.93412.02869-2.20596.04048-3.01587-.81925-2.99258-3.00553.0952-8.93299-.67935-7.3258,7.19292-7.41223,8.25242-.09061,16.50858.07369,24.75876-.09027,2.95158-.05866,4.09597.97001,3.77763,3.84949-.12844,1.16181-.10448,2.35521-.01187,3.52336.19083,2.40712-.91022,3.21171-3.24994,3.15656-4.8445-.11419-9.6936-.03445-14.54082-.03445v-.01561Z"
    fill="#f46825" />
  <path
    d="m210.00263,194.93512c4.50134,0,9.27807-.00133,14.05481.00032,6.92713.00241,13.8559.09463,20.78058-.0333,2.70459-.04997,3.66627.90909,3.70964,3.61244.10044,6.26474.217,6.39152-5.99698,6.53942-8.62055.20517-17.24708.15039-25.86934.3031-2.41993.04285-3.3218-.77841-3.7097-3.29886-.36486-2.37066-1.85302-4.56943-2.96901-7.12312Z"
    fill="#f46825" />
  <path
    d="m120.81367,205.00995c-4.70155,0-9.4051-.08226-14.10388.0314-2.74441.06638-3.81833-1.08163-3.55104-3.74866.1164-1.16139-.33131-2.50538.11503-3.4743.51444-1.11679,1.71734-2.70425,2.64908-2.72315,10.05966-.20402,20.12621-.21352,30.18612-.02453.93283.01753,1.98284,1.66538,2.68604,2.74549.35917.5517.07231,1.52348.07241,2.30539q.00068,5.19386-5.1133,5.20598c-4.31302.00653-8.62604.00134-12.93907.00134-.00047-.10632-.00093-.21265-.0014-.31897Z"
    fill="#f46825" />
  <path
    d="m121.09019,145.01456c-4.83611,0-9.6746-.09-14.50736.0371-2.50149.06579-3.69045-.75919-3.42302-3.36458.11915-1.16088.08461-2.34797.00852-3.51594-.13595-2.08716.6737-3.17919,2.88284-3.1978,9.93086-.08365,19.86166-.18922,29.79177-.33526,2.13531-.0314,3.17034.79428,3.02877,3.00007-.08329,1.2978-.1177,2.61641.01386,3.90661.28679,2.81278-1.04013,3.61912-3.68041,3.53813-4.70096-.14421-9.40958-.04053-14.11499-.04053v-.0278Z"
    fill="#f46825" />
  <path
    d="m208.03894,134.94725c3.65998,0,6.62421-.00114,9.58842.00022,8.78064.00401,17.56651.18879,26.33968-.06427,4.21395-.12154,4.61157,1.96428,4.59852,5.30582-.01254,3.21635-.39884,5.07248-4.4414,4.93673-8.90151-.29892-17.82073-.13894-26.73164-.0539-2.48424.02371-3.95437-.27749-4.60671-3.3022-.47014-2.17977-2.68289-3.98587-4.74687-6.8224Z"
    fill="#f46825" />
  <path
    d="m210.07412,160.16286c1.17411-2.96977,1.99649-5.46492,3.16065-7.78992.46487-.9284,1.67522-2.09813,2.5612-2.11073,10.05941-.14306,20.12263-.13851,30.18161.02431.8352.0135,2.20149,1.35575,2.38072,2.26494,1.26408,6.41273.22296,7.60202-6.20817,7.60746-9.5391.00806-19.07822.00327-28.61732.00393-1.26698.0001-2.53397.00001-3.45868.00001Z"
    fill="#f46825" />
  <path
    d="m289.8757,194.95809c4.31381.00183,8.64547.24389,12.93607-.07089,3.77762-.27716,4.9692,1.23004,4.47506,4.70547-.10902.76685-.06853,1.5656-.01048,2.34326.16257,2.17821-.88152,3.07985-3.00463,3.07497-9.93456-.0229-19.86924-.02174-29.8038-.00535-2.20046.00362-3.01756-1.12123-2.91979-3.19336.06134-1.30047.07007-2.60983-.00603-3.90889-.12872-2.19694.88659-3.00528,3.03962-2.97221,5.09691.07832,10.19587.02518,15.29398.02701Z"
    fill="#f46825" />
  <path
    d="m289.37594,189.97949c-4.72212,0-9.4465-.08729-14.16547.03399-2.66636.06851-3.69539-.87778-3.72257-3.63381-.06303-6.39298-.18766-6.39504,6.36673-6.39283,8.52607.00289,17.057.18182,25.57596-.06053,3.74001-.1064,4.0543,1.75158,3.85665,4.5823-.18122,2.59551.93114,5.76119-3.74794,5.50968-4.70845-.25309-9.44124-.05568-14.16336-.05568v.01689Z"
    fill="#f46825" />
  <path
    d="m289.22766,115.16393c-4.7195.00521-9.44133-.08302-14.15754.04144-2.45664.06483-3.7504-.66095-3.50521-3.31596.11976-1.29664-.34178-2.77483.14001-3.87457.49722-1.13503,1.80471-2.7017,2.78439-2.72079,9.95928-.19407,19.92556-.18732,29.88468.01727.97516.02002,2.32716,1.57808,2.76159,2.70651.48275,1.25387.03345,2.83932.13446,4.27027.16253,2.30267-1.00854,2.92575-3.09767,2.89458-4.98059-.0743-9.96301-.02395-14.94471-.01874Z"
    fill="#f46825" />
  <path
    d="m289.32389,174.96784c-4.85122,0-9.70358-.06186-14.55319.0267-2.34434.04281-3.67718-.9214-3.1551-3.2182.52331-2.30236-2.09745-6.43504,2.3612-6.60546,10.34193-.39532,20.71104-.16013,31.06586.01393.75083.01261,1.85032,1.49207,2.12039,2.47235.36862,1.33771.01805,2.85644.1163,4.28796.15171,2.21127-.85012,3.04481-3.00874,3.01607-4.98146-.06632-9.96438-.02106-14.94672-.02106v.02771Z"
    fill="#f46825" />
  <path
    d="m289.66687,160.1445c-4.8523,0-9.70925-.1321-14.55557.03753-4.7443.16608-3.34804-3.21501-3.56307-5.69669-.2282-2.63359.10524-4.47441,3.65265-4.39651,9.56899.21019,19.14597.14513,28.71847.05408,2.57912-.02453,3.3782.92387,3.39814,3.45309.05142,6.5121.16111,6.51546-6.24114,6.53011-3.80314.00871-7.60632.00159-11.40948.00159v.0168Z"
    fill="#f46825" />
  <path
    d="m120.9629,150.14048c4.72068,0,9.44677.13634,14.16008-.04956,2.97504-.11733,3.82835,1.04337,3.80431,3.89145-.05219,6.18299.07879,6.19169-6.2427,6.18678-8.52344-.00661-17.05349-.23259-25.56776.03902-4.89189.15607-3.74043-2.98583-3.9755-5.71672-.26504-3.07906.58694-4.57971,4.05651-4.38446,4.57497.25748,9.17551.06331,13.76505.06331v-.02983Z"
    fill="#f46825" />
  <path
    d="m289.63431,145.02186c-4.96505,0-9.93172-.07557-14.89439.03282-2.37341.05185-3.3756-.86728-3.19945-3.21303.08756-1.16608.08013-2.34791.00548-3.5156-.14554-2.27634.78714-3.37135,3.15827-3.36093,9.79911.04309,19.59861.0474,29.39772.00954,2.33439-.00901,3.37111.9678,3.17213,3.30786-.08799,1.03475-.10878,2.09385.00618,3.12345.30033,2.68948-.75677,3.74818-3.53642,3.64864-4.69766-.16823-9.40579-.04618-14.10951-.04618v.01342Z"
    fill="#f46825" />
  <path
    d="m289.18155,130.14229c-4.71679,0-9.43581-.08558-14.14949.03494-2.47702.06334-3.7236-.7359-3.48169-3.35478.10772-1.16612.08167-2.35336.01278-3.52496-.12548-2.13371.77556-3.10474,2.9709-3.09512,9.95741.04367,19.91665-.05127,29.87026.14826.96637.01937,2.26322,1.56397,2.7439,2.68348.47434,1.10476.01795,2.57636.12843,3.87361.20047,2.3546-.76354,3.29702-3.15928,3.24609-4.97658-.1058-9.95698-.03195-14.93582-.03195v.02043Z"
    fill="#f46825" />
  <path
    d="m414.34315,322.2874c-5.25434,5.47777-8.73281,10.28051-16.91115,10.18019-39.87184-.48915-79.75299-.21242-119.63089-.20976-5.45267.00036-7.81003-3.44117-5.67196-8.43556.28449-.66459,1.25951-1.24164,2.025-1.4436.98549-.26,2.08228-.1192,3.13116-.11903,43.94433.00702,87.88871.01762,131.83304.02772,1.38676.00031,2.77348.00004,5.22479.00004Z"
    fill="#f46825" />
  <path
    d="m413.97653,346.97966c-1.83244.11242-2.9745.2433-4.11666.24377-44.30038.01807-88.60081.03603-132.90114-.01668-1.56741-.00187-4.3232-.44804-4.48573-1.15389-.56519-2.45553-.31342-5.12191-.15263-7.69446.0247-.39377,1.17844-.93045,1.86204-1.02427,1.2882-.17682,2.61432-.09374,3.92467-.09367,39.31986.00189,78.64395.30889,117.95631-.23057,8.3747-.11492,13.02209,3.6268,17.91313,9.96976Z"
    fill="#f46825" />
  <path
    d="m243.16839,383.36184c-2.98123,2.71448-5.86485,5.54969-9.00116,8.07243-.98463.79201-2.64839,1.03597-4.00204,1.03795-36.69776.05345-73.39566.07516-110.09303-.05209-1.84772-.0064-3.94562-1.05727-5.47944-2.21263-2.6914-2.0272-5.03578-4.51246-7.52549-6.80587.17312-.30059.34625-.60119.51937-.90178h134.73341c.28276.28733.56558.57466.84839.86198Z"
    fill="#f46825" />
  <path
    d="m412.55141,287.40077c-2.30575,0-3.60808-.00025-4.91045.00003-43.28524.00908-86.57052.01944-129.85575.02586-5.67974.00084-7.44178-2.41774-5.68431-8.04101.23932-.76581,1.2869-1.58158,2.11073-1.79402,1.23457-.31834,2.6024-.14289,3.91357-.14285,39.08789.00133,78.17948.29142,117.2606-.21755,8.25561-.10752,12.15145,4.34659,17.16561,10.16954Z"
    fill="#f46825" />
  <path
    d="m397.11459,272.45505c-14.27862,0-28.55719.00025-42.83581-.00005-25.81721-.00054-51.63441.01898-77.45143-.05294-1.54304-.00429-4.27745-.5042-4.41244-1.17984-.49532-2.47845-.41809-5.19092.11514-7.67179.13908-.64725,2.71043-1.08738,4.16683-1.09319,19.39538-.07744,38.7911-.06501,58.18676-.06583,15.72622-.00067,31.45495.16956,47.17699-.08375,4.46065-.07186,7.77683,1.09318,10.61302,4.48215,1.46918,1.75555,3.52114,3.02626,5.30975,4.51604-.28959.38307-.57922.76613-.86881,1.14919Z"
    fill="#f46825" />
  <path
    d="m228.0421,398.12117c-2.84854,2.6542-5.58896,5.44111-8.60767,7.88648-.9803.79412-2.68813.96188-4.06408.96466-26.89516.05434-53.7908.08625-80.68539-.05316-1.86742-.00968-3.96768-1.06788-5.53735-2.21366-2.60781-1.90359-4.87278-4.27416-7.28213-6.44805l.65626-.92556h104.80399c.23879.26309.47758.52621.71638.7893Z"
    fill="#f46825" />
  <path
    d="m199.10877,376.46245c3.03793-2.82441,6.00537-5.73136,9.16383-8.41471.78096-.66351,2.18109-.83017,3.29883-.83658,10.76012-.06168,21.52135.02239,32.28075-.08625,2.71259-.02737,3.68261.93051,3.75508,3.62845.18362,6.83856.28555,6.83731-6.38968,6.83782-13.77028.00103-27.54056.00031-41.31084.00031l-.79798-1.12904Z"
    fill="#f46825" />
  <path
    d="m150.15129,377.58274c-14.79715,0-29.59439-.02392-44.39137.02661-2.14139.00731-3.20371-.74096-3.10887-2.94202.05053-1.17338.09683-2.36083-.02227-3.52492-.31369-3.06627.94813-4.08074,4.06084-4.02773,9.95467.16951,19.91686.18896,29.87021-.01703,3.30993-.0685,5.68945.8933,7.91446,3.29659,2.00342,2.16397,4.50351,3.87077,6.78451,5.77923-.36917.46975-.73834.93951-1.10751,1.40928Z"
    fill="#f46825" />
  <path
    d="m399.95424,382.12324c4.71011.00277,9.42242.08877,14.12936-.03286,2.4194-.06253,3.38471.90483,3.13198,3.23698-.02792.25785-.00505.52145-.00202.78234q.07506,6.39528-6.2062,6.39824c-8.50435.00164-17.01197-.13469-25.51138.06967-3.19623.07686-4.30244-1.04321-3.94154-4.0623.12302-1.02905.10702-2.09382.00245-3.12697-.26796-2.64876,1.02038-3.37004,3.48308-3.30623,4.96841.12874,9.94249.03835,14.91426.04113Z"
    fill="#f46825" />
  <path
    d="m399.0231,377.58403c-4.58213.00147-9.16772-.10431-13.7451.04266-2.5889.08313-3.82231-.57307-3.76561-3.46116.16262-8.28087-.49796-6.91849,6.86058-6.97819,8.3782-.06801,16.75953.0985,25.13514-.06204,2.98334-.05718,4.07754,1.01057,3.72553,3.86762-.11091.90021-.12865,1.84159.00216,2.73634.47614,3.25625-1.09814,4.03084-4.07571,3.90587-4.70477-.19745-9.42391-.05257-14.137-.0511Z"
    fill="#f46825" />
  <path
    d="m289.34763,392.50892c-4.58987.00196-9.1843-.12189-13.76783.04846-2.74662.10208-3.88349-.90634-3.66151-3.61746.10635-1.29912.07007-2.61561.01547-3.92078-.09285-2.22029,1.00529-2.93996,3.13011-2.9265,9.70394.0615,19.40859.06586,29.11244.00392,2.18537-.01396,3.15188.83254,3.05538,2.99801-.05815,1.3049-.09895,2.62251.01326,3.92059.24211,2.80064-1.07877,3.62296-3.73581,3.53541-4.71582-.15539-9.44054-.04361-14.16151-.04164Z"
    fill="#f46825" />
  <path
    d="m289.75597,367.17002c4.70362.00553,9.41022.10589,14.10961-.03409,2.60038-.07746,3.56814.99984,3.3949,3.46472-.08203,1.16685-.10174,2.35136-.00096,3.51507.24211,2.79726-1.10626,3.5462-3.73773,3.51403-9.27518-.11339-18.55425-.13951-27.82822.01641-2.9782.05009-3.81534-1.07006-3.83125-3.87564-.03768-6.604-.14984-6.60388,6.52659-6.60582,3.78901-.0011,7.57807-.0002,11.36707.00533Z"
    fill="#f46825" />
  <path
    d="m289.62251,302.31135c-4.72236-.00351-9.44669-.08507-14.16622.03003-2.45371.05985-3.50552-.73743-3.60308-3.33623-.25321-6.74299-.05997-7.06763,6.84021-7.08328,8.13288-.01844,16.26883.12057,24.39738-.06701,3.32027-.07663,4.31604,1.1434,4.25799,4.33176-.11149,6.11811.03595,6.12256-5.92041,6.12759-3.93529.00333-7.87058.00063-11.80588-.00288Z"
    fill="#f46825" />
  <path
    d="m376.65952,292.48899c1.43852-.1083,2.56001-.2651,3.68165-.26595,10.74186-.00813,21.48925.21336,32.22294-.07659,4.46079-.1205,4.72116,1.96616,4.7548,5.45998.03297,3.43114-.69965,4.87333-4.53283,4.76119-9.16172-.26801-18.33737-.10189-27.50692-.04071-2.18258.01457-3.37702-.27232-3.98988-2.96281-.52434-2.30193-2.75234-4.21804-4.62976-6.8751Z"
    fill="#f46825" />
  <path
    d="m378.87583,317.3674c.99558-2.97403,1.68745-5.63173,2.8151-8.0908.39757-.86699,1.85488-1.76018,2.83869-1.77189,9.95695-.11841,19.91761-.1311,29.87211.07486.95454.01974,2.32963,1.5666,2.69587,2.67247.46793,1.41286.39214,3.1725.00461,4.63926-.251.9501-1.47365,2.34218-2.26898,2.34751-12.03736.08063-24.07603-.03522-36.1143-.11856-.06911-.00048-.13686-.1917.1569.24715Z"
    fill="#f46825" />
  <path
    d="m379.03394,352.23996c11.49865,0,23.28531.04193,35.07119-.03446,2.43127-.01575,3.32228.94757,3.1303,3.27078-.10726,1.29814.34159,2.76453-.12615,3.87658-.48148,1.1447-1.7556,2.76055-2.71187,2.78033-9.95609.20598-19.91871.18536-29.87716.05022-.97444-.01321-2.40998-.99977-2.80698-1.89723-1.09247-2.46938-1.74661-5.1316-2.67934-8.04622Z"
    fill="#f46825" />
  <path
    d="m289.41092,362.59788c-4.32195,0-8.65929-.22484-12.96125.06776-3.76219.25588-5.00522-1.27062-4.56747-4.75974.11303-.90075.06661-1.82781.02677-2.73989-.09534-2.18518.96896-2.98353,3.10339-2.97181,9.6913.0532,19.38341.0708,29.07442-.00535,2.42771-.01907,3.11555,1.04365,3.21478,3.29687.29127,6.61347.1904,6.79788-6.50506,6.81058-3.79482.0072-7.58965.00132-11.38447.00132-.00038.10009-.00072.20018-.00111.30027Z"
    fill="#f46825" />
  <path
    d="m230.0487,352.21225c4.44642,0,8.89817.13157,13.33743-.04629,2.95734-.11848,4.31532.76475,4.22824,3.9395-.19665,7.17246,1.04057,6.50405-6.44965,6.47474-8.3671-.03273-16.73647-.35803-25.09963-.2266-4.49304.07061-3.77454-2.78527-3.85292-5.48803-.07675-2.64676-.19492-4.94064,3.71659-4.70491,4.69088.28272,9.41195.06679,14.11994.06679v-.0152Z"
    fill="#f46825" />
  <path
    d="m230.28715,337.25043c4.70746,0,9.41738.08921,14.12148-.03603,2.51076-.06685,3.67709.82652,3.47409,3.38931-.09241,1.16627-.05887,2.34744-.00966,3.51881.08746,2.07965-.73954,3.13948-2.96119,3.12898-9.93768-.04695-19.87575-.05054-29.81353-.02233-2.26.00641-2.79919-1.15492-2.89333-3.19197-.31266-6.76472-.37638-6.76356,6.31346-6.76985,3.92289-.00369,7.84579-.00067,11.76868-.00067v-.01624Z"
    fill="#f46825" />
  <path
    d="m399.56931,397.05835c4.7103-.0006,9.42579.13156,14.12902-.05027,2.81197-.1087,3.81592.97623,3.5308,3.65432-.12365,1.16139.33937,2.52286-.12351,3.47451-.54765,1.12583-1.79174,2.69649-2.76132,2.71592-9.93985.19915-19.88522.10748-29.82896.13446-2.19118.00597-3.0624-1.02698-2.93793-3.14334.07651-1.30011.08198-2.61301-.00399-3.91207-.14974-2.26233.96074-2.93818,3.08042-2.90089,4.97043.08743,9.9435.02798,14.91546.02737Z"
    fill="#f46825" />
  <path
    d="m230.15471,332.22153c-4.70564,0-9.41569-.12241-14.11532.04523-2.88829.10302-3.88185-.92556-3.85874-3.83125.04868-6.12949-.09179-6.1365,6.2012-6.14549,8.49633-.01212,16.99972.19025,25.486-.10427,4.42133-.15343,3.96663,2.43653,4.04106,5.26466.07675,2.91438-.06122,5.11368-4.03362,4.86302-4.55666-.28753-9.14567-.06668-13.72059-.06668v-.02523Z"
    fill="#f46825" />
  <path
    d="m229.75757,317.38469c-4.70645,0-9.41464-.07443-14.11874.02991-2.52945.05612-3.39336-.94861-3.44276-3.46388-.12764-6.50056-.23211-6.50222,6.19053-6.50966,8.62858-.00998,17.261.13491,25.88405-.08593,3.98359-.10202,3.67093,2.29318,3.59923,4.83733-.07088,2.51657.73411,5.45352-3.60255,5.27275-4.82881-.20129-9.67256-.04611-14.50977-.04611v-.03441Z"
    fill="#f46825" />
  <path
    d="m120.07965,362.2739c-4.57252-.00034-9.14944-.12563-13.71629.03498-4.54751.15995-3.60147-3.0147-3.71834-5.62324-.1125-2.5103-.09715-4.58367,3.5402-4.51211,9.40267.18495,18.81339.1684,28.21674-.00005,3.28014-.05876,3.76474,1.63799,3.45574,4.14071-.2942,2.38279,1.45178,5.9678-3.27678,5.96148-4.83376-.00646-9.66751-.00144-14.50127-.00177Z"
    fill="#f46825" />
  <path
    d="m229.59802,272.42869c-4.7238,0-9.44977-.0845-14.17049.03505-2.422.06134-3.13756-.93067-3.20753-3.24814-.20472-6.78372-.29141-6.7865,6.4496-6.79199,8.26667-.00673,16.53713.14622,24.79851-.06241,4.68074-.11821,3.93933,2.92616,4.11651,5.77906.19386,3.12097-.80139,4.55113-4.21219,4.36618-4.57906-.24829-9.1818-.06153-13.77441-.06153v-.01623Z"
    fill="#f46825" />
  <path
    d="m120.04765,332.20705c-4.71568,0-9.43345-.08701-14.14642.0259-4.21294.10092-3.13352-2.93532-3.22387-5.20701-.09227-2.31986-.51368-4.81231,3.29633-4.75969,9.56054.1321,19.12439.08436,28.68627.01538,2.36731-.01708,3.1576.92533,3.24756,3.24846.25893,6.68529.34668,6.68369-6.46359,6.69072-3.79876.00392-7.59753.00072-11.39629.00072v-.01448Z"
    fill="#f46825" />
  <path
    d="m119.90912,272.42958c-4.58562-.00129-9.17392-.09535-13.75574.03611-2.5079.07196-3.45838-.8059-3.52753-3.36957-.17651-6.54461-.1848-6.65779,6.23359-6.66538,8.2541-.00977,16.51615.21748,24.7592-.08228,4.59991-.16728,4.15443,2.5181,4.28687,5.51865.14013,3.17225-.49104,4.88808-4.24444,4.63647-4.56498-.30603-9.16633-.07272-13.75195-.074Z"
    fill="#f46825" />
  <path
    d="m289.54159,307.41272c4.71169-.00107,9.43064.15873,14.13272-.05318,3.56434-.16063,3.81996,1.91626,3.60308,4.48689-.19905,2.35929,1.11467,5.61095-3.30691,5.58959-9.554-.04613-19.10877-.06994-28.66224.01319-4.39063.0382-3.25539-3.0995-3.40254-5.50654-.15167-2.48084-.15344-4.73303,3.50288-4.57756,4.70314.2,9.42132.04866,14.13301.04761Z"
    fill="#f46825" />
  <path
    d="m119.96384,317.37998c-4.58564,0-9.17707-.14235-13.75517.04299-3.98674.16141-3.61639-2.45694-3.54548-4.9612.0667-2.35638-.76472-5.12848,3.3931-5.05825,9.43059.15927,18.8663.0986,28.29882.01143,2.44723-.02262,3.495.70238,3.56194,3.32591.16945,6.64107.28483,6.64085-6.55456,6.65152-3.79953.00593-7.59909.00105-11.39865.00105v-.01346Z"
    fill="#f46825" />
  <path
    d="m229.75281,302.27368c-4.8389,0-9.67885-.05787-14.51631.02614-2.18762.03799-3.13265-.83238-2.99709-3.00632.08102-1.29907.07252-2.61.00524-3.9105-.10976-2.12235.81095-3.13491,2.97498-3.13095,9.67765.01772,19.35549-.03681,29.03285.01203,4.60429.02324,3.01996,3.61491,3.29792,6.0479.30352,2.65646-.57648,4.15803-3.67507,4.03533-4.70073-.18615-9.4144-.04866-14.12253-.04866v-.02497Z"
    fill="#f46825" />
  <path
    d="m120.20813,302.27354c-4.58987.00268-9.19062-.19021-13.76607.06588-3.44223.19264-4.04241-1.54974-3.77486-4.29256.24232-2.48411-1.15492-5.86072,3.52441-5.81746,9.44116.08728,18.88377.04966,28.32558.01263,2.24486-.0088,3.48789.78511,3.34593,3.20246-.07651,1.30306-.07055,2.61756.00173,3.92119.12418,2.23919-.97665,2.96583-3.1007,2.9306-4.85082-.08045-9.70386-.02541-14.55603-.02274Z"
    fill="#f46825" />
  <path
    d="m229.91246,287.39559c-4.72174,0-9.44559-.0832-14.16439.03424-2.44948.06096-3.76133-.66813-3.50865-3.32488.11096-1.16669.08246-2.35601.01033-3.5285-.13143-2.13541.76049-3.11004,2.9634-3.10203,9.70557.03528,19.41138-.00379,29.1171.00075,4.41749.00207,2.98882,3.37685,3.21051,5.70989.23327,2.45429-.15738,4.38756-3.46463,4.26827-4.71554-.1701-9.44193-.04326-14.16367-.04326v-.01446Z"
    fill="#f46825" />
  <path
    d="m120.36535,287.39582c-4.5829.00055-9.16967-.11298-13.74724.04295-2.76663.09424-4.01408-.68-4.01728-3.70626-.00661-6.24631-.1546-6.25226,6.20089-6.25558,8.2492-.00431,16.5075.23362,24.74401-.08798,4.49308-.17543,4.3133,2.27118,4.3765,5.38494.06291,3.09927-.39627,4.95315-4.2059,4.69218-4.43104-.30351-8.89904-.07079-13.35099-.07024Z"
    fill="#f46825" />
  <path
    d="m289.48238,397.05569c4.71804.00224,9.44097.13194,14.15218-.04656,2.81197-.10655,3.60106,1.02788,3.62754,3.6706.06324,6.30648.16805,6.31199-6.18294,6.32071-8.12548.01116-16.25946-.20923-24.37302.10295-4.38227.16862-4.8227-1.89832-4.85629-5.44693-.03326-3.51605.91-4.95894,4.66359-4.67769,4.30057.32222,8.6441.07468,12.96894.07692Z"
    fill="#f46825" />
  <path
    d="m120.30254,337.27915c4.71873-.00114,9.44482.16063,14.15387-.05229,3.77185-.17055,3.51744,2.21904,3.40403,4.62227-.11418,2.41867.99265,5.48476-3.44459,5.41977-9.43542-.1382-18.87519-.1311-28.31114-.01548-4.41434.05409-3.31349-3.02908-3.45086-5.44959-.1404-2.47336-.19227-4.74111,3.49488-4.575,4.7091.21216,9.43511.05146,14.15382.05031Z"
    fill="#f46825" />
</svg>