<svg xmlns="http://www.w3.org/2000/svg" viewBox="0 0 2000 2000">
  <rect width="2000" height="2000" fill="#ff7722" />
  <g transform="translate(1000 1000) scale(0.78) translate(-1000 -1000)">
    <g>
      <path
        fill="#fff"
        d="m1606.22,1249.86c10.08-13.21,22.06-22,38.56-22.86,18.11-.95,31.67,7.1,41.72,21.64,17.68,25.59,17.91,76.01.18,101.6-4.01,5.79-9.44,10.59-14.1,15.71,20.13-1.64,35.27-14.53,40.14-35.51,5.04-21.73,3.56-43.48-3.1-64.62-3.67-11.63-7.79-23.49-14.06-33.81-5.72-9.43-13.57-18.3-22.33-25.01-23.15-17.72-45.26-4.86-58.13,13.81-.67.97-1.1,2.12-1.61,3.2-2.99,6.25-8.01,8.27-14.04,5.32-6.06-2.97-6.22-8.9-3.56-13.97,13.68-26.14,47.81-47.99,80.59-29.53,16.72,9.42,29.48,22.11,37.91,39.36,16.67,34.11,25.54,69.46,17.94,107.59-10.83,54.31-73.63,64.62-104.79,45.4-17.42-10.75-27.18-25.93-33.99-44.46-8.96-24.39-11.84-49.24-8.69-74.91,1.82-14.8,8.48-17.79,21.37-8.95Zm21.82,37.32c14.79.18,28.48-12.34,28.66-26.24.14-10.47-7.38-18.43-17.53-18.55-14.71-.17-30.39,13.07-30.57,25.82-.15,10.6,8.29,18.83,19.44,18.97Zm32.46,9c8.67-1.51,14.46-3.4,14.95-10.75.38-5.67-3.41-8.98-8.92-8.76-6.57.26-11.86,3.83-11.78,10.71.04,3.2,4.04,6.36,5.74,8.81Z"
      />
      <path
        fill="#fff"
        d="m1495.94,1443.82c-22,9.15-43.49,9.06-63.75-3.49-14.8-9.16-26.84-21.22-24.44-40.46.85-6.77,5.17-13.71,9.56-19.24,3.45-4.34,9.49-4.01,13.06,1.27,3.41,5.04,2.32,9.39-3.34,12.63-7.38,4.22-5.07,10.95-2.73,16.51,8.35,19.83,43.95,31.11,62.19,19.38,4.66-3,8.5-8.61,10.66-13.86,4.07-9.89,6.98-20.31,9.57-30.71.58-2.31-1.49-6.27-3.55-8.1-15.17-13.44-21.92-31.01-25.17-50.25-1.5-8.9,8.34-20.81,18.12-20.99,22.57-.41,44.86,1.86,64.88,13.65,13.7,8.07,16.1,17.86,6.61,30.47-10.79,14.32-22.21,28.3-41.21,32.67-1.83.42-3.66,3.45-4.38,5.64-3.75,11.33-7.01,22.82-10.69,34.17-3.4,10.48-1.4,17.4,6.84,22.27,7.88,4.65,20.67,3,26.5-3.54,1.78-2,2.8-5.16,4.95-6.23,3.04-1.52,6.8-1.58,10.26-2.27.6,3.7,2.89,8.23,1.54,10.98-10.76,22-42.74,25.71-59.24,7.25-2.16-2.42-4.08-5.05-6.24-7.74Zm61.31-105.42c-19.43-12.2-37.84-14.45-56.77-14.02-1.25.03-3.97,4.91-3.35,6.47,3.83,9.59,7.41,19.57,13.11,28.05,4.36,6.5,13.19,9,19.97,4.1,9.23-6.67,17.02-15.31,27.04-24.6Z"
      />
      <path
        fill="#fff"
        d="m1797.17,1269.04c1.77-8.2,11.17-15.4,19.23-14.68,5.83.52,10.87,3.09,10.54,10.53-.23,5.38-11.25,13.16-18.82,11.67-3.99-.78-7.32-4.91-10.95-7.52Z"
      />
      <path
        fill="#fff"
        d="m822.55,698.57c-6.51-17.82-7.05-35.67-1.77-53.74,6.53-22.35,19.9-39.59,40.31-50.52,38.13-20.41,76.76-25.27,115.95-1.99,52.61,31.25,46.47,94.4,19.19,123.14-1.22,1.29-2.33,2.69-2.8,5.25,1.83-.91,3.84-1.55,5.45-2.75,23.52-17.59,38.9-38.85,31.95-70.38-1.11-5.02.1-9.67,6.23-11.08,6.27-1.44,9.22,2.42,10.12,7.46,4.98,27.83-.2,53.14-20.81,73.59-23.4,23.21-52.6,33.05-84.89,36.04-26.69,2.47-52.88,3.05-78.92-5.42-40.39-13.15-63.37-40.97-71.69-81.81-9.38-45.98,14.63-85.72,54.09-107.55,42.05-23.26,86.69-27.25,132.71-12.88,30.23,9.44,48.36,31.89,61.73,58.93,1.36,2.75-1.05,7.37-1.71,11.13-4.16-1.28-8.96-1.68-12.28-4.1-2.87-2.09-4.1-6.45-5.97-9.86-16.88-30.69-44.01-44.15-77.84-46.83-37.66-2.97-71.84,7.04-102.56,28.25-35.07,24.21-43.47,83.69-16.49,115.1Zm50.62-37.52c17.49.22,36.93-21.24,35.01-38.65-1.04-9.47-7.19-16.58-16.46-19.04-16.3-4.33-37.14,9.06-41.86,26.9-4.2,15.86,6.95,30.58,23.31,30.79Zm65.87-21.29c-.31-5.79-3.85-9.67-10.43-10.06-6.33-.37-13.38,7.31-13.29,14.35.08,6.32,3.76,9.88,9.94,10.32,6.65.47,13.57-6.67,13.78-14.61Z"
      />
      <path
        fill="#fff"
        d="m1224.18,512.38c17.94-12.12,43.07-9.36,61,6.9,15.08,13.67,22.02,31.82,26.36,50.93,5.89,26-1.66,48.23-21.7,66.63,19.42-3.26,31.85-16.74,33.04-35.96.4-6.51-.37-13.12-.96-19.65-.54-5.97,1.51-10.19,7.53-11.3,6.47-1.19,8.54,3.76,9.13,8.61,5.26,43.56-10.76,72.04-57.99,77.31-16.19,1.81-31.21-5.11-44.5-14.18-29.49-20.14-43.23-49.63-46.9-84.05-2.66-24.99,3.14-48.25,20.28-67.46,23.86-26.73,60.2-28.93,85.78-3.72,11.05,10.89,18.79,25.23,27.53,38.34,2.93,4.4,3.8,9.83-2.57,12.94-6.72,3.27-9.34-1.15-12.47-6.18-6.88-11.09-13.33-22.74-21.92-32.41-22.7-25.52-62.13-16.22-74.39,20.47,4.8-2.76,8.93-5.13,13.05-7.49-1.88,1.9-3.86,3.7-5.59,5.71-5.83,6.8-6.84,19.1-2.24,26.09,4.76,7.25,13.98,9.95,23.1,6.76,9.26-3.24,14.84-11.91,13.91-21.61-.9-9.36-6.97-16.47-16.22-17.69-4.29-.57-8.82.62-13.24,1.01Zm44.02,37.59c1.3,0,2.6.02,3.9.03,2.49-3.8,6.58-7.47,6.89-11.45.2-2.54-5.17-5.53-8.04-8.31-3.12,3.35-7.67,6.28-8.82,10.2-.7,2.38,3.87,6.3,6.08,9.54Z"
      />
      <path
        fill="#fff"
        d="m1208.46,752.54c-7.09,10.15-12.79,20.71-20.75,29.14-11.86,12.57-35.77,14.54-49.88,5.54-3.19-2.03-6.63-4.73-8.14-7.97-1.17-2.5.5-6.32.91-9.56,3.16.5,7.28-.1,9.32,1.68,10.66,9.31,25.41,10.66,36.79,2.61,13.7-9.69,18.96-25.68,13.87-41.9-1.25-3.99-2.35-8.02-3.46-12.05-4.01-14.61-10.33-25.97-26.82-31.2-10.25-3.25-19.38-11.62-27.65-19.19-10.54-9.65-8.58-20.73,4.41-26.19,13.98-5.87,28.33-11.2,42.97-15.07,16.34-4.33,24.04,2.12,25.99,19.05,1.48,12.89-2.21,24.42-9.91,34.41-3.35,4.35-2.95,7.4-1.09,11.98,4.25,10.49,8.68,21.09,11.19,32.06,2.21,9.66,7.85,15.06,16.03,18.81,10.13,4.65,20.7,5.5,31.47,2.58,11.06-2.99,15.38-9.57,16.21-21.59.21-3.09,4.05-5.93,6.22-8.89,2.36,2.75,6.53,5.35,6.79,8.29,1.49,17.1-8.52,30.38-25.74,34.91-17.98,4.72-34.84,1.51-48.76-7.46Zm-19.68-110.81c-15.62,5.25-30.23,10.15-44.83,15.05-.21,1.25-.41,2.5-.62,3.75,9.03,5.42,17.94,11.06,27.14,16.18,4.97,2.76,8.93,1.69,12.71-3.52,6.43-8.86,8.35-18.1,5.59-31.47Z"
      />
      <path
        fill="#fff"
        d="m634.07,493.69c-1.42-61.22,11.05-120.03,30.17-177.7,1.96-5.91,4.83-11.6,7.97-17,3.06-5.26,7.76-7.41,13.67-3.94,5.67,3.33,6.74,8.34,4.07,13.88-16.71,34.67-23.54,72.2-29.74,109.54-6.22,37.46-7.52,75.54-3.23,113.53.77,6.8-.48,12.37-7.76,13.89-7.73,1.62-12.41-3.27-13.06-10.17-1.32-13.95-1.46-28.01-2.09-42.03Z"
      />
      <path
        fill="#fff"
        d="m796.89,828.18c2.4,2.26,6.34,4.26,6.7,6.77.38,2.66-1.86,7.01-4.28,8.55-42.59,27.2-87.25,50.53-133.56,70.76-11.74,5.13-23.04,11.3-34.42,17.22-4.47,2.33-9.1,5.02-12.45-.6-3.46-5.8,1.2-8.78,5.66-10.93,27.15-13.1,54.5-25.8,81.5-39.19,17.91-8.88,35.6-18.26,52.93-28.23,9.77-5.62,18.55-12.95,27.91-19.32,2.64-1.8,5.75-2.92,10.01-5.04Z"
      />
      <path
        fill="#fff"
        d="m688.04,803.82c19.67,0,39.34.04,59.01-.02,6.39-.02,12.98.77,13.28,8.5.29,7.43-6.26,8.87-12.17,8.75-35.19-.68-70.38-1.6-105.56-2.48-2.08-.05-4.75.25-6.1-.87-2.87-2.39-5.06-5.61-7.52-8.48,3-2.25,6.01-6.45,8.98-6.42,16.7.15,33.39,1.32,50.08,2.13,0-.37,0-.74,0-1.11Z"
      />
      <path
        fill="#fff"
        d="m678.5,500.54c1.82-11.16,3.42-22.36,5.54-33.46,1.25-6.54,5.14-11.34,12.43-9.86,7.54,1.53,8.04,7.46,7.05,14.05-1.54,10.27-2.82,20.59-3.85,30.92-.67,6.82-3.34,11.57-10.72,11.74-6.15.15-10.44-5.87-10.46-13.39Z"
      />
      <path
        fill="#fff"
        d="m741.07,454.07c-1.59,3.91-2.85,6.59-3.78,9.37-1.67,5.01-3.69,10-4.55,15.16-.98,5.91-4.02,10.31-9.6,9.38-3.73-.63-8.3-4.61-9.84-8.22-2.97-6.96,5.18-28.28,11.81-32.17,2.67-1.57,7.13-2.11,9.88-.96,2.68,1.12,4.21,4.99,6.08,7.44Z"
      />
      <path
        fill="#fff"
        d="m1191.86,375.32c-4.37,9.1-7.41,17.18-11.96,24.3-3.25,5.08-9.15,7.19-14.82,3.03-5.9-4.34-4.09-9.38-.82-14.87,2.84-4.77,3.62-10.91,6.92-15.21,2.44-3.18,7.54-6.14,11.29-5.94,3.03.16,5.81,5.16,9.39,8.7Z"
      />
      <path
        fill="#fff"
        d="m499.49,1694.63c-9.68,3.36-19.74,8.46-30.35,10.23-31.7,5.3-55.59-22.25-46.97-53.15,1.62-5.8,4.85-9.89,11.48-8.72,6.78,1.2,8.09,6.2,7.36,12.22-.36,2.96-.92,5.94-.93,8.9-.04,14.41,9.66,23.44,24.03,22.52,16.66-1.06,29.74-11.73,34.35-28.05.41-1.43.53-2.95.94-4.38,3.81-13.42,5.73-24.77-6.01-37.58-12.02-13.13-16.49-31.32-10.83-50.31,1.96-6.58,5.65-10.7,11.75-9.93,21.24,2.67,42.83,4.49,63.37,10.04,17.52,4.73,21.48,19.98,12.47,35.79-9.08,15.93-21.17,27.95-40.04,31.91-3.04.64-7.28,4.5-7.67,7.32-1.98,14.36-3.61,28.87-3.68,43.34-.02,4.31,4.43,10.34,8.5,12.68,23.64,13.6,40.32,10.82,52.89-14.44,3.13-6.28,6.93-10.83,14.55-8.1,6.12,2.19,7.33,8.85,2.97,16.78-19.54,35.52-47.24,42.44-82.32,20.6-6.67-4.15-10.99-12.08-15.87-17.67Zm1.86-120.17c-1.75,13.74,3.43,29.53,11.69,36.71,2.44,2.12,6.31,3.46,9.59,3.57,12.49.44,27.62-10.91,30.88-23.47.55-2.12-2.37-7.17-4.42-7.63-15.61-3.48-31.4-6.15-47.74-9.19Z"
      />
      <path
        fill="#fff"
        d="m1000.72,1068.51c-1.9,2.61-3.58,7.06-6.7,8.59-2.77,1.35-7.77.53-10.65-1.21-6.54-3.96-11.4-18.24-7.95-24.87,1.95-3.74,7.04-7.68,10.93-7.92,2.71-.17,6.52,5.42,8.54,9.13,2.47,4.53,3.59,9.81,5.82,16.28Z"
      />
      <path
        fill="#fff"
        d="m1008.09,1044.18c2.11-1.45,5.51-5.37,9.55-6.2,6.01-1.24,11.31,5.89,11.2,13.44-.09,6.13-3.29,9.53-9.39,9.66-6.13.12-11.7-6.75-11.36-16.89Z"
      />
      <path
        fill="#fff"
        d="m1756.53,975.95c-.82.32-3.81,2.55-6.63,2.35-4.54-.32-10.38-.89-13.12-3.78-4.16-4.4-2.58-11.63,2.79-13.66,7.97-3.02,16.91-4.42,25.44-4.43,2.43,0,6.89,7.26,6.85,11.15-.07,7.32-6.1,9.32-15.34,8.37Z"
      />
      <path
        fill="#fff"
        d="m1686.09,1114.41c.42-8.95,10.6-20.38,17.42-20.67,2.88-.12,7.03,1.16,8.47,3.27,1.69,2.47,2.53,7.41,1.14,9.72-3.16,5.24-7.43,10.1-12.21,13.91-2.12,1.69-7.11,1.58-9.81.26-2.66-1.3-4.06-5.16-5.01-6.49Z"
      />
    </g>
    <path
      fill="#fff"
      d="m1895.87,1553.43c-11.91-8.1-23.83-16.19-35.67-24.4-2.06-1.43-5.38-3.58-5.27-5.21.76-11.6,2.26-23.14,3.54-34.91,3.77.64,6.91,1.56,10.08,1.64,7.22.17,11.21-5.73,7.6-11.9-1.49-2.54-5.19-4.69-8.22-5.28-12.23-2.41-12.04-2.16-12.37-14.71-.23-8.87-.56-17.83-1.95-26.57-6.91-43.6-22.59-84.34-41.82-123.78-8.58-17.59-18.15-34.7-27.37-52.23,7.42-3.09,14.26-6.64,21.53-8.77,7.38-2.16,9.41-6.9,8.04-13.36-1.12-5.3-9.64-7.61-15.64-4.85-4.36,2-8.72,3.98-14.38,6.56,5.92-14.47,12.03-26.64,15.93-39.47,8.44-27.74,16.91-55.56,23.17-83.83,5.77-26.04,10.16-52.6,12.3-79.16,1.48-18.41-.35-37.46-3.44-55.77-5.07-30.01-22.53-52.1-51.17-62.74-19.97-7.42-40.87-1.82-60.82,2.89-31.85,7.52-60.25,23.82-88.07,40.01-30.64,17.83-59.24,39.17-88.44,58.79-30.86-15.24-61.94-30.59-93.58-46.22,3.81-7.57,8.2-15.43,11.83-23.63,12.61-28.47,26.59-56.47,36.94-85.76,9.23-26.13,16.43-53.4,20.62-80.76,3.33-21.71,1.25-44.33.55-66.52-.23-7.19,2.63-10.21,8.3-12.34,29.08-10.96,58.23-21.73,87.17-33.06,3.47-1.36,8.55-6.31,8.06-8.56-1.33-6.19-7.55-6.05-12.48-4.35-12.47,4.31-24.79,9.07-37.09,13.87-18.53,7.24-37,14.66-55.89,22.16-6-14.23-11.66-27.66-17.54-41.63,12.24-8.18,24.85-16.22,36.94-25,2.62-1.9,5.52-7.55,4.5-9.55-2.87-5.64-8.29-5.37-13.33-1.8-.48.34-.82.89-1.3,1.24-11.1,7.91-22.21,15.81-32.86,23.39-9.32-12.21-18.17-23.57-26.61-35.22-.81-1.12.39-4.27,1.41-6.06,12.95-22.73,26.28-45.26,38.8-68.22,1.53-2.8.31-9.81-2-11.37-3.97-2.68-7.72.2-10.21,5.09-8.14,16-16.73,31.78-25.48,47.45-3.92,7.03-8.65,13.6-13.29,20.81-25.55-25.43-50.63-49.28-69.22-79.33-21.39-34.6-46.87-66.03-82.11-87.9-13.7-8.5-27.91-16.18-42.29-24.46,6.84-6.63,12.9-13.83,6.59-23.3-6.7-10.06-15.78-5.11-25.37-1.01.91-13.55,2.43-25.67,2.4-37.79-.06-22.03.11-44.18-2.01-66.06-1.71-17.59-3.74-35.42-13.5-51.43-12.8-20.99-43.38-29.36-63.31-15.35-11.31,7.96-22.23,16.8-32.01,26.57-39.95,39.91-79.26,80.45-119.12,120.45-10.12,10.16-21.36,19.2-32.14,28.69-1.06.93-2.42,1.88-3.76,2.09-8.42,1.36-16.92,2.21-25.29,3.78-23.05,4.32-46.2,8.29-69.03,13.58-19.3,4.48-38.21,10.61-55.34,15.46-6.11-21.5-10.75-43.1-18.47-63.53-7.97-21.08-17.76-41.69-28.87-61.31-16.47-29.08-37.41-54.09-69.3-68.32-15.74-7.02-30.15-8.36-43.28,3.33-12.59,11.21-24.07,23.68-35.95,35.7-21.78,22.03-37.71,48.14-52.34,75.17-20.95,38.71-37.11,79.45-47.3,122.11-8.1,33.92-13.62,68.53-18.66,103.08-2.95,20.17-2.86,40.8-3.83,61.23-.35,7.44.18,14.92.34,22.38.38,18.45,1.83,36.97.87,55.35-1.15,22.05-4.48,43.99-6.6,66-.57,5.93-.23,11.96-.21,17.94.09,26.41-1.3,52.94.82,79.18,1.56,19.41,7.88,38.41,11.74,57.66,7.92,39.44,25.91,74.74,44.86,109.62,5.84,10.74,13.05,20.74,20.17,31.92-5.24.79-9.27,1.54-13.33,1.98-16.71,1.81-33.42,3.67-50.16,5.18-3.99.36-9.31.91-11.9-1.21-6.67-5.48-11.64-12.98-18.19-18.64-31.98-27.68-67.99-49.44-104.94-69.63-18.84-10.29-38.8-18.54-57.5-29.06-44.73-25.19-91.51-42.4-143.77-38.99-11.3.74-22.62,3.45-33.56,6.55-9.25,2.62-11.78,8.35-10.22,17.81,1.4,8.54-1.44,12.35-9.79,13.13-8.69.81-13.96,5.68-13.5,14.31.65,12.06,1.66,24.2,3.83,36.07,6.63,36.38,21.16,70.08,36.32,103.53,12.35,27.24,27.05,53.26,47.28,75.21,9.62,10.43,13.89,27.99,33.24,27.99-1.62,3.05-2.52,5.2-3.81,7.1-24.75,36.42-42.54,76.13-50.28,119.34-7.07,39.47-29.69,71.82-43.6,107.98-15.3-8.46-29.81-16.81-44.7-24.42-3.12-1.59-8.48-1.92-11.35-.28-8.03,4.6-6.51,12.34,3.04,17.54,15.99,8.69,32.06,17.23,47.96,25.75-2.41,10.62-4.59,20.27-6.97,30.78-4.03-1.15-7.88-2.41-11.82-3.35-6.53-1.56-13.06-3.52-19.7-4.17-5.53-.54-10.02,5.67-7.84,10.7,1.19,2.75,4.27,5.45,7.13,6.56,8.73,3.39,17.82,5.81,26.62,9.04,2.05.75,4.84,3.12,4.96,4.91.54,7.92.23,15.89.23,24.57-15.14-1.38-28.94-2.7-42.74-3.88-5.88-.5-10.71.41-11.12,8.02-.41,7.46,4.31,10.25,10.19,11.03,12.28,1.64,24.64,2.71,36.99,3.71,6.74.55,10.25,3.63,10.38,10.53.05,2.63.51,5.27,1.01,7.87,6.57,33.8,26.67,60.16,49.05,84.39,32.06,34.72,73.57,56.69,114.55,78.81,8.66,4.68,13.95,8.72,17.08,19.1,6.14,20.41,15.52,39.86,23.96,59.54.8,1.86,4.42,3.51,6.76,3.55,12.86.25,25.72-.1,38.59-.11,150.2-.02,300.4-.04,450.6,0,50.26.01,100.52.18,150.77.27,3.21,0,6.42,0,7.72,0-3.23-44.32-6.17-87.81-9.64-131.25-3.45-43.18-7.44-86.32-11.34-131.1,3.71,3.15,6.16,5.25,8.62,7.33,15.55,13.11,31.01,26.33,46.7,39.28,6.81,5.63,14.95,5.13,20.19-.58,5.16-5.63,5.03-14.2-.56-20.43-1.98-2.2-4.55-3.86-6.77-5.85-24.51-21.89-49.43-43.35-73.44-65.79-57.19-53.46-78.34-123.38-88.95-197.9-.31-2.21.36-4.56.6-7.09,2.13,0,3.64-.22,5.07.03,32.95,5.7,65.93,11.29,98.83,17.29,8.2,1.5,14.13-.18,15.63-6.06,1.58-6.18-2.14-10.1-11.25-11.62-20.63-3.44-41.29-6.77-61.92-10.22-15.2-2.54-30.38-5.21-46.26-7.95,1.12-12.67,2.15-24.38,3.29-37.25,7.22,2.55,12.7,4.8,18.36,6.44,12.04,3.48,24.07,7.12,36.32,9.71,6.32,1.34,12.68-1.17,13-8.77.31-7.22-5.69-8.21-11.71-9.55-17-3.79-33.82-8.42-51.61-12.94,4.23-14.36,7.73-26.25,11.39-38.66,15.38,6.79,29.82,12.55,43.63,19.53,6.68,3.38,12.43,8.79,18.2,13.75,11.97,10.29,23.12,21.63,35.66,31.15,9.85,7.48,18.79,4.19,24.33-6.42,1.07-2.04,3.3-4.55,5.28-4.83,5.81-.82,9.9-2.97,9.95-9.29.05-6.25-4.58-7.91-9.64-10.02-9.53-3.96-21.51-6.72-27.32-14.06-19.24-24.34-36.21-50.48-54.01-75.96-5.11-7.31-3.31-13.14,4.08-18.16,13.3,14.26,26.16,28.39,39.39,42.15,27.76,28.88,57.82,54.75,95.67,69.74,25.64,10.16,51.57,12.62,77.64,1.16,2.13-.93,4.44-1.44,7.07-2.28,6.97,17.23,18.28,30.64,34.07,39.53,49.89,28.1,103.52,41.48,160.85,39.47,25.35-.89,44.57-14.82,52.41-39.04,3.57-11.03,5.25-22.67,7.67-34.06,2.06-9.68-.49-15.75-6.81-16.73-6.83-1.06-10.95,3.41-12.66,12.9-1.9,10.56-3.55,21.24-6.5,31.53-5.75,20.07-27.21,30.06-42,24.06,24.75-15.08,30.04-21.8,39.96-50.75,16.01-46.75-19.23-104.85-68-112.65-18.71-2.99-36.92-1.56-54.95,3.75-37.91,11.17-58.73,39.88-58.36,79.15.2,21.2,6.46,39.76,20.74,55.78-18.32-6.28-34.56-15.06-44.56-32.29-3.87-6.67-5.42-13.19,2.18-18.95,3.01-2.29,5.13-5.81,7.51-8.88,18.74-24.16,25.06-53.22,32.29-81.92.79-3.16.79-8.06,2.78-9.12,11.71-6.23,23.45-14.63,36.02-16.43,16.8-2.41,34.45-.29,51.6,1.34,26.84,2.56,48.93,14.6,65.92,35.91,13.27,16.64,17.45,36.38,20.35,56.63,1.03,7.15,4.12,12.41,12,11.38,7.36-.96,8.35-7.17,7.35-13.1-1.8-10.59-3.74-21.21-6.57-31.55-8.67-31.77-29.44-54.32-58.34-67.93-28.32-13.34-59.31-16.47-90.41-13.16-11.55,1.23-22.76,5.75-33.86,8.7v-94.06c14.81-3.55,29.91-6.9,44.86-10.81,31.34-8.2,62.93-4.34,94.52-2.58,6.24.35,8.24,3.19,9.45,9.19,4.24,21.06,8.77,42.09,14.26,62.85,3.17,11.96,9.72,15.58,20.47,14.26,8.61-1.06,14.68-8.28,15.5-19.23.53-7.14.78-14.35.41-21.49-.51-9.62-1.73-19.2-2.79-30.31,9.5,4.26,17.9,7.43,25.62,11.79,2.98,1.68,5.77,5.88,6.31,9.31,2.34,14.74,3.15,29.73,5.77,44.41,3.89,21.77,8.41,43.52,20.69,62.56,4.61,7.14,10.69,12.3,19.98,11.02,9.33-1.28,14.61-7.93,15.93-16.13,2.31-14.31,3.74-28.89,4.01-43.38.19-10.17-2.17-20.39-3.58-32.19,5.85,3.2,10.06,6.04,14.67,7.93,8.61,3.52,11.42,9.05,10.92,18.65-.61,11.76.42,23.86,2.73,35.42,1.64,8.2,7.84,14.18,17.55,13.72,9.91-.47,13.69-7.55,15.95-15.7,1.56-5.62,2.37-11.44,3.99-19.53,12.77,11.29,24.64,20.74,35.31,31.39,39.23,39.16,74.53,81.81,108.31,125.65,23.11,29.99,39.8,63.88,55.72,98.12,3.33,7.17,1.79,11.23-5.13,13.94-8.05,3.15-16.15,6.17-24.16,9.42-5.79,2.35-11.74,4.48-17.1,7.61-6.19,3.61-9.28,9.45-7.11,16.77,2.13,7.2,7.78,11.61,14.82,10.51,11.35-1.77,22.59-4.82,33.56-8.34,6.99-2.25,13.39-6.33,21.44-10.26,7.68,26.56,15.89,51.92,16.13,80.99-18.74-7.19-36.33-13.66-53.66-20.75-5.27-2.16-9.99-3.69-13.38,1.74-3.32,5.32-.83,9.95,4.19,12.8,4.91,2.79,10.03,5.36,15.32,7.28,14.05,5.09,28.29,9.66,42.35,14.74,2.56.92,6.46,3.15,6.57,4.98.64,10.22.31,20.5.31,32.28-5.12-2.24-7.79-3.46-10.51-4.58-16.59-6.8-33.16-13.63-49.79-20.34-5.78-2.33-11.84-2.85-14.25,4.24-2.61,7.69,3.13,10.01,9.25,12.41,18.63,7.31,37.1,15.04,55.43,23.05,2.18.95,4.88,5.07,4.4,7-2.12,8.55-5.32,16.84-8.4,26.05-4.13-2.47-6.9-4.17-9.7-5.81-18.58-10.86-37.08-21.85-55.8-32.45-5.38-3.05-11.66-3.43-14.58,3.31-3,6.91,2.18,9.5,7.71,12.55,21.93,12.09,43.49,24.84,64.8,37.13-.44,2.48-.44,3.41-.78,4.19-.83,1.92-1.72,3.82-2.76,5.63-16.28,28.19-37.43,51.81-65.27,69.04-35.55,21.99-72.63,40.3-114.35,47.56-8.39,1.46-13.28,8.59-12.34,16.18.92,7.47,6.54,12.06,15.19,12.12,2.66.02,5.44-.16,7.97-.91,16.02-4.76,32.44-8.57,47.86-14.85,21.78-8.87,42.81-19.6,64.86-29.87,12.03,12.17,20.7,27.67,27.13,44,11.04,28.05,20.43,56.74,30.83,85.05,1.09,2.96,4.15,7.02,6.67,7.3,8.18.93,16.53.35,25.98.35-8.84-27.51-16.31-54.37-26.14-80.33-10-26.4-22.8-51.65-41.03-74.01.81-1.03,1.39-2.1,2.26-2.81,23.05-18.81,42.39-40.75,56.19-67.26,2.46-4.72,4.65-3.97,8.22-1.3,13.18,9.87,26.53,19.52,39.88,29.17,5.5,3.98,10.78,3.72,14.38-2.39,3.18-5.4.25-9.29-4.32-12.51-16.03-11.31-31.97-22.73-48.11-34.22,3.57-10.27,7.17-20.64,11.1-31.95,3.76,2.33,6.29,3.76,8.67,5.4,9.18,6.35,18.24,12.86,27.47,19.14,4.7,3.2,8.92,2.21,12.03-2.55,3.25-4.97,1.52-8.8-3.02-11.89Zm-566.13-361.86c7.16.26,10.42,4.8,11.29,10.67.07,8.09-7.5,13.87-17.34,13.96-5.87.05-9.85-2.44-10.24-8.69-.47-7.59,8.3-16.22,16.29-15.94Zm-77.73-24.1c9.71-9.89,21.39-16.17,35.63-16.27,10.99-.08,18.96,5.23,23.17,15.2,4.07,9.64,2.38,18.91-4.93,26.49-9.79,10.15-22.09,14.85-35.42,15.23-11.26-.08-20.33-3.27-24.79-13.66-4.42-10.29-1.04-19.46,6.35-26.99ZM155.4,1014.64c-.96-3.14-1.77-6.33-2.5-9.54-5.03-22.06,8.78-38.23,31.6-36.67,6.18.42,12.28,1.9,18.97,2.99-1.47,13.45.03,15.92,11.64,19.54,56.72,17.66,107.58,45.66,152.24,85.03,3.86,3.4,10.68,3.35,16.02,5.19,2.96,1.02,6.79,1.88,8.36,4.12,6.45,9.19,2.9,23.26-8.91,31.1-11.14,7.4-23.36,13.2-35.2,19.51-6.59,3.51-13.56,6.31-20.03,10.01-6.54,3.74-11.99,7.29-20.26,2.22-3.32-2.03-11.43.42-15.38,3.43-11.36,8.65-21.76,18.56-32.43,28.1-2.85,2.55-5.31,5.52-7.41,7.73-48.65-48.81-76.94-108.43-96.69-172.76Zm152.96,455.25c-16.53.06-27.02-14.57-21.16-30.29,5.88-15.78,18.24-25.23,33.89-29.47,15.89-4.31,29.49,8.93,27.09,25.09-2.5,16.8-22.95,34.61-39.81,34.67Zm486.96,130.94c-56.48,8.25-110.27-10.57-162.34-30.37-6.21-2.36-9.25-9.35-6.77-14.77-3.17,3.29-4.45,7.54-3.22,12.75,1.64,6.95,6.79,11.22,13.72,10.54,15.44-1.51,21.32,7.19,25.42,20.15,9.6,30.32,18.64,60.5,13.3,93.02-2.39,14.59-8.86,26.56-19.65,36.26-17.33,15.58-37.76,23.8-61.1,24.48-73.83,2.16-142.61-16.1-206.77-52.07-10.34-5.8-20.08-13.26-28.67-21.45-20.3-19.33-21.87-43.36-14.53-68.8,1.39-4.83,3.85-9.38,6.1-13.92,5.16-10.41,11.96-15.67,25.16-17.28,33.55-4.1,61.98-18.18,74.81-52.85.93-2.51,2.64-5.56,1.92-7.65-1.22-3.56-3.45-8.04-6.46-9.32-2.44-1.04-6.7,1.9-10.01,3.39-.88.4-1.27,1.96-1.79,3.03-17.26,35.55-46.02,50.47-85.5,42.96,30.97.53,54.61-12.85,72.27-36.99,13.4-18.31,17.92-39.66,17.46-61.89-.64-30.7-25.89-75.16-73.81-81.97-38.5-5.47-82.42,19.43-96.65,59.3-12.66,35.48-13.42,88.19,43.65,113.61-41.13-12.23-67.35-39.42-67.7-82.22-.1-11.85,1.75-23.84,3.84-35.57,8.97-50.54,64.61-86.41,121.24-72.97,28.84,6.85,55.6,18.45,66.96,48.27,5.81,15.25,5.91,32.63,9.15,48.94,1.03,5.17,3.92,9.96,5.81,14.98.79,2.11,1.68,4.36,1.7,6.55.04,4.66-.47,9.32-.8,14.79,35.76-19.19,70.81-35.78,111.24-16.81,32.42,15.21,55.95,39.22,73.31,70.51,45.66-27.32,89.87-56.99,132.46-88.9,10.91-8.17,21.44,10.2,10.68,18.26-38.65,28.96-78.63,56.07-119.82,81.26,41.55,15.35,85.46,28.82,129.79,22.34,5.62-.82,11.41,1.31,13.01,7.39,1.33,5.03-1.69,12.18-7.39,13.01Zm-438.94-146.21c-.22-9.25,8.63-18.88,17.73-19.26,7.48-.32,13.79,5.82,13.75,13.39-.04,8.79-9.69,18.03-18.94,18.13-7.22.08-12.37-4.96-12.55-12.26Zm570.71-263.46c-6.96-3.04-13.92-6.08-21.81-9.53,3.04-5.53,5.53-10.07,9.05-16.46,5.56,9.2,10.16,16.79,14.75,24.39-.66.53-1.32,1.07-1.99,1.6Zm3.77-155.61c-11.42,15.86-17.14,33.54-6.31,53.15-18.31-3.99-35.14-7.7-51.99-11.31-11.08-2.37-15.65-.62-20.31,9.3-3.17,6.75-6.99,4-10.76,1.71-10.91-6.61-15.76-24.33-10.77-38.44,13.71-1.26,13.12-1.44,17.58-16.32,8.57-28.59,22.85-54.61,39.16-79.35,14.47-21.94,30.09-43.15,45.83-64.21,5.1-6.83,11.51-13.16,18.53-17.95,7.32-5,11.14-9.82,6.23-18.79,17.99-12.49,35.64-15.76,54.39-4.31,12.98,7.93,19.66,19.98,20.87,34.61,1.33,16.05,1.41,32.2,1.79,48.31.19,8.19-4.18,12.98-11.15,17.57-18.9,12.45-38.35,24.64-54.97,39.81-14.62,13.34-26.45,30.01-38.11,46.21Zm288.93-50.66c-10.67,5.4-12.8,9.59-11.88,21.13,4.33,54.43,1.66,108.04-18.32,159.77-10.59,27.41-29.07,45.9-58.72,48.42-13.05,1.11-27.14-3.03-39.92-7.27-23.39-7.77-43.06-22.81-60.15-39.81-25.36-25.22-49.29-52.01-72.36-79.37-13.38-15.87-12.62-23.55-.69-40.23,19.44-27.18,42.04-50.84,71.55-67.98,31.93-18.54,64.62-35.3,99.7-46.48,18-5.73,37.3-7.49,56.09-10.59,8.52-1.4,13.8,3.29,15.48,11.42,1.51,7.29,2.61,14.7,3.19,22.12,1.11,14.23,4.73,18.4,21.97,20.56-2.55,3.7-3.67,7.14-5.94,8.29Zm206.51-31.31c-2.91,6.14-6.73,6.07-12.98,4.67-14.82-3.32-29.92-6.46-45.03-7.25-22.94-1.21-46.18-2.2-68.95.13-22.36,2.29-44.28,8.85-65.96,13.44-1.24-10.71-1.79-22.94-4.2-34.79-5.19-25.48-21.01-35.99-46.79-35.66-39.44.51-74.67,14.9-109.82,30.24-2.14.94-4.28,1.89-7.26,3.22-1.61-20.41-1.8-39.93-5.03-58.93-3.43-20.19-7.8-40.64-15.17-59.64-18.39-47.38-65.75-60.78-109.49-35.7-36.93,21.17-68.04,49.35-95.65,81.74-48.1,56.43-85.53,118.82-107.49,189.91-3,9.72-7.17,12.42-17.44,12.18-27.77-.64-55.63-.28-83.36,1.35-10.97.64-16.54-4.06-21.91-11.72-28.56-40.77-49.86-84.82-62.73-133.11-11.3-42.41-14.15-85.43-12.16-128.93.69-15.02,3.18-29.96,5.04-46.73,4.65,2.9,7.75,4.5,10.48,6.58,20.22,15.39,42.87,26.07,66.79,34.17,13.77,4.66,27.48,5.18,40.86-2,2.13-1.14,5.2-1.03,7.77-.8,30.09,2.71,60.15,5.62,90.24,8.28,4.42.39,9.38.84,13.27-.75,3.75-1.53,8.69-5.39,9.09-8.71.76-6.24-4.9-7.69-10.53-7.98-25.05-1.27-50.09-2.64-75.12-4.16-6.86-.42-13.76-1.08-20.48-2.43-2.72-.55-6.49-2.74-7.26-5.03-5.75-17.16-19-25.96-34.93-30.82-28.78-8.78-52.03-24.83-73.62-45.88-10.9-10.63-12.62-20.75-12.93-33.39-2.53-103.01,19.75-200.27,64.99-292.92,18.91-38.73,45.62-70.55,75.51-100.53,6.15-6.16,12.02-6.77,20.04-2.94,16.33,7.81,29.95,18.56,40.51,33.13,27.05,37.31,46.23,78.14,54.31,123.75,1.14,6.43,1.43,13.1,1.18,19.63-.08,2.2-2.6,5-4.75,6.32-8.66,5.32-17.73,9.97-26.42,15.24-9.18,5.57-11.94,13.56-7.79,21.01,4.76,8.53,13.05,10.15,23.24,4.66,17.1-9.21,34.04-18.77,51.46-27.35,7.96-3.92,16.79-6.29,25.47-8.4,2.69-.65,7.48.93,9.01,3.11,5.47,7.77,10.82,15.85,14.62,24.52,7.73,17.6,18.76,31.68,36.07,40.75,9.61,5.03,18.97,7.75,28.67,1.22,10.09-6.8,13.09-16.28,10.14-29.2-4.44-19.41-14.73-35.8-26.28-51.57-1.19-1.63-2.38-3.26-3.69-5.06,22.85-6.05,20.89-7.32,32.43,9.2,14.68,21.01,28.66,42.56,41.86,64.53,9.24,15.37,21.65,26,38.08,32.48,17.83,7.03,32.39-.71,36.87-19.31,3.38-14.03-.65-26.73-6.6-38.95-9.91-20.34-20.33-40.43-30.99-61.54,6.49-.43,13.2-1.36,19.85-1.03,2.27.11,5.1,2.97,6.44,5.29,8.48,14.76,16.55,29.76,24.9,44.6,4.82,8.57,9.19,17.54,15.1,25.33,7.98,10.52,23.39,9.61,32.02-.35,8.18-9.45,11.22-19.34,6.05-31.3-5.69-13.14-10.47-26.69-16.58-39.62-5.9-12.5-5.31-21.56,4.01-31.29,18.8-19.63,33.15-42.32,45.63-66.3,3.22-6.2,4.13-12.21-3.09-16.23-7.39-4.12-11.88.05-15.1,6.26-12.03,23.2-26.03,44.97-44.12,64.07-6.76,7.14-13.85,9.75-23.75,9.25-18.74-.94-37.56-.27-57.91-.27,7.62-8.12,14.28-15.56,21.3-22.64,35.83-36.07,71.72-72.08,107.69-108.01,4.01-4,8.58-7.46,12.99-11.03,14.57-11.81,30.01-7.33,33.67,11.1,3.76,18.95,6.96,38.35,7.2,57.6.38,30.74-2.28,61.5-2.72,92.26-.1,7.07,2.8,14.54,5.85,21.12,1.44,3.09,6.46,6.3,9.93,6.37,16.79.38,30.17,9.06,43.94,16.74,33.9,18.91,60.55,45.46,81.48,78,5.99,9.31,12.8,18.12,18.23,27.72,1.98,3.51,2.83,9.56,1.12,12.88-4.85,9.46-11.23,18.15-17.09,27.08-3.42,5.21-8.22,9.88-10.23,15.55-2.94,8.27-1.71,16.86,5.82,22.81,7.45,5.89,16.82,7.91,24.16,2.02,8.84-7.1,15.96-16.46,23.33-25.25,2.97-3.55,4.61-8.2,7.91-14.3,10.49,10.05,20.17,19.07,29.39,28.54,1.01,1.04.05,5.12-1.19,7.01-3.92,5.99-8.29,11.69-12.7,17.34-3.04,3.89-5.24,7.96-.77,11.79,4.89,4.19,9.1,1.2,12.12-2.95,4.55-6.26,8.62-12.87,14.3-21.46,6.28,9.44,11.91,17.58,17.03,26.03.64,1.05-.96,4.39-2.42,5.6-4.59,3.82-10.23,6.54-14.21,10.85-2.42,2.62-4.6,8.71-3.21,10.91,3.1,4.89,8.16,3.12,12.3-.41,4.73-4.04,9.61-7.9,16.04-13.15,5.11,11.98,9.68,22.71,14.9,34.94-10.01,2.68-18.52,4.98-27.05,7.24-2.6.69-5.23,1.26-7.84,1.9-5.21,1.27-9.53,3.88-7.36,9.88,2.05,5.66,6.71,5.28,11.97,3.52,9.82-3.28,19.9-5.79,32.14-9.27.62,15.06,2.82,28.79,1.45,42.15-4.22,40.95-14.28,80.7-30.52,118.53-11.53,26.86-25.05,52.86-37.56,79.29Zm333.41,264.32c-1.98-1.89-3.71-3.26-5.11-4.91-27.75-32.53-55.4-65.15-83.29-97.56-3.3-3.83-4.23-6.61-.76-10.68,6.76-7.95,13.02-16.32,19.89-24.16,4-4.56,6.31-9.14,2.12-14.3-4.51-5.55-10.6-4.89-15.01-.47-8.84,8.84-16.88,18.47-25.82,28.41-6.58-5.82-13.5-11.41-19.61-17.78-1.3-1.36-.73-6.4.78-8.28,10.11-12.56,19.68-25.83,31.41-36.73,15.26-14.18,32.18-26.61,48.78-39.29,5.72-4.37,10.73-8.27,6.85-16.03-2.84-5.67-9.59-5.99-17.27-1.18-32.6,20.4-59.95,46.47-83.05,77.11-1.95,2.59-3.82,5.25-6.27,8.61-14.66-9.61-28.34-18.58-43.47-28.5,8.15-5.08,15.19-9.34,22.1-13.82,12.3-7.97,24.68-15.81,36.72-24.16,28.18-19.54,58.31-35.42,90.82-46.11,13.18-4.33,27.4-6.3,41.3-7.41,19.1-1.52,39.52,17.81,42.83,41.24,4.53,32.08,5.49,64.44-1.8,96.33-10.25,44.84-18.92,90.18-38.53,132.31-1,2.16-2.1,4.27-3.62,7.35Z"
    />
  </g>
</svg>
