<svg xmlns="http://www.w3.org/2000/svg" viewBox="0 0 512 512">
  <rect x="0" y="0" width="512" height="512" fill="#7b2bf9" />
  <g>
    <path
      d="M250.06105,0h11.77829a6.03767,6.03767,0,0,0,1.18433.3c2.29663.11412,4.60127.11377,6.89174.296,5.89081.46874,11.805.79475,17.65541,1.58161,7.44851,1.0018,14.8953,2.152,22.25114,3.67972a245.2636,245.2636,0,0,1,47.23653,15.04324,256.40661,256.40661,0,0,1,146.6493,170.849,244.61125,244.61125,0,0,1,5.55158,27.73987c.77247,5.512,1.358,11.05623,1.8248,16.603.36394,4.32463.40879,8.67588.61646,13.0143A4.7758,4.7758,0,0,0,512,250.16311v11.7784a2.15747,2.15747,0,0,0-.28506.6728c-.11571,2.51061-.13415,5.02762-.3179,7.53272-.37335,5.0892-.61343,10.20215-1.30579,15.25081-1.11956,8.164-2.25156,16.34793-3.92563,24.40983a244.9161,244.9161,0,0,1-19.13841,56.33348,255.10978,255.10978,0,0,1-74.64005,92.42147,252.37792,252.37792,0,0,1-91.32767,45.02185,238.66117,238.66117,0,0,1-43.56545,7.406c-6.28162.45431-12.5776.74877-18.8722.968-3.23141.11255-6.478-.02266-9.71093-.18254-5.8224-.28793-11.6549-.51907-17.45495-1.07078-5.91938-.56305-11.82261-1.36737-17.70145-2.27075a233.53289,233.53289,0,0,1-36.78533-8.90656A256.33523,256.33523,0,0,1,9.27173,324.40231a240.01865,240.01865,0,0,1-8.259-46.77468q-.64941-8.91272-.96356-17.84846c-.12033-3.53-.0046-7.077.1832-10.60679.35937-6.755.6621-13.52145,1.333-20.24878.63206-6.33811,1.50749-12.66776,2.62771-18.93826A248.23456,248.23456,0,0,1,16.6514,165.17182,256.4083,256.4083,0,0,1,191.63955,8.29416a243.83385,243.83385,0,0,1,27.74311-5.55274c5.51315-.77089,11.05786-1.36017,16.60564-1.82512,4.36791-.36607,8.76252-.41158,13.14431-.61949A3.74045,3.74045,0,0,0,250.06105,0Zm5.85809,444.36556c104.0386.45078,187.93761-84.46544,188.58261-186.179.67091-105.80846-83.9584-189.345-186.196-190.4122C151.17526,66.656,68.78614,152.31721,67.663,253.75923,66.47989,360.62392,153.22742,444.817,255.91914,444.36556Z"
      fill="#7b2bf9" />
    <path
      d="M255.91914,444.36556C153.22742,444.817,66.47989,360.62392,67.663,253.75923c1.1231-101.442,83.51222-187.1032,190.64271-185.9849,102.2376,1.06724,186.86691,84.60374,186.196,190.4122C443.85675,359.90012,359.95774,444.81634,255.91914,444.36556ZM357.13607,199.15522c-.614-.53575-.97935-.87962-1.37024-1.19148-2.06756-1.64949-4.11989-3.31913-6.21655-4.93093a304.55647,304.55647,0,0,0-102.41519-51.77165,224.35229,224.35229,0,0,0-50.93972-8.70147c-6.37-.31487-12.77665-.0078-19.16283.15944a109.25689,109.25689,0,0,0-18.839,2.33487c-10.681,2.16477-20.85984,5.6633-30.16193,11.47675a55.561,55.561,0,0,0-20.65744,22.37656c-5.00251,9.93538-6.04968,20.59405-4.87748,31.50378a87.08885,87.08885,0,0,0,6.01173,23.0194c5.231,13.09446,12.59936,24.93764,21.17627,36.05418a221.28725,221.28725,0,0,0,30.51963,31.986,8.446,8.446,0,0,0,11.04251.323,484.675,484.675,0,0,1,53.09924-36.275,13.33356,13.33356,0,0,0,6.90918-11.34921c.4158-6.32544.77612-12.65589,1.3038-18.9722.41048-4.91361.8689-9.83507,1.61186-14.7064,1.21078-7.93849,2.51771-15.869,4.06266-23.74824a261.22725,261.22725,0,0,1,8.95481-33.384,4.67456,4.67456,0,0,1,6.2743-3.17759c1.8307.56385,3.652,1.15907,5.4712,1.7592,3.44114,1.13521,4.6,3.402,3.44189,6.82321a282.73342,282.73342,0,0,0-12.1388,53.14666c-1.13836,8.46505-1.941,16.98642-2.56142,25.5066-.52556,7.217-.645,14.46744-.79822,21.70618-.08741,4.12989.1054,8.26624.19532,12.39917.04909,2.25622.08491,4.51549.23383,6.76629.49428,7.47153.92313,14.95021,1.59837,22.40611.51731,5.71229,1.16151,11.42965,2.12246,17.0813,1.3462,7.91753,3.00946,15.78207,4.5956,23.65749.85257,4.23318-.84743,7.643-4.83266,9.29606-2.87176,1.19115-5.76764,2.32407-8.65221,3.4843a15.31637,15.31637,0,0,1-12.74069-.39129,391.84644,391.84644,0,0,1-42.67247-22.91594C160.978,314.623,137.79937,295.4,118.72837,271.479c-9.72363-12.19643-18.037-25.25579-24.03719-39.69869-1.5339-3.69224-2.76979-7.50861-4.12811-11.27318-.31418-.87074-.78869-1.68558-1.79373-1.41921a2.249,2.249,0,0,0-1.40092,1.34548,139.16744,139.16744,0,0,0-3.55179,27.28091c-.2014,7.61571-.00462,15.26523.49157,22.86875a158.48459,158.48459,0,0,0,2.35272,18.06629,164.09159,164.09159,0,0,0,11.9457,38.0378A172.04416,172.04416,0,0,0,111.8024,350.6301a3.89723,3.89723,0,0,0,3.93048,2.09018,4.04725,4.04725,0,0,0,3.22764-2.76444c.57969-1.32665,1.239-2.62316,1.93517-3.89348,6.271-11.44281,14.64009-21.2571,23.78232-30.45357a6.18231,6.18231,0,0,1,8.09329-.39461c.96189.70649,1.89045,1.461,2.80675,2.22652a6.106,6.106,0,0,1,.48953,9.41A151.88333,151.88333,0,0,0,139.038,347.097c-3.64518,5.38976-6.85387,10.99294-8.30857,17.43782-1.4845,6.57687.495,10.75732,6.59325,13.642a37.54179,37.54179,0,0,0,14.49708,3.16862,92.65669,92.65669,0,0,0,13.41238-.2233c7.14031-.70805,14.3-1.52987,21.33923-2.88627a310.57979,310.57979,0,0,0,49.11753-14.20925,529.07076,529.07076,0,0,0,66.18391-30.00922,491.87131,491.87131,0,0,0,72.13206-46.79975,4.57829,4.57829,0,0,0,1.92178-3.60846c.326-5.77905.758-11.55339.99469-17.33585.20389-4.98211.22689-9.97265.26749-14.96.018-2.21272-.10993-4.427-.18535-6.64-.1669-4.89564-.224-9.79875-.545-14.68444-.39292-5.98132-.88-11.96285-1.56411-17.917-.7855-6.83688-1.668-13.671-2.79771-20.45824a242.87772,242.87772,0,0,0-11.30244-43.41256c-4.02829-11.05046-8.97006-21.66032-15.75769-31.32395-4.44452-6.32767-9.52667-12.05147-16.14164-16.22283-7.5154-4.73916-15.449-6.0148-23.895-2.75126a40.85973,40.85973,0,0,0-13.18113,8.64746c-6.63032,6.22015-11.74666,13.5942-16.20868,21.45838-1.63507,2.8818-.8276,5.24568,2.25193,6.44263a325.11221,325.11221,0,0,1,79.50875,44.29228,18.52124,18.52124,0,0,1,7.28188,11.51794c.75709,3.96363,1.45376,7.94649,1.962,11.94816.81938,6.45226-2.61617,11.7202-8.506,13.17607a390.14346,390.14346,0,0,0-53.29752,17.643c-15.72266,6.39232-31.06576,13.599-46.09908,21.47259-2.95686,1.54863-5.22156.13376-5.15145-3.21241.05354-2.55485.2891-5.109.26431-7.66166-.03439-3.53867,1.54021-5.72324,4.787-7.19768,9.58349-4.352,18.99326-9.09131,28.61838-13.34567a409.77408,409.77408,0,0,1,59.60625-21.2955C350.15218,200.90037,353.48767,200.086,357.13607,199.15522ZM255.78049,428.57149a201.63349,201.63349,0,0,0,21.92219-1.55156,2.75935,2.75935,0,0,0,2.61476-1.88814,2.5982,2.5982,0,0,0-1.12694-2.89375c-7.67262-6.506-13.60715-14.42826-18.712-23.022a156.86889,156.86889,0,0,1-9.78223-19.81577c-.99822-2.393-2.71972-3.08191-5.14355-2.16385A360.05931,360.05931,0,0,1,188.70009,394.022a174.509,174.509,0,0,1-23.86269,3.207c-1.26417.07548-2.32175.362-2.68781,1.68362-.35982,1.299.43528,2.07752,1.45921,2.68405,3.30055,1.95509,6.54712,4.00829,9.90788,5.8536A168.86821,168.86821,0,0,0,237.559,427.44689C243.60436,428.08955,249.70516,428.21083,255.78049,428.57149Zm-2.60925-302.63787c3.77986-.02345,6.087-1.36906,7.58778-4.06617a128.81957,128.81957,0,0,1,12.60722-18.91967A78.3934,78.3934,0,0,1,285.48,90.86117a2.56954,2.56954,0,0,0,1.04364-2.8116,2.49476,2.49476,0,0,0-2.12744-1.95746c-.5859-.09984-1.17154-.2138-1.76219-.27109-6.85189-.66456-13.69338-1.51869-20.56115-1.90957a115.67091,115.67091,0,0,0-14.69309.19656c-6.56438.46421-13.13836,1.06674-19.64323,2.043a162.62466,162.62466,0,0,0-44.05346,13.41657,170.86234,170.86234,0,0,0-27.286,15.81139c-.80241.56834-1.5165,1.20177-1.0701,2.31735.41507,1.03733,1.28408,1.12345,2.24234.94155a138.94961,138.94961,0,0,1,22.93934-2.39169c6.50837-.1399,13.03911.05925,19.53947.44944,6.10406.3664,12.20772.9908,18.26441,1.83849a239.6037,239.6037,0,0,1,30.19666,6.269C250.26512,125.28489,252.04931,125.66359,253.17124,125.93362Zm56.32734,292.60023c2.01011-.31372,4.0547-.48626,6.024-.96723,6.35208-1.55138,11.5744-5.1193,16.25975-9.52282,8.19378-7.70089,14.12881-17.02685,19.14857-26.98492a2.7529,2.7529,0,0,0-2.63351-4.0452c-3.31787.08339-6.6331.44543-9.94816.42912-5.27974-.02594-10.56711-.12681-15.83526-.45369-5.42787-.33682-10.87443-.73362-16.24485-1.55078-7.9768-1.21375-15.91128-2.73187-23.829-4.2966-4.04153-.79869-8.00952-1.97206-12.00615-2.99421a3.97562,3.97562,0,0,0-4.31036,1.14836,3.51072,3.51072,0,0,0-.37226,4.17395c2.96282,5.94475,5.6872,12.02364,8.94242,17.80361a65.91475,65.91475,0,0,0,17.05857,20.37306C296.96974,415.65535,302.7147,418.3479,309.49858,418.53385ZM230.72329,270.47023c-6.79032,2.72465-49.00842,32.11387-51.71353,36.01567a314.14415,314.14415,0,0,0,59.706,33.639A352.44714,352.44714,0,0,1,230.72329,270.47023Zm103.25,91.11717c3.49087-.1314,6.98711-.18278,10.4711-.41677,3.47546-.23349,6.93232-.767,10.4089-.95494,3.86284-.20883,5.98113-2.20389,7.15942-5.78287a287.06229,287.06229,0,0,0,10.13341-41.61044c.17429-1.02159.24027-1.88286-.73558-2.451-.92318-.53742-1.68692-.06473-2.4516.48219-2.91291,2.08346-5.82595,4.16785-8.77558,6.1987a565.5696,565.5696,0,0,1-63.12453,37.36029c-.85892.43987-1.59753.95573-1.48929,1.98747.11546,1.10044.9855,1.51037,1.979,1.68284A210.9673,210.9673,0,0,0,333.97331,361.5874ZM419.424,300.98721c-.23983-2.92435-.27086-5.8847-.7674-8.76479-.78587-4.55771-1.73843-9.0993-2.90059-13.575-.76818-2.95855-4.22179-3.6665-6.46338-1.57623q-7.392,6.89292-14.80826,13.75975a11.47519,11.47519,0,0,0-3.63555,5.75724c-.52148,2.22692-.76234,4.51957-1.12538,6.78351-1.06983,6.67123-1.91915,13.38723-3.26479,20.00233-1.64319,8.07765-3.70081,16.07107-5.5843,24.09974a3.45433,3.45433,0,0,0,4.96525,4.11465c.77149-.36335,1.53186-.75128,2.28953-1.143,8.221-4.25034,15.42266-9.77509,20.9287-17.27516A53.12157,53.12157,0,0,0,419.424,300.98721Zm-6.49217-106.02613c2.29979.14873,3.52325-1.48318,2.81505-3.69972-.12924-.40451-.30659-.79412-.46968-1.18729A168.16112,168.16112,0,0,0,385.6568,142.6978c-3.50112-3.95317-7.29154-7.65272-11.02149-11.39663a2.1513,2.1513,0,0,0-1.89471-.3439,1.43632,1.43632,0,0,0-.76818,2.02507c.26115.62836.4624,1.28151.71989,1.91153a258.60163,258.60163,0,0,1,14.6782,51.57576,8.65761,8.65761,0,0,0,8.88395,7.51916c2.93729.02619,5.87748.08727,8.80927.25594C407.69146,194.39592,410.3095,194.71569,412.93179,194.96108ZM400.3004,209.80279c-.5543,0-1.1099.02481-1.66261-.0049a2.87066,2.87066,0,0,0-3.033,1.6607c-.635,1.31433.024,2.27245.82431,3.226,2.00039,2.38322,4.1,4.69533,5.94394,7.1952,3.99384,5.41463,7.87744,10.91139,11.75466,16.41086,1.58622,2.24991,4.50591,2.24982,5.861-.12625a40.21986,40.21986,0,0,0,4.50716-11.346c1.48538-6.793-.66035-11.11929-6.86765-13.83756-.11693-.05123-.23639-.09655-.35423-.14572C411.84052,210.56758,406.10078,210.01916,400.3004,209.80279Zm-7.30577,56.28148-.20244-.00053c0,.128.00219.256-.00041.384-.01728.85668-.13243,1.78815.86708,2.20123.98006.40505,1.68023-.11546,2.34764-.81338,2.653-2.77432,5.36451-5.493,7.9999-8.28363,1.966-2.08179,2.22334-3.57375.74771-5.97965-2.67265-4.3575-5.50366-8.6178-8.26408-12.92157-.5552-.86559-1.26834-1.43658-2.33967-1.06922-1.01936.34952-1.1662,1.21512-1.16438,2.18266Q393.00881,253.93419,392.99463,266.08427ZM369.855,385.00712a5.14736,5.14736,0,0,0,1.04211-.5964q1.41327-1.20029,2.7404-2.50126c2.682-2.62613,5.37577-5.242,7.97978-7.9439a2.418,2.418,0,0,0,.44718-1.89686c-.17769-.85974-1.0117-1.05865-1.8518-.97023a2.93163,2.93163,0,0,0-.50654.06648c-2.20583.63863-4.42048,1.25051-6.60581,1.9534a2.23,2.23,0,0,0-1.2565.98545c-1.32907,2.85762-2.6116,5.73908-3.81521,8.65168C367.55347,383.90524,368.35619,384.97043,369.855,385.00712Zm58.63931-126.15778-.08-.01082a11.02245,11.02245,0,0,0-.01956-1.53059c-.04136-.29248-.22445-.71945-.44112-.791a1.11773,1.11773,0,0,0-.87436.31085,3.20056,3.20056,0,0,0-.349,4.67117c.49847.60524,1.24383.504,1.43659-.26352A20.537,20.537,0,0,0,428.49429,258.84934Z"
      fill="#fff" />
    <path
      d="M357.13607,199.15522c-3.6484.93075-6.98389,1.74515-10.29957,2.63348a409.77408,409.77408,0,0,0-59.60625,21.2955c-9.62512,4.25436-19.03489,8.99368-28.61838,13.34567-3.2468,1.47444-4.8214,3.659-4.787,7.19768.02479,2.5527-.21077,5.10681-.26431,7.66166-.07011,3.34617,2.19459,4.761,5.15145,3.21241,15.03332-7.87355,30.37642-15.08027,46.09908-21.47259a390.14346,390.14346,0,0,1,53.29752-17.643c5.88986-1.45587,9.32541-6.72381,8.506-13.17607-.50819-4.00167-1.20486-7.98453-1.962-11.94816a18.52124,18.52124,0,0,0-7.28188-11.51794,325.11221,325.11221,0,0,0-79.50875-44.29228c-3.07953-1.197-3.887-3.56083-2.25193-6.44263,4.462-7.86418,9.57836-15.23823,16.20868-21.45838a40.85973,40.85973,0,0,1,13.18113-8.64746c8.446-3.26354,16.37959-1.9879,23.895,2.75126,6.615,4.17136,11.69712,9.89516,16.14164,16.22283,6.78763,9.66363,11.7294,20.27349,15.75769,31.32395a242.87772,242.87772,0,0,1,11.30244,43.41256c1.12966,6.78719,2.01221,13.62136,2.79771,20.45824.6841,5.95412,1.17119,11.93565,1.56411,17.917.321,4.88569.37808,9.7888.545,14.68444.07542,2.21306.20335,4.42729.18535,6.64-.0406,4.9873-.0636,9.97784-.26749,14.96-.23664,5.78246-.66869,11.5568-.99469,17.33585a4.57829,4.57829,0,0,1-1.92178,3.60846,491.87131,491.87131,0,0,1-72.13206,46.79975,529.07076,529.07076,0,0,1-66.18391,30.00922,310.57979,310.57979,0,0,1-49.11753,14.20925c-7.03923,1.3564-14.19892,2.17822-21.33923,2.88627a92.65669,92.65669,0,0,1-13.41238.2233,37.54179,37.54179,0,0,1-14.49708-3.16862c-6.09827-2.88471-8.07775-7.06516-6.59325-13.642,1.4547-6.44488,4.66339-12.04806,8.30857-17.43782a151.88333,151.88333,0,0,1,17.02957-20.24623,6.106,6.106,0,0,0-.48953-9.41c-.9163-.7655-1.84486-1.52-2.80675-2.22652a6.18231,6.18231,0,0,0-8.09329.39461c-9.14223,9.19647-17.51136,19.01076-23.78232,30.45357-.69618,1.27032-1.35548,2.56683-1.93517,3.89348a4.04725,4.04725,0,0,1-3.22764,2.76444,3.89723,3.89723,0,0,1-3.93048-2.09018,172.04416,172.04416,0,0,1-13.19578-23.94292,164.09159,164.09159,0,0,1-11.9457-38.0378,158.48459,158.48459,0,0,1-2.35272-18.06629c-.49619-7.60352-.693-15.253-.49157-22.86875a139.16744,139.16744,0,0,1,3.55179-27.28091,2.249,2.249,0,0,1,1.40092-1.34548c1.005-.26637,1.47955.54847,1.79373,1.41921,1.35832,3.76457,2.59421,7.58094,4.12811,11.27318,6.00017,14.4429,14.31356,27.50226,24.03719,39.69869,19.071,23.921,42.24964,43.144,67.99547,59.42732a391.84644,391.84644,0,0,0,42.67247,22.91594,15.31637,15.31637,0,0,0,12.74069.39129c2.88457-1.16023,5.78045-2.29315,8.65221-3.4843,3.98523-1.65306,5.68523-5.06288,4.83266-9.29606-1.58614-7.87542-3.2494-15.74-4.5956-23.65749-.96095-5.65165-1.60515-11.369-2.12246-17.0813-.67524-7.4559-1.10409-14.93458-1.59837-22.40611-.14892-2.2508-.18474-4.51007-.23383-6.76629-.08992-4.13293-.28273-8.26928-.19532-12.39917.15322-7.23874.27266-14.48918.79822-21.70618.62046-8.52018,1.42306-17.04155,2.56142-25.5066a282.73342,282.73342,0,0,1,12.1388-53.14666c1.15807-3.42124-.00075-5.688-3.44189-6.82321-1.81923-.60013-3.6405-1.19535-5.4712-1.7592a4.67456,4.67456,0,0,0-6.2743,3.17759,261.22725,261.22725,0,0,0-8.95481,33.38405c-1.54495,7.87925-2.85188,15.80975-4.06266,23.74824-.743,4.87133-1.20138,9.79279-1.61186,14.7064-.52768,6.31631-.888,12.64676-1.3038,18.9722A13.33356,13.33356,0,0,1,224.345,255.5187a484.675,484.675,0,0,0-53.09924,36.275,8.446,8.446,0,0,1-11.04251-.323,221.28725,221.28725,0,0,1-30.51963-31.986c-8.57691-11.11654-15.94522-22.95972-21.17627-36.05418a87.08885,87.08885,0,0,1-6.01173-23.0194c-1.1722-10.90973-.125-21.5684,4.87748-31.50378a55.561,55.561,0,0,1,20.65744-22.37656c9.30209-5.81345,19.481-9.312,30.16193-11.47675a109.25689,109.25689,0,0,1,18.839-2.33487c6.38618-.16724,12.79286-.47431,19.16283-.15944a224.35229,224.35229,0,0,1,50.93972,8.70147,304.55647,304.55647,0,0,1,102.41519,51.77165c2.09666,1.6118,4.149,3.28144,6.21655,4.93093C356.15672,198.2756,356.5221,198.61947,357.13607,199.15522Z"
      fill="#7b2bf9" />
    <path
      d="M255.78049,428.57149c-6.07533-.36066-12.17613-.48194-18.22149-1.1246a168.86821,168.86821,0,0,1-64.04232-19.99662c-3.36076-1.84531-6.60733-3.89851-9.90788-5.8536-1.02393-.60653-1.819-1.385-1.45921-2.68405.36606-1.32158,1.42364-1.60814,2.68781-1.68362a174.509,174.509,0,0,0,23.86269-3.207,360.05931,360.05931,0,0,0,56.85266-16.78565c2.42383-.91806,4.14533-.22914,5.14355,2.16385a156.86889,156.86889,0,0,0,9.78223,19.81577c5.10482,8.59378,11.03935,16.51606,18.712,23.022a2.5982,2.5982,0,0,1,1.12694,2.89375,2.75935,2.75935,0,0,1-2.61476,1.88814A201.63349,201.63349,0,0,1,255.78049,428.57149Z"
      fill="#7b2bf9" />
    <path
      d="M253.17124,125.93362c-1.12193-.27-2.90612-.64873-4.66205-1.13049a239.6037,239.6037,0,0,0-30.19666-6.269c-6.05669-.84769-12.16035-1.47209-18.26441-1.83849-6.50036-.39019-13.0311-.58934-19.53947-.44944a138.94961,138.94961,0,0,0-22.93934,2.39169c-.95826.1819-1.82727.09578-2.24234-.94155-.4464-1.11558.26769-1.749,1.0701-2.31735a170.86234,170.86234,0,0,1,27.286-15.81139A162.62466,162.62466,0,0,1,227.73654,86.151c6.50487-.97624,13.07885-1.57877,19.64323-2.043a115.67091,115.67091,0,0,1,14.69309-.19656c6.86777.39088,13.70926,1.245,20.56115,1.90957.59065.05729,1.17629.17125,1.76219.27109a2.49476,2.49476,0,0,1,2.12744,1.95746,2.56954,2.56954,0,0,1-1.04364,2.8116,78.3934,78.3934,0,0,0-12.11376,12.08661A128.81957,128.81957,0,0,0,260.759,121.86745C259.25822,124.56456,256.9511,125.91017,253.17124,125.93362Z"
      fill="#7b2bf9" />
    <path
      d="M309.49858,418.53385c-6.78388-.18595-12.52884-2.8785-17.7462-6.88735a65.91475,65.91475,0,0,1-17.05857-20.37306c-3.25522-5.78-5.9796-11.85886-8.94242-17.80361a3.51072,3.51072,0,0,1,.37226-4.17395,3.97562,3.97562,0,0,1,4.31036-1.14836c3.99663,1.02215,7.96462,2.19552,12.00615,2.99421,7.91767,1.56473,15.85215,3.08285,23.829,4.2966,5.37042.81716,10.817,1.214,16.24485,1.55078,5.26815.32688,10.55552.42775,15.83526.45369,3.31506.01631,6.63029-.34573,9.94816-.42912a2.7529,2.7529,0,0,1,2.63351,4.0452c-5.01976,9.95807-10.95479,19.284-19.14857,26.98492-4.68535,4.40352-9.90767,7.97144-16.25975,9.52282C313.55328,418.04759,311.50869,418.22013,309.49858,418.53385Z"
      fill="#7b2bf9" />
    <path
      d="M230.72329,270.47023a352.44714,352.44714,0,0,0,7.99243,69.65469,314.14415,314.14415,0,0,1-59.706-33.639C181.71487,302.5841,223.933,273.19488,230.72329,270.47023Z"
      fill="#7b2bf9" />
    <path
      d="M333.97331,361.5874a210.9673,210.9673,0,0,1-36.42471-3.50453c-.99354-.17247-1.86358-.5824-1.979-1.68284-.10824-1.03174.63037-1.5476,1.48929-1.98747a565.5696,565.5696,0,0,0,63.12453-37.36029c2.94963-2.03085,5.86267-4.11524,8.77558-6.1987.76468-.54692,1.52842-1.01961,2.4516-.48219.97585.56814.90987,1.42941.73558,2.451a287.06229,287.06229,0,0,1-10.13341,41.61044c-1.17829,3.579-3.29658,5.574-7.15942,5.78287-3.47658.18791-6.93344.72145-10.4089.95494C340.96042,361.40462,337.46418,361.456,333.97331,361.5874Z"
      fill="#7b2bf9" />
    <path
      d="M419.424,300.98721a53.12157,53.12157,0,0,1-10.36617,32.183c-5.506,7.50007-12.70772,13.02482-20.9287,17.27516-.75767.3917-1.518.77963-2.28953,1.143a3.45433,3.45433,0,0,1-4.96525-4.11465c1.88349-8.02867,3.94111-16.02209,5.5843-24.09974,1.34564-6.6151,2.195-13.3311,3.26479-20.00233.363-2.26394.6039-4.55659,1.12538-6.78351a11.47519,11.47519,0,0,1,3.63555-5.75724q7.41735-6.86559,14.80826-13.75975c2.24159-2.09027,5.6952-1.38232,6.46338,1.57623,1.16216,4.47572,2.11472,9.01731,2.90059,13.575C419.1531,295.10251,419.18413,298.06286,419.424,300.98721Z"
      fill="#7b2bf9" />
    <path
      d="M412.93179,194.96108c-2.62229-.24539-5.24033-.56516-7.86806-.71635-2.93179-.16867-5.872-.22975-8.80927-.25594a8.65761,8.65761,0,0,1-8.88395-7.51916,258.60163,258.60163,0,0,0-14.6782-51.57576c-.25749-.63-.45874-1.28317-.71989-1.91153a1.43632,1.43632,0,0,1,.76818-2.02507,2.1513,2.1513,0,0,1,1.89471.3439c3.72995,3.74391,7.52037,7.44346,11.02149,11.39663a168.16112,168.16112,0,0,1,29.62036,47.37627c.16309.39317.34044.78278.46968,1.18729C416.455,193.4779,415.23158,195.10981,412.93179,194.96108Z"
      fill="#7b2bf9" />
    <path
      d="M400.3004,209.80279c5.80038.21637,11.54012.76479,16.97361,3.0323.11784.04917.2373.09449.35423.14572,6.2073,2.71827,8.353,7.04452,6.86765,13.83756a40.21986,40.21986,0,0,1-4.50716,11.346c-1.35514,2.37607-4.27483,2.37616-5.861.12625-3.87722-5.49947-7.76082-10.99623-11.75466-16.41086-1.84392-2.49987-3.94355-4.812-5.94394-7.1952-.80034-.95354-1.45934-1.91166-.82431-3.226a2.87066,2.87066,0,0,1,3.033-1.6607C399.1905,209.8276,399.7461,209.80279,400.3004,209.80279Z"
      fill="#7b2bf9" />
    <path
      d="M392.99463,266.08427q0-12.15-.00865-24.30011c-.00182-.96754.145-1.83314,1.16438-2.18266,1.07133-.36736,1.78447.20363,2.33967,1.06922,2.76042,4.30377,5.59143,8.56407,8.26408,12.92157,1.47563,2.4059,1.21827,3.89786-.74771,5.97965-2.63539,2.79066-5.34694,5.50931-7.9999,8.28363-.66741.69792-1.36758,1.21843-2.34764.81338-.99951-.41308-.88436-1.34455-.86708-2.20123.0026-.128.00041-.256.00041-.384Z"
      fill="#7b2bf9" />
    <path
      d="M369.855,385.00712c-1.49879-.03669-2.30151-1.10188-1.82639-2.25164,1.20361-2.9126,2.48614-5.79406,3.81521-8.65168a2.23,2.23,0,0,1,1.2565-.98545c2.18533-.70289,4.4-1.31477,6.60581-1.9534a2.93163,2.93163,0,0,1,.50654-.06648c.8401-.08842,1.67411.11049,1.8518.97023a2.418,2.418,0,0,1-.44718,1.89686c-2.604,2.702-5.29782,5.31777-7.97978,7.9439q-1.32509,1.29753-2.7404,2.50126A5.14736,5.14736,0,0,1,369.855,385.00712Z"
      fill="#7b2bf9" />
    <path
      d="M428.49429,258.84934a20.537,20.537,0,0,1-.3275,2.38614c-.19276.76748-.93812.86876-1.43659.26352a3.20056,3.20056,0,0,1,.349-4.67117,1.11773,1.11773,0,0,1,.87436-.31085c.21667.0715.39976.49847.44112.791a11.02245,11.02245,0,0,1,.01956,1.53059Z"
      fill="#7b2bf9" />
  </g>
</svg>