<svg xmlns="http://www.w3.org/2000/svg"
  viewBox="0 0 512 512">
  <rect x="0" y="0" width="512" height="512" fill="#ff1156" />
  <path
    d="M171.25282,145.60701l59.76953-36.87714c5.261-2.97996,5.25639-9.12386,1.47161-12.88563l-49.92373-48.25434c-.9795-.97493-2.56603-.97033-3.54093.0092l-4.71374,4.74128c-6.03351,6.07036-6.00592,15.87943.05976,21.91752l19.4848,17.98555c3.3111,3.29268,2.68105,8.81575-1.28762,11.27607l-23.29253,14.26063c-7.27517,4.50673-9.51474,14.06293-5.008,21.33349l3.52261,5.67944c.7312,1.17721,2.28097,1.54058,3.45824.80932v.0046Z"
    fill="#fff" />
  <path
    d="M228.92362,343.48013c4.90684-21.23322-.91053-43.51828-15.57128-59.64102l-37.73242-42.79088c-21.00698-23.81728-15.81503-60.76296,10.94493-77.87054l61.74236-39.47091c3.9871-2.54761,9.18833-2.08313,12.66489,1.12676,22.58857,20.83678,101.17601,95.91082,97.69086,173.4412,0,0,.09211,120.39872-118.47709,165.45656-17.41987,6.6228-35.06057-9.30315-30.49869-27.37567,16.38071-64.90224,19.23644-92.88074,19.23644-92.88074v.00523ZM244.37538,158.08708c-9.44119,5.98231-27.73486,17.57121-43.34758,27.46777-10.44822,6.62283-12.55448,20.97472-4.46538,30.33333l39.45249,45.6188c22.6073,24.86595,31.57898,59.23703,24.00994,91.97438l-6.61298,29.01358c-2.87426,12.60094,11.99801,21.41218,21.77923,12.96832,41.56848-35.88343,99.85206-122.14133-21.70106-236.5253-2.47874-2.33181-6.2359-2.67194-9.11004-.85088h-.00461Z"
    fill="#fff" />
</svg>