<svg xmlns="http://www.w3.org/2000/svg" viewBox="0 0 512 512">
  <rect width="512" height="512" fill="#000" />
  <path
    d="m137.2865,350.41081c-8.41322-5.14924-13.56244-14.29403-13.56244-24.14227v-54.98132c0-6.52796,5.31806-11.81789,11.84602-11.78976,2.08221,0,4.13626.56276,5.93707,1.60386l124.05969,72.34237c7.25957,4.22067,11.73346,11.98671,11.73346,20.39993v56.95097c.02813,7.82233-6.30288,14.18147-14.12518,14.18147-2.61681,0-5.2055-.73158-7.42839-2.08221l-118.46024-72.48304Zm184.92181-104.36321c7.25957,4.22067,11.70533,12.01486,11.73346,20.39993v115.59018c0,3.40467-1.82896,6.55613-4.81156,8.21623l-27.153,15.27885c-.33764.19695-.70345.33764-1.09738.4502v-64.18238c0-8.30066-4.36136-16.01043-11.50838-20.28737l-108.94966-65.1672v-72.45491c0-6.52798,5.31806-11.81789,11.84602-11.78976,2.08221,0,4.13626.56276,5.93707,1.60386l124.00343,72.34237Zm54.30601-85.37018c7.2877,4.22067,11.76163,12.01486,11.76163,20.42806v168.82697c-.02813,3.46097-1.94152,6.64052-4.98038,8.30066l-25.74611,13.90009v-117.53171c0-8.30066-4.36136-15.98228-11.45208-20.25924l-111.36957-66.79919v-68.71258c0-2.0822.56276-4.13626,1.57571-5.93708,3.29213-5.62757,10.52355-7.54093,16.15112-4.27695l124.05969,72.06098Z"
    fill="#00d395" fill-rule="evenodd" />
</svg>