<svg xmlns="http://www.w3.org/2000/svg" viewBox="0 0 512 512">
  <rect width="100%" height="100%" fill="#000"/>
  <circle cx="256" cy="256" r="256"/>
  <path d="m255.21131,480.21472c-10.01955-10.1912-20.00936-20.41197-30.06437-30.56814-34.85663-35.20764-69.7369-70.39206-104.60191-105.59142-.71222-.71883-1.35086-1.51019-2.24-2.51128,45.76798-46.19163,91.4212-92.26768,136.88379-138.15096,14.25705,13.95136,28.33605,27.72855,42.78412,41.86668-31.70843,32.02841-63.21174,63.84989-95.22367,96.18509,18.15369,17.46673,36.02562,34.66208,54.17855,52.12807,30.63209-30.91065,62.17162-62.73689,93.06488-93.9108,14.42214,13.87915,28.63687,27.55892,43.60424,41.96245-7.66365,7.38239-15.08404,14.26594-22.21047,21.44072-37.84698,38.10285-75.62113,76.27722-113.40138,114.4457-.77933.78748-1.33332,1.79778-1.99293,2.70392-.26041-.00005-.52044-.00005-.78085-.00005Z" fill="#fff"/>
  <path d="m435.03935,298.37748c-60.08795-60.65157-119.61351-120.7352-179.55733-181.24083-59.25524,59.80846-118.40487,119.51049-178.46117,180.12786,0-2.67246.01144-4.37962-.00153-6.08658-.1914-24.94559-.44266-49.89108-.47278-74.83684-.00229-2.04026.96958-4.60187,2.3845-6.04587,22.10981-22.56634,44.35993-44.99581,66.59251-67.44242,36.0485-36.39542,72.10729-72.78093,108.1657-109.1665.81707-.82405,1.68524-1.59747,2.00666-1.90107,10.76228,10.41285,21.56001,20.54987,32.01079,31.03175,25.7937,25.87162,51.42154,51.90822,77.13098,77.86372,22.69088,22.90802,45.42369,45.7747,68.04632,68.74987,1.3093,1.32976,2.54311,3.46947,2.54807,5.23564.07435,26.89745-.06139,53.79557-.1567,80.69355-.00267.72428-.10904,1.44816-.23601,3.01774Z" fill="#fff"/>
</svg>
