<svg xmlns="http://www.w3.org/2000/svg"
  viewBox="0 0 512 512">
  <rect x="0" y="0" width="512" height="512" fill="#000" />
  <path
    d="M256,110.19998l-126.2,72.9v145.9l126.2,72.89999,126.19998-72.89999v-145.9l-126.19998-72.9ZM261.29999,73.39998c-3.3-1.9-7.3-1.9-10.60001,0l-149.99999,86.7c-3.3,1.9-5.3,5.4-5.3,9.2v173.40001c0,3.79999,2,7.29999,5.3,9.20001l150,86.70001c3.3,1.89999,7.3,1.89999,10.60001,0l150.00002-86.70001c3.29999-1.89999,5.29999-5.39999,5.29999-9.20001v-173.40001c0-3.8-2-7.3-5.29999-9.2l-150.00003-86.70001Z"
    fill="#ff9211" fill-rule="evenodd" stroke-width="0" />
  <path
    d="M256,162.99998l-80.5,46.5v93l80,46.20001c.3.20001.5.5.5.89999v15.89999c0,.79999-.89999,1.29999-1.60001.89999l-90.8-52.39999c-2.5-1.39999-4-4-4-6.89999v-102.20001c0-2.8,1.5-5.5,4-6.9l88.40001-51.1c2.5-1.4,5.5-1.4,7.89999,0l91.2,52.5c.7.4.7,1.39999,0,1.8-5.39999,3.2-8.10001,4.60001-14.2,8-.3.2-.7.2-1,0l-79.89999-46.2Z"
    fill="#ff9211" stroke-width="0" />
  <path
    d="M269.29999,257.99998c0-.39999.2-.8.60001-.89999l80-42.60001c.7-.39999,1.60001.10001,1.60001.89999v103.7c0,.39999-.2.7-.5.89999l-80,46.50002c-.7.39999-1.60001-.10001-1.60001-.89999v-107.60001h-.10001Z"
    fill="#ff9211" stroke-width="0" />
</svg>