<svg xmlns="http://www.w3.org/2000/svg" viewBox="0 0 512 512">
  <rect width="100%" height="100%" fill="#f2cd16"/>
  <defs>
    <clipPath id="g1">
      <circle cx="256" cy="-310.70854" r="256" fill="none" stroke-width="0"/>
    </clipPath>
  </defs>
  <g clip-path="url(#g1)">
    <path d="M381.03172-580.28939h138.92414V-200.56341c-20.70341-2.7294-39.22663.35751-55.56966,9.26161-22.00929,36.17028-31.2709,76.30363-27.78483,120.40092-6.1747,12.34852-12.34852,24.69792-18.52322,37.04644-7.43058-12.82456-13.60437-11.28063-18.52322,4.6308,5.9978,13.33395,9.08471,27.22636,9.26161,41.67724h-37.04644c2.29226-21.84165-3.88247-40.36486-18.52322-55.56966,16.42082-27.67555,22.59464-58.54725,18.52322-92.61609v-37.04644c7.76308-3.16471,10.8509-9.33941,9.26161-18.52322,8.37249-6.56648,11.4594-15.82809,9.26161-27.78483,16.55974,2.64139,31.99609-.44548,46.30805-9.26161-6.22102-18.79643-12.39575-37.31965-18.52322-55.56966-3.24805-55.22328,2.92573-109.24902,18.52322-162.07816-12.49115-47.75073-31.01436-92.51523-55.56966-134.29333Z" fill="#040404" fill-rule="evenodd" stroke-width="0"/>
    <path d="M260.6308-376.53398c8.45771,14.68983,8.45771,28.58225,0,41.67724,17.42757,1.83472,32.8639,6.46552,46.30805,13.89241v9.26161c-16.15503,32.73332-6.89342,57.43032,27.78483,74.09287,9.38848,10.87034,21.737,17.04507,37.04644,18.52322,5.64771,8.25208,8.73462,17.51369,9.26161,27.78483,1.5893,9.18381-1.49853,15.35851-9.26161,18.52322-78.27912-18.32593-95.25936,9.45889-50.93885,83.35448,12.55965,8.15206,26.45207,11.23897,41.67724,9.26161-8.32062,6.09136-17.58223,12.26514-27.78483,18.52322,3.2925,9.46815,9.46723,15.64285,18.52322,18.52322,14.64074,15.20479,20.81548,33.72801,18.52322,55.56966h-18.52322c-44.63449-69.24719-72.4193-144.884-83.35448-226.90943,2.08387-23.41427,5.17168-46.56829,9.26161-69.46207,1.38461-9.74321-.1593-19.00482-4.6308-27.78483-13.53028,12.80417-21.24799,9.71728-23.15402-9.26161-3.21192-26.31131-.12503-44.83453,9.26161-55.56966Z" fill="#bebebe" fill-rule="evenodd" stroke-width="0"/>
    <path d="M519.95586-200.56341V12.4536h-74.09287c-3.22491-69.04065,2.94983-136.95974,18.52322-203.7554,16.34302-8.9041,34.86624-11.99101,55.56966-9.26161Z" fill="#e1e1e1" fill-rule="evenodd" stroke-width="0"/>
    <path d="M279.15402-283.91789c-4.08993,22.89378-7.17774,46.0478-9.26161,69.46207,10.93518,82.02543,38.71999,157.66224,83.35448,226.90943h-64.83126c-8.24376-31.93772-23.68009-59.72255-46.30805-83.35448-8.63181-25.62318-19.43642-50.3211-32.41563-74.09287-6.36179,22.41587-1.73099,42.48302,13.89241,60.20046-20.44778,1.76803-38.971,6.39884-55.56966,13.89241-17.16269,25.08415-26.4243,52.86898-27.78483,83.35448h-27.78483c1.52446-21.54992,7.69917-41.61704,18.52322-60.20046-3.08689-3.08691-6.17472-6.1747-9.26161-9.26161,31.87291-12.21052,44.22141-35.36454,37.04644-69.46207-9.74321-1.38463-19.00482.1593-27.78483,4.6308-19.46142,27.10504-37.98464,53.34594-55.56966,78.72368,3.08717-12.34852,6.17444-24.69792,9.26161-37.04644,7.4806-15.93182,16.74221-31.36816,27.78483-46.30805,6.17472-3.08691,12.3485-6.1747,18.52322-9.26161,15.49745-7.80752,26.30297-20.15604,32.41563-37.04644,1.67172-29.58713,6.30253-57.37196,13.89241-83.35448-3.00261,37.55212.08428,74.59856,9.26161,111.13931,14.09247-28.98326,21.81109-59.855,23.15402-92.61609,2.23575,25.82969,8.40955,50.52764,18.52322,74.09287,6.17472-6.1747,12.3485-12.34852,18.52322-18.52322,4.13161-26.33074,8.76241-52.57259,13.89241-78.72368,1.70599-12.74026,7.88071-20.45797,18.52322-23.15402Z" fill="#d1d1d1" fill-rule="evenodd" stroke-width="0"/>
    <path d="M112.44506,12.4536H29.09057c15.53209-18.89182,30.96813-37.41504,46.30805-55.56966,17.58502-25.37774,36.10823-51.61864,55.56966-78.72368,8.78001-4.4715,18.04161-6.01543,27.78483-4.6308,7.17497,34.09753-5.17353,57.25155-37.04644,69.46207,3.08689,3.08691,6.17472,6.1747,9.26161,9.26161-10.82404,18.58342-16.99875,38.65054-18.52322,60.20046Z" fill="#e2e2e2" fill-rule="evenodd" stroke-width="0"/>
    <path d="M19.82896-98.68571c11.5747.71685,19.29276,6.89063,23.15402,18.52322,3.08717-6.1747,6.17444-12.34852,9.26161-18.52322,7.55701,12.25125,18.36216,18.42504,32.41563,18.52322-3.08717,12.34852-6.17444,24.69792-9.26161,37.04644C60.05871-24.96143,44.62266-6.43821,29.09057,12.4536h-9.26161c16.95263-30.91063,7.69103-46.34694-27.78483-46.30805v-55.56966c10.27069-.52699,19.53227-3.61389,27.78483-9.26161Z" fill="#757575" fill-rule="evenodd" stroke-width="0"/>
    <path d="M168.01471-70.90088c25.73615-2.05053,50.43409,1.0373,74.09287,9.26161,8.06224,24.19411,14.23695,48.89203,18.52322,74.09287h-120.40092c1.36053-30.48551,10.62214-58.27033,27.78483-83.35448Z" fill="#0b0b0b" fill-rule="evenodd" stroke-width="0"/>
    <path d="M242.10759-70.90088c22.62796,23.63194,38.06428,51.41676,46.30805,83.35448h-27.78483c-4.28626-25.20084-10.46098-49.89876-18.52322-74.09287v-9.26161Z" fill="#939393" fill-rule="evenodd" stroke-width="0"/>
    <path d="M464.38621-191.3018c-15.57339,66.79566-21.74813,134.71475-18.52322,203.7554h-37.04644c-.1769-14.45088-3.26381-28.34329-9.26161-41.67724,4.91885-15.91143,11.09263-17.45536,18.52322-4.6308.55571,5.02997,3.64258,8.11687,9.26161,9.26161,8.81613-14.31196,11.903-29.74831,9.26161-46.30805-3.48607-44.09729,5.77554-84.23064,27.78483-120.40092Z" fill="#ababab" fill-rule="evenodd" stroke-width="0"/>
    <path d="M-7.95586-33.85444c35.47585-.0389,44.73746,15.39741,27.78483,46.30805H-7.95586v-46.30805Z" fill="#2a2a2a" fill-rule="evenodd" stroke-width="0"/>
  </g>
  <circle cx="256" cy="256" r="256" fill="#f2cd16" stroke-width="0"/>
  <path d="M368.05259,204.88786l31.88241-46.76093c.58545-.85866-.0295-2.02223-1.06875-2.02223H108.94687c-1.05891,0-1.66922,1.20281-1.04392,2.05738l31.75581,43.39985h-56.23543c-3.1461,0-5.15238,3.35895-3.66081,6.129l34.32727,63.75052c.72517,1.34675,2.13123,2.18658,3.66081,2.18658h31.88642c18.84788,109.76186,46.56587,113.08827,46.56587,113.08827h110.87051c26.60886,0,48.78316-113.08827,48.78316-113.08827h32.98145c1.53677,0,2.94822-.84767,3.67027-2.20425l32.16157-60.42459c1.47405-2.76941-.533-6.11133-3.67027-6.11133h-52.94698ZM211.72485,282.95401c-11.89584,0-21.53947-12.61408-21.53947-28.17386s9.64363-28.17435,21.53947-28.17435,21.53898,12.61408,21.53898,28.17435-9.64363,28.17386-21.53898,28.17386ZM293.76873,282.95401c-11.89535,0-21.53898-12.61408-21.53898-28.17386s9.64363-28.17435,21.53898-28.17435,21.53947,12.61408,21.53947,28.17435-9.64363,28.17386-21.53947,28.17386Z" fill="#544003" stroke-width="0"/>
</svg>
