<svg xmlns="http://www.w3.org/2000/svg" x="0px" y="0px" viewBox="0 0 138.8 138.8" xml:space="preserve">
	<rect x="0" y="0" width="138.8" height="138.8" fill="#002D74" />
	<g transform="translate(19.432, 19.432) scale(0.72)">
		<g transform="translate(9.35, 0)">
			<path fill="#fff" d="M60.1,0L0,34.7v69.4l60.1,34.7l60-34.7V34.7L60.1,0z M102.3,93.8l-42.3,24.4L17.8,93.8V45l42.3-24.4L102.3,45
	V93.8z" />
			<path fill="#fff" d="M60.1,138.8l60-34.7V34.7L60.1,0v20.6L102.3,45v48.9l-42.3,24.4V138.8z" />
			<path fill="#fff" d="M60,0L0,34.7v69.4l60,34.7v-20.6L17.8,93.8
	V44.9L60,20.6V0z" />
			<path fill="#fff" d="M88.1,85.6l-28,16.2L32,85.6V53.2L60.1,37l28,16.2L76.4,60l-16.4-9.5L43.7,60v18.9l16.4,9.5l16.4-9.5L88.1,85.6
	z" />
		</g>
	</g>
</svg>