<svg xmlns="http://www.w3.org/2000/svg" viewBox="0 0 512 512">
  <rect width="512" height="512" fill="#008de4"/>
  <path d="M117.84644 257.32355c2.50915-10.44043 6.30957-27.7229 32.8269-27.7229h103.65814s-1.07709 5.53845-4.36346 19.21631c-2.50916 10.44049-6.30957 27.72299-32.8269 27.72299H113.48301s1.07706-5.53848 4.36343-19.2164Z" fill="#fff"/>
  <path d="M387.69543 257.0849c-8.47601 45.81934-29.64459 80.92896-65.21936 97.35468C306.44207 361.85688 291.277 366 255.64727 366H154.63293l8.40863-46.91486 88.80524.03674c53.40186.0918 67.64282-23.06573 74.5766-43.35919 2.60101-7.6131 8.62286-31.095 8.81873-44.98706.37939-27.11707-12.92517-43.451-57.91833-43.451l-91.35724-.11017 8.39032-46.89644h101.24078c89.0011.00003 104.72913 48.53659 92.09777 116.76688Z" fill="#fff"/>
</svg>
