<svg xmlns="http://www.w3.org/2000/svg" xmlns:xlink="http://www.w3.org/1999/xlink" viewBox="0 0 100 100">
  <rect width="100" height="100" fill="#FF2D55"/>
  <g transform="translate(10 10) scale(0.15625 0.15625)">
<defs><linearGradient id="Degradado_sin_nombre_28" x1="3068.19708" y1="-6790.73347" x2="3067.29198" y2="-6791.63857" gradientTransform="translate(-1226841.81103 -2716218.40795) scale(400 -400)" gradientUnits="userSpaceOnUse"><stop offset="0" stop-color="#ff2d55"/><stop offset="1" stop-color="#ffbc5b"/></linearGradient><linearGradient id="Degradado_sin_nombre_26" x1="3051.15058" y1="-6823.50085" x2="3051.15058" y2="-6824.78085" gradientTransform="translate(-381132.44679 -1023358.72718) scale(125 -150)" gradientUnits="userSpaceOnUse"><stop offset="0" stop-color="#a524b3"/><stop offset="1" stop-color="#ff2d55"/></linearGradient><linearGradient id="Degradado_sin_nombre_26-2" x1="3042.71975" y1="-6842.82526" x2="3042.71975" y2="-6844.10526" gradientTransform="translate(-278615.28024 -752441.97826) scale(91.7 -110)" xlink:href="#Degradado_sin_nombre_26"/></defs><circle cx="256" cy="256" r="256" fill="url(#Degradado_sin_nombre_28)"/><path d="m181.376,166.4v192h160l-160-192Z" fill="url(#Degradado_sin_nombre_26)" fill-rule="evenodd"/><path d="m21.376,358.4h160v-192L21.376,358.4Z" fill="#fff" fill-rule="evenodd"/><path d="m51.2,409.6c14.592,19.32801,31.872,36.60801,51.2,51.2h307.2c19.32801-14.59199,36.60801-31.87199,51.2-51.2H51.2Z" fill="#fc9965" fill-rule="evenodd"/><path d="m102.4,460.8c42.752,32.12801,96,51.2,153.6,51.2s110.84801-19.07199,153.6-51.2H102.4Z" fill="#ff2d55" fill-rule="evenodd"/><path d="m343.424,268.8v140.8h117.376l-117.376-140.8Z" fill="url(#Degradado_sin_nombre_26-2)" fill-rule="evenodd"/><path d="m343.42398,358.4H21.376c7.936,18.30398,18.048,35.45602,29.824,51.2h292.35199v-51.2h-.12801Z" fill="#ffbc5b" fill-rule="evenodd"/><path d="m226.176,409.6h117.24799v-140.8l-117.24799,140.8Z" fill="#fff" fill-rule="evenodd"/><circle cx="343.42398" cy="166.4" r="64" fill="#ffc95b"/><circle cx="181.376" cy="96" r="32" fill="#ffc95b"/>
  </g>
</svg>
