<svg xmlns="http://www.w3.org/2000/svg" viewBox="0 0 100 100">
  <rect width="100" height="100" fill="#091440"/>
  <svg x="10" y="10" width="80" height="80" viewBox="0 0 512 512">
    <path d="M153.91664,183.08274l-72.91664-72.91726h78.75002l116.66663,116.66762h-78.75002c-15.58084,0-30.22982,6.06821-41.24746,17.08597-11.01777,11.01777-17.08585,25.66688-17.08585,41.24784s6.06808,30.23007,17.08585,41.24784c11.01764,11.01777,25.66663,17.08597,41.24746,17.08597h29.16666l58.33331,58.33381h-87.49997c-64.43354,0-116.66663-52.23358-116.66663-116.66762,0-47.31455,23.33328-85.45903,72.91664-102.08417Z" fill="#2970ff"/>
    <path d="M358.08324,328.91726l72.91676,72.91726h-78.75002l-116.66663-116.66762h78.7499c15.58084,0,30.22982-6.06821,41.24759-17.08597,11.01764-11.01777,17.08572-25.66688,17.08572-41.24784s-6.06808-30.23007-17.08572-41.24784c-11.01777-11.01777-25.66675-17.08597-41.24759-17.08597h-29.16666l-58.33331-58.33381h87.49997c64.43354,0,116.66675,52.23358,116.66675,116.66762,0,47.31455-23.3334,85.45903-72.91676,102.08417Z" fill="#2dd8a3"/>
  </svg>
</svg>
