<svg xmlns="http://www.w3.org/2000/svg" viewBox="0 0 512 512">
  <rect width="512" height="512" fill="#000"/>
  <path d="M322.64789 130.09067 262.15717 187.12343c-3.65499 3.44605-9.3588 3.45074-13.01866.00987-16.03691-15.07733-39.11395-36.91435-60.88488-57.55011l-85.0555-16.2873c26.61206 25.28358 109.30005 103.79749 130.32684 123.2139 6.29913 5.81596 14.23728 8.7279 22.18338 8.7279 7.82009 0 15.64712-2.82365 21.91946-8.4759l127.87041-120.55731-82.85033 13.88619Z" fill="#fff"/>
  <path d="m313.78542 386.70657 2.44516-83.10163c.14774-5.02119 4.17763-9.05771 9.19861-9.21256 22.00109-.67853 53.76012-1.55536 83.74618-2.35805l71.66019-48.62646c-36.69576.93938-150.68271 3.89092-179.28037 5.02963-8.56666.34166-16.23884 3.89572-21.85757 9.51446-5.52964 5.52964-9.06757 13.0608-9.50604 21.49276l-5.17118 175.66489 48.76502-68.40304Z" fill="#fff"/>
  <path d="m198.44821 386.70657-2.44516-83.10163c-.14774-5.02119-4.17763-9.05771-9.19861-9.21256-22.00109-.67853-53.76012-1.55536-83.74618-2.35805l-71.66019-48.62646c36.69576.93938 150.68271 3.89092 179.28037 5.02963 8.56666.34166 16.23884 3.89572 21.85757 9.51446 5.52964 5.52964 9.06757 13.0608 9.50604 21.49276l5.17118 175.66489-48.76502-68.40304Z" fill="#fff"/>
</svg>
