<svg xmlns="http://www.w3.org/2000/svg" viewBox="0 0 512 512">
  <rect width="512" height="512" fill="#efbfa8" />
  <path
    d="m305.41504,300.23c4.96538,2.79237,16.7584,4.1886,21.56865,2.63727,2.17243-.77566,7.1379-4.49888,11.1723-8.53229,9.46546-9.30796,9.62059-15.20307.15523-16.90949-2.48279-.31028-6.82754-1.86161-9.77582-3.25775-8.06879-3.72322-18.46524-1.86161-23.74108,4.34369-6.98268,8.22201-6.67232,17.68506.62072,21.71856Z"
    fill="#332116"
    stroke-width="0"
  />
  <path
    d="m223.64013,417.51019c1.86207-2.94746,3.41377-3.41294,9.62059-3.10265,4.18962.31028,11.1723,1.08595,15.82742,2.0167,10.39582,1.86151,22.34327,2.01669,24.20628.15548,1.97914-1.97723,5.99862-2.51757,8.62343-2.49457.67134.00588,1.39248.0722,1.90813.50212.33025.27534.54695.67917.91211.9062.72231.44908,1.66916.02631,2.33705-.50035,2.27758-1.79598,5.2462-2.12683,8.09858-1.82663,6.20682.46538,6.82754-.93085,1.39657-2.94756-2.17243-.77566-3.5689-2.32699-3.10341-3.41294s-1.39657-4.34369-3.87926-7.29125c-4.81034-5.42964-5.5862-7.91172-3.25864-10.23871,1.39657-1.39623,4.81034-19.70186,5.27584-28.54443.15513-2.32699-1.24135-4.80907-3.87926-6.82578-3.72413-2.79237-6.51718-3.10265-20.94803-3.25784-12.72401,0-18.15498.62057-22.49973,2.79246-3.10341,1.39614-6.82754,2.48208-8.53438,2.1718-2.48279-.46538-2.79305.62057-2.79305,8.84258.15513,9.92843,1.55171,20.63262,2.79305,22.02885.46549.31028-.15523,4.1886-1.39657,8.53229-2.17233,7.13606-2.17233,7.91172.31036,9.77333,2.32756,1.70642,1.70693,2.32699-6.51718,5.27445-11.48257,4.34369-13.65499,6.05021-11.32743,8.84258,2.48279,3.10265,4.03449,2.63727,6.82754-1.39614Z"
    fill="#332116"
    stroke-width="0"
  />
  <path
    d="m231.55371,287.04374c-3.56885,1.39612-11.17212-3.87836-14.58594-10.08362-1.70679-3.10266-4.5-8.22205-6.36206-11.47986-4.03442-7.13611-4.03442-8.84253-.46558-8.84253,2.32764,0,2.17261-.46545-.77563-2.79242-1.86206-1.39618-3.56909-4.34369-3.87939-6.5155-.3103-3.25787.62085-4.4989,5.74146-6.98096,6.51709-3.25787,8.68945-8.22211,3.10327-7.29126-1.70679.3103-3.41382,1.24103-3.87915,1.86163-1.70703,2.79236-21.41357,10.54895-28.55151,11.32465l-7.448.77563.93091-4.96423.93091-4.80908-3.87915,4.65399c-2.17236,2.63715-3.87915,5.27441-3.87915,5.89502,0,1.55133-11.01709-.3103-13.34473-2.17194-1.08618-.93073-4.03442-.31018-7.75854,1.55133-3.41382,1.70654-7.44824,3.56812-9.15503,4.1886-2.94824,1.08594-2.94824,1.24109.46533,1.86163,2.79321.46539,3.41382,1.24103,2.48291,3.8783-.62061,1.86163-2.63794,5.27448-4.5,7.60144l-3.56885,4.1886-1.39648-5.73993c-1.70703-7.29114-6.51733-7.91168-8.6897-1.08582-1.70679,4.80908-6.67236,9.92841-9.93091,10.08362-3.25854,0-3.72412,2.79236-.93091,5.42963,2.17212,2.17181,2.17212,3.10266.62061,5.73981-1.70679,2.63727-1.55176,3.41296,1.24146,5.27454,2.48267,1.70642,2.79297,3.10266,1.70679,6.67072-1.08618,4.03351-.77588,4.65399,4.34473,6.98096,3.72412,1.86163,5.89648,2.17188,6.98267,1.08594.93115-.93085,2.94824-1.70648,4.5-1.70648s3.25854-1.08588,3.72412-2.32703c.46558-1.24103,3.25854-2.94745,6.36182-4.03339,4.5-1.39624,5.27588-2.32697,4.5-5.27454-1.24121-4.80908,7.60352-9.77338,12.72412-7.13605,1.70679.93073,5.74121,1.70642,8.84473,1.70642,4.65503,0,6.82739,1.08594,11.01709,5.73987,2.94824,3.10266,5.27588,6.20532,5.27588,6.82593,0,2.17175,20.01685,10.3938,23.12036,9.6181,1.86206-.46539,3.25854-.15509,3.25854.7757,0,.93085,1.86206,1.39624,4.34473,1.24109,2.32764-.31024,4.96533-.62054,6.05176-.77563,2.32764-.15521,10.55151-12.41058,11.948-17.68518.77588-3.25769.46558-3.8783-1.24146-3.25769Z"
    fill="#332116"
    stroke-width="0"
  />
  <path
    d="m379.1211,260.82627c-1.08618-.46539-2.94824-3.72314-4.03442-7.13605-1.39648-4.8092-2.94824-6.82587-6.05176-7.91187-7.1377-2.63715-8.84473-4.03339-8.84473-8.06677-.15503-2.17194-1.39648-5.73993-2.79297-7.91187-.39673-.66095-.77637-1.35852-1.12329-2.05188-.90405-1.09863-1.51465-2.45038-1.51465-3.8432,0-.88202-.16357-1.50562-.66479-1.94788-.97852-.71362-3.15112-.99957-7.24878-.99957-3.3418,0-5.30371.1311-6.3103.52283-.11841.04614-.22388.09595-.31616.14954-.61719.35809-.67651.88586-.3562,1.6546.46558,1.24103,1.39648,3.25775,1.86206,4.49878.46558,1.27991.23267,1.77441-.96021,1.67981-.39771-.03149-.9021-.12836-1.52271-.28357-1.86206-.46539-3.72412-2.01672-4.18945-3.41284-1.24146-4.4989-3.10352-7.13617-4.96558-7.29126-.93091-.15515-3.10352-.31024-4.8103-.46539-1.55176,0-4.65503-2.01678-6.67236-4.1886-3.25854-3.56799-5.27588-4.1886-14.43091-4.49884-5.89648-.31018-12.5686-1.24103-15.05151-2.17181-3.56885-1.39624-4.03442-2.32697-3.25854-5.58484.77588-3.25775.46558-3.8783-2.17212-3.8783-.76904,0-1.34106.10345-1.78027.30969-.27002.12671-.50146.2832-.66382.5047-.42651.58173-.50439,1.51257-.34912,2.90875.15503,2.17188,1.24146,4.80914,2.32739,6.20526,1.24146,1.55133,1.39673,2.48218.15527,3.25787-.16016.09857-.35059.1723-.55322.23499-.43066.13348-.94043.19427-1.49536.18396-.00513-.00006-.00952.00049-.01465.00043-2.46582-.0509-5.69531-1.38898-5.69531-2.90149,0-.77563-1.39673-1.39624-3.10352-1.39624-.00317,0-.0061.00049-.00928.00049-1.70264.00226-3.09399.62189-3.09399,1.55084,0,.6543-2.87744.97498-7.40796.68774-3.33008-.01642-7.28369-.20386-10.79517-.52039-1.52515.20685-1.96924.75037-1.96924,1.69427,0,2.63727-12.87891,15.20294-15.67212,15.20294-.93091,0-4.03442,1.086-6.98267,2.48218-5.27588,2.63733-7.13794,6.82581-2.94824,6.82581,1.24121,0,2.32764.77563,2.32764,1.70654,0,.93073,1.24121,1.24103,2.79297.77563,3.41382-1.08594,13.65503,4.34369,18,9.46307,7.7583,9.46313,13.81006,14.42737,17.68921,14.42737,3.56909,0,9-4.96423,10.39648-9.46313,1.70679-5.27448,9.77563-12.10034,12.10327-10.23871.3103.15509,1.55176-.46545,2.79297-1.39624,5.43115-4.49878,18.46533-4.34369,18.46533.15521,0,1.55133,1.70703,2.17181,5.12061,2.01666,4.81055-.15515,18.15503,5.73993,18.15503,7.91174,0,.7757,5.27588,2.79248,11.63794,4.65399,6.51709,1.86163,12.10327,4.34381,12.72388,5.58484.46558,1.24103,2.01733,2.32697,3.41382,2.32697,3.56885,0,18.77563,7.60144,18.77563,9.46307,0,.77563,1.70679,1.39624,3.87915,1.39624s3.87939-.3103,3.87939-.62061c0-2.48218-4.96558-11.63495-6.67236-12.25549Z"
    fill="#332116"
    stroke-width="0"
  />
  <path
    d="m180.90705,203.28529c-3.58633-.05416-6.14555.17763-6.14555.76241,0,.69556-2.12573,2.26222-4.80192,3.58564-.30799.15244-.61902.30394-.93932.44805-9.15501,4.1885-14.43084,8.22201-13.49976,10.39381.77585,2.17189-8.68961,5.58483-15.82742,5.58483-2.48279,0-5.74133,1.24104-6.98268,2.79237-1.39657,1.39623-4.18962,4.1886-6.20682,6.05021-2.0172,1.86152-4.96548,4.80907-6.67232,6.51549-1.55171,1.70652-5.89656,4.49888-9.46546,6.2053-7.29304,3.41294-13.96535,11.32475-12.56878,14.89279.46549,1.39614-1.24135,3.87831-4.65512,6.3604-4.69385,3.62617-6.234,7.83891-4.62064,10.52106.73342,1.21917,2.11844,2.12209,4.15506,2.50992,1.78459.31028,2.7545.62066,3.14234,1.24123.38802.62057.19396,1.55133-.34919,3.10265-.93108,2.32699-2.63792,3.41294-5.27584,3.41294-4.49989,0-4.96548,2.63727-1.70684,8.99767,1.08621,2.32699,2.63792,7.13616,3.10341,10.549.31036,1.78397.87274,3.49039,1.73099,5.16291,1.05581,2.05751,2.56414,4.0639,4.59659,6.09992.25533.24353.50574.48621.77983.73315,2.46934,2.2252,5.71339,4.60304,9.96117,7.3954.76553.50477,1.48228,1.00111,2.17432,1.49792,5.27963,3.51889,9.41063,8.20771,15.98075,18.35912,4.65502,7.27184,9.31014,13.31656,10.8967,14.04374.10579.04848.19794.07329.27551.07329,1.0668,0,2.04268.33329,2.82345.85785.31235.20982.59344.45023.83666.71222.12161.13095.23374.26739.33555.4079.10191.1407.19349.28557.2739.43356.56276,1.03557.57971,2.22321-.23497,3.17348-.63578.76279,1.04255,4.48885,4.01564,9.67865,2.20216,2.30417,2.68679,1.13651.63938-3.31844h-.00009c-2.01729-4.65398-.15523-8.22201,5.5861-10.39381,2.63792-1.08595,2.17243-1.39623-2.63792-2.32699-4.81025-.93085-5.89646-1.86161-6.82745-6.05021-.46559-2.63727-1.55171-5.42964-2.17243-6.3604-1.70684-2.17189-1.39657-10.23881.31036-9.15286.77585.46538,2.79305-.31028,4.34476-1.70642,1.70684-1.55133,4.03449-2.32699,5.43097-1.86161,1.24135.62047,5.27584-.31028,8.99987-1.86161,5.43097-2.32699,8.22412-2.63727,13.96535-1.55133,7.44826,1.39623,15.05156,5.27455,15.05156,7.75663,0,.77566,1.08621,1.39623,2.48279,1.39623,1.39648,0,2.79305,1.39614,3.25854,3.10265.46549,1.70642,1.70693,3.10265,2.63792,3.10265,3.5689,0,13.34463-13.18627,13.34463-17.84025,0-2.63727,8.22412-11.16957,15.20679-15.66845,2.32756-1.39614,4.96538-3.72313,5.74124-5.11936,1.39657-2.32699,1.70693-3.10265,2.17243-7.13616.15513-2.32699,19.70668-1.70642,22.49973.62057,1.70684,1.39614,3.41377,1.08595,7.91366-1.55133,12.56887-7.44635,27.31008-6.82587,36.30995,1.55133,2.79305,2.63727,6.36196,4.34369,8.99987,4.34369,2.32756,0,8.37925.46538,13.1895,1.24104,7.6034.93085,9.1551.77566,9.93095-1.39614.46549-1.39623,1.86197-2.48218,2.94818-2.48218s2.32756-.77566,2.63792-1.86152c.62063-1.86161,3.10341-1.08595,7.44817,2.0167,2.0172,1.39614,4.34476.62047,11.1723-3.87831,4.81034-3.10265,9.1551-6.2053,9.62059-6.98097,1.70693-2.48218,26.06864,0,30.72375,3.10265,2.17243,1.70642,4.65512,2.94746,5.5862,2.94746.77585,0,1.86207,1.55133,2.32756,3.41294.77585,2.94756,1.70684,2.32699,8.22402-5.58474,3.87926-4.96426,6.82745-9.30796,6.36196-9.61824-.77585-.77566-4.34476-1.70652-7.6033-2.0167-.77585-.15519-1.24135-2.0168-1.24135-4.1886,0-2.63727-1.08621-4.34369-2.79305-4.80917-3.5689-.77566-6.51718-8.84248-5.89646-15.20297,1.08621-9.46305-3.41377-15.82354-10.70681-15.66835-2.94818.15509-5.43097-1.70652-5.43097-4.0335,0-.77566,3.10341-1.24104,6.98268-1.24104,6.05169,0,6.98268-.46538,6.98268-3.25784,0-2.94746-.62063-3.10265-10.08609-2.1718-6.0516.77566-10.86194.46538-12.10329-.46538-2.17233-1.70652-13.1895-4.1886-16.29291-3.56813-1.74501.27553-3.69127-.76875-5.00251-2.36212.34673.69338.72651,1.39093,1.12315,2.05193,1.39657,2.17189,2.63792,5.73992,2.79305,7.91182,0,4.03341,1.70693,5.42964,8.84474,8.06682,3.10341,1.08595,4.65512,3.10265,6.05169,7.91182,1.08621,3.41294,2.94818,6.67068,4.0344,7.13606,1.70684.62057,6.67232,9.77333,6.67232,12.25551,0,.31028-1.70684.62057-3.87926.62057s-3.87926-.62057-3.87926-1.39623c0-1.86161-15.2067-9.46305-18.7756-9.46305-1.39657,0-2.94828-1.08595-3.41377-2.32699-.62072-1.24104-6.20682-3.72322-12.72401-5.58483-6.36205-1.86152-11.63779-3.87831-11.63779-4.65398,0-2.1718-13.34463-8.06691-18.15498-7.91172-3.41377.15509-5.12061-.46538-5.12061-2.0167,0-4.49888-13.03437-4.65398-18.46534-.15519-1.24135.93076-2.48269,1.55133-2.79305,1.39623-2.32756-1.86161-10.39645,4.96426-12.10329,10.23871-1.39657,4.49888-6.82754,9.46314-10.39645,9.46314-3.87926,0-9.93086-4.96426-17.68939-14.42741-4.34485-5.11936-14.58607-10.549-17.99984-9.46305-1.55171.46538-2.79305.15509-2.79305-.77566,0-.93085-1.08621-1.70652-2.32756-1.70652-4.18962,0-2.32756-4.1885,2.94818-6.82578,2.94828-1.39623,6.05169-2.48218,6.98268-2.48218,2.79315,0,15.67228-12.5657,15.67228-15.20297,0-.94392.4439-1.48741,1.96899-1.6943-4.41513-.39796-8.12032-.99836-8.95157-1.71864-2.48279-2.0167-8.99987-2.94756-10.86194-1.55133-.77585.62047-4.81034,2.32699-8.84474,3.87831-6.0516,2.1718-8.06889,2.32699-12.72401.77566-3.10341-.93085-5.5861-2.17189-5.5861-2.63727,0-2.94746,5.74133-6.67068,10.24122-6.67068,5.5862,0,7.75853-1.86161,4.81034-4.34369-2.0172-1.70652-6.20682-1.55133-16.44814.46538-4.81025.93076-6.98268,2.1718-7.6033,4.34369-.5942,2.67297-1.63401,2.92701-9.47796,2.26364-1.24125.20026-2.73177.07641-4.85902-.23368Zm123.88727,75.22614c5.27584-6.2053,15.67228-8.06691,23.74108-4.34369,2.94828,1.39614,7.29304,2.94746,9.77582,3.25775,9.46537,1.70642,9.31023,7.60153-.15523,16.90949-4.0344,4.03341-8.99987,7.75663-11.1723,8.53229-4.81025,1.55133-16.60327.15509-21.56865-2.63727-7.29304-4.0335-7.6034-13.49655-.62072-21.71856Zm-94.34369-43.59222c.46549-.62057,2.17233-1.55133,3.87926-1.86161,5.5861-.93085,3.41377,4.03341-3.10341,7.29125-5.12061,2.48208-6.05169,3.72313-5.74133,6.98097.31036,2.1718,2.0172,5.11936,3.87926,6.51549,2.94828,2.32699,3.10341,2.79246.77585,2.79246-3.5689,0-3.5689,1.70642.46549,8.84248,1.86207,3.25784,4.65512,8.3772,6.36205,11.47985,3.41377,6.2053,11.01707,11.47975,14.58598,10.08362,1.70693-.62057,2.01729,0,1.24144,3.25775-1.39657,5.27455-9.62059,17.52996-11.94815,17.68515-1.08621.15509-3.72413.46538-6.05169.77566-2.48269.15509-4.34476-.31028-4.34476-1.24114,0-.93076-1.39657-1.24104-3.25854-.77566-3.10341.77566-23.12045-7.44635-23.12045-9.61814,0-.62057-2.32756-3.72322-5.27574-6.82587-4.18962-4.65398-6.36205-5.73992-11.01717-5.73992-3.10341,0-7.13781-.77566-8.84474-1.70642-5.12061-2.63727-13.96535,2.32699-12.72401,7.13606.77585,2.94756,0,3.87831-4.49989,5.27455-3.10341,1.08595-5.89646,2.79237-6.36205,4.03341-.46549,1.24114-2.17233,2.32699-3.72404,2.32699s-3.5689.77566-4.49998,1.70652c-1.08621,1.08595-3.25854.77566-6.98268-1.08595-5.12061-2.32699-5.43097-2.94746-4.34476-6.98097,1.08621-3.56803.77585-4.96426-1.70684-6.67068-2.79315-1.86161-2.94828-2.63727-1.24144-5.27455,1.55171-2.63718,1.55171-3.56803-.62063-5.73983-2.79315-2.63727-2.32756-5.42964.93099-5.42964,3.25854-.15519,8.22402-5.27455,9.93095-10.08362,2.17233-6.82587,6.98268-6.2053,8.68951,1.08585l1.39657,5.73992,3.5689-4.1886c1.86207-2.32699,3.87926-5.73983,4.49998-7.60144.93099-2.63727.31027-3.41294-2.48279-3.87831-3.41377-.62057-3.41377-.77566-.46549-1.86161,1.70684-.62047,5.74133-2.48208,9.1551-4.1886,3.72404-1.86152,6.67232-2.48208,7.75853-1.55133,2.32756,1.86161,13.34463,3.72322,13.34463,2.17189,0-.62057,1.70693-3.25784,3.87926-5.89502l3.87926-4.65398-.93099,4.80907-.93108,4.96426,7.44817-.77566c7.1379-.77566,26.84449-8.53229,28.55142-11.32466Z"
    fill="#593f2c"
    stroke-width="0"
  />
  <path
    d="m194.17212,179.96104c2.59277-.86115,4.22778-2.41809,6.81325-5.69875,1.57819-1.91249,3.37018-4.01152,4.22533-6.37095.44968-1.2407.5904-2.74431-.0435-3.94994-.54717-1.04068-1.65391-1.74208-1.9293-2.93203-.14282-.61711-.02576-1.26923.19487-1.86299s.54123-1.14419.82304-1.71146c.63565-1.27952,1.0921-2.72556.9318-4.16914-.06915-.62272-.43497-1.03262-.33145-1.70497.0949-.61633.38224-1.19041.64823-1.74736.48527-1.01609,1.12932-1.94704,1.78917-2.85575.94168-1.29685,1.93598-2.59118,2.5463-4.08628.56075-1.37366.59356-3.08106,1.6176-4.2264.65447-.73199,1.513-1.25335,2.4025-1.66921.67154-.31396,1.37605-.57604,2.11169-.66748s1.50837-.00276,2.15987.35089c.60555.32871,1.06836.86064,1.66396,1.20339.65417.37646,1.46973.63162,2.20763.76997.90663.16998,1.86077.01052,2.74268.32523.39507.14098.77325.39471.94705.77647.11809.2594.13182.55617.09295.83854-.1717,1.24709-1.23725,2.34223-2.13222,3.14843-1.46128,1.31634-3.20431,2.3305-5.02159,3.06913-1.93029.78456-4.00474,1.20318-5.82845,2.2443-1.00293.57255-2.30536,1.55721-2.19998,2.85755.03263.40032.42838.40078.742.31014.64417-.18618,1.22339-.54187,1.8122-.86268,1.60794-.87606,3.36973-1.52001,5.19657-1.6449,1.35087-.09235,2.75209.11417,3.92191.79602.82744.48229,1.50546,1.18943,2.01439,1.99617.48277.76528,1.07671,1.85467.86954,2.78906-.12098.54564-.52395.98771-.97095,1.32319-.76393.57333-1.67665.90439-2.54294,1.30668s-1.72958.91249-2.24521,1.71649c-.42509.66283-.57436,1.47252-.55929,2.2598s.18426,1.5625.35272,2.3317c.4,1.82644.79999,3.65288,1.19999,5.47932.22999,1.05015.46999,2.12301.97745,3.0801.20628.38906.46729.9015.87976,1.08561.51404.22944,1.14848.13741,1.67888.03492,1.05022-.20294,2.09708-.50172,3.11225-.83815,2.37482-.78703,4.60607-1.94723,6.76573-3.19773,2.17534-1.25959,4.41468-2.39797,6.71256-3.4185l.07057-.0313c1.35346-.5994,2.80512-.88479,4.06601-1.71882,2.01921-1.33564,2.28335-3.45465,2.51784-5.66662.16679-1.5733.24806-3.16683.04695-4.74106-.05301-.41491-.141-.8579-.44353-1.14681-.77058-.73583-2.5048-.29635-3.42261-.1613-1.30429.19192-2.64162.43202-3.9544.17175-.30552-.06057-.63017-.17146-.79835-.43363-.14185-.22111-.14053-.5104-.05892-.76011.38102-1.16581,1.64891-1.85518,2.42615-2.72526.66876-.74863,1.10207-1.73297,1.08248-2.74671-.02332-1.20697-.75004-2.41057-1.86917-2.86321-.51457-.20812-1.07702-.2563-1.62776-.32548s-1.11455-.16726-1.58708-.45845c-1.1268-.69437-.9133-2.23188-.43049-3.2649.53812-1.15136,1.47273-2.07833,2.39037-2.93332.98116-.91418,1.94034-1.88812,2.86599-2.86148-.55343-.39512-6.50464-4.8379-6.67236-4.65399,2.88-3.15794,5.95181-6.17587,8.06885-9.92853.85351-1.51251,1.39648-2.86993,1.39648-3.72314,0-1.46777,1.1811-3.04426,1.98847-4.17558.90691-1.2708,1.94918-2.44075,3.06375-3.53229,1.10598-1.08313,2.24076-2.11861,3.14035-3.39058.45019-.63655.75534-1.44629.5379-2.19501-.11604-.39955-.37398-.74901-.6924-1.0168-2.31594-1.94766-5.362,1.28813-7.35997,2.27424-.82116.40529-1.68231.59846-2.50548.10453-.71445-.4287-1.22088-1.13485-1.73227-1.77415-1.22569-1.53227-2.46222-3.07073-3.41069-4.78845-.43279-.78381-.80886-1.62067-.89823-2.51157-.16908-1.68564,1.3271-2.04684,2.70362-1.92252,1.6719.15101,3.18375.91693,4.81219,1.25199,1.47448.30339,3.00915.3151,4.48731.02889.64017-.12395,2.75125-.4358,2.49607-1.46728-.15231-.61566-1.29956-.96024-1.79325-1.2211-.79834-.42184-1.59848-.84027-2.39977-1.25649-1.57904-.8202-3.16262-1.63164-4.74618-2.44309-1.58303-.81118-3.17225-1.6258-4.84882-2.22933-1.7564-.63226-3.65998-.30544-4.81966,1.21519-.75427.98904-1.26802,2.15952-1.49118,3.38286-.23764,1.30272-.08915,2.63674-.16408,3.95191-.10504,1.84367-.66185,3.75547-1.8252,5.215-.68223.85592-1.5679,1.53009-2.57395,1.9612-.48839.20929-1.03064.38867-1.55328.48064-.81623.14363-1.66385.05171-2.48816.2266-1.03072.21868-2.02226.72233-2.63093,1.60818-.80019,1.16459-.8479,2.61061-1.95395,3.60795-.69373.62555-1.78613,1.04412-2.70348.70521-.88865-.32831-1.43138-1.26665-1.5747-2.16411-.32792-2.05334.54026-4.48006,2.04564-5.8942.74102-.69612,1.64586-1.19156,2.43856-1.8282.80543-.64686,1.74813-1.6804,1.56481-2.7982-.1355-.82507-.87426-1.56207-2.19262-2.15899-1.23526-.5593-2.56148-.83286-3.88917-1.0671-1.58121-.27896-3.18393-.50751-4.79381-.44229-.66595.02698-1.34211.10742-1.95079.37896-1.075.47957-1.26816,1.53489-2.0661,2.28296-.77645.72791-1.83672,1.11611-2.8645,1.32205-.71523.14331-1.43836.09995-2.15255.22373-1.04035.1803-2.03922.53667-3.04247.85552-4.81786,1.53117-9.32763,4.03108-14.26911,5.16588-.70407.16169-1.41546.29261-2.13239.38222-2.56029.23273-4.07323.98895-5.12792,2.79234-.92038,1.57375-1.64148,3.68588-1.61967,5.51902.00554.46583.07234.96531.31668,1.37143.26605.44222.72347.71345,1.07279,1.08071.34829.36618.55503.84417.70614,1.32641.54026,1.72406.48241,3.65691.10516,5.40994-.30325,1.40915-1.00496,2.762-2.42122,3.30433-.88178.33766-1.8561.3312-2.77067.56599-.54792.14066-1.09131.38144-1.46255.80829-.59636.68571-.61494,1.67364-.65079,2.53596-.03224.77539.1642,1.42825.99018,1.64398,1.02036.2665,2.09562.08597,3.14449-.02367,1.59343-.16656,4.13016.04542,3.60546,2.26843-.33615,1.42417-1.44188,2.62673-2.36708,3.70911-1.26773,1.48309-2.81157,2.68313-4.12948,4.09827-1.39963,1.50289-2.93271,2.8874-4.34627,4.38018-1.47301,1.55557-2.93852,3.14254-4.67727,4.40907-.50821.37019-1.04611.71534-1.6461.90334-.49329.15456-1.00964.21109-1.47917.43832-.49216.23817-.96262.54603-1.40924.85961-.98731.6932-1.88307,1.50669-2.76846,2.32312-1.02243.94279-1.98191,1.95387-2.86933,3.02472-.80166.96737-1.83654,2.11361-1.49945,3.48085.15065.61104.5391,1.13295.93686,1.62064s.82072.97071,1.06273,1.55164c.72335,1.73636-1.01181,2.7032-2.12211,3.67592-1.28185,1.12301-2.8483,2.35746-3.51176,3.97262-.14921.36325-.24878.74494-.38807,1.11211-.28279.74543-.72429,1.41894-1.17734,2.07497-1.44033,2.08564-3.03478,4.06413-4.76407,5.91716-.83367.89333-1.69515,1.79318-2.73416,2.45108-.24229.15342-.54708.25363-.81534.15209-.95295-.36078-.82416-2.32133-.74144-3.09132.1326-1.23435.51253-2.42196.73408-3.64001l.60076-3.30295-3.87939,4.34369c-2.32739,2.32703-4.03418,6.20532-4.03418,8.53229,0,3.78025-1.82588,7.06468-3.04074,10.52859-.73481,2.09516-1.1197,4.29395-1.35539,6.49628-.23451,2.19133-.43638,4.43196-.23934,6.63347.09173,1.02489.13229,2.19814.69982,3.09456.86362,1.36411,2.91167,1.41118,4.33229,1.24135.81969-.09799,1.83846-.24782,2.43235-.87428.94424-.99603.69664-2.77371.58459-4.00516-.62061-4.96423,3.25854-11.94519,6.67236-11.94519,2.94824,0,2.94824,4.49878,0,8.37708-5.58618,7.44641-1.24146,7.44641,6.98267,0,5.27588-4.80908,6.20679-6.67065,6.20679-11.63495,0-4.18848.62061-6.05011,2.17236-6.05011,2.94824,0,4.5,2.63727,2.48267,3.8783-.77563.46539-1.55151,2.32703-1.55151,4.03345,0,2.17188,1.08618,2.94751,4.34473,2.94751,1.99658,0,4.33325-.83038,6.35376-2.02039,2.69043-1.58466,4.8186-3.8092,4.8186-5.58112,0-.93079,1.24121-1.70642,2.6377-1.70642s3.87939-1.08594,5.43115-2.48218c1.55151-1.55133,6.20679-2.94745,10.39648-3.41284,2.39648-.2229,4.14697-.48944,5.60034-.97205"
    fill="#7f5944"
    stroke-width="0"
  />
  <path
    d="m298.2771,131.13547c-2.01709-2.17181-4.8103-3.25775-8.84448-3.25775-3.25879,0-6.3623-.7757-6.98291-1.70654-.46533-.93073-2.6377-1.24103-4.65503-.77563-3.56909.93085-3.72412.77563-1.86206-2.48212,1.08618-1.86157,2.94824-4.49884,4.1897-5.73993,2.01709-2.17175,1.39648-2.63715-4.5-3.56799-3.56885-.62061-7.91382-2.32703-9.46533-3.72321-2.63794-2.32703-6.98267-1.70642-5.27588.93085.46558.62048-.15503,2.01666-1.39648,2.94745-2.17236,1.86163-2.32764,5.42963-.3103,9.92853.93091,1.86157.46533,3.72321-1.55176,5.89502-2.63794,2.94757-2.63794,3.10266.62061,5.42963,4.34473,2.94757,4.34473,4.80914.15527,6.05023-2.48291.77563-2.94824,1.86157-2.17236,4.34369.62061,1.86157,1.24121,7.29126,1.55151,11.94519.62085,10.39392.3103,9.61829,3.41382,8.99768,1.55176-.31024,2.94824-1.86157,3.41382-3.56799.3103-1.70642,1.86206-4.03345,3.41382-5.11938,4.03442-2.79248,3.72412-4.96423-.46558-4.4989-2.17236.15509-3.56909-.62054-4.03442-2.32697-.46558-2.17188.46533-2.79236,3.72412-2.79236h4.18945l-4.18945-4.1886c-4.1897-4.1886-4.65527-7.91174-.77588-6.82587,7.1377,2.01678,9.31006,1.70648,13.34473-1.24103,3.56885-2.94751,5.43091-3.25775,12.72388-2.32703l8.68945,1.08594-2.94824-3.4129Z"
    fill="#7f5944"
    stroke-width="0"
  />
  <path
    d="m426.17699,274.42282c-.78426-1.35649-2.66211-2.17653-2.81819-3.8465-.0761-.81428.62683-1.45608,1.11851-2.10961,2.06459-2.74414.64177-6.63973-.89296-9.71177-6.13755-12.28538-13.29263-24.29385-23.23312-33.76943-7.20055-6.8638-15.77764-12.2776-25.07151-15.82497-4.34328-1.65778-9.11616-3.10122-11.97642-6.76608-1.33945-1.71625-2.18014-3.84297-3.83055-5.26275-4.57302-3.93398-11.44768-.22512-17.47176.08976-7.21142.37695-13.51844-4.38526-20.12612-7.29818-16.7768-7.39586-36.26295-2.91255-54.36531-5.82191-7.64023-1.22792-15.75386-3.73459-22.83498-.61388-2.90212,1.27899-5.37419,3.42995-8.34171,4.54887s-6.91336.81053-8.54446-1.90932c-.40395-.67358-.7021-1.51428-1.42894-1.81191-.5889-.24115-1.25578-.03055-1.85507.18345-13.43281,4.79682-26.33559,11.07628-38.39862,18.68767,3.50811,2.47548,7.95527-1.02964,11.48136-3.47943,5.61031-3.89783,12.87427-5.32545,19.54243-3.84078,1.59208.35448,3.52512,1.49455,3.08649,3.06553-.35784,1.28165-1.99986,1.59147-3.327,1.68829-5.11503.37318-11.24229,1.96079-12.64769,6.89309,5.29622,3.60077,12.38193,4.41105,18.35431,2.09889,3.38883-1.31196,6.43632-3.55666,10.00002-4.26754,7.74431-1.54483,15.09491,4.48807,22.99069,4.62046,7.56393.12682,16.1029-4.91786,22.01835-.20229,1.0263.81813,2.01786,1.9485,3.33006,1.92084,2.10103-.04429,2.84733-2.95952,2.16225-4.94621s-2.14882-3.77371-2.14269-5.87519,2.97361-4.01309,4.13741-2.26328c.468.70364.36044,1.62214.39957,2.4663.24107,5.20051,6.32778,8.06738,11.5298,8.27324s10.66651-1.01431,15.46583,1.00311c4.49079,1.88773,7.69779,6.37748,12.43993,7.4923,2.30112.54096,4.90237.26916,6.82805,1.64012,2.14483,1.52698,2.60375,4.46285,3.8751,6.76842s4.85218,3.93302,6.33585,1.758c-2.69401-1.70999-1.41711-6.42484,1.55465-7.58688s6.35742.25219,8.86132,2.23012,4.5549,4.53249,7.27863,6.19474c2.63156,1.606,5.7132,2.27127,8.72901,2.91097,7.90513,1.6768,16.01954,3.36142,24.00793,2.14143,1.73716-.2653,3.55523-.6606,5.21267-.07661s2.93669,2.63394,2.01439,4.12976c-.70069,1.1364-2.22162,1.37598-3.55071,1.50204-3.50155.33212-7.00309.66424-10.50464.99637,1.25206,4.62971,8.11696,4.01945,12.07407,6.72932,9.14641,6.26356-1.18581,22.02504,8.80592,27.86004,1.18581.6925,2.60002,1.13879,3.40035,2.25465,1.06661,1.48712.62748,3.52679.87667,5.33985.52991,3.85557,6.45845,1.82734,8.73918,4.10752.46558.3103-2.48267,4.65399-6.36315,9.61984-.75464.91612-5.99293,8.29701-7.59196,6.95522-.17588-.14759-.27948-.36249-.36645-.57534-2.81839-6.89906-11.8163-9.29202-18.4356-10.3488-5.32268-.8498-11.05412-2.28795-16.46563-1.57855-3.4258.44909-5.29332,2.85871-7.99887,4.86958-3.68891,2.74176-7.60129,5.18277-11.68661,7.28939-2.6425,1.36262-5.05908-.62257-7.35716-1.70644-4.116-1.94128-3.70275.2009-7.12711,1.71342-1.05528.46611-2.22584.81869-2.98413,1.68837-2.28086,2.61624-3.41962,3.52703-7.207,2.94054-7.18161-1.11211-14.96377-.56421-21.67994-3.85584-6.19592-3.03666-10.65063-7.8417-17.79011-8.71544-4.8675-.59569-9.83366-.10595-14.51133,1.35376-4.08782,1.27564-9.37967,6.00905-13.62519,5.77214-1.13409-.06328-2.18301-.584-3.23886-1.00289-2.15296-.85415-21.02191-4.06151-21.46489-.30467-1.37498,11.66104-14.35435,15.28676-20.96694,23.94288-2.96175,3.87704-3.64511,9.16912-6.54466,13.34012-1.90486,2.74018-3.59145,6.40999-6.80081,7.89365-.946.43733-2.1181.52783-2.9966-.03272-1.84232-1.17554-1.44447-3.72774-3.41805-4.89891-.98535-.58473-2.113-.89955-3.09286-1.49344-1.43361-.86891-2.44863-2.26616-3.6121-3.47304-3.75396-3.89402-8.92764-5.45161-14.22629-5.44478-4.66081.00601-9.24166,1.11356-13.77057,2.21455-5.18821,1.26127-10.40438,2.53173-15.31269,4.63337-1.75673.75219-3.69201,1.90604-3.92074,3.80329-.10656.88392.19467,1.7605.49138,2.59992,1.19201,3.37223,2.38402,6.74446,3.57603,10.11669.45028,1.27385.92818,2.59268,1.88108,3.5505,2.26225,2.27393,6.26174,1.69461,8.76075,3.70545-3.44941,1.63447-7.39553,3.97157-7.58901,7.78372-.13364,2.63309,1.66596,5.00186,1.91291,7.62675-.58223.11749-1.21847-.08074-1.63092-.50815,3.99167,6.30483,7.98333,12.60966,11.975,18.91449-1.51015-2.26671-2.67268-4.76454-3.43453-7.37951,4.29691,3.2959,8.52645,6.67962,12.6851,10.14835,3.11686,2.59977,6.21701,5.27128,8.70724,8.47634,1.5936,2.05106,2.95579,4.33845,4.98932,5.95436,2.27878,1.8108,5.17895,2.60392,7.9913,3.35393,1.06496.28401,2.24114.55906,3.23093.07418s1.40602-2.0993.45935-2.66375c-.69673-.41542-1.77499-.08714-2.25842-.73853-.76078-1.02508,1.07442-1.89054,1.99319-2.77678,1.07086-1.03294.90366-2.78957,1.5623-4.12371,1.42253-2.88144,5.55532-2.51932,8.58074-3.60244,3.84326-1.3759,6.07832-5.42105,7.09926-9.37344s1.18758-8.12554,2.63019-11.94425c1.62971-4.31398,4.75929-7.85504,7.51943-11.54937,2.48818-3.33033,4.32589-6.70857,5.21335-10.78081.84865-3.89417,1.37817-7.94682,3.81456-11.26957,7.71945-10.52778,25.73977.90913,36.14509-2.62187-.40414-.75294-.82095-1.4955-1.1659-2.27021,6.68931-.47264,13.98128,1.32797,20.45712,2.9387,1.87497.46636,6.60125-.16696,7.82981,1.24046.40008.45833.61507,1.04503.82109,1.61747,1.64234,4.56324,3.56979,9.10032,4.37733,13.90975.85798,5.10988-.22165,9.99782-.29027,15.10268-.07563,5.62651,2.01018,9.69248,4.90064,14.30354,1.26226,2.01364,2.32859,4.32546,2.03828,6.68422-.10787.87644-.37339,1.8682.16686,2.5667.24536.31722.61637.50548.94353.73776,1.46296,1.03882,2.11414,3.40951,3.02627,4.9029,1.30372,2.13454,2.82319,4.12855,4.1031,6.27921,2.78529,4.6802-.21501,6.07953-3.52582,8.71323-2.50567,1.99323-4.57851,4.61632-5.88681,7.54345-1.33577,2.98858-.87322,3.3979,2.07466,3.27746,4.55055-.18593,9.17386-.68931,12.67721-3.90829.31403-.28854.63547-.60405,1.04976-.70519s.94151.12375.98787.54768c.02131.19489-.06054.385-.14617.56136-.4464.91944-1.04852,1.76303-1.77297,2.48401,14.98802-11.733,28.08142-25.9118,38.89612-41.55596,4.09033-5.91449,7.99634-11.95172,10.99829-16.87946.67505-1.28107,1.86353-3.30042,3.25928-5.54962.11035-.1778.21582-.35034.32861-.53058,6.67236-10.23871,8.22388-13.65167,9.93091-20.94293.83252-3.99524,6.09033-13.08429,13.58665-24.12301,4.88694-7.19628,10.33159-14.49213,15.71531-21.5186,2.64436-3.45124,5.27393-6.91957,7.98253-10.32046,2.31212-2.90307,5.37811-5.47777,7.05429-8.82785.82086-1.64061,1.41327-3.96912.73343-5.76595-.05185-.13703-.1155-.26827-.18868-.39484Z"
    fill="#7f5944"
    stroke-width="0"
  />
  <path
    d="m429.70679,256.63767c-.77588-7.91174-1.86206-11.16949-5.43091-15.51324-2.32764-2.94751-4.34473-7.13611-4.34473-9.46307,0-2.63727-1.39673-5.11932-4.03467-6.98096-6.05151-4.34369-11.48242-10.39392-11.48242-12.72119-.00048-5.16712-8.33936-10.42525-12.83307-11.01611-1.23301-.16213-2.50786-.07694-3.69701-.44095-2.16164-.66171-2.22144-2.77025-3.3567-4.39652-1.29114-1.84956-3.16487-3.19761-4.66262-4.86425-3.76201-4.18623-3.65748-9.45304-5.35652-14.50525-1.775-5.27809-4.38586-10.99161-2.36971-16.59082,1.55176-4.4989,1.39648-5.2746-3.25854-9.30798-2.79297-2.48218-5.89648-7.13617-6.67236-10.23883-2.01709-7.60144-8.22412-15.51324-12.41357-16.13373-2.79297-.31024-3.72412-1.70648-4.34473-6.20526-.46558-3.72327-2.17236-6.82587-4.96558-8.9978-2.32739-1.70642-5.74146-5.89502-7.60327-9.15277-3.72412-6.67077-17.22412-16.28888-26.8451-19.08146-4.99062-1.44857-9.63379-4.51429-14.15631-7.07468-3.94474-2.23329-7.99974-4.47569-12.65281-4.37266-5.4693.1211-11.23034,1.93536-16.65472.75788-5.36107-1.16373-10.64497-3.7715-15.16828-6.82073-1.54908-1.04426-3.05299-2.19103-4.24478-3.6297-.5149-.62156-.97674-1.30239-1.61668-1.79426-1.01683-.78155-2.34991-.98986-3.62345-1.14111-10.00693-1.18843-19.81534-.07352-29.63992,1.89139-11.79297,2.48218-19.55151,8.22211-23.27563,17.06458-1.08618,2.63727-5.43091,7.13617-9.46533,10.08362-9.15503,6.67078-28.24097,25.44183-29.48242,29.16492-.46558,1.39624-3.10327,4.03351-5.89648,5.73993-4.34473,2.79236-4.96558,4.03351-4.96558,10.08362,0,3.8783-.77563,7.9118-1.86182,8.99768-1.08643,1.08594-2.94824,5.42963-4.1897,9.77344-1.24146,4.18848-3.25854,8.68738-4.5,9.77332-2.79321,2.79236-6.98267,24.35583-8.06885,42.04089-1.24146,19.3916-2.94824,24.66614-9.3103,29.63037-2.94824,2.17181-5.43091,5.27448-5.43091,6.82581s-1.08618,3.56812-2.32739,4.65399c-2.08667,1.77325-7.3208,10.05896-10.53271,16.10596-1.56494,2.94653-2.65698,5.36914-2.65698,6.23315,0,1.24103-1.08618,2.94745-2.32739,4.03339-1.70703,1.39624-2.32764,4.96429-2.32764,13.03119,0,14.11672,1.08614,17.84012,5.43065,19.54659,3.15158,1.2379,4.03986,4.32472,4.83185,7.27852.93427,3.48443,2.87752,6.63147,5.50714,9.08836-5.9182-5.65039-5.66784-14.31664-8.94231-21.33165-1.06132-2.07147-3.86092-7.16462-.56071-8.60381.93083-.40592,1.98299-.37576,2.99606-.44602,2.75631-.19117,4.88063-2.50828,5.08051-5.26461.04561-.62902-.1535-1.31202-.65871-1.68953-.3939-.29433-.90567-.3631-1.39009-.44746-2.29941-.40047-4.97083-1.21706-5.84176-3.62578-.72754-2.01214.05532-4.31898,1.30329-5.94714,2.1033-2.74426,5.22429-4.48143,7.37793-7.15781.48906-.60777.92962-1.29773,1.01424-2.07324.06684-.61258-.09406-1.22503-.13075-1.84015-.11054-1.85326.90064-3.58007,2.01092-5.06804,1.78214-2.38837,3.92206-4.50736,6.3184-6.27795,2.49009-1.83986,5.31881-2.93789,7.92676-4.55339,5.71933-3.54283,10.44544-8.41537,15.07249-13.23903,1.43741-1.49849,2.85776-3.03518,4.54294-4.24834,3.10857-2.23785,6.18879-1.93844,9.79432-2.28848,3.7159-.36075,7.39223-1.35136,10.61816-3.26855.60387-.35888,1.23347-.79904,1.43878-1.47083.1676-.54841.01601-1.14661.12217-1.71015.14102-.74861.71019-1.33437,1.27174-1.84912,3.82061-3.50222,8.5284-5.53701,13.07581-7.89679.99872-.51829,1.98167-1.07799,2.88475-1.75223.93592-.69876,1.6117-1.84969,2.51832-2.492,1.68803-1.19591,4.77756-.312,6.74012-.12552,2.47485.23516,4.94487.1684,6.97252-1.46282,1.68999-1.35959,3.02314-3.14994,4.83928-4.33575,3.51408-2.29446,8.09827-2.5546,11.83709-4.50343,4.81044-2.5074,9.71546-4.89139,14.65104-7.1418,1.36171-.62101,6.49941-3.80942,7.12532-.98469.12768.57622.04612,1.19447.25288,1.74727.2211.59114.74981,1.02551,1.32943,1.2753,3.26796,1.40831,8.29041.62487,11.11429-1.39738,2.88612-2.06682,4.68486-4.24345,8.48315-4.30011,4.61689-.06887,9.25306-.24462,13.82375.57157,3.25835.55838,6.33094,1.91742,9.64773,2.3604,5.83887.77983,11.75292-.11664,17.63897-.3511,2.88533-.11493,5.78627-.0695,8.64316.35067,2.83617.41712,5.60806,1.20475,8.45597,1.54907,2.83712.34301,5.6249.08781,8.45031.67423,5.49645,1.1408,10.64879,3.75089,15.32855,6.78737,1.82594,1.18477,3.62589,2.50831,5.7289,3.0697,2.92756.78149,5.80773-.08911,8.64903-.78754,4.49161-1.10415,14.29592-2.8117,16.76975,2.80785.35308.80206.49114,1.68416.82739,2.49342.56552,1.361,1.6674,2.44447,2.90919,3.23827,3.02309,1.93247,6.78798,3.05492,10.06982,4.48774,3.55202,1.55078,7.08704,3.14244,10.57023,4.84296,1.67703.81874,3.35733,1.65516,4.95216,2.62728,1.83926,1.12111,2.75163,1.96741,3.43236,4.09598.31563.98695,1.0183,1.79984,1.75712,2.52636,3.2816,3.22699,6.95567,6.00709,10.4454,8.99757,1.73656,1.48813,3.43156,3.02916,4.99803,4.69726,1.31312,1.39831,3.49537,3.37653,3.90672,5.32463.15664.74181.03072,1.51189.0733,2.26895.13876,2.46619,1.94626,4.27568,3.2944,6.17804,2.07832,2.93272,3.84159,6.11061,5.51741,9.28562.79442,1.50511,1.401,3.19534,1.18126,4.88303-.19971,1.53374-1.12449,2.65771-1.70199,4.02254.5125.16096,1.14415.22836,1.68623.44515,3.87915,1.55133,4.96533-1.86163,4.03442-13.03119ZM253.04768,103.77032c-.11526.29964-.28358.58541-.49204.84333-2.50853,3.10383-6.98762,5.6366-7.85029,9.80509-1.24074,5.99534-5.60726,10.34113-9.58208,14.69951.32573-.32087,5.9657,4.13712,6.65644,4.64361-1.73601.5552-3.38069,3.38568-4.46545,4.7496-4.50308,5.66197,9.42625,5.22941,2.74194,11.55662-.39719.37597-.84005.71468-1.14795,1.16685-1.13574,1.66797.27128,2.0764,1.75452,2.0644,1.87459-.01517,4.67976-1.41746,6.16137.29034,2.81561,3.24602-.34028,10.41276-3.84006,11.86885-6.42262,2.67215-12.10451,7.02826-19.03053,8.42585-.55895.11279-1.16479.20324-1.67895-.04358-1.61557-.7757-2.30734-4.91174-2.75582-6.46498-.64142-2.22146-1.38036-4.97183-.43684-7.21487,1.09202-2.59606,5.20754-1.96316,6.05813-4.6588.88224-2.79592-2.75243-5.57311-5.133-5.77263-2.97346-.24921-5.93127,1.27045-8.56475,2.44709-.21324.09527-.48275.18249-.66181.03254-.09327-.07811-.13351-.2026-.15274-.32272-.11671-.72905.37878-1.41415.92619-1.90969,2.51109-2.2731,6.17557-2.57527,9.08182-4.13599,1.62706-.87377,5.83557-3.5138,5.07895-5.84151-.73686-2.2669-4.62003-1.28682-6.26996-2.39036-.50927-.34062-.95536-.78121-1.50857-1.04535-1.72334-.82259-4.01676.04057-5.44572,1.09019-2.17375,1.59669-1.90857,3.96042-3.09036,6.18772-1.02947,1.94022-2.68347,3.47871-3.66521,5.44614-1.18247,2.36969-.25867,4.8054-1.19373,7.22646-.31252.80918-.75709,1.56349-1.05043,2.37986-.48853,1.35962-.2802,2.52685.64676,3.64771,2.89839,3.50468.60464,6.8673-1.6391,10.10608-1.70756,2.4648-3.82494,4.85948-6.26777,6.62233-1.88683,1.36162-5.33725,1.44714-7.65887,1.66307-4.1897.46539-8.84497,1.86151-10.39648,3.41284-1.55176,1.39624-4.03467,2.48218-5.43115,2.48218s-2.6377.77563-2.6377,1.70642c0,1.77191-2.12817,3.99646-4.8186,5.58112-1.24048,1.58807-3.12012,2.02039-6.35376,2.02039-3.25854,0-4.34473-.77563-4.34473-2.94751,0-1.70642.77588-3.56805,1.55151-4.03345,2.01733-1.24103.46558-3.8783-2.48267-3.8783-1.55176,0-2.17236,1.86163-2.17236,6.05011,0,4.96429-.93091,6.82587-6.20708,11.63522-1.94009,1.7566-4.01633,3.54805-6.34561,4.77609-1.35909.71654-4.1098,1.4944-2.84405-1.23472,1.4457-3.11695,4.96261-5.90932,4.40813-9.68823-.13341-.90919-.67689-1.81513-1.54443-2.11907-3.52024-1.2327-6.28996,4.94875-6.91439,7.39135-.34331,1.34295-.51321,2.73558-.46818,4.12201.04561,1.40433.50779,3.05337-.54366,4.22677-1.62088,1.8084-6.14412,1.40421-7.10808-.91237-.78784-1.89334-.42877-4.23291-.36456-6.22202.09868-3.05722.6336-6.10093,1.59471-9.00521.91205-2.75601,2.20431-5.40253,2.74003-8.25568.8049-4.28679,1.08696-7.88967,4.35597-11.15817l3.87938-4.34367c-.42827.47953-.45219,2.45748-.581,3.12244-.33339,1.72112-.65787,3.44006-.70385,5.19815-.01563.59773.05783,1.30363.57381,1.60696,1.67627.98402,4.24-3.11001,5.10107-4.07209,1.3641-1.5241,2.51234-2.92708,3.47373-4.75411,1.03291-1.96295,1.95298-4.07511,3.67661-5.54879,1.05278-.90012,2.61433-1.62026,3.13481-2.99722.61974-1.63957-.64079-2.82618-1.30902-4.20202-1.74898-3.60174,3.0477-7.16424,5.53951-8.86336,1.48197-1.01053,3.06058-1.76523,4.62023-2.62957,2.60497-1.44364,4.77754-3.59074,6.83055-5.7143,1.89968-1.96496,3.79442-3.9347,5.6845-5.90951,1.33683-1.3966,7.60025-7.40123,1.87214-7.71838-1.07834-.0597-2.14025.2918-3.22009.30989s-2.3163-.45586-2.61191-1.4946c-.13398-.47078-.04669-.98283.14775-1.43203.43072-.99507,1.35172-1.70846,2.34596-2.14112,1.57702-.68626,3.35793-.49929,4.37777-2.09374.87174-1.36291.94216-3.16725.94401-4.73326.00087-.73816-.01267-1.48675-.21657-2.19619-.27862-.96943-1.01151-1.35628-1.51266-2.14333-.67172-1.05493-.77206-2.35791-.55339-3.5667.44874-2.4805,1.69392-5.12727,4.07329-6.20611,2.12047-.96145,4.55119-.87082,6.75872-1.53241,5.19758-1.55769,10.87133-5.52793,16.41536-5.52793.21338,0,.43164-.01691.65213-.04909,2.55504-.37342,3.01638-2.17382,4.89445-3.38163,1.17825-.75775,2.67299-.83271,4.06379-.66442,2.56356.3102,6.98616.4483,8.67935,2.79526,1.42753,1.97873-1.14931,3.82331-2.61734,4.71284-2.00698,1.21609-3.14619,3.76844-3.03599,6.06233.05165,1.07521.45162,2.25213,1.41466,2.73306,1.10655.5526,2.49398-.07575,3.26705-1.0414.88949-1.11108,1.12848-2.62613,2.07101-3.6876,1.25065-1.40847,3.16429-1.15953,4.86994-1.49826,6.15967-1.22325,4.93963-8.22355,6.40121-12.74682.54467-1.68564,1.77218-3.31178,3.51189-3.64563,1.50203-.28825,2.99392.43283,4.35376,1.13297,1.30799.67345,11.99505,5.49657,11.60279,6.50524-.08282.21295-.27599.36075-.46707.48605-1.54403,1.01249-3.44247,1.17856-5.23451.94129-2.27155-.30076-10.78697-3.76869-8.23602,2.1087,1.26706,2.91932,4.69151,9.35138,8.54765,7.20769,1.80014-1.00072,5.148-4.36396,7.08582-1.66565.4863.67715.50923,1.45982.23778,2.16553Zm39.48821,29.69212c-7.29297-.93073-9.15503-.62048-12.72388,2.32703-4.03467,2.94751-6.20703,3.25781-13.34473,1.24103-3.87939-1.08588-3.41382,2.63727.77588,6.82587l4.18945,4.1886h-4.18945c-3.25879,0-4.1897.62048-3.72412,2.79236.46533,1.70642,1.86206,2.48206,4.03442,2.32697,4.1897-.46533,4.5,1.70642.46558,4.4989-1.55176,1.08594-3.10352,3.41296-3.41382,5.11938-.46558,1.70642-1.86206,3.25775-3.41382,3.56799-3.10352.62061-2.79297,1.39624-3.41382-8.99768-.3103-4.65393-.93091-10.08362-1.55151-11.94519-.77588-2.48212-.31055-3.56805,2.17236-4.34369,4.18945-1.24109,4.18945-3.10266-.15527-6.05023-3.25854-2.32697-3.25854-2.48206-.62061-5.42963,2.01709-2.17181,2.48267-4.03345,1.55176-5.89502-2.01733-4.4989-1.86206-8.06689.3103-9.92853,1.24146-.93079,1.86206-2.32697,1.39648-2.94745-1.70679-2.63727,2.63794-3.25787,5.27588-.93085,1.55151,1.39618,5.89648,3.1026,9.46533,3.72321,5.89648.93085,6.51709,1.39624,4.5,3.56799-1.24146,1.24109-3.10352,3.87836-4.1897,5.73993-1.86206,3.25775-1.70703,3.41296,1.86206,2.48212,2.01733-.46539,4.1897-.15509,4.65503.77563.62061.93085,3.72412,1.70654,6.98291,1.70654,4.03418,0,6.82739,1.08594,8.84448,3.25775l2.94824,3.4129-8.68945-1.08594Z"
    fill="#d69c83"
    stroke-width="0"
  />
  <path
    d="m316.43213,428.99003c-1.70679,1.70642-14.43091,3.8783-14.43091,2.48206,0-2.79236,5.43091-10.23871,8.53442-11.63489,4.8103-2.17181,4.8103-4.03345,0-9.92847-2.17236-2.48218-3.87939-5.58484-3.87939-6.82587s-.77563-2.17181-1.70679-2.17181c-.93091,0-1.24146-1.24103-.77588-2.79236.62085-1.70648-.62061-5.27454-3.10327-8.99768-3.72412-5.42963-4.03442-6.98096-3.41382-17.06458.04346-.60742.08008-1.18506.11255-1.74591-.10278-1.04456-.05713-2.12427.12598-3.22632.09155-5.35205-.58496-8.4411-2.41089-12.09235-1.55176-3.25781-2.79321-6.82587-2.79321-8.06689,0-.93079-.52368-1.51251-1.24365-1.54889-.23999-.01208-.50171.03638-.77344.15271-.27148.11639-.77588.16486-1.44971.15277-2.02197-.03638-5.57178-.61823-8.94678-1.54895-5.67334-1.48346-11.00293-2.23065-13.94531-2.18634-2.28857.03448-3.13281.54779-1.57153,1.56586,1.70679,1.08582-.3103,1.55133-6.51733,1.55133-4.96533,0-9-.46552-9-1.08594,0-.67871-2.96973-1.11987-6.83105-1.1156-.55151.00055-1.12109.01019-1.70312.0296-7.13794,0-9,.7757-11.6377,4.03351-1.70703,2.32703-3.10352,5.42969-3.10352,7.13666-.00034,4.45251-2.47208,9.17341-4.58161,12.9553-1.20601,2.16209-2.53736,4.34467-4.16629,6.21928-1.50156,1.72803-4.2108,3.19139-4.50148,5.63914-.13803,1.16233.32466,2.33039.20971,3.49524-.10648,1.07896-.69309,2.04011-1.19955,2.99876-2.09276,3.96125-1.63342,8.71601-3.63257,12.54346-1.46051,2.7962-4.58651,3.42964-7.42118,4.23935-5.43091,1.55133-7.29297,2.79236-7.29297,5.11938,0,1.55133-.62061,2.94751-1.55176,2.94751-.77588,0-1.55151.7757-1.55151,1.70642,0,.7757.77563,1.086,1.55151.62061.93115-.46539,1.55176.15509,1.55176,1.55133,0,2.17181-.93115,2.48206-4.18945,1.55133-5.43115-1.24109-11.32764-4.96429-11.32764-6.98096,0-1.55133-5.58618-7.75665-6.98267-7.75665-.3103,0-4.03442-3.10266-8.06885-6.82587-4.03442-3.8783-7.60327-6.67072-8.06885-6.36041-.47217.52466,1.26001,3.7146,4.03638,7.9538,1.31787,1.8988,2.65381,3.78485,3.9873,5.63312,1.58276,2.19421,3.15698,4.32367,4.69043,6.34106.98047,1.28998,1.94092,2.52942,2.87524,3.70862,3.06079,3.86316,5.81274,7.04205,7.91089,9.02771.07935.07269.16406.15509.24097.22382,10.8894,9.79822,24.98511,19.04938,38.23486,25.42676,5.61719,2.70288,11.08228,4.89642,16.07471,6.37543,4.23853,1.24628,9.73193,2.00574,15.65112,2.31659,10.22095.71002,21.42041.12335,28.72778-1.85132.84204-.2229,1.6897-.46558,2.54224-.72565,1.53223-.39307,2.98804-.81647,4.28516-1.29114,2.55078-.91644,5.74805-2.37744,9.16528-4.12372.53271-.27222,1.07104-.55212,1.61304-.8374,2.07764-1.09363,4.20801-2.27386,6.30615-3.49005,5.55811-3.28253,11.15381-7.13794,16.66406-11.466.1377-.13861.27148-.27551.38916-.40515,3.10327-3.41296,1.39648-4.65399-1.70703-1.55133Zm-21.2583-15.82355c-2.94824-.3103-6.36206.31018-7.60352,1.39612-1.55151,1.39624-2.6377,1.55133-3.41357.3103-1.08643-1.70642-8.22412-.46539-10.86206,1.70654-1.86206,1.86151-13.8103,1.70642-24.20654-.15521-4.65503-.93079-11.6377-1.70642-15.82739-2.01672-6.20679-.31024-7.75854.15521-9.62061,3.10266-2.79297,4.03345-4.34473,4.49878-6.82764,1.39612-2.32739-2.79236-.15503-4.49884,11.33152-8.84392,1.32305-.4742,7.67908-1.90808,7.68293-3.96843.00166-.88679-1.54626-1.33161-1.95363-1.90405-1.47349-2.07053-1.07262-4.03112-.32564-6.41409.8287-2.64366,1.51599-5.33164,2.05794-8.04862.16415-.82292.3156-1.66365.21775-2.49706-.08715-.74232-.36817-1.44543-.6064-2.15389-2.11865-6.30043-2.26653-14.03264-2.26653-20.62141,0-8.22198.3103-9.30792,2.79297-8.84259,1.70679.3103,5.43091-.77563,8.53442-2.17175,4.34473-2.17194,9.77563-2.79248,22.49976-2.79248,14.43091.15515,17.22388.46545,20.948,3.25781,2.63794,2.01672,4.03442,4.49878,3.87939,6.82581-.46551,8.84133-3.87842,27.14296-5.27528,28.54383-4.80681,4.8206,6.34164,12.19103,7.05662,17.10661.07374.50695.09988,1.02734.27597,1.50839.80856,2.20884,3.40528,1.93943,4.9698,3.17135,3.25601,2.56382-1.2577,2.26969-3.45827,2.10468Z"
    fill="#593f2c"
    stroke-width="0"
  />
</svg>
