<svg width="183" height="183" viewBox="0 0 183 183" fill="none" xmlns="http://www.w3.org/2000/svg">
  <rect x="0" y="0" width="183" height="183" fill="#232020" />
  <path
    d="M130.615 69.751c-7.259 0-13.711 3.458-17.843 8.796l-7.158 7.115-8.437-8.647 5.287-5.785c6.838-3.888 11.47-11.223 11.47-19.633 0-12.454-10.128-22.582-22.582-22.582-12.455 0-22.582 10.128-22.582 22.582 0 5.959 2.337 11.37 6.123 15.41l-.042.041 9.925 10.186-7.739 8.485-5.258-5.172c-3.98-6.453-11.096-10.777-19.227-10.777-12.454 0-22.582 10.128-22.582 22.582 0 12.455 10.128 22.582 22.582 22.582 6.342 0 12.073-2.634 16.181-6.857l.059.054 8.59-9.41 7.614 7.491-7.228 7.192c-5.457 4.128-9.006 10.656-9.006 18.012 0 12.455 10.127 22.582 22.582 22.582 12.454 0 22.582-10.127 22.582-22.582 0-6.624-2.882-12.57-7.437-16.708l-8.667-8.526 7.687-7.65 6.735 6.906c4.101 5.739 10.804 9.5 18.382 9.5 12.454 0 22.582-10.127 22.582-22.582 0-12.454-10.128-22.582-22.582-22.582Zm-39.3-31.705c7.469 0 13.548 6.078 13.548 13.548 0 7.469-6.079 13.547-13.548 13.547-7.47 0-13.548-6.078-13.548-13.547 0-7.47 6.078-13.548 13.548-13.548Zm-52.376 54.312c0-7.47 6.078-13.548 13.548-13.548 7.469 0 13.547 6.078 13.547 13.548 0 7.469-6.078 13.547-13.547 13.547-7.47 0-13.548-6.078-13.548-13.547Zm52.376 52.632c-7.47 0-13.548-6.078-13.548-13.548 0-3.591 1.43-6.839 3.722-9.268l.141.141 2.104-2.093c2.17-1.474 4.788-2.339 7.603-2.339 3.547 0 6.755 1.399 9.174 3.634l.434.428.028-.028c2.426 2.452 3.931 5.818 3.931 9.531 0 7.47-6.079 13.548-13.548 13.548Zm.044-45.11-7.924-7.794 7.61-8.336 8.136 8.345-7.822 7.785Zm39.256 6.058c-7.469 0-13.547-6.078-13.547-13.547 0-2.936.961-5.639 2.553-7.862l1.853-1.844-.128-.129c2.431-2.294 5.686-3.727 9.284-3.727 7.469 0 13.547 6.078 13.547 13.548 0 7.469-6.078 13.547-13.547 13.547Z"
    fill="#F1E1D4" />
</svg>