<svg xmlns="http://www.w3.org/2000/svg" viewBox="0 0 512 512">
  <defs>
    <linearGradient x1="6873.96935" y1="-3316.55029" x2="7742.02929" y2="-4358.23021" gradientTransform="translate(-2383.35763 -7571.60646) rotate(99.08864)" gradientUnits="userSpaceOnUse" id="g1">
      <stop offset="0" stop-color="#273498"/>
      <stop offset=".53" stop-color="#0074c2"/>
      <stop offset="1" stop-color="#00abe7"/>
    </linearGradient>
  </defs>
  <rect width="100%" height="100%" fill="url(#g1)"/>
  <path d="m290.23793,195.72l-26-14.84c-5.23383-3.08-11.72617-3.08-16.95999,0-17.45999,10.12-35.06,20.22-52.52,30.34-5.16252,3.00912-8.32672,8.54459-8.3,14.52v60.48c-.07353,6.07666,3.17932,11.70779,8.48,14.67999l52.34,30.34c5.22794,3.10153,11.73207,3.10153,16.96001,0l117.23999-67.84v49.39999c.19382,9.75357-4.96307,18.83182-13.44,23.66l-98.48001,56.89999c-8.41916,4.8992-18.82086,4.8992-27.24001,0l-98.49998-56.89999c-8.56374-4.78418-13.84424-13.85074-13.78-23.66.16-37.82001,0-75.66,0-113.64-.0804-9.79243,5.16713-18.85497,13.7-23.66l98.48-56.74001c8.37517-5.05958,18.86481-5.05958,27.23999,0l98.58002,56.74002c18.60001,10.75999,18.60001,41.75999,0,52.52l-109.60001,63.09999c-1.54419.98047-3.51582.98047-5.06,0l-26.56-15.32001c-1.62787-.87091-2.63733-2.57388-2.62-4.42001v-30.63997c-.01933-1.88817.98256-3.63959,2.62-4.58l63.42001-36.52c1.08249-.64331,1.43848-2.04234.79517-3.12482-.19449-.3273-.46786-.60068-.79517-.79518Z" fill="#fff"/>
</svg>
