<svg xmlns="http://www.w3.org/2000/svg" width="150" height="150" viewBox="0 0 80.9 80.9">
  <defs>
    <linearGradient id="ens-bg" x1="40.45" y1="0" x2="40.45" y2="80.9" gradientUnits="userSpaceOnUse">
      <stop offset="0" stop-color="#513eff"/>
      <stop offset="0.18" stop-color="#5157ff"/>
      <stop offset="0.57" stop-color="#5298ff"/>
      <stop offset="1" stop-color="#52e5ff"/>
    </linearGradient>
  </defs>
  <rect width="80.9" height="80.9" fill="url(#ens-bg)"/>
  <g transform="translate(12 8) scale(0.78)">
    <path fill="#fff" d="M9.5,19.1c0.8-1.4,1.8-2.6,3.2-3.5L35,0L12.1,37.8c0,0-2-3.4-2.8-5.1C7.4,28.4,7.4,23.4,9.5,19.1z M0.3,45.2c0.5,7.3,4.2,14.1,10,18.5L35,80.9c0,0-15.5-22.3-28.5-44.5c-1.3-2.3-2.2-4.9-2.6-7.6c-0.2-1.2-0.2-2.4,0-3.6c-0.3,0.6-1,1.9-1,1.9c-1.3,2.7-2.2,5.6-2.7,8.6C-0.1,38.9-0.1,42.1,0.3,45.2z M63.3,48.2c-0.8-1.7-2.8-5.1-2.8-5.1L37.6,80.9L60,65.4c1.3-0.9,2.4-2.1,3.2-3.5C65.2,57.6,65.3,52.6,63.3,48.2L63.3,48.2z M72.3,35.8c-0.5-7.3-4.2-14.1-10-18.5L37.7,0c0,0,15.5,22.3,28.5,44.5c1.3,2.3,2.2,4.9,2.6,7.6c0.2,1.2,0.2,2.4,0,3.6c0.3-0.6,1-1.9,1-1.9c1.3-2.7,2.2-5.6,2.7-8.5C72.7,42,72.7,38.9,72.3,35.8L72.3,35.8z"/>
  </g>
</svg>
