<svg xmlns="http://www.w3.org/2000/svg" viewBox="0 0 512 512">
  <rect width="512" height="512" fill="#0b8311" />
  <path d="m137.554 273.111 118.933 63.321 117.959-63.321c-42.711 63.451-78.299 116.275-117.959 174.736-39.731-58.332-83.609-122.699-118.933-174.736Zm4.537-17.503 114.525-61.111 113.033 60.665-112.969 61.178-114.589-60.732Zm114.396-80.69-118.933 62.61L255.968 64.153l118.478 173.763-117.959-62.998Z" fill="#fff" />
  <path d="m256.487 336.432 117.959-63.321c-42.711 63.451-117.959 174.736-117.959 174.736V336.432Zm.129-141.935 113.033 60.665-112.969 61.178-.064-121.843Zm-.129-19.574-.519-110.77 118.478 173.763-117.959-62.993Z" fill="#b6d3b6" />
  <path d="m142.091 255.61 114.531 9.399 113.034-9.787-112.976 61.183-114.589-60.795Z" fill="#b6d3b6" />
  <path d="m256.616 265.009 113.033-9.787-112.969 61.183-.064-51.396Z" fill="#66a666" />
</svg>
