<svg xmlns="http://www.w3.org/2000/svg" viewBox="0 0 56 56">
  <defs>
    <linearGradient id="a" x1="10.42" y1="9.71" x2="68.15" y2="76.02" gradientUnits="userSpaceOnUse">
      <stop stop-color="#1A1E21"/>
      <stop offset="1" stop-color="#06060A"/>
    </linearGradient>
    <linearGradient id="b" x1="16.21" y1="24.74" x2="25.96" y2="13.05" gradientUnits="userSpaceOnUse">
      <stop stop-color="#A795F2"/>
      <stop offset="1" stop-color="#B7D0E1"/>
    </linearGradient>
    <linearGradient id="c" x1="28" y1="12.75" x2="36.36" y2="26.77" gradientUnits="userSpaceOnUse">
      <stop stop-color="#E1F0F3"/>
      <stop offset="1" stop-color="#B3DBF5"/>
    </linearGradient>
    <linearGradient id="d" x1="27.84" y1="24.85" x2="17.94" y2="28.51" gradientUnits="userSpaceOnUse">
      <stop stop-color="#DEE1F9"/>
      <stop offset="1" stop-color="#D6CDFB"/>
    </linearGradient>
    <linearGradient id="e" x1="22.9" y1="18.66" x2="20.85" y2="20.64" gradientUnits="userSpaceOnUse">
      <stop stop-color="#C0C7F2"/>
      <stop offset="1" stop-color="#7890D6"/>
    </linearGradient>
    <linearGradient id="f" x1="29.34" y1="22.18" x2="27.29" y2="24.15" gradientUnits="userSpaceOnUse">
      <stop stop-color="#C0C7F2"/>
      <stop offset="1" stop-color="#7890D6"/>
    </linearGradient>
    <linearGradient id="g" x1="35.56" y1="18.66" x2="33.51" y2="20.64" gradientUnits="userSpaceOnUse">
      <stop stop-color="#C0C7F2"/>
      <stop offset="1" stop-color="#7890D6"/>
    </linearGradient>
    <linearGradient id="h" x1="34.92" y1="29.99" x2="32.87" y2="31.96" gradientUnits="userSpaceOnUse">
      <stop stop-color="#C0C7F2"/>
      <stop offset="1" stop-color="#7890D6"/>
    </linearGradient>
    <linearGradient id="i" x1="23.46" y1="29.99" x2="21.41" y2="31.96" gradientUnits="userSpaceOnUse">
      <stop stop-color="#C0C7F2"/>
      <stop offset="1" stop-color="#7890D6"/>
    </linearGradient>
    <linearGradient id="j" x1="17.39" y1="31" x2="29.11" y2="43.97" gradientUnits="userSpaceOnUse">
      <stop stop-color="#6E89D3"/>
      <stop offset="1" stop-color="#677FF0"/>
    </linearGradient>
  </defs>
  <rect x="0" y="0" width="56" height="56" fill="url(#a)"/>
  <g transform="translate(0.84,0.84) scale(0.9700)">
    <path d="M28 23.16 16 28 28 9v14.16Z" fill="url(#b)"/>
    <path d="M28 23.16 40 28 28 9v14.16Z" fill="url(#c)"/>
    <path d="m28 34-12-6.32L28 23v11Z" fill="url(#d)"/>
    <path d="M28.01 34 40 27.68 28.01 23v11Z" fill="#FBFCF7"/>
    <path d="m34.33 19.89-.63 11.13-5.84-7.6-5.8 7.87-.68-10.77.29-.01.62 9.96 5.56-7.53 5.6 7.28.59-10.35.3.02Z" fill="#B0B4E9"/>
    <ellipse cx="21.56" cy="19.54" rx="1.51" ry="1.47" fill="url(#e)"/>
    <path d="M21.9 18.41c.12-.08.38.04.5.11.03.11.08.34-.06.4-.17.07-.15-.12-.32-.18-.17-.07-.29-.22-.13-.33Z" fill="#DADCF4"/>
    <ellipse cx="28.01" cy="23.05" rx="1.51" ry="1.47" fill="url(#f)"/>
    <path d="M28.34 21.93c.13-.09.39.03.5.1.04.12.08.35-.05.4-.17.07-.15-.11-.32-.18-.18-.06-.3-.21-.13-.32Z" fill="#DADCF4"/>
    <ellipse cx="34.23" cy="19.54" rx="1.51" ry="1.47" fill="url(#g)"/>
    <path d="M34.56 18.41c.13-.08.39.04.5.11.04.11.08.34-.05.4-.17.07-.15-.12-.33-.18-.17-.07-.28-.22-.12-.33Z" fill="#DADCF4"/>
    <ellipse cx="33.59" cy="30.87" rx="1.51" ry="1.47" fill="url(#h)"/>
    <path d="M33.92 29.74c.13-.08.39.04.5.11.04.11.08.34-.05.4-.17.07-.15-.12-.33-.18-.17-.07-.28-.22-.12-.33Z" fill="#DADCF4"/>
    <ellipse cx="22.12" cy="30.87" rx="1.51" ry="1.47" fill="url(#i)"/>
    <path d="M22.45 29.74c.13-.08.4.04.5.11.04.11.09.34-.05.4-.17.07-.15-.12-.32-.18-.17-.07-.29-.22-.13-.33Z" fill="#DADCF4"/>
    <path d="m28.11 36.8-12-6.8 12 17V36.8Z" fill="url(#j)"/>
    <path d="M28 36.8 40 30 28 47V36.8Z" fill="#C8CCF7"/>
  </g>
</svg>
