<svg viewBox="0 0 398 398" fill="none" xmlns="http://www.w3.org/2000/svg">
  <rect width="398" height="398" fill="#f4f4f4"/>
  <path d="M198.993 7.52631H199.001C304.746 7.52641 390.47 93.2505 390.47 198.996V199.004C390.47 304.749 304.746 390.473 199.001 390.474H198.993C93.2474 390.473 7.52329 304.749 7.52319 199.004V198.996C7.52334 93.2505 93.2474 7.52645 198.993 7.52631Z" fill="white" stroke="#111111" stroke-width="7.05351"/>
  <path d="M199.001 3.99994H198.993C91.2997 3.99994 3.99683 91.3028 3.99683 198.996V199.004C3.99683 306.697 91.2997 394 198.993 394H199.001C306.694 394 393.997 306.697 393.997 199.004V198.996C393.997 91.3028 306.694 3.99994 199.001 3.99994Z" fill="url(#g1)" fill-opacity="0.7"/>
  <path d="M199.001 3.99994H198.993C91.2997 3.99994 3.99683 91.3028 3.99683 198.996V199.004C3.99683 306.697 91.2997 394 198.993 394H199.001C306.694 394 393.997 306.697 393.997 199.004V198.996C393.997 91.3028 306.694 3.99994 199.001 3.99994Z" stroke="url(#g2)" stroke-width="7.14279"/>
  <path d="M53.6978 230.994C65.9269 287.819 110.722 332.538 167.587 344.661V359.964C102.424 347.412 51.0542 296.118 38.3911 230.994H53.6978ZM358.909 230.994C346.264 296.024 295.024 347.264 229.993 359.909V344.602C286.725 332.393 331.393 287.726 343.602 230.994H358.909ZM229.993 39.39C295.117 52.0528 346.412 103.423 358.964 168.587H343.661C331.538 111.722 286.818 66.9265 229.993 54.6976V39.39ZM167.587 54.639C110.629 66.781 65.7813 111.629 53.6392 168.587H38.3354C50.9055 103.33 102.33 51.9052 167.587 39.3353V54.639Z" fill="black"/>
  <path d="M221.912 194.195C234.369 196.569 244.031 201.147 250.899 207.931C257.766 214.544 261.2 223.023 261.2 233.368V249.648C261.2 262.027 256.728 272.032 247.784 279.664C238.841 287.125 227.102 290.856 212.569 290.856H207.538V316.802H190.289V290.856H185.019C175.437 290.856 166.972 288.736 159.625 284.497C152.279 280.088 146.529 273.983 142.377 266.182C138.384 258.212 136.388 249.054 136.388 238.71H153.636C153.636 249.224 156.511 257.788 162.261 264.401C168.17 270.845 175.916 274.067 185.498 274.067H212.09C221.512 274.067 229.099 271.863 234.848 267.454C240.598 262.875 243.472 256.94 243.472 249.648V233.368C243.472 227.602 241.316 222.684 237.004 218.614C232.852 214.544 227.102 211.916 219.756 210.729L176.634 203.098C164.497 200.893 155.074 196.314 148.366 189.361C141.658 182.409 138.304 173.675 138.304 163.161V149.425C138.304 137.046 142.617 127.21 151.241 119.918C160.025 112.456 171.604 108.726 185.977 108.726H190.289V82.7795H207.538V108.726H213.048C226.623 108.726 237.563 113.135 245.868 121.953C254.173 130.602 258.325 142.048 258.325 156.293H241.077C241.077 146.966 238.521 139.505 233.411 133.908C228.3 128.312 221.512 125.514 213.048 125.514H185.977C176.874 125.514 169.607 127.719 164.177 132.128C158.747 136.367 156.032 142.133 156.032 149.425V163.161C156.032 169.096 158.028 174.099 162.021 178.169C166.174 182.239 171.843 184.952 179.03 186.309L221.912 194.195Z" fill="black"/>
  <defs>
    <radialGradient id="g1" cx="0" cy="0" r="1" gradientUnits="userSpaceOnUse" gradientTransform="translate(199.416 60.945) rotate(90) scale(411.145 289.405)">
      <stop offset="0.03125" stop-color="#FAFAFA"/>
      <stop offset="1" stop-color="#E3E3E3"/>
    </radialGradient>
    <linearGradient id="g2" x1="198.997" y1="0.320658" x2="198.997" y2="397.679" gradientUnits="userSpaceOnUse">
      <stop stop-color="#F4F4F4"/>
      <stop offset="1" stop-color="#BEBEBE"/>
    </linearGradient>
  </defs>
</svg>
