<svg xmlns="http://www.w3.org/2000/svg"  viewBox="0 0 36.379 36.379">
  <rect x="0" y="0" width="36.379" height="36.379" fill="#005a78"></rect>
  <path id="Path_515" data-name="Path 515"
    d="M19.766,33.307a5.579,5.579,0,0,1-2.79-.744L9.751,28.393A3.254,3.254,0,0,1,8.13,25.576v-.8A3.246,3.246,0,0,1,13,21.963l4.888,2.825a3.76,3.76,0,0,0,3.764,0l3.489-2.01,3.215,1.851a2.644,2.644,0,0,1,0,4.587l-5.792,3.339a5.579,5.579,0,0,1-2.79.744Zm-8.4-9.963a1.357,1.357,0,0,0-.708.195,1.421,1.421,0,0,0-.717,1.24v.8a1.443,1.443,0,0,0,.717,1.24l7.226,4.171a3.76,3.76,0,0,0,3.764,0l5.792-3.339a.826.826,0,0,0,0-1.435l-2.3-1.328-2.577,1.488a5.619,5.619,0,0,1-5.588,0l-4.888-2.825a1.388,1.388,0,0,0-.717-.195Z"
    transform="translate(-0.93 -2.463)" fill="#fff"></path>
  <path id="Path_516" data-name="Path 516"
    d="M19.765,26.307a5.579,5.579,0,0,1-2.79-.744l-4.888-2.825a1.43,1.43,0,0,0-2.143,1.24H8.12v-6.2a3.251,3.251,0,0,1,4.844-2.834l4.924,2.843a3.77,3.77,0,0,0,3.746.009l3.507-2.019,3.215,1.86a2.644,2.644,0,0,1,0,4.587l-5.792,3.347a5.579,5.579,0,0,1-2.79.744Zm-8.4-5.588a3.234,3.234,0,0,1,1.621.443l4.888,2.825a3.76,3.76,0,0,0,3.764,0l5.792-3.347a.826.826,0,0,0,0-1.435l-2.3-1.328-2.595,1.5a5.607,5.607,0,0,1-5.57-.018l-4.915-2.834A1.432,1.432,0,0,0,9.927,17.77v3.285a3.241,3.241,0,0,1,1.426-.337Z"
    transform="translate(-0.929 -1.662)" fill="#fff"></path>
  <path id="Path_517" data-name="Path 517"
    d="M19.764,19.19a5.549,5.549,0,0,1-2.63-.664l-.159-.089-4.924-2.843a1.428,1.428,0,0,0-2.116,1.249H8.11v-2.7a3.24,3.24,0,0,1,1.621-2.807l7.226-4.171a5.619,5.619,0,0,1,5.588,0L28.336,10.5a2.644,2.644,0,0,1,0,4.587l-5.9,3.4a5.539,5.539,0,0,1-2.683.7Zm-8.4-5.6a3.234,3.234,0,0,1,1.594.425l5.021,2.9a3.742,3.742,0,0,0,3.613-.027l5.845-3.374a.826.826,0,0,0,0-1.435L21.641,8.74a3.76,3.76,0,0,0-3.764,0l-7.226,4.171a1.347,1.347,0,0,0-.522.522,1.4,1.4,0,0,0-.177.487,3.184,3.184,0,0,1,1.408-.328Z"
    transform="translate(-0.928 -0.735)" fill="#fff"></path>
</svg>