<svg xmlns="http://www.w3.org/2000/svg" width="800px" height="800px" viewBox="0 0 1200 1200"
	enable-background="new 0 0 1200 1200" xml:space="preserve">
	<rect width="100%" height="100%" fill="#003399" />
	<g transform="translate(300, 300) scale(0.5)">
		<g transform="translate(0, 147.63782)">
			<path fill="#FFCC00 " d="M754.722,51.692c-65.372,0.001-119.224,19.023-161.554,57.066c-42.331,37.509-69.658,92.164-81.982,163.965
			h323.912v141.461H499.129l-1.607,28.131v37.776l1.607,26.523h285.332v143.067H512.793
			c27.327,130.208,113.328,195.312,258.004,195.312c76.624,0.001,150.301-15.271,221.031-45.813v205.761
			c-62.157,31.614-140.656,47.421-235.498,47.421c-131.28,0-239.251-35.633-323.912-106.898
			c-84.662-71.266-137.978-169.859-159.946-295.78H162.357V506.615H257.2c-2.144-12.323-3.215-28.935-3.215-49.832l1.607-42.599
			h-93.235V272.724h106.899c19.825-129.67,73.141-232.015,159.946-307.032c86.805-75.552,195.311-113.328,325.519-113.329
			c100.736,0.001,195.043,21.97,282.921,65.908l-78.768,186.47C921.901,88.13,887.34,75.27,855.19,66.16
			C823.04,56.516,789.551,51.693,754.722,51.692" />
		</g>
	</g>
</svg>