<svg xmlns="http://www.w3.org/2000/svg"
  viewBox="0 0 512 512">
  <rect width="512" height="512" fill="#141414" />
  <line x1="70.41945" y1="216.68085" x2="125.56839" y2="216.68085" fill="none" stroke="#fff" stroke-miterlimit="10"
    stroke-width="2" />
  <line x1="135.19757" y1="216.68085" x2="163.20973" y2="216.68085" fill="none" stroke="#fff" stroke-miterlimit="10"
    stroke-width="2" />
  <line x1="181.15502" y1="216.68085" x2="217.92097" y2="216.68085" fill="none" stroke="#fff" stroke-miterlimit="10"
    stroke-width="2" />
  <line x1="319.46505" y1="216.68085" x2="356.231" y2="216.68085" fill="none" stroke="#fff" stroke-miterlimit="10"
    stroke-width="2" />
  <line x1="374.61398" y1="216.68085" x2="411.37994" y2="216.68085" fill="none" stroke="#fff" stroke-miterlimit="10"
    stroke-width="2" />
  <line x1="237.17933" y1="216.68085" x2="310.27356" y2="216.68085" fill="none" stroke="#fff" stroke-miterlimit="10"
    stroke-width="2" />
  <line x1="421.44681" y1="216.68085" x2="430.20061" y2="216.68085" fill="none" stroke="#fff" stroke-miterlimit="10"
    stroke-width="2" />
  <line x1="457.77508" y1="217.11854" x2="476.59574" y2="217.11854" fill="none" stroke="#fff" stroke-miterlimit="10"
    stroke-width="2" />
  <line x1="465.21581" y1="241.62918" x2="459.52584" y2="255.19757" fill="none" stroke="#fff" stroke-miterlimit="10"
    stroke-width="2" />
  <line x1="456.02432" y1="262.20061" x2="450.77204" y2="274.45593" fill="none" stroke="#fff" stroke-miterlimit="10"
    stroke-width="2" />
  <line x1="441.58055" y1="294.15198" x2="446.83283" y2="282.33435" fill="none" stroke="#fff" stroke-miterlimit="10"
    stroke-width="2" />
  <line x1="439.48936" y1="295.17325" x2="430.24924" y2="295.17325" fill="none" stroke="#fff" stroke-miterlimit="10"
    stroke-width="2" />
  <line x1="393.38602" y1="295.17325" x2="384.1459" y2="295.17325" fill="none" stroke="#fff" stroke-miterlimit="10"
    stroke-width="2" />
  <line x1="374.90578" y1="295.17325" x2="365.66565" y2="295.17325" fill="none" stroke="#fff" stroke-miterlimit="10"
    stroke-width="2" />
  <line x1="328.8997" y1="295.17325" x2="319.65957" y2="295.17325" fill="none" stroke="#fff" stroke-miterlimit="10"
    stroke-width="2" />
  <line x1="374.90578" y1="256.07295" x2="365.66565" y2="256.07295" fill="none" stroke="#fff" stroke-miterlimit="10"
    stroke-width="2" />
  <line x1="422.85714" y1="293.71429" x2="428.20669" y2="281.94529" fill="none" stroke="#fff" stroke-miterlimit="10"
    stroke-width="2" />
  <line x1="432" y1="274.06687" x2="437.54407" y2="262.29787" fill="none" stroke="#fff" stroke-miterlimit="10"
    stroke-width="2" />
  <line x1="441.43465" y1="254.71125" x2="446.68693" y2="242.74772" fill="none" stroke="#fff" stroke-miterlimit="10"
    stroke-width="2" />
  <line x1="395.33131" y1="293.71429" x2="400.68085" y2="281.94529" fill="none" stroke="#fff" stroke-miterlimit="10"
    stroke-width="2" />
  <line x1="404.47416" y1="274.06687" x2="410.01824" y2="262.29787" fill="none" stroke="#fff" stroke-miterlimit="10"
    stroke-width="2" />
  <line x1="413.90881" y1="254.71125" x2="419.16109" y2="242.74772" fill="none" stroke="#fff" stroke-miterlimit="10"
    stroke-width="2" />
  <line x1="376.7538" y1="293.71429" x2="382.10334" y2="281.94529" fill="none" stroke="#fff" stroke-miterlimit="10"
    stroke-width="2" />
  <line x1="385.89666" y1="274.06687" x2="391.44073" y2="262.29787" fill="none" stroke="#fff" stroke-miterlimit="10"
    stroke-width="2" />
  <line x1="395.33131" y1="254.71125" x2="400.58359" y2="242.74772" fill="none" stroke="#fff" stroke-miterlimit="10"
    stroke-width="2" />
  <line x1="395.33131" y1="235.25836" x2="400.58359" y2="223.29483" fill="none" stroke="#fff" stroke-miterlimit="10"
    stroke-width="2" />
  <line x1="367.70821" y1="235.16109" x2="372.96049" y2="223.19757" fill="none" stroke="#fff" stroke-miterlimit="10"
    stroke-width="2" />
  <line x1="330.74772" y1="235.16109" x2="336" y2="223.19757" fill="none" stroke="#fff" stroke-miterlimit="10"
    stroke-width="2" />
  <line x1="312.36474" y1="235.16109" x2="317.61702" y2="223.19757" fill="none" stroke="#fff" stroke-miterlimit="10"
    stroke-width="2" />
  <line x1="303.12462" y1="235.16109" x2="308.3769" y2="223.19757" fill="none" stroke="#fff" stroke-miterlimit="10"
    stroke-width="2" />
  <line x1="284.74164" y1="235.16109" x2="289.99392" y2="223.19757" fill="none" stroke="#fff" stroke-miterlimit="10"
    stroke-width="2" />
  <line x1="358.27356" y1="293.71429" x2="363.6231" y2="281.94529" fill="none" stroke="#fff" stroke-miterlimit="10"
    stroke-width="2" />
  <line x1="367.41641" y1="274.06687" x2="372.96049" y2="262.29787" fill="none" stroke="#fff" stroke-miterlimit="10"
    stroke-width="2" />
  <line x1="376.85106" y1="254.71125" x2="382.10334" y2="242.74772" fill="none" stroke="#fff" stroke-miterlimit="10"
    stroke-width="2" />
  <line x1="330.94225" y1="293.71429" x2="336.29179" y2="281.94529" fill="none" stroke="#fff" stroke-miterlimit="10"
    stroke-width="2" />
  <line x1="340.08511" y1="274.06687" x2="345.62918" y2="262.29787" fill="none" stroke="#fff" stroke-miterlimit="10"
    stroke-width="2" />
  <line x1="349.51976" y1="254.71125" x2="354.77204" y2="242.74772" fill="none" stroke="#fff" stroke-miterlimit="10"
    stroke-width="2" />
  <line x1="310.32219" y1="295.17325" x2="301.08207" y2="295.17325" fill="none" stroke="#fff" stroke-miterlimit="10"
    stroke-width="2" />
  <line x1="312.36474" y1="293.71429" x2="317.71429" y2="281.94529" fill="none" stroke="#fff" stroke-miterlimit="10"
    stroke-width="2" />
  <line x1="321.5076" y1="274.06687" x2="327.05167" y2="262.29787" fill="none" stroke="#fff" stroke-miterlimit="10"
    stroke-width="2" />
  <line x1="273.3617" y1="295.17325" x2="264.12158" y2="295.17325" fill="none" stroke="#fff" stroke-miterlimit="10"
    stroke-width="2" />
  <line x1="275.40426" y1="293.71429" x2="280.7538" y2="281.94529" fill="none" stroke="#fff" stroke-miterlimit="10"
    stroke-width="2" />
  <line x1="246.12766" y1="295.17325" x2="236.88754" y2="295.17325" fill="none" stroke="#fff" stroke-miterlimit="10"
    stroke-width="2" />
  <line x1="248.17021" y1="293.71429" x2="253.51976" y2="281.94529" fill="none" stroke="#fff" stroke-miterlimit="10"
    stroke-width="2" />
  <line x1="284.54711" y1="274.06687" x2="290.09119" y2="262.29787" fill="none" stroke="#fff" stroke-miterlimit="10"
    stroke-width="2" />
  <line x1="330.94225" y1="254.71125" x2="336.19453" y2="242.74772" fill="none" stroke="#fff" stroke-miterlimit="10"
    stroke-width="2" />
  <line x1="257.02128" y1="293.71429" x2="262.37082" y2="281.94529" fill="none" stroke="#fff" stroke-miterlimit="10"
    stroke-width="2" />
  <line x1="266.16413" y1="274.06687" x2="271.70821" y2="262.29787" fill="none" stroke="#fff" stroke-miterlimit="10"
    stroke-width="2" />
  <line x1="275.59878" y1="254.71125" x2="280.85106" y2="242.74772" fill="none" stroke="#fff" stroke-miterlimit="10"
    stroke-width="2" />
  <line x1="456.21884" y1="222.90578" x2="450.8693" y2="235.35562" fill="none" stroke="#fff" stroke-miterlimit="10"
    stroke-width="2" />
  <line x1="437.64134" y1="222.90578" x2="432.29179" y2="235.35562" fill="none" stroke="#fff" stroke-miterlimit="10"
    stroke-width="2" />
  <line x1="439.58663" y1="256.17021" x2="430.73556" y2="256.17021" fill="none" stroke="#fff" stroke-miterlimit="10"
    stroke-width="2" />
  <line x1="425.87234" y1="256.17021" x2="425.87234" y2="241.09422" fill="none" stroke="#fff" stroke-miterlimit="10"
    stroke-width="2" />
  <line x1="425.87234" y1="236.71733" x2="425.87234" y2="221.25228" fill="none" stroke="#fff" stroke-miterlimit="10"
    stroke-width="2" />
  <line x1="361.19149" y1="221.44681" x2="361.19149" y2="236.71733" fill="none" stroke="#fff" stroke-miterlimit="10"
    stroke-width="3" />
  <line x1="361.19149" y1="240.80243" x2="361.19149" y2="256.07295" fill="none" stroke="#fff" stroke-miterlimit="10"
    stroke-width="3" />
  <path d="M328.80243,236.5228h-8.55927" fill="none" stroke="#fff" stroke-miterlimit="10" stroke-width="3" />
  <path d="M245.34954,236.5228h-8.55927" fill="none" stroke="#fff" stroke-miterlimit="10" stroke-width="3" />
  <line x1="282.60182" y1="236.62006" x2="264.51064" y2="236.62006" fill="none" stroke="#fff" stroke-miterlimit="10"
    stroke-width="3" />
  <polyline points="308.47416 244.88754 303.31915 248.97264 308.27964 253.05775" fill="none" stroke="#fff"
    stroke-miterlimit="10" stroke-width="3" />
  <polyline points="225.79939 264.43769 220.64438 268.5228 225.60486 272.6079" fill="none" stroke="#fff"
    stroke-miterlimit="10" stroke-width="3" />
  <polyline points="296.31611 251.59878 296.80243 254.22492 294.17629 255.1003" fill="none" stroke="#fff"
    stroke-miterlimit="10" stroke-width="3" />
  <line x1="315.08815" y1="260.93617" x2="315.08815" y2="275.72036" fill="none" stroke="#fff" stroke-miterlimit="10"
    stroke-width="3" />
  <line x1="259.55015" y1="240.8997" x2="259.55015" y2="255.68389" fill="none" stroke="#fff" stroke-miterlimit="10"
    stroke-width="3" />
  <line x1="259.55015" y1="260.83891" x2="259.55015" y2="275.6231" fill="none" stroke="#fff" stroke-miterlimit="10"
    stroke-width="3" />
  <line x1="241.3617" y1="240.8997" x2="241.3617" y2="255.68389" fill="none" stroke="#fff" stroke-miterlimit="10"
    stroke-width="3" />
  <line x1="232.31611" y1="240.8997" x2="232.31611" y2="255.68389" fill="none" stroke="#fff" stroke-miterlimit="10"
    stroke-width="3" />
  <line x1="241.3617" y1="260.83891" x2="241.3617" y2="275.6231" fill="none" stroke="#fff" stroke-miterlimit="10"
    stroke-width="3" />
  <line x1="232.12158" y1="280.48632" x2="232.12158" y2="295.27052" fill="none" stroke="#fff" stroke-miterlimit="10"
    stroke-width="3" />
  <line x1="220.35258" y1="282.04255" x2="225.60486" y2="293.81155" fill="none" stroke="#fff" stroke-miterlimit="10"
    stroke-width="3" />
  <line x1="201.9696" y1="282.04255" x2="207.02736" y2="293.81155" fill="none" stroke="#fff" stroke-miterlimit="10"
    stroke-width="3" />
  <line x1="209.06991" y1="295.07599" x2="217.92097" y2="295.07599" fill="none" stroke="#fff" stroke-miterlimit="10"
    stroke-width="2" />
  <line x1="172.01216" y1="295.07599" x2="180.86322" y2="295.07599" fill="none" stroke="#fff" stroke-miterlimit="10"
    stroke-width="2" />
  <line x1="153.62918" y1="295.07599" x2="162.48024" y2="295.07599" fill="none" stroke="#fff" stroke-miterlimit="10"
    stroke-width="2" />
  <line x1="107.37994" y1="295.07599" x2="116.231" y2="295.07599" fill="none" stroke="#fff" stroke-miterlimit="10"
    stroke-width="2" />
  <line x1="208.87538" y1="275.33131" x2="199.53799" y2="275.33131" fill="none" stroke="#fff" stroke-miterlimit="10"
    stroke-width="3" />
  <line x1="208.87538" y1="256.36474" x2="199.53799" y2="256.36474" fill="none" stroke="#fff" stroke-miterlimit="10"
    stroke-width="3" />
  <line x1="208.87538" y1="236.5228" x2="199.53799" y2="236.5228" fill="none" stroke="#fff" stroke-miterlimit="10"
    stroke-width="3" />
  <line x1="195.25836" y1="240.70517" x2="195.25836" y2="255.97568" fill="none" stroke="#fff" stroke-miterlimit="10"
    stroke-width="3" />
  <path d="M211.79331,241.87234s6.80851,7.78116.19453,14.00608" fill="none" stroke="#fff" stroke-miterlimit="10"
    stroke-width="3" />
  <line x1="176.63222" y1="221.78723" x2="176.63222" y2="236.96049" fill="none" stroke="#fff" stroke-miterlimit="10"
    stroke-width="3" />
  <line x1="176.63222" y1="241.04559" x2="176.63222" y2="256.21884" fill="none" stroke="#fff" stroke-miterlimit="10"
    stroke-width="3" />
  <line x1="176.63222" y1="260.88754" x2="176.63222" y2="276.06079" fill="none" stroke="#fff" stroke-miterlimit="10"
    stroke-width="3" />
  <line x1="185.9696" y1="280.1459" x2="185.9696" y2="295.31915" fill="none" stroke="#fff" stroke-miterlimit="10"
    stroke-width="3" />
  <line x1="167.14894" y1="221.78723" x2="167.14894" y2="236.96049" fill="none" stroke="#fff" stroke-miterlimit="10"
    stroke-width="3" />
  <line x1="167.14894" y1="241.04559" x2="167.14894" y2="256.21884" fill="none" stroke="#fff" stroke-miterlimit="10"
    stroke-width="3" />
  <line x1="167.14894" y1="260.88754" x2="167.14894" y2="276.06079" fill="none" stroke="#fff" stroke-miterlimit="10"
    stroke-width="3" />
  <line x1="167.29483" y1="280.1459" x2="167.29483" y2="295.31915" fill="none" stroke="#fff" stroke-miterlimit="10"
    stroke-width="3" />
  <line x1="149.05775" y1="280.1459" x2="149.05775" y2="295.31915" fill="none" stroke="#fff" stroke-miterlimit="10"
    stroke-width="3" />
  <line x1="149.05775" y1="240.7538" x2="149.05775" y2="255.92705" fill="none" stroke="#fff" stroke-miterlimit="10"
    stroke-width="3" />
  <line x1="152.70517" y1="275.4772" x2="126.29787" y2="275.4772" fill="none" stroke="#fff" stroke-miterlimit="10"
    stroke-width="3" />
  <path d="M142.20061,242.50456c-.29179.43769-5.10638,11.96353-5.10638,11.96353" fill="none" stroke="#fff"
    stroke-miterlimit="10" stroke-width="3" />
  <path d="M132.71733,223.1003c-.29179.43769-5.10638,11.96353-5.10638,11.96353" fill="none" stroke="#fff"
    stroke-miterlimit="10" stroke-width="3" />
  <path d="M123.52584,242.94225c-.29179.43769-5.10638,11.96353-5.10638,11.96353" fill="none" stroke="#fff"
    stroke-miterlimit="10" stroke-width="3" />
  <path d="M114.33435,262.20061c-.29179.43769-5.10638,11.96353-5.10638,11.96353" fill="none" stroke="#fff"
    stroke-miterlimit="10" stroke-width="3" />
  <path d="M123.67173,223.2462c-.29179.43769-5.10638,11.96353-5.10638,11.96353" fill="none" stroke="#fff"
    stroke-miterlimit="10" stroke-width="3" />
  <path d="M86.61398,262.20061c-.29179.43769-5.10638,11.96353-5.10638,11.96353" fill="none" stroke="#fff"
    stroke-miterlimit="10" stroke-width="3" />
  <path d="M77.2766,242.79635c-.29179.43769-5.10638,11.96353-5.10638,11.96353" fill="none" stroke="#fff"
    stroke-miterlimit="10" stroke-width="3" />
  <path d="M58.74772,282.04255c-.29179.43769-5.10638,11.96353-5.10638,11.96353" fill="none" stroke="#fff"
    stroke-miterlimit="10" stroke-width="3" />
  <path d="M40.51064,282.04255c-.29179.43769-5.10638,11.96353-5.10638,11.96353" fill="none" stroke="#fff"
    stroke-miterlimit="10" stroke-width="3" />
  <path d="M49.84802,261.90881c-.29179.43769-5.10638,11.96353-5.10638,11.96353" fill="none" stroke="#fff"
    stroke-miterlimit="10" stroke-width="3" />
  <path d="M58.74772,242.50456c-.29179.43769-5.10638,11.96353-5.10638,11.96353" fill="none" stroke="#fff"
    stroke-miterlimit="10" stroke-width="3" />
  <path d="M68.08511,223.3921c-.29179.43769-5.10638,11.96353-5.10638,11.96353" fill="none" stroke="#fff"
    stroke-miterlimit="10" stroke-width="3" />
  <path d="M104.99696,281.89666c-.29179.43769-5.10638,11.96353-5.10638,11.96353" fill="none" stroke="#fff"
    stroke-miterlimit="10" stroke-width="3" />
  <path d="M123.67173,281.89666c-.29179.43769-5.10638,11.96353-5.10638,11.96353" fill="none" stroke="#fff"
    stroke-miterlimit="10" stroke-width="3" />
  <line x1="115.64742" y1="236.5228" x2="79.61094" y2="236.5228" fill="none" stroke="#fff" stroke-miterlimit="10"
    stroke-width="3" />
  <line x1="88.36474" y1="255.78116" x2="79.46505" y2="255.78116" fill="none" stroke="#fff" stroke-miterlimit="10"
    stroke-width="3" />
  <line x1="78.88146" y1="275.6231" x2="60.79027" y2="275.6231" fill="none" stroke="#fff" stroke-miterlimit="10"
    stroke-width="3" />
  <line x1="51.74468" y1="295.31915" x2="42.2614" y2="295.31915" fill="none" stroke="#fff" stroke-miterlimit="10"
    stroke-width="3" />
</svg>