<svg xmlns="http://www.w3.org/2000/svg" xmlns:xlink="http://www.w3.org/1999/xlink" viewBox="0 0 100 100">
  <rect width="100" height="100" fill="#151A2D"/>
  <g transform="translate(10 10) scale(0.15625 0.15625)">
<path d="M198.27768,293.5854c-3.37422,0-6.64967.41856-9.78435,1.19376-13.79282-3.20186-24.88562-13.4207-29.31817-26.69725,1.405-4.118,2.1785-8.52839,2.1785-13.12208,0-4.50044-.74272-8.82488-2.09353-12.87098,4.17335-12.23139,14.00583-21.84161,26.38547-25.6868,3.97724,1.30018,8.22043,2.01255,12.63207,2.01255,22.44027,0,40.63164-18.19146,40.63164-40.63173s-18.19137-40.63155-40.63164-40.63155-40.63164,18.19146-40.63164,40.63155c0,4.04824.60008,7.95483,1.70228,11.64448-3.73708,12.65031-13.45407,22.72874-25.88673,26.94978-4.00829-1.32296-8.28797-2.04904-12.73956-2.04904-22.44027,0-40.63164,18.19146-40.63164,40.63173s18.19137,40.63173,40.63164,40.63173c4.27585,0,8.39564-.6645,12.26654-1.88905,12.89687,3.99005,23.04035,14.23167,26.90698,27.18237-1.451,4.17762-2.24951,8.66044-2.24951,13.33225,0,22.44009,18.19137,40.63155,40.63164,40.63155s40.63164-18.19146,40.63164-40.63155-18.19137-40.63173-40.63164-40.63173Z" fill="#fff" stroke-width="0"/><path d="M313.72232,293.5854c3.37422,0,6.64967.41856,9.78435,1.19376,13.79282-3.20186,24.88562-13.4207,29.31817-26.69725-1.405-4.118-2.1785-8.52839-2.1785-13.12208,0-4.50044.74272-8.82488,2.09353-12.87098-4.17335-12.23139-14.00583-21.84161-26.38547-25.6868-3.97724,1.30018-8.22043,2.01255-12.63207,2.01255-22.44027,0-40.63164-18.19146-40.63164-40.63173,0-22.44009,18.19137-40.63155,40.63164-40.63155s40.63164,18.19146,40.63164,40.63155c0,4.04824-.60008,7.95483-1.70228,11.64448,3.73708,12.65031,13.45407,22.72874,25.88673,26.94978,4.00829-1.32296,8.28797-2.04904,12.73956-2.04904,22.44027,0,40.63164,18.19146,40.63164,40.63173,0,22.44027-18.19137,40.63173-40.63164,40.63173-4.27585,0-8.39564-.6645-12.26654-1.88905-12.89687,3.99005-23.04035,14.23167-26.90698,27.18237,1.451,4.17762,2.24951,8.66044,2.24951,13.33225,0,22.44009-18.19137,40.63155-40.63164,40.63155-22.44027,0-40.63164-18.19146-40.63164-40.63155s18.19137-40.63173,40.63164-40.63173Z" fill="#fff" stroke-width="0"/><circle cx="255.41992" cy="254.16066" r="39.50298" fill="#fff" stroke-width="0"/>
  </g>
</svg>
