<svg xmlns="http://www.w3.org/2000/svg" viewBox="0 0 512 512">
  <rect x="0" y="0" width="512" height="512" fill="#0090ff" />
  <circle cx="260.33099" cy="254.21082" r="220.27922" fill="#fff" />
  <path
    d="m257.27999.01066C115.20285-1.26962,1.28515,113.92817.00518,254.7251.00518,396.80229,115.20285,512.00009,256.00002,512.00009s254.71481-113.91752,255.99478-253.43466C511.9948,115.20796,398.0771,1.29044,257.27999.01066Zm119.67759,115.93363c-5.11994,3.83985-11.51978,2.56006-16.63965-2.55957-3.83991-3.84033-6.3999-7.68018-10.23981-11.52002-7.67987-10.23975-19.19965-11.52002-28.15943-2.56006-6.3999,6.3999-12.79975,15.35987-16.63965,24.31983-8.95984,26.8794-15.35975,55.03859-24.31953,83.19827l70.39858,10.23975-5.11987,19.19923-67.83865-10.23926-7.67987,40.959,72.95852,10.23975-5.11987,19.19971-71.67855-10.23975c-5.11987,16.63965-7.67987,34.55909-14.07972,49.91896-6.39984,17.91944-12.79975,35.83888-20.47956,52.47902-10.23981,21.75928-28.15949,37.11915-52.47896,40.959-14.07972,2.56006-29.4394,1.27979-40.95918-7.67969-3.83991-2.56006-7.67981-7.68018-7.67981-11.52002,0-5.11963,2.55994-11.51954,6.39984-14.07959,2.55994-1.28027,8.95984,0,12.79975,1.27979,3.83991,3.83985,7.67981,8.95996,10.23981,14.07959,7.67981,10.24024,17.91962,11.52002,28.15937,3.83985,11.51978-10.23926,17.91968-24.31934,21.75959-38.39894,7.67987-30.71925,15.35969-60.15871,21.75959-90.87845v-5.11963l-67.83865-10.23975,2.55994-19.19971,70.39858,10.23975,8.95984-39.67921-72.95852-11.51954,2.55994-20.4795,75.51846,10.23975c2.56-7.68018,3.83991-14.08008,6.3999-20.4795,6.39984-23.03956,12.79975-46.07912,28.15943-66.55862,15.35969-20.47999,33.27931-33.27931,60.15877-31.99952,11.51972,0,23.0395,3.83985,30.71937,12.79981,1.27997,1.27979,3.83991,3.83985,3.83991,6.3999,0,5.11963,0,11.51954-3.83991,15.35938Z"
    fill="#0090ff" />
</svg>