<svg xmlns="http://www.w3.org/2000/svg" viewBox="0 0 512 512"><rect x="0" y="0" width="512" height="512" fill="#e62058" stroke-width="0"/><path d="M349.20094,235.26265h-134.30464c-37.10073,0-66.78131,28.93857-68.26534,66.03929,0,.74202.74201,1.48403,1.48403,1.48403h134.30465c37.10073,0,66.78131-28.93857,68.26534-66.0393,0-.74201-.74202-1.48403-1.48403-1.48403h0Z" fill="#fff" stroke-width="0"/><path d="M416.72429,133.60665h-201.82799c-37.10073,0-66.78131,28.93857-68.26534,66.0393,0,.74202.74201,2.22605,1.48403,2.22605h202.56999c37.10073,0,66.78131-28.93857,68.26535-66.0393,0-1.48403-.74203-2.22605-2.22604-2.22605h0Z" fill="#fff" stroke-width="0"/><circle cx="180.76363" cy="371.05133" r="34.13267" fill="#fff" stroke-width="0"/></svg>