<svg xmlns="http://www.w3.org/2000/svg" viewBox="0 0 800 800">
  <defs>
    <linearGradient
      id="g1"
      x1="400"
      y1="162.76"
      x2="400"
      y2="1416.3"
      gradientUnits="userSpaceOnUse"
    >
      <stop offset="0" stop-color="#fff" />
      <stop offset="1" stop-color="#1d1d1b" />
    </linearGradient>
  </defs>
  <rect width="800" height="800" fill="#000" />
  <polygon
    points="400 209.81 537.87 486.87 578.22 486.87 400 128.71 221.78 486.87 262.13 486.87 400 209.81"
    fill="url(#g1)"
  />
  <polygon
    points="596.14 522.57 516.51 522.57 400 288.43 283.49 522.57 203.86 522.57 185.87 558.71 265.51 558.71 305.86 558.71 305.94 558.71 323.92 522.57 323.84 522.57 400 369.52 476.16 522.57 476.08 522.57 494.06 558.71 494.14 558.71 534.49 558.71 614.13 558.71 596.14 522.57"
    fill="url(#g1)"
  />
  <polygon
    points="453.33 558.71 400 451.55 346.67 558.71 453.33 558.71"
    fill="#fda430"
  />
</svg>
