<svg xmlns="http://www.w3.org/2000/svg" xmlns:xlink="http://www.w3.org/1999/xlink" viewBox="0 0 100 100">
  <rect width="100" height="100" fill="#111111"/>
  <g transform="translate(10 10) scale(0.15625 0.15625)">
<circle cx="249.96932" cy="250.24814" r="220.27922" fill="#111111"/><path d="M248.252,456.0391c-1.29372-.07634-1.75024-.8377-2.89229-1.44639l-25.41837-15.60097c-.53235-.38068-.76086-.45652-1.36955-.8372l-53.19617-32.80051c-.91354-.53286-1.6744-1.06521-2.5116-1.52223l-58.59956-36.07297c-.53286-.30435-.8372-.45652-1.36955-.76086-.45702-.22851-.8372-.53286-1.29372-.8372-.91354-.60869-1.52223-.91304-2.5116-1.52173-1.82658-1.14155-3.72899-2.13092-5.40339-3.27247-4.56619-3.04446-10.95895-7.00195-15.82948-9.58939v-192.69338c1.21788.60919,2.20726,1.37006,3.50098,2.05509l17.1232,9.74106c1.21738.76086,2.13092,1.29372,3.3483,1.97875,1.21788.68503,2.28309,1.29372,3.3488,1.97875v161.4151l5.55556,3.42464c.53235.38018,1.06521.76086,1.6739,1.14155,7.15413,4.33768,14.68793,8.59952,21.68939,13.31788,1.29372.8372,2.35943,1.37006,3.65315,2.20676,4.71836,3.04446,9.74106,5.78407,14.38359,8.90437,1.29372.91304,2.28309,1.52173,3.65315,2.28309l12.70919,7.83865c.68453.45652,1.06521.60869,1.75024,1.06521,5.85991,3.88166,12.17633,7.15363,18.03624,11.11112l14.38359,8.90437c5.93624,3.57681,12.1005,7.07729,17.88406,10.95895v-134.4745c-1.14104-.22851-1.59806-.76137-2.5111-1.21788-.8372-.45652-1.44589-.8372-2.35943-1.36955l-33.02852-19.10195v-31.35462c1.59806.38018,10.57827,5.78357,12.55701,7.00145l8.06666,4.64202c.98937.45702,1.29372.76137,2.20726,1.21788,9.05604,4.71836,17.42755,10.50243,26.40775,15.22079l6.31642,3.65265c.76137.45702,1.21788.76137,1.97875,1.14155l8.06716,4.64252v198.62962Zm-5.40339-220.77603c-.91304-.53235-1.59806-.98887-2.5116-1.52173l-23.43962-13.47055c-7.3058-4.64202-15.06862-8.44734-22.45075-12.93719-.53235-.30435-.45652-.30435-1.14104-.68503l-15.75365-9.13237c-.91304-.45652-1.59806-.91304-2.58744-1.44589l-2.58744-1.44589c-13.85073-8.37151-28.15849-15.82948-41.93288-24.20099l-28.91935-16.74252c-3.65315-1.82658-6.84928-4.10967-10.42609-6.01258-.98937-.53235-1.59806-1.14155-2.66378-1.36955.30435-1.06571.07634-.60869.98937-1.14155l11.79615-6.54493c1.06521-.53286,1.6744-.76086,2.66378-1.37006,1.6739-1.14155,3.50048-1.82658,5.25071-2.81545.38068-.22851.38068-.15217.8372-.38068l12.25267-6.69711c.98937-.45652,1.52223-.91304,2.58744-1.44589l8.06716-4.33818c.91304-.60869,1.82658-.8372,2.66378-1.36955.60869-.30435.60869-.45652,1.36955-.8372l3.80532-2.05458c1.14155-.53286,1.59806-.91354,2.58744-1.44639l42.16139-22.7546c.91304-.53286,1.6739-.91354,2.66327-1.37006l60.19763-32.572c1.29372-.60869,7.15363-4.10967,7.99083-4.10967.98937,0,9.13237,4.56619,10.88311,5.6314l27.7773,15.06862c.45702.22851.68503.30435,1.21788.60869.98937.53286,1.59806.91354,2.58744,1.44639l21.15703,11.41547c.91304.60869,1.52173.91304,2.58744,1.44589l52.58698,28.38649c3.3488,2.13092,6.92562,3.80532,10.50243,5.6314l10.42609,5.70773c5.25122,2.5116,10.50243,5.78407,15.75314,8.44785l10.42659,5.70723c.91304.53286,1.82658.91354,2.13092,1.90291-1.59857.38018-8.52368,4.7947-10.35026,5.78357l-10.27392,5.86041c-5.55556,3.04396-5.6319,4.79419-9.05604,2.73961-.91354-.53286-1.21788-.68503-2.20726-1.21788l-28.76718-15.60097c-5.17488-2.58744-10.12175-5.70773-15.29662-8.29517-4.56619-2.28309-17.50388-9.05654-21.76572-11.72031l-48.40148-26.1034c-1.06521-.45652-1.29372-.68453-2.20676-1.21738-.76137-.45652-1.29422-.68503-2.05509-1.06571-3.12029-1.59806-16.59034-9.43672-17.57972-9.43672l-17.80823,9.51306c-.76086.45652-.98937.68503-1.75024,1.06571l-43.75946,23.5918c-1.21788.60869-2.43527,1.14155-3.65315,1.90241-.68453.45652-1.06521.60919-1.82658.98937-.76086.38068-.76086.45652-1.52173.91354l-35.0836,18.94927c-1.21788.68503-2.28309,1.06571-3.42464,1.82658-1.37006.8372-2.35943.91354-3.19663,2.13092,1.06571.22851,1.14155.45652,1.90291.91354l40.33482,23.28745c.68453.38018,1.14155.53286,1.82607.98937.60919.38018,1.14155.68453,1.75074,1.06521l31.50679,18.11257c1.06521.60919,2.28309,1.37006,3.50048,2.05509,5.40339,2.81545,10.35026,6.39226,15.75365,9.13237l15.52463,8.9802c1.6744-.91354,3.12029-1.75074,4.71886-2.74011.76086-.53235,1.44589-.98937,2.28309-1.44589,10.19758-5.55556,19.93865-11.87198,30.21257-17.27537l25.79906,14.84011c.76137.45652.91354.38068,1.14155,1.29372-1.52173.38068-2.96762,1.52223-4.26184,2.28309l-8.06666,4.64252c-.8372.45652-1.29372.68503-1.97875,1.14155-.68503.38018-1.21788.76086-1.97875,1.14155l-12.1005,6.84928c-1.29372.8372-2.5116,1.44589-3.88116,2.28309l-7.99083,4.71836c-1.44589.8372-2.5116,1.44589-3.9575,2.28309-1.36955.8372-2.58744,1.36955-3.9575,2.20676l-4.10917,2.43527c-2.13092,1.29372-10.50243,6.62127-11.94832,6.62127-.98937,0-10.80678-5.93624-13.54639-7.61065Zm191.78034,116.5141c-.91354.45702-1.82658.98937-2.74011,1.59857l-47.86862,29.4517c-.8372.53286-1.6744,1.06571-2.66378,1.6744l-71.68943,44.13964c-.91304.53286-1.59806.98937-2.5111,1.52223l-13.47055,8.29517c-.91304.53286-1.6739,1.06571-2.66327,1.6744-5.09904,3.42464-10.6546,6.24059-15.75365,9.66523-1.82658,1.21738-3.57681,2.13092-5.40339,3.27247-1.36955.8367-3.80482,2.66327-5.32705,3.04396v-31.96331l9.05654-5.55556c6.62077-4.33768,13.54588-8.06716,20.16716-12.40484.68503-.45652,1.44589-.91354,2.13092-1.29372l22.29808-13.69856c1.44589-.91354,2.96812-1.75024,4.41401-2.73961,8.06716-5.25122,16.59034-9.74157,24.58117-15.14495.8372-.53235,1.29372-.76086,2.13092-1.29372l17.80823-11.03478c6.08842-3.50098,11.79615-7.45797,17.88457-10.95895l6.77294-4.03333c.8372-.45652,1.29372-.8372,2.13092-1.29372.76086-.45702,1.37006-.91354,2.28309-1.44589.8372-.53286,1.37006-.91354,2.05458-1.37006l6.69711-4.10967c.91354-.53235,1.21788-.91304,2.28309-1.14155v-130.21266l-3.80482,2.13092c-1.14155.76137-2.20726,1.29372-3.50098,2.05509-2.43527,1.52173-4.7947,2.81545-7.22946,4.26184l-7.22996,4.26184c-4.87053,2.58744-9.43672,5.70723-14.38359,8.29517l-23.36379,13.54639c-.60869.30435-1.21788.53235-1.82658.91304l-3.50048,2.05458c-3.19663,1.6744-6.08842,3.80532-9.20871,5.40339-.76086.45702-.98937.60869-1.75024,1.06571l-7.15363,4.03333c-1.29372.76086-2.28309,1.37006-3.50098,2.05458-4.71836,2.81595-9.43672,5.85991-14.38359,8.29567-3.65265,1.82607-7.15363,4.26134-10.73044,6.31642-.68503.38018-1.14155.53286-1.82658.98937-.68453.45652-.98937.60869-1.90241.8372v44.97684c-.60869.30435-1.21788.53286-1.82658.91304-.60869.45702-.91304.60919-1.75024,1.06571-4.64252,2.43527-8.90386,5.40339-13.54639,7.83865l-10.12175,5.70773v-76.33145c2.89178-.60919,12.3285-7.22996,15.90582-8.9802l5.40339-2.96812c.60869-.30435.60869-.45652,1.36955-.8372,3.19663-1.6744,6.01208-3.72899,9.20871-5.40339l5.40339-2.96812c.76086-.45652.60869-.45652,1.36955-.8367l17.27537-10.04591c.91354-.60869,1.6744-.8372,2.58794-1.44589,5.09854-3.19613,13.1657-7.99083,18.72126-10.80678l7.83865-4.56619c1.82658-1.06521,3.3483-2.05458,5.25071-3.12029l42.54207-24.50483c5.47922-2.74011,10.50193-6.31693,15.90532-9.20871l15.90582-9.20871c.91304-.53235,1.59806-.91304,2.58744-1.44589,1.06521-.60869,1.29372-1.06521,2.66378-1.36955v192.38853Z" fill="#fff"/>
  </g>
</svg>
