<svg xmlns="http://www.w3.org/2000/svg" viewBox="0 0 512 512"><rect x="0" y="0" width="512" height="512" fill="#c85655"/><circle cx="255.99999" cy="255.99999" r="255.99999" fill="#c85655"/><path d="m368.65633,183.99132l-39.76106,23.85663-63.93264-38.35959c-9.60684-5.7641-21.59801-5.80766-31.24647-.11348l-65.19048,38.47307-1.04648,72.20723c-.17244,11.89862,6.04699,22.97651,16.29524,29.02466l64.27335,37.93181,80.84748-46.3879v-30.48348l-27.83274,15.90442v-50.36401l82.17285-43.73716v50.36401l-13.25369,6.62684v56.51462c0,11.76853-6.30593,22.63477-16.52387,28.4736l-104.08467,59.47695-103.90828-59.37616c-10.32702-5.90115-16.70026-16.88339-16.70026-28.77755v-121.25453l105.14729-61.23963c9.54897-5.56149,21.35687-5.53304,30.87893.0744l103.86549,61.16523Z" fill="#fff"/></svg>