<svg xmlns="http://www.w3.org/2000/svg" xmlns:xlink="http://www.w3.org/1999/xlink" viewBox="0 0 100 100">
  <rect width="100" height="100" fill="#181fa9"/>
  <svg x="10" y="10" width="80" height="80" viewBox="0 0 512 512">
<circle cx="256.00362" cy="256" r="225" fill="#181fa9"/><path d="M313.32262,187.45989c0-14.51566-4.62967-27.96073-12.47719-38.95997l32.42298-32.42298-15.86209-15.86209-32.42298,32.42298c-10.99925-7.84005-24.44467-12.47719-38.95997-12.47719-37.10348,0-67.29179,30.18795-67.29179,67.29925,0,33.28174,24.29182,60.98761,56.08141,66.34524v24.33554c-31.78958,5.35762-56.08141,33.0635-56.08141,66.34559,0,37.10348,30.1883,67.29889,67.29179,67.29889,37.11095,0,67.29925-30.19541,67.29925-67.29889,0-33.28209-24.29182-60.98797-56.08141-66.34559v-24.33554c31.78247-5.35762,56.08141-33.0635,56.08141-66.34524ZM290.88728,344.48626c0,24.73577-20.12068,44.86356-44.86392,44.86356-24.73577,0-44.86356-20.12779-44.86356-44.86356s20.12779-44.86356,44.86356-44.86356c24.74324,0,44.86392,20.12779,44.86392,44.86356ZM246.02337,232.32345c-24.73577,0-44.86356-20.12779-44.86356-44.86356s20.12779-44.86392,44.86356-44.86392c24.74324,0,44.86392,20.12068,44.86392,44.86392,0,24.73577-20.12068,44.86356-44.86392,44.86356Z" fill="#fff"/>
  </svg>
</svg>
