<svg xmlns="http://www.w3.org/2000/svg" viewBox="0 0 512 512">
  <defs>
    <radialGradient
      id="g1"
      cx="0"
      cy="0"
      r="1"
      gradientUnits="userSpaceOnUse"
      gradientTransform="matrix(380 -250 215 327 116 520)"
    >
      <stop stop-color="#f36621" />
      <stop offset=".44" stop-color="#ffac43" />
      <stop offset=".82" stop-color="#1a1a1a" />
      <stop offset="1" stop-color="#050505" stop-opacity="0" />
    </radialGradient>
    <linearGradient
      id="g2"
      x1="50"
      y1="426"
      x2="462"
      y2="94"
      gradientUnits="userSpaceOnUse"
    >
      <stop stop-color="#ee6f15" stop-opacity=".5" />
      <stop offset=".56" stop-color="#f69d2f" stop-opacity=".13" />
      <stop offset="1" stop-color="#050505" stop-opacity="0" />
    </linearGradient>
  </defs>
  <rect width="512" height="512" fill="#050505" />
  <rect width="512" height="512" fill="url(#g1)" />
  <rect width="512" height="512" fill="url(#g2)" />
  <g transform="translate(62 116) scale(9.7)">
    <path
      d="M39.7847 3.0891C39.4983 2.59427 38.8601 2.4313 38.3715 2.72837L12.1279 18.6674C11.4591 17.4181 11.0801 15.9904 11.0801 14.4745C11.0801 9.55248 15.0749 5.56242 20.0028 5.56242C22.1187 5.56242 24.0613 6.30001 25.5909 7.52902L20.0078 11.357L34.5169 2.9898C34.8297 2.80985 34.9367 2.41008 34.7557 2.09859C34.5654 1.76926 34.1345 1.67165 33.8201 1.88724L30.2672 4.32321C27.6491 1.68184 24.018 0.0454102 20.0028 0.0454102C12.0242 0.0454102 5.55657 6.50542 5.55657 14.4745C5.55657 17.0404 6.22788 19.4491 7.40314 21.5371L0.0449219 26.0059L7.59941 21.875C10.1224 26.0848 14.7325 28.9036 20.0028 28.9036C27.9813 28.9036 34.449 22.4436 34.449 14.4745C34.449 14.0247 34.449 14.1014 34.449 12.7515C34.449 11.4016 34.9974 9.67464 36.9405 8.63496C37.107 8.54585 37.1674 8.33706 37.0731 8.17322C36.9804 8.01366 36.7765 7.9585 36.6168 8.051L19.3892 17.9858C21.3123 17.1693 22.7823 16.6729 24.731 16.2818C28.7902 15.4674 28.8935 17.4002 27.3258 19.5805C26.2762 21.0403 23.905 23.3849 20.0045 23.3849C16.8237 23.3849 14.0331 21.723 12.4525 19.2208L39.3912 4.49212C39.8935 4.21797 40.0711 3.58394 39.7847 3.0891Z"
      fill="#fff"
    />
  </g>
</svg>
