<svg xmlns="http://www.w3.org/2000/svg" viewBox="0 0 512 512">
  <rect x="0" y="0" width="512" height="512" fill="#e2c26f" />
  <path d="m256.00024,78.17456c-98.05322,0-177.82568,79.77246-177.82568,177.82568s79.77246,177.8252,177.82568,177.8252,177.8252-79.77246,177.8252-177.82568-79.77197-177.8252-177.8252-177.8252Zm0,340.65088c-89.78223,0-162.82568-73.04297-162.82568-162.8252s73.04346-162.82568,162.82568-162.82568,162.8252,73.04297,162.8252,162.8252-73.04297,162.82568-162.8252,162.82568Z" />
  <path d="m339.82495,202.23364c4.14209,0,7.5-3.35791,7.5-7.5s-3.35791-7.5-7.5-7.5h-51.10498v-45.52295c0-4.14209-3.35791-7.5-7.5-7.5s-7.5,3.35791-7.5,7.5v45.52295h-37.46484v-45.52295c0-4.14209-3.35791-7.5-7.5-7.5s-7.5,3.35791-7.5,7.5v45.52295h-51.10449c-4.14209,0-7.5,3.35791-7.5,7.5v125.02295c0,4.14209,3.35791,7.5,7.5,7.5h51.10449v45.52344c0,4.14209,3.35791,7.5,7.5,7.5s7.5-3.35791,7.5-7.5v-45.52344h37.46484v45.52344c0,4.14209,3.35791,7.5,7.5,7.5s7.5-3.35791,7.5-7.5v-45.52344h49.98828c4.14209,0,7.5-3.35791,7.5-7.5v-66.97656c0-4.14209-3.35791-7.5-7.5-7.5h-109.39502c-4.14209,0-7.5,3.35791-7.5,7.5s3.35791,7.5,7.5,7.5h101.89502v51.97656h-153.55762v-110.02295h162.17432Z" />
</svg>
