<svg viewBox="0 0 307 307" version="1.1" xmlns="http://www.w3.org/2000/svg"
  xmlns:xlink="http://www.w3.org/1999/xlink">
  <defs>
    <linearGradient x1="74.9956527%" y1="11.8044572%" x2="25.0657068%" y2="88.3066006%" id="g1">
      <stop stop-color="#FE01FA" offset="0%"></stop>
      <stop stop-color="#FF0F6F" offset="31.6318539%"></stop>
      <stop stop-color="#FF3D3D" offset="51.953125%"></stop>
      <stop stop-color="#FF851F" offset="70.8632996%"></stop>
      <stop stop-color="#FFDB01" offset="100%"></stop>
    </linearGradient>
  </defs>
  <g transform="translate(0, 19) scale(0.8) translate(30.7, 30.7)">
    <path fill="url(#g1)"
      d="M72.6623251,262.81396 L51.9525894,226.930565 C51.3094691,225.600594 51.3094691,224.049228 51.9525894,222.719257 L74.9621958,182.853666 C75.7798329,181.601113 77.1430691,180.811554 78.6354489,180.726192 L124.632862,180.726192 C126.127628,180.813314 127.493452,181.602032 128.317015,182.853666 L151.315722,222.719257 C151.981374,224.059324 151.981374,225.634138 151.315722,226.974205 L128.251616,266.817975 C127.427868,268.035661 126.097112,268.814003 124.632862,268.934539 L83.3114892,268.934539 C79.0059079,268.656631 75.072489,266.395909 72.6623251,262.81396 Z M221.99042,180.758923 L176.211004,101.333225 C175.079796,99.6345129 173.221584,98.5613028 171.186168,98.4311324 L79.5183376,98.4311324 C77.482922,98.5613028 75.6247098,99.6345129 74.4935017,101.333225 L28.6595866,180.802563 C27.7558296,182.631551 27.7558296,184.777761 28.6595866,186.606749 L42.1427145,209.910772 L65.6428147,169.194192 C66.9301153,167.228991 69.0659133,165.984294 71.4088411,165.833874 L131.794071,165.833874 C134.154235,165.965702 136.311071,167.213228 137.603696,169.194192 L167.807211,221.562784 C168.875544,223.675387 168.875544,226.170817 167.807211,228.28342 L144.307111,269 L171.153468,269 C173.194424,268.879106 175.057903,267.798809 176.178304,266.086997 L221.99042,186.628569 C222.915893,184.781667 222.915893,182.605825 221.99042,180.758923 Z M305.156359,128.204859 L234.906755,6.2733209 C232.479045,2.56391758 228.431018,0.234110738 224.006894,0 L83.3986881,0 C78.9745642,0.234110738 74.9265375,2.56391758 72.4988272,6.2733209 L2.21652397,128.204859 C0.222022375,132.141141 0.222022375,136.793398 2.21652397,140.72968 L18.3374183,168.670506 L65.0324225,87.6410204 C66.6335403,85.1961447 69.2993624,83.6575011 72.2154308,83.4951736 L178.390976,83.4951736 C181.304151,83.6574405 183.966678,85.1965177 185.563085,87.6410204 L238.634507,179.64609 C239.953333,182.252369 239.953333,185.331506 238.634507,187.937784 L191.895904,268.934539 L224.050493,268.934539 C228.474617,268.700429 232.522644,266.370622 234.950354,262.661218 L305.232658,140.740591 C307.216645,136.801798 307.216645,132.154561 305.232658,128.215769 L305.156359,128.204859 Z"></path>
  </g>
</svg>