<svg xmlns="http://www.w3.org/2000/svg" xmlns:xlink="http://www.w3.org/1999/xlink" viewBox="0 0 512 512">
  <rect width="100%" height="100%" fill="#121212"/>
  <defs>
    <linearGradient x1="175.02395" y1="13.07124" x2="336.97646" y2="498.9287" gradientUnits="userSpaceOnUse" id="g1">
      <stop offset="0" stop-color="#25a9f0"/>
      <stop offset="1" stop-color="#f92626"/>
    </linearGradient>
  </defs>
  <circle cx="256" cy="256" r="256" fill="#121212"/>
  <path d="M256.00023,11.08555c33.06787,0,65.14111,6.47388,95.32812,19.24219,29.16309,12.33472,55.35645,29.99536,77.85254,52.49146s40.15674,48.68945,52.4917,77.85254c12.76807,30.18701,19.24219,62.26025,19.24219,95.32812s-6.47412,65.1416-19.24219,95.32861c-12.33496,29.16309-29.99561,55.35596-52.4917,77.85205s-48.68945,40.15723-77.85254,52.4917c-30.18701,12.76807-62.25977,19.24219-95.32812,19.24219s-65.1416-6.47412-95.32861-19.24219c-29.16309-12.33447-55.35596-29.99561-77.85205-52.4917s-40.15723-48.68896-52.4917-77.85205c-12.76807-30.18701-19.24219-62.26025-19.24219-95.32861s6.47412-65.14111,19.24219-95.32812c12.33447-29.16309,29.99561-55.35645,52.4917-77.85254s48.68896-40.15674,77.85205-52.49146c30.18701-12.76831,62.26025-19.24219,95.32861-19.24219M256.00023.0001C114.61497.0001.00023,114.61509.00023,255.99986s114.61475,256,256,256,256-114.61475,256-256S397.38499.0001,256.00023.0001h0Z" fill="url(#g1)"/>
  <path d="M288.54086,185.36702c.89744-44.5295-24.4314-83.33939-37.59518-92.67877-.06702-.03841-1.24395-.69456-1.14261,1.04699,0,.02436-.02125.03139-.02125.05231-1.34859,84.12223-44.77291,106.78003-68.35593,137.63557-52.40244,68.5586-8.67014,146.7551,47.98335,161.56332.94647.24684,3.5717,1.01021,8.53776,2.03514,2.58437.5329,3.35755-1.65099,1.46136-4.92846-6.79685-11.73672-18.84254-31.5372-21.19642-56.94772-5.46789-59.01067,69.28112-95.94708,70.32565-147.77022l.00327-.00817Z" fill="#f92626"/>
  <path d="M317.09157,215.12409c-.45446-.32366-1.07724-.30405-1.14262.28279-1.19167,10.69221-12.32687,32.89721-26.94057,53.65558-49.26328,69.9742-24.45593,101.68792-5.19163,123.70658,3.56515,4.07355,5.32729,3.18266,7.1859.25828,1.75559-2.76091,4.39718-6.27212,15.78087-11.64683,1.80136-.84674,44.7827-23.56504,49.43816-75.31134,4.50671-50.11492-27.76443-81.7698-39.13337-90.94506h.00327Z" fill="#0092d0"/>
</svg>
