<svg xmlns="http://www.w3.org/2000/svg" xmlns:xlink="http://www.w3.org/1999/xlink" viewBox="0 0 100 100">
  <rect width="100" height="100" fill="#17B5FF"/>
  <g transform="translate(10 10) scale(0.15625 0.15625)">
<path d="M386.91172,120.53268h35.0057l-141.94091,162.08125c-3.59648,4.076-3.83624,10.30991-.23976,14.62567l81.75988,95.18677h-36.44428l-75.526-88.23357-3.83624-4.7953c-3.59648-4.076-3.35671-10.54967.23976-14.62567l140.98185-164.23914Z" fill="#fff"/><path d="M308.02901,297.2396c-2.39765-2.63741-3.11695-6.47365-2.39765-9.83037.7193-1.91813,1.91813-3.83624,3.35671-5.27483l9.35084-10.3099,104.2978,120.60188h-33.08759s-61.14009-71.45003-81.52012-95.18678Z" fill="#fff"/><path d="M125.80757,392.42639h-36.44429l111.73052-129.23343c3.59648-4.07601,3.59648-10.3099,0-14.38591L90.32234,120.53268h35.0057l111.49076,129.23343c2.87718,3.83624,3.35671,9.35085.23976,12.94732-29.25133,33.80689-111.25099,129.71296-111.25099,129.71296Z" fill="#fff"/><path d="M186.70789,120.53268h-33.56711l103.33874,119.64283s.23976-.23976,11.74849-13.90638c3.11695-3.59648,3.83624-8.15202.23976-11.7485-21.57886-22.0584-81.75988-93.98795-81.75988-93.98795Z" fill="#fff"/><path d="M287.40922,203.97096l71.68976-83.43828h-34.04663l-37.40336,43.63726-10.78943,12.70755c-3.59648,4.07601-3.83624,10.3099-.23976,14.62568,2.63741,3.11695,10.78943,12.46779,10.78943,12.46779Z" fill="#fff"/><path d="M225.0703,308.9881l-71.68975,83.43827h33.80688l37.40336-43.63725,10.78943-12.70756c3.59648-4.076,3.83624-10.30991.23976-14.62567-2.63741-3.11694-10.54967-12.46778-10.54967-12.46778Z" fill="#fff"/>
  </g>
</svg>
