<svg xmlns="http://www.w3.org/2000/svg" xmlns:xlink="http://www.w3.org/1999/xlink" viewBox="0 0 512 512"><defs><mask id="mask" x="101.02938" y="100.87416" width="309.94125" height="309.94123" maskUnits="userSpaceOnUse"><g><path d="M410.97062,100.87416H101.02938v309.94123h309.94125V100.87416Z" fill="#fff"/></g></mask></defs><rect x="0" y="0" width="512" height="512" fill="#4d3dff"/><g mask="url(#mask)"><path d="M288.54382,104.59396l-.9298,1.85965c32.23387,13.94736,50.52042,42.77189,50.52042,74.38589,0,34.09353-22.31578,65.08767-65.70755,91.43268l-7.12864,4.33918c-32.54385,19.83623-48.97073,42.152-48.97073,69.1169,0,34.71342,27.27484,60.12811,64.77772,60.12811,60.1286,0,129.86539-64.15735,129.86539-149.70113,0-13.94736-1.85966-27.58478-5.26901-40.60232l-2.16957.61989c.92983,7.12864,1.23974,12.39765,1.23974,17.35671,0,50.52042-28.51458,93.91219-76.24554,122.73672l-4.64912,2.78949c-10.22804,5.88886-18.9064,9.29824-27.58475,9.29824-11.46785,0-20.1462-7.43861-20.1462-18.28654,0-9.29824,6.19884-18.59648,26.34501-30.37424l5.8889-3.40935c44.63152-26.03507,69.42684-62.60815,69.42684-103.21044,0-51.45026-38.43271-93.91221-89.2631-108.47944ZM223.45618,407.40604l.9298-1.85963c-32.23387-13.94687-50.52042-42.7714-50.52042-74.38542,0-34.09353,22.31578-65.08767,65.70755-91.43265l7.12864-4.33918c32.54385-19.83626,48.97073-42.15202,48.97073-69.11692,0-34.71342-27.27484-60.1286-64.77772-60.1286-60.1286,0-129.86539,64.15784-129.86539,149.70163,0,13.94736,1.85965,27.58475,5.26901,40.60229l2.16959-.61986c-.92983-7.12867-1.23977-12.39768-1.23977-17.35671,0-50.52045,28.5146-93.91221,76.24555-122.73675l4.64912-2.78948c10.22806-5.88888,18.9064-9.29823,27.58475-9.29823,11.46785,0,20.1462,7.43858,20.1462,18.28653,0,9.29824-6.19884,18.59648-26.34501,30.37424l-5.8889,3.40936c-44.63154,26.03507-69.42683,62.60812-69.42683,103.21044,0,51.45025,38.43271,93.91219,89.26309,108.47892Z" fill="#fff"/></g></svg>