<svg xmlns="http://www.w3.org/2000/svg" xmlns:xlink="http://www.w3.org/1999/xlink" viewBox="0 0 512 512"><defs><linearGradient id="g1" x1="302.53409" y1="986.41684" x2="428.92821" y2="1113.85105" gradientTransform="translate(0 -808)" gradientUnits="userSpaceOnUse"><stop offset=".21" stop-color="#f15a24"/><stop offset=".6841" stop-color="#fbb03b"/></linearGradient><linearGradient id="g2" x1="209.44657" y1="1141.60237" x2="83.05266" y2="1014.16839" gradientTransform="translate(0 -808)" gradientUnits="userSpaceOnUse"><stop offset=".21" stop-color="#ed1e79"/><stop offset=".8929" stop-color="#522785"/></linearGradient></defs><rect x="0" y="0" width="512" height="512" fill="#fff"/><path d="M350.57951,163.82984c-20.50504,0-42.95805,11.17525-66.64138,33.21817-11.17524,10.35504-21.01767,21.63282-28.19443,30.55251,0,0,11.48282,13.22575,24.09342,27.47675,6.86919-8.61212,16.60908-20.29999,27.98938-30.86008,21.01767-19.68484,34.75605-23.68332,42.65047-23.68332,29.52725,0,53.51817,24.8111,53.51817,55.46613,0,30.34746-23.99089,55.15855-53.51817,55.46613-1.43535,0-3.07576-.20505-5.12626-.61516,8.61211,3.99848,17.94191,6.86919,26.65655,6.86919,54.13329,0,64.79594-37.4217,65.41107-40.08735,1.53788-6.86919,2.4606-14.04595,2.4606-21.42777-.1025-50.95501-40.08733-92.3752-89.29942-92.3752Z" fill="url(#g1)"/><path d="M161.42051,348.17016c20.50504,0,42.95806-11.17524,66.64139-33.21817,11.17524-10.35505,21.01767-21.63282,28.19443-30.55251,0,0-11.48282-13.22575-24.09342-27.47676-6.86919,8.61212-16.60908,20.29999-27.98938,30.86008-21.01767,19.4798-34.85857,23.68332-42.65048,23.68332-29.52726,0-53.51816-24.8111-53.51816-55.46613,0-30.34746,23.99089-55.15856,53.51816-55.46613,1.43535,0,3.07576.20505,5.12626.61515-8.61212-3.99848-17.94191-6.86919-26.65655-6.86919-54.13331-.10251-64.79593,37.31919-65.41108,40.08737-1.53788,6.86919-2.4606,14.04595-2.4606,21.42776,0,50.95502,39.98483,92.37521,89.29945,92.37521Z" fill="url(#g2)"/><path d="M202.63565,225.03739c-5.94646-5.74141-34.85857-29.21968-62.54037-30.03988-49.41715-1.2303-63.8732,34.65351-65.20603,39.26715,9.53484-40.18988,44.80351-70.22976,86.63379-70.43481,34.1409,0,68.69188,33.52574,94.22067,63.77068l.10253-.10252s11.48282,13.22575,24.09342,27.47675c0,0,14.35353,16.91666,29.52726,31.78281,5.94646,5.74141,34.75605,28.91211,62.43786,29.7323,50.74997,1.43535,64.79594-36.49897,65.5136-39.36968-9.3298,40.49746-44.70099,70.63986-86.73633,70.84491-34.1409,0-68.69188-33.52574-94.32318-63.77067,0,.10252-.10253.10252-.10253.20505,0,0-11.48282-13.22575-24.09342-27.47676.10252.00002-14.25101-17.01917-29.52726-31.88532Z" fill="#29abe2" fill-rule="evenodd"/></svg>