<svg xmlns="http://www.w3.org/2000/svg" viewBox="0 0 512 512">
  <rect width="512" height="512" fill="#000" />
  <path
    d="m256.00008,74.38967l-157.28374,90.80515-.00008,181.61033,157.28366,90.80518,157.28374-90.80515.00008-181.61033-157.28366-90.80518Zm3.21546,294.15561l-120.72395-68.85536.48934-33.48396,120.16472,68.78545,57.95032-33.41405-38.86655-22.43916-14.54001,8.38847-27.2625-15.65847,14.60991-8.45837-19.08375-11.04482-11.53414,6.71077-27.33241-15.65847,11.60405-6.71078-61.58529-35.58109,116.04044-66.96793,109.46943,62.4242-29.35963,17.05654-80.10982-45.92687-57.95032,33.41406,32.43538,18.73425,16.56722-9.64674,27.3324,15.65847-16.70702,9.64674,19.08374,11.04482,13.56135-7.89914,27.33241,15.65848-13.70117,7.96904,67.94653,39.2161-115.83073,67.03783h.00005Z"
    fill="#fff" />
</svg>
