<svg xmlns="http://www.w3.org/2000/svg" viewBox="0 0 512 512">
  <rect width="512" height="512" fill="#0101ff" />
  <path
    d="M332.77295,126.73809c11.27903,0,20.42073-9.1189,20.42073-20.36781s-9.1417-20.36781-20.42073-20.36781c-11.27555,0-20.4172,9.1189-20.4172,20.36781s9.14165,20.36781,20.4172,20.36781Z"
    fill="#fff" />
  <path
    d="M355.74798,414.43475c11.27555,0,20.42073-9.11716,20.42073-20.36817,0-11.24748-9.14518-20.36464-20.42073-20.36464-11.27903,0-20.42068,9.11716-20.42068,20.36464,0,11.25101,9.14165,20.36817,20.42068,20.36817Z"
    fill="#fff" />
  <path
    d="M338.61045,177.6585c9.46404,0,17.13754-7.65323,17.13754-17.09447s-7.67349-17.09412-17.13754-17.09412-17.13759,7.6532-17.13759,17.09412,7.67355,17.09447,17.13759,17.09447Z"
    fill="#fff" />
  <path
    d="M384.19614,184.20376c9.46404,0,17.13759-7.65355,17.13759-17.09447s-7.67355-17.09447-17.13759-17.09447c-9.46752,0-17.14106,7.65358-17.14106,17.09447s7.67355,17.09447,17.14106,17.09447Z"
    fill="#fff" />
  <path
    d="M332.77643,220.93898c8.0555,0,14.58676-6.5134,14.58676-14.54819s-6.53126-14.54853-14.58676-14.54853-14.58671,6.51375-14.58671,14.54853,6.53126,14.54819,14.58671,14.54819Z"
    fill="#fff" />
  <path
    d="M378.35517,227.12513c8.05545,0,14.58671-6.5134,14.58671-14.54819s-6.53126-14.54853-14.58671-14.54853-14.58676,6.5134-14.58676,14.54853,6.53126,14.54819,14.58676,14.54819Z"
    fill="#fff" />
  <path
    d="M414.82023,241.3082c8.05545,0,14.58671-6.5134,14.58671-14.54853s-6.53126-14.54819-14.58671-14.54819-14.58323,6.5134-14.58323,14.54819,6.52779,14.54853,14.58323,14.54853Z"
    fill="#fff" />
  <path
    d="M364.86167,262.03903c7.04982,0,12.76467-5.69945,12.76467-12.73002s-5.71485-12.72967-12.76467-12.72967c-7.04634,0-12.76124,5.6991-12.76124,12.72967s5.7149,12.73002,12.76124,12.73002Z"
    fill="#fff" />
  <path
    d="M319.28645,255.85288c7.04634,0,12.76119-5.69945,12.76119-12.73002s-5.71485-12.72965-12.76119-12.72965c-7.04987,0-12.76472,5.69942-12.76472,12.72965s5.71485,12.73002,12.76472,12.73002Z"
    fill="#fff" />
  <path
    d="M401.69462,276.22349c7.04634,0,12.76119-5.70084,12.76119-12.73141s-5.71485-12.72967-12.76119-12.72967c-7.04982,0-12.76472,5.6991-12.76472,12.72967s5.7149,12.73141,12.76472,12.73141Z"
    fill="#fff" />
  <path
    d="M346.63435,288.58874c6.04072,0,10.9392-4.88793,10.9392-10.91113,0-6.02671-4.89849-10.91113-10.9392-10.91113s-10.93915,4.88442-10.93915,10.91113c0,6.02321,4.89843,10.91113,10.93915,10.91113Z"
    fill="#fff" />
  <path
    d="M383.46383,302.41162c6.04072,0,10.9392-4.88793,10.9392-10.91464,0-6.02321-4.89849-10.91113-10.9392-10.91113s-10.93915,4.88793-10.93915,10.91113c0,6.02671,4.89843,10.91464,10.93915,10.91464Z"
    fill="#fff" />
  <path
    d="M301.41307,282.03997c6.04419,0,10.93915-4.88795,10.93915-10.91116,0-6.02668-4.89496-10.91287-10.93915-10.91287-6.04072,0-10.93918,4.88619-10.93918,10.91287,0,6.02321,4.89846,10.91116,10.93918,10.91116Z"
    fill="#fff" />
  <path
    d="M326.57457,306.41309c5.03509,0,9.11711-4.07154,9.11711-9.09262s-4.08202-9.09262-9.11711-9.09262-9.11716,4.07154-9.11716,9.09262,4.08202,9.09262,9.11716,9.09262Z"
    fill="#fff" />
  <path
    d="M342.25448,331.50799c4.43243,0,8.02396-3.58447,8.02396-8.00289s-3.59153-7.99942-8.02396-7.99942c-4.4289,0-8.02043,3.581-8.02043,7.99942s3.59153,8.00289,8.02043,8.00289Z"
    fill="#fff" />
  <path
    d="M322.93048,336.60267c3.62302,0,6.56281-2.93276,6.56281-6.5488s-2.93979-6.54527-6.56281-6.54527c-3.62655,0-6.56628,2.92925-6.56628,6.54527s2.93973,6.5488,6.56628,6.5488Z"
    fill="#fff" />
  <path
    d="M305.78942,317.68512c4.43243,0,8.02396-3.58097,8.02396-8.00289,0-4.41842-3.59153-7.99942-8.02396-7.99942-4.4289,0-8.02043,3.581-8.02043,7.99942,0,4.42192,3.59153,8.00289,8.02043,8.00289Z"
    fill="#fff" />
  <path
    d="M280.99935,300.22869c5.03159,0,9.11363-4.07151,9.11363-9.09259s-4.08204-9.09262-9.11363-9.09262c-5.03512,0-9.11716,4.07151-9.11716,9.09262s4.08204,9.09259,9.11716,9.09259Z"
    fill="#fff" />
  <path
    d="M280.62793,231.84662c5.03512,0,9.11716-4.07082,9.11716-9.09262s-4.08204-9.09294-9.11716-9.09294-9.11363,4.07116-9.11363,9.09294,4.07854,9.09262,9.11363,9.09262Z"
    fill="#fff" />
  <path
    d="M284.63991,199.84168c4.43243,0,8.02393-3.58239,8.02393-8.0015s-3.5915-8.00188-8.02393-8.00188c-4.42893,0-8.02043,3.58276-8.02043,8.00188s3.5915,8.0015,8.02043,8.0015Z"
    fill="#fff" />
  <path
    d="M293.39265,173.65424c3.62655,0,6.56628-2.93102,6.56628-6.54703,0-3.61569-2.93973-6.54669-6.56628-6.54669-3.62305,0-6.56281,2.93099-6.56281,6.54669,0,3.61601,2.93976,6.54703,6.56281,6.54703Z"
    fill="#fff" />
  <path
    d="M278.0771,161.29073c4.43243,0,8.02393-3.58239,8.02393-8.0015s-3.5915-8.0015-8.02393-8.0015c-4.42893,0-8.02043,3.58239-8.02043,8.0015s3.5915,8.0015,8.02043,8.0015Z"
    fill="#fff" />
  <path
    d="M363.0431,320.22894c5.03161,0,9.11363-4.07151,9.11363-9.09259s-4.08202-9.09262-9.11363-9.09262c-5.03509,0-9.11711,4.07151-9.11711,9.09262s4.08202,9.09259,9.11711,9.09259Z"
    fill="#fff" />
  <path
    d="M257.29198,150.7426c5.03509,0,9.11713-4.07084,9.11713-9.09262s-4.08204-9.09261-9.11713-9.09261-9.11366,4.07082-9.11366,9.09261,4.07854,9.09262,9.11366,9.09262Z"
    fill="#fff" />
  <path
    d="M263.49036,189.2974c5.03512,0,9.11713-4.07084,9.11713-9.09262s-4.08202-9.09297-9.11713-9.09297c-5.03159,0-9.11363,4.07116-9.11363,9.09297s4.08204,9.09262,9.11363,9.09262Z"
    fill="#fff" />
  <path
    d="M253.2835,226.03016c6.04425,0,10.93918-4.88515,10.93918-10.91151,0-6.02599-4.89493-10.91113-10.93918-10.91113-6.04072,0-10.93915,4.88515-10.93915,10.91113,0,6.02636,4.89843,10.91151,10.93915,10.91151Z"
    fill="#fff" />
  <path
    d="M220.09808,226.0277c7.04634,0,12.76122-5.69945,12.76122-12.72967s-5.71487-12.72999-12.76122-12.72999c-7.04982,0-12.76469,5.69942-12.76469,12.72999s5.71487,12.72967,12.76469,12.72967Z"
    fill="#fff" />
  <path
    d="M181.44835,234.76117c8.0558,0,14.58497-6.51375,14.58497-14.54853s-6.52918-14.54853-14.58497-14.54853-14.58604,6.51375-14.58604,14.54853,6.53057,14.54853,14.58604,14.54853Z"
    fill="#fff" />
  <path
    d="M139.14857,255.49443c9.46543,0,17.13863-7.6532,17.13863-17.09447s-7.6732-17.09412-17.13863-17.09412-17.1386,7.65323-17.1386,17.09412,7.67317,17.09447,17.1386,17.09447Z"
    fill="#fff" />
  <path
    d="M95.38944,290.40728c11.27766,0,20.42038-9.11716,20.42038-20.36817,0-11.24786-9.14272-20.36676-20.42038-20.36676s-20.4207,9.1189-20.4207,20.36676c0,11.25101,9.14272,20.36817,20.4207,20.36817Z"
    fill="#fff" />
  <path
    d="M122.01278,212.93853c9.46543,0,17.1386-7.65355,17.1386-17.09444s-7.67317-17.09447-17.1386-17.09447-17.13828,7.65355-17.13828,17.09447,7.6732,17.09444,17.13828,17.09444Z"
    fill="#fff" />
  <path
    d="M164.30691,192.20492c8.05582,0,14.58604-6.51375,14.58604-14.54853s-6.53022-14.54853-14.58604-14.54853-14.58601,6.51375-14.58601,14.54853,6.53057,14.54853,14.58601,14.54853Z"
    fill="#fff" />
  <path
    d="M158.10714,153.65012c8.05545,0,14.58567-6.51338,14.58567-14.54816s-6.53022-14.54855-14.58567-14.54855-14.58604,6.51375-14.58604,14.54855,6.53022,14.54816,14.58604,14.54816Z"
    fill="#fff" />
  <path
    d="M196.76213,144.92261c7.04985,0,12.76119-5.69942,12.76119-12.73001s-5.71134-12.73001-12.76119-12.73001c-7.04846,0-12.76261,5.69944-12.76261,12.73001s5.71415,12.73001,12.76261,12.73001Z"
    fill="#fff" />
  <path
    d="M229.94405,144.92296c6.04072,0,10.93918-4.88512,10.93918-10.91148,0-6.026-4.89846-10.91113-10.93918-10.91113-6.04422,0-10.94268,4.88513-10.94268,10.91113,0,6.02636,4.89846,10.91148,10.94268,10.91148Z"
    fill="#fff" />
  <path
    d="M236.14244,183.47322c6.04422,0,10.93918-4.88515,10.93918-10.91151,0-6.02599-4.89496-10.91113-10.93918-10.91113-6.04072,0-10.93918,4.88515-10.93918,10.91113,0,6.02636,4.89846,10.91151,10.93918,10.91151Z"
    fill="#fff" />
  <path
    d="M202.96052,183.84111c7.04985,0,12.76472-5.69942,12.76472-12.72999s-5.71487-12.72967-12.76472-12.72967c-7.04634,0-12.76189,5.69945-12.76189,12.72967s5.71554,12.72999,12.76189,12.72999Z"
    fill="#fff" />
  <path
    d="M166.85985,280.58585c3.62478,0,6.56353-2.92925,6.56353-6.5453s-2.93874-6.54877-6.56353-6.54877c-3.62513,0-6.56385,2.93276-6.56385,6.54877s2.93872,6.5453,6.56385,6.5453Z"
    fill="#fff" />
  <path
    d="M193.11562,277.31672c4.43139,0,8.02289-3.5845,8.02289-8.00292s-3.5915-8.0015-8.02289-8.0015c-4.43066,0-8.02217,3.58308-8.02217,8.0015s3.5915,8.00292,8.02217,8.00292Z"
    fill="#fff" />
  <path
    d="M221.92012,266.40556c5.03509,0,9.11713-4.07012,9.11713-9.0919s-4.08204-9.09262-9.11713-9.09262-9.11713,4.07082-9.11713,9.09262,4.08202,9.0919,9.11713,9.0919Z"
    fill="#fff" />
  <path
    d="M228.85082,295.49843c6.04072,0,10.93918-4.88442,10.93918-10.91113s-4.89846-10.91113-10.93918-10.91113c-6.04422,0-10.94268,4.88442-10.94268,10.91113s4.89846,10.91113,10.94268,10.91113Z"
    fill="#fff" />
  <path
    d="M193.84723,302.40812c5.03474,0,9.11679-4.07151,9.11679-9.09262s-4.08204-9.09259-9.11679-9.09259-9.11609,4.07151-9.11609,9.09259,4.08135,9.09262,9.11609,9.09262Z"
    fill="#fff" />
  <path
    d="M162.8479,302.04373c4.43069,0,8.02251-3.581,8.02251-8.00292,0-4.41839-3.59182-7.99939-8.02251-7.99939s-8.02217,3.581-8.02217,7.99939c0,4.42192,3.59147,8.00292,8.02217,8.00292Z"
    fill="#fff" />
  <path
    d="M163.2109,327.14213c5.03474,0,9.11644-4.07151,9.11644-9.09259s-4.0817-9.09262-9.11644-9.09262-9.11609,4.07151-9.11609,9.09262,4.08135,9.09259,9.11609,9.09259Z"
    fill="#fff" />
  <path
    d="M200.40619,331.86891c6.04422,0,10.93918-4.88445,10.93918-10.91116s-4.89496-10.91113-10.93918-10.91113c-6.04072,0-10.93848,4.88445-10.93848,10.91113s4.89776,10.91116,10.93848,10.91116Z"
    fill="#fff" />
  <path
    d="M243.80548,327.14213c7.04632,0,12.76119-5.70084,12.76119-12.72965,0-7.03234-5.71487-12.72967-12.76119-12.72967-7.04985,0-12.76472,5.69734-12.76472,12.72967,0,7.02881,5.71487,12.72965,12.76472,12.72965Z"
    fill="#fff" />
  <path
    d="M269.32436,358.78235c8.05545,0,14.58674-6.51375,14.58674-14.54819s-6.53129-14.54819-14.58674-14.54819-14.58674,6.51375-14.58674,14.54819,6.53126,14.54819,14.58674,14.54819Z"
    fill="#fff" />
  <path
    d="M215.72524,363.14822c7.04632,0,12.76119-5.69736,12.76119-12.72967,0-7.02883-5.71487-12.72967-12.76119-12.72967-7.04985,0-12.76472,5.70084-12.76472,12.72967,0,7.03231,5.71487,12.72967,12.76472,12.72967Z"
    fill="#fff" />
  <path
    d="M185.45645,387.87873c7.0488,0,12.7633-5.69736,12.7633-12.7297,0-7.02881-5.7145-12.72965-12.7633-12.72965-7.04843,0-12.76261,5.70084-12.76261,12.72965,0,7.03234,5.71418,12.7297,12.76261,12.7297Z"
    fill="#fff" />
  <path
    d="M210.61655,419.89035c8.05545,0,14.58671-6.51378,14.58671-14.55169,0-8.03444-6.53126-14.54821-14.58671-14.54821s-14.58674,6.51378-14.58674,14.54821c0,8.03791,6.53126,14.55169,14.58674,14.55169Z"
    fill="#fff" />
  <path
    d="M277.71268,425.7103c9.46755,0,17.14106-7.65253,17.14106-17.09551,0-9.4395-7.67352-17.09551-17.14106-17.09551-9.46402,0-17.13756,7.65601-17.13756,17.09551,0,9.44298,7.67355,17.09551,17.13756,17.09551Z"
    fill="#fff" />
  <path
    d="M240.88323,395.15283c8.05545,0,14.58671-6.51378,14.58671-14.54821s-6.53126-14.54816-14.58671-14.54816-14.58674,6.51372-14.58674,14.54816,6.53126,14.54821,14.58674,14.54821Z"
    fill="#fff" />
  <path
    d="M305.79295,389.33982c9.46752,0,17.14106-7.65248,17.14106-17.09551,0-9.4395-7.67355-17.09201-17.14106-17.09201-9.46404,0-17.13759,7.65251-17.13759,17.09201,0,9.44303,7.67355,17.09551,17.13759,17.09551Z"
    fill="#fff" />
  <path
    d="M170.14056,356.60292c6.04179,0,10.93952-4.88445,10.93952-10.91113,0-6.02321-4.89774-10.91116-10.93952-10.91116s-10.93952,4.88795-10.93952,10.91116c0,6.02668,4.89776,10.91113,10.93952,10.91113Z"
    fill="#fff" />
</svg>