<svg xmlns="http://www.w3.org/2000/svg" viewBox="0 0 512 512">
  <rect width="100%" height="100%" fill="#f6941d"/>
  <circle cx="256" cy="256" r="256" fill="#f6941d"/>
  <path d="m255.99963,39.79395c-119.21594,0-216.20569,96.98962-216.20569,216.20654s96.98975,216.20557,216.20569,216.20557,216.20642-96.98962,216.20642-216.20557S375.21643,39.79395,255.99963,39.79395Zm0,416.64124c-110.52039,0-200.43481-89.91443-200.43481-200.43469S145.47925,55.5647,255.99963,55.5647s200.43561,89.91528,200.43561,200.43579-89.91522,200.43469-200.43561,200.43469Z" fill="#fff"/>
  <path d="m292.75745,158.19714l-112.47327,62.59363v15.64844l66.50598-30.31885.97791,63.57202s-103.67114,41.07715-89.00061,111.49536c14.67053,70.41833,103.67102,27.38501,103.67102,27.38501,0,0,31.29688-10.75818,29.34106-66.5061-1.95605-55.7478-.97803-65.52795-.97803-65.52795l105.62701-59.65979v-18.58276l-105.62701,51.83557,1.95593-91.93457Zm-89.97864,221.03467c-44.50342-25.30579,44.98926-77.26404,44.98926-77.26404,0,0,4.89038,105.62695-44.98926,77.26404Z" fill="#fff"/>
  <circle cx="261.90118" cy="110.60651" r="32.30779" transform="translate(-18.40603 63.13129) rotate(-13.2825)" fill="#fff"/>
</svg>
