<svg xmlns="http://www.w3.org/2000/svg" viewBox="0 0 512 512"><rect x="0" y="0" width="512" height="512" fill="#b41514"/><path d="m256,0c141.36319,0,256,114.6368,256,256s-114.63681,256-256,256S0,397.36319,0,256,114.6368,0,256,0Z" fill="#b41514" fill-rule="evenodd"/><path d="m253.952,422.4c-18.94558,0-34.304-15.35844-34.304-34.304s15.35842-34.304,34.304-34.304,34.304,15.35844,34.304,34.304h0c0,18.94556-15.35844,34.304-34.304,34.304Z" fill="#fff"/><path d="m253.952,185.856c-18.94558,0-34.304-15.35842-34.304-34.304s15.35842-34.304,34.304-34.304,34.304,15.35842,34.304,34.304-15.35844,34.304-34.304,34.304h0Z" fill="#fff"/><polygon points="113.664 330.752 113.664 283.136 394.24 283.136 394.24 330.752 113.664 330.752" fill="#fff"/><path d="m253.952,259.584c-80.02559,0-145.152-63.488-147.86559-142.848h50.7392c2.66241,51.35359,45.15839,92.16,97.12639,92.16s94.464-40.80641,97.12641-92.16h50.73919c-2.71359,79.36-67.84,142.848-147.86559,142.848Z" fill="#fff"/></svg>