<svg xmlns="http://www.w3.org/2000/svg" xmlns:xlink="http://www.w3.org/1999/xlink" viewBox="0 0 100 100">
  <rect width="100" height="100" fill="#BFF009"/>
  <g transform="translate(10 10) scale(0.15625 0.15625)">
<path d="M258.7104,180.30254c0-11.9822,9.80226-21.73936,21.8446-21.73936h39.08874v-52.90512h-39.08875c-41.41902,0-75.00528,33.42088-75.00528,74.64447,0,10.74941,2.30022,20.97262,6.41958,30.21861-32.17305,13.53071-53.52151,42.27599-58.48278,78.65859-5.81821,39.94569,10.26831,83.0335,45.28281,103.85581,31.25596,19.58947,80.11689,18.29653,106.51683-8.87014v18.04097h54.39349v-200.17952h-79.10961c-12.02731,0-21.85962-9.77219-21.85962-21.73936M306.5039,254.94701v50.24407c-.06635,27.80961-22.65997,50.30226-50.46959,50.24407-27.80963.05818-50.40324-22.43446-50.46959-50.24407.06635-27.80961,22.65997-50.30227,50.46959-50.24407h50.46959Z" fill="#111111" stroke-width="0"/>
  </g>
</svg>
