<svg xmlns="http://www.w3.org/2000/svg" viewBox="0 0 512 512"><rect x="0" y="0" width="512" height="512" fill="#6fc7ba"/><g data-name="CIRCLE OUTLINE BLACK"><g><g><path d="M512.38066,253.41749c0,34.27644-14.15329,67.41258-26.56261,97.2619s-31.59334,59.36328-54.86913,82.63907S379.702,476.6503,348.84648,489.46207C319.0642,501.80424,285.39149,512,251.11505,512s-68.687-8.45174-98.46929-20.79391c-30.92258-12.81177-52.0519-40.64875-75.32763-63.99163-23.27579-23.27579-49.3688-45.143-62.18054-76.06549S.24645,287.694.24645,253.41754-3.77817,182.78529,8.564,152.93594C21.37577,122.01336,48.40788,97.329,71.75071,74.0532,95.0265,50.77742,120.8512,26.42842,151.77378,13.61667,181.55606,1.27447,216.83861,0,251.11505,0s67.47961,6.23818,97.26189,18.58038c30.92258,12.81174,60.70486,30.25179,83.9806,53.59467,23.27578,23.27579,43.466,51.98481,56.27774,82.84029C500.97745,184.7976,512.38055,219.14113,512.38066,253.41749Z" fill="#6fc7ba"/><polygon points="268.555 391.462 322.888 399.512 344.487 253.417 322.888 107.256 268.555 115.306 284.05 220.416 170.354 132.88 136.883 176.547 236.626 253.417 136.883 330.221 170.354 373.955 284.05 286.352 268.555 391.462" fill="#fff"/></g></g></g></svg>