<svg xmlns="http://www.w3.org/2000/svg" viewBox="0 0 56 56">
  <rect x="0" y="0" width="56" height="56" fill="url(#g1)"/>
  <g transform="translate(1.11,1.11) scale(0.9605)">
  <path fill-rule="evenodd" d="M37.59 44c-1.39 0-2.95-.3-4.65-.88A25.99 25.99 0 0 1 28 40.78c-1.66 1-3.33 1.8-4.95 2.35-1.7.58-3.26.87-4.64.87-1.96 0-3.57-.58-4.7-1.71-1.94-1.94-2.24-5.26-.84-9.35A25.97 25.97 0 0 1 15.22 28a26 26 0 0 1-2.35-4.94c-1.4-4.1-1.1-7.41.84-9.35 1.94-1.94 5.26-2.24 9.35-.84 1.62.55 3.28 1.35 4.94 2.35 1.66-1 3.32-1.8 4.94-2.35 4.09-1.4 7.41-1.1 9.35.84 1.94 1.94 2.24 5.26.84 9.35A25.96 25.96 0 0 1 40.78 28c1 1.66 1.8 3.32 2.35 4.94 1.4 4.1 1.1 7.41-.84 9.35-1.13 1.13-2.74 1.7-4.7 1.7Zm-2.98-9.4c-2.1 2.1-4.35 3.9-6.61 5.31a37.44 37.44 0 0 1-6.61-5.3c-2.1-2.1-3.9-4.35-5.3-6.61 1.4-2.27 3.2-4.52 5.3-6.62 2.1-2.1 4.34-3.9 6.6-5.3 2.27 1.4 4.52 3.2 6.62 5.3 2.1 2.1 3.9 4.35 5.3 6.62a37.44 37.44 0 0 1-5.3 6.6Zm.52.53a38.46 38.46 0 0 1-6.42 5.21c1.5.88 3 1.59 4.47 2.09 3.8 1.3 6.86 1.07 8.59-.66 1.73-1.73 1.96-4.78.66-8.6-.5-1.46-1.2-2.96-2.09-4.47-1.4 2.2-3.17 4.4-5.21 6.43Zm-14.26 0a38.4 38.4 0 0 1-5.21-6.43 24.88 24.88 0 0 0-2.09 4.48c-1.3 3.8-1.07 6.86.66 8.59 1.73 1.73 4.78 1.96 8.59.66 1.46-.5 2.97-1.2 4.47-2.09a38.32 38.32 0 0 1-6.42-5.21Zm0-14.26a38.46 38.46 0 0 0-5.21 6.42 24.87 24.87 0 0 1-2.09-4.47c-1.3-3.81-1.07-6.86.66-8.6 1-.98 2.42-1.49 4.18-1.49 1.3 0 2.79.28 4.41.84 1.46.5 2.97 1.2 4.47 2.08a38.36 38.36 0 0 0-6.42 5.22Zm14.26 0a38.46 38.46 0 0 0-6.43-5.22c1.5-.88 3.01-1.58 4.48-2.09a13.8 13.8 0 0 1 4.41-.83c1.76 0 3.19.5 4.18 1.5 1.73 1.73 1.96 4.78.66 8.59-.5 1.46-1.2 2.97-2.09 4.47a38.46 38.46 0 0 0-5.2-6.42ZM20 28c7.86-1.13 7.92-8 7.92-8v.08A8.52 8.52 0 0 0 36 27.92V28c-7.86 1.13-7.92 8-7.92 8v-.08C26.94 28.14 20 28.08 20 28.08V28Z" fill="#fff"/>
    <defs>
      <linearGradient id="g1" x1="10.42" y1="9.71" x2="68.15" y2="76.02" gradientUnits="userSpaceOnUse">
        <stop stop-color="#1A1E21"/>
        <stop offset="1" stop-color="#06060A"/>
      </linearGradient>
    </defs>
  </g>
</svg>
