<svg xmlns="http://www.w3.org/2000/svg" xmlns:xlink="http://www.w3.org/1999/xlink" viewBox="0 0 512 512"><defs><linearGradient id="g1" x1="174.9968" y1="-13052.99103" x2="174.9968" y2="-13214.22523" gradientTransform="translate(-15.82 -12840.97903) scale(1 -1)" gradientUnits="userSpaceOnUse"><stop offset="0" stop-color="#f6e93d"/><stop offset=".13" stop-color="#f8e330"/><stop offset=".35" stop-color="#f7c730"/><stop offset=".64" stop-color="#f59c2e"/><stop offset=".98" stop-color="#eb5e2c"/><stop offset="1" stop-color="#eb5c2c"/></linearGradient><linearGradient id="g2" x1="238.25021" y1="-13146.75492" x2="238.25021" y2="-13280.70333" xlink:href="#g1"/><linearGradient id="g3" x1="312.91406" y1="-13107.72797" x2="312.91406" y2="-13257.22102" xlink:href="#g1"/><linearGradient id="g4" x1="192.19512" y1="-12942.85567" x2="192.19512" y2="-13059.27504" xlink:href="#g1"/><linearGradient id="g5" x1="391.62941" y1="-12982.37872" x2="391.62941" y2="-13159.15755" xlink:href="#g1"/><linearGradient id="g6" x1="294.47547" y1="-12913.25473" x2="294.47547" y2="-13095.15998" xlink:href="#g1"/><linearGradient id="g7" x1="330.27774" y1="-13052.77605" x2="330.27774" y2="-13095.27572" xlink:href="#g1"/><linearGradient id="g8" x1="212.50639" y1="-13084.65457" x2="226.00045" y2="-13047.579" xlink:href="#g1"/></defs><rect x="0" y="0" width="512" height="512" fill="#171c1f"/><polygon points="168.6028 229.70642 168.76817 229.70642 171.57943 230.69864 174.22533 231.69085 177.03659 232.51769 179.68248 233.67526 182.49375 234.66747 185.13964 235.65969 187.9509 236.6519 190.5968 237.64411 193.24269 238.63632 195.88859 239.62852 198.69986 240.62075 201.34575 241.77832 204.15701 242.60516 206.8029 243.59737 209.61417 244.58958 212.26006 245.74716 215.07132 246.73937 217.71722 247.56621 220.36312 248.55842 223.17437 249.71601 225.98564 250.70822 225.98564 246.40864 225.98564 245.74716 225.98564 242.27443 225.98564 242.27443 225.98564 239.7939 225.98564 237.97484 225.98564 233.67526 225.98564 229.54105 225.98564 225.24148 225.98564 221.10727 225.98564 216.64233 225.98564 212.50812 225.98564 212.01201 225.98564 212.01201 225.98564 212.01201 222.67828 212.01201 219.53627 212.01201 219.53627 212.01201 219.20553 212.01201 215.73279 212.01201 213.0869 212.01201 213.0869 212.01201 212.09469 212.01201 208.62196 212.01201 206.8029 212.01201 206.8029 212.01201 204.98385 212.01201 201.34575 212.01201 200.35354 212.01201 200.35354 212.01201 197.87301 212.01201 194.40027 212.01201 194.2349 212.01201 194.06954 212.01201 190.76217 212.01201 187.78554 212.01201 187.78554 212.01201 187.28943 212.01201 183.65133 212.01201 181.33617 212.01201 181.33617 212.01201 175.05217 212.01201 175.05217 212.01201 168.76817 212.01201 168.6028 212.01201 164.9647 212.01201 162.3188 213.33496 156.0348 216.64233 149.58543 220.11506 143.13607 223.25706 137.01743 226.56443 130.56807 230.03716 124.1187 233.17917 117.8347 236.6519 111.38533 239.95927 105.10133 243.10127 98.81733 246.57401 93.02944 249.55063 92.36796 344.30673 98.81733 348.77168 105.10133 353.23662 111.38533 357.53621 117.8347 362.16653 124.1187 366.63147 130.56807 371.09641 133.37933 373.24621 137.01743 368.61588 143.13607 360.34746 143.79754 359.52062 143.13607 359.02451 137.01743 354.55957 130.56807 350.09463 124.1187 345.62969 117.8347 341.16474 111.38533 336.53442 109.73165 335.5422 110.22775 258.81127 111.38533 258.14979 117.8347 255.00779 124.1187 251.86579 130.56807 248.72379 137.01743 245.5818 143.13607 242.27443 149.58543 239.13243 156.0348 236.15579 162.3188 232.84842 168.6028 229.70642" fill="url(#g1)"/><polygon points="278.07669 410.4541 272.7849 412.60389 266.83164 415.08442 260.87838 417.39957 254.92512 419.88009 252.27921 420.87231 249.13722 419.38398 243.18395 416.24199 237.23069 413.43073 231.44279 410.28872 225.48953 407.31211 219.53627 404.50082 213.58301 401.35883 207.62974 398.3822 201.67648 395.40556 195.72322 392.42895 189.76996 389.28694 184.14743 386.47568 178.19417 383.49904 177.53269 383.16831 177.53269 305.77589 172.2409 305.77589 166.28764 305.77589 160.33438 305.77589 160.33438 393.75188 166.28764 396.56316 172.2409 399.53977 178.19417 402.68179 184.14743 405.49305 189.76996 408.63503 195.72322 411.61167 201.67648 414.58831 207.62974 417.56494 213.58301 420.54158 219.53627 423.51819 225.48953 426.49483 231.44279 429.63684 237.23069 432.4481 243.18395 435.59009 249.13722 438.40135 251.45237 439.7243 254.92512 438.07062 260.87838 435.92082 266.83164 433.4403 272.7849 430.95977 278.57279 428.64462 284.52605 426.32947 278.57279 411.44632 278.07669 410.4541" fill="url(#g2)"/><polygon points="383.7471 302.96463 384.07783 339.34568 382.58952 340.66863 372.50204 347.6141 362.41458 354.8903 352.3271 362.16653 342.23964 369.27737 332.15216 376.38819 322.23005 383.66442 312.14257 390.77527 306.18932 395.07483 302.05511 391.93284 292.13301 384.16053 282.04552 376.55357 271.95805 368.78126 262.03595 361.17431 260.2169 359.85135 260.2169 320.65905 262.03595 319.00536 271.95805 308.42179 282.04552 298.00358 292.13301 287.42001 302.05511 277.0018 311.81184 266.74895 302.05511 266.74895 292.13301 266.74895 282.04552 266.74895 271.95805 266.74895 262.03595 266.74895 251.78311 266.74895 241.69564 266.74895 231.77354 266.74895 221.68605 266.74895 211.59858 266.74895 201.67648 266.74895 191.58901 266.74895 201.67648 277.33253 211.59858 287.75074 221.68605 298.16896 231.77354 308.75253 241.69564 319.17074 243.18395 320.65905 243.18395 368.11977 251.78311 374.89989 262.03595 382.6722 271.95805 390.27916 282.04552 398.05147 292.13301 405.65842 302.05511 413.43073 305.69321 416.24199 312.14257 411.61167 322.23005 404.6662 332.15216 397.39 342.23964 390.11378 352.3271 383.16831 362.41458 375.89211 372.50204 368.61588 382.58952 361.67042 392.67701 354.39422 400.94543 348.27557 402.59911 303.62609 392.67701 303.29536 383.7471 302.96463" fill="url(#g3)"/><polygon points="108.73944 218.29601 109.89702 218.29601 110.06238 169.6777 116.51175 165.54348 124.6148 160.7478 132.55249 155.95211 140.49017 150.99106 148.42786 146.19538 156.53091 141.23433 164.30322 136.43864 172.40628 131.64296 180.34396 126.68191 188.44701 121.72085 188.61238 121.72085 196.21932 126.1858 204.32237 130.65075 212.26006 135.28106 220.19775 139.74601 228.13543 144.21096 236.07311 148.67591 244.01079 153.30622 251.78311 157.77117 252.11384 157.10969 260.05153 142.72264 252.11384 138.09232 244.01079 133.62738 236.07311 129.16243 228.13543 124.69749 220.19775 120.06717 212.26006 115.60222 204.32237 111.13728 196.21932 106.50696 188.44701 102.04201 188.11628 101.87664 180.34396 106.50696 172.40628 111.46801 164.30322 116.42907 156.53091 121.39012 148.42786 126.1858 140.49017 130.98148 132.55249 135.94254 124.6148 140.73822 116.51175 145.69928 108.73944 150.49496 100.63638 155.29064 93.02944 160.08632 92.6987 218.13063 100.63638 218.13063 108.73944 218.29601" fill="url(#g4)"/><polygon points="419.63204 173.81191 415.49783 170.50454 411.36362 167.19717 407.22941 163.72443 403.0952 160.41706 398.96099 157.10969 394.66142 153.80232 390.52721 150.49496 386.393 147.18759 382.09341 143.71485 378.95142 141.39969 377.79385 142.72264 373.65964 147.84906 369.52543 153.14085 368.36783 154.4638 369.52543 155.62138 373.65964 159.09411 377.79385 162.56685 382.09341 166.03959 386.393 169.51232 390.52721 173.15043 394.66142 176.62316 398.96099 180.0959 400.94543 181.74958 401.11078 259.96884 398.96099 261.45716 394.66142 264.10305 390.52721 266.74895 386.393 269.39484 382.09341 272.04074 377.79385 274.68664 373.65964 277.33253 369.52543 279.97842 365.39122 282.62431 361.25701 285.27022 357.1228 287.9161 352.82321 290.562 348.689 293.2079 344.55479 295.85378 340.42058 298.49969 336.12099 301.14557 331.98678 303.79147 336.12099 310.40621 340.42058 317.02095 341.08204 318.17852 344.55479 316.02873 348.689 313.5482 352.82321 310.90232 357.1228 308.42179 361.25701 305.61054 365.39122 303.13001 369.52543 300.4841 373.65964 298.00358 377.79385 295.35767 382.09341 292.87715 386.393 290.06589 390.52721 287.58536 394.66142 284.93948 398.96099 282.45895 403.0952 279.81305 407.22941 277.33253 411.36362 274.52127 415.49783 272.04074 419.63204 269.39484 419.63204 173.81191" fill="url(#g5)"/><polyline points="283.20311 220.44579 283.20311 224.74537 283.20311 229.04496 283.20311 233.34453 283.20311 237.80947 283.20311 242.27443 283.20311 246.57401 283.20311 250.87358 283.20311 254.18095 284.52605 253.68484 290.14858 251.53506 295.77111 249.2199 301.22827 247.0701 306.85079 244.75496 312.47333 242.4398 317.93046 240.29 323.55301 237.97484 329.17552 235.82506 334.63268 233.5099 340.2552 231.3601 345.71236 229.04496 345.71236 224.74537 345.71236 224.74537 345.71236 223.09168 345.71236 211.68127 345.71236 126.68191 339.42836 122.71306 332.979 119.07496 326.52964 115.43685 320.24564 111.46801 313.79625 107.82991 307.3469 104.1918 301.06289 100.38833 294.61353 96.58485 288.32953 92.78138 281.88016 89.14328 275.43079 85.3398 269.1468 81.53633 262.86279 77.89823 256.41342 74.26012 252.94069 72.2757 249.96406 73.92938 243.51469 77.40212 237.06532 80.70949 230.9467 84.34759 224.49733 87.82033 218.04795 91.1277 211.59858 94.7658 218.04795 98.40391 224.49733 102.04201 228.46617 104.52254 230.9467 103.19959 237.06532 99.89222 243.51469 96.41949 249.96406 93.11212 252.44459 91.78917 256.41342 94.10433 262.86279 97.74243 269.1468 101.38054 275.43079 105.18401 281.88016 108.98749 288.32953 112.62559 294.61353 116.42907 301.06289 120.23254 307.3469 123.87064 313.79625 127.50875 320.24564 131.47759 326.52964 135.11569 328.67941 136.27327 328.67941 211.68127 327.19111 211.68127 326.52964 211.68127 323.55301 211.68127 320.24564 211.68127 319.91491 211.68127 316.11143 211.68127 313.79625 211.68127 312.47333 211.68127 308.8352 211.68127 307.3469 211.68127 305.1971 211.68127 301.559 211.68127 301.06289 211.68127 297.9209 211.68127 294.61353 211.68127 294.28279 211.68127 290.47932 211.68127 288.32953 211.68127 286.84121 211.68127 284.02995 211.68127 283.53384 211.68127" fill="url(#g6)"/><polyline points="283.20311 254.18095 345.71236 229.04496 283.20311 211.68127" fill="url(#g7)"/><polyline points="225.98564 254.18095 225.98564 212.34274 168.76817 229.37569 225.98564 254.01558" fill="url(#g8)"/></svg>