<svg xmlns="http://www.w3.org/2000/svg" viewBox="0 0 512 512">
  <rect width="100%" height="100%" fill="#170f1f"/>
  <defs>
    <linearGradient x1="-410.77164" y1="-7403.22592" x2="13.00912" y2="-7395.4822" gradientTransform="translate(454 -7141.78741) scale(1 -1)" gradientUnits="userSpaceOnUse" id="g1">
      <stop offset="0" stop-color="#29ccb9"/>
      <stop offset=".49479" stop-color="#0091ff"/>
      <stop offset="1" stop-color="#ff66b7"/>
    </linearGradient>
  </defs>
  <circle cx="255.11879" cy="257.56665" r="256" fill="#170f1f" stroke-width="0"/>
  <path d="m143.74436,406.85687c-45.44935-33.96143-74.87179-88.18961-74.87179-149.2902,0-102.8609,83.38531-186.2462,186.24621-186.2462,84.89337,0,177.59962,50.73249,200.02033,128.43045-25.05443-86.82452-105.10557-150.34179-200.02033-150.34179-114.96197,0-208.15752,93.19558-208.15752,208.15754s93.19555,208.1575,208.15752,208.1575,208.15752-93.19555,208.15752-208.1575v-10.95556l-11.43598-.00254c-.34017-.00254-.85421-.00761-1.52436-.01778-1.34095-.0203-3.30576-.06155-5.75607-.14469-4.90821-.16691-11.72978-.50008-19.37199-1.16453-15.61877-1.35873-33.42957-4.00957-45.56111-8.85495-19.51729-7.79447-30.53631-18.12747-43.1273-30.21838l-.72728-.69872c-12.61258-12.11629-26.78253-25.72839-51.33939-37.28495-24.1926-11.38456-50.94403-9.5581-70.60221-5.513-9.98268,2.05366-18.53364,4.76224-24.60004,6.95932-3.04113,1.10108-5.47873,2.08157-7.18334,2.79933-9.89256,4.16506-19.49445,9.09293-29.20297,13.66478,0,0,19.04832,5.22488,28.46935,8.14163.3408.10535.87261.27415,1.5688.50833,1.39364.46963,3.43333,1.19691,5.90139,2.19581,4.96913,2.01176,11.50514,5.05543,17.9574,9.20335,10.16227,6.53285,18.58757,14.75189,22.04312,24.84181-21.57286,2.83616-41.80603,12.30542-56.93679,21.20605-9.1748,5.39686-16.80491,10.78294-22.15228,14.82742-2.67875,2.02636-4.7984,3.72589-6.26694,4.93486-1.23245,1.01477-20.70977,18.18458-20.70977,18.18458,0,0,25.12867,2.67241,37.52864,5.17094,8.24952,1.66208,19.37134,4.33703,30.97232,8.38531,11.65428,4.06606,23.42724,9.3931,33.19733,16.2128,9.79039,6.83366,16.96038,14.73413,20.49971,23.7782,10.30505,26.33636.19292,51.99179-20.1107,66.42319-20.06244,14.26004-50.56387,17.65024-81.06148-3.29244Zm71.02296,32.57283c8.20256-2.66416,15.85869-6.53475,22.73297-11.42138,27.62783-19.63724,42.16585-55.60789,27.82075-92.26644-5.63547-14.40159-16.40446-25.41427-28.36272-33.76088-11.97858-8.3612-25.76267-14.4828-38.51993-18.93408-8.3885-2.9269-16.49077-5.18617-23.58716-6.90092,2.51756-1.64242,5.22932-3.3356,8.10545-5.02815,16.86329-9.91922,38.10108-19.02927,58.4675-19.02927,30.69752,0,53.55994,9.41975,75.38858,19.52809,1.98447.9183,3.97593,1.8531,5.97817,2.79235,19.50652,9.15132,39.99354,18.76337,63.79585,18.76337,23.08388,0,41.06287-6.52588,53.45331-13.27512-11.03233,92.33245-89.61751,163.91577-184.92129,163.91577-13.85581,0-27.35874-1.51359-40.35147-4.38335Zm201.5974-172.99033c-8.20382,2.79934-18.14907,4.82191-29.77795,4.82191-18.67264,0-34.71536-7.48035-55.08178-16.97626-1.79283-.83581-3.61992-1.68811-5.48446-2.55121-20.39307-9.44387-43.98659-19.45194-74.69808-21.2657-4.12064-20.33406-19.53191-34.22921-32.73277-42.71543-1.47044-.9456-2.93896-1.84105-4.39162-2.68701,1.31686-.30969,2.66798-.60861,4.04892-.89292,17.73972-3.65037,38.91848-4.56297,56.85619,3.87757,21.2892,10.01885,33.29824,21.55192,45.79212,33.55144l.42775.41061c12.85626,12.34601,26.45377,25.28859,50.17737,34.76292,13.17931,5.2636,30.23618,8.09466,44.86431,9.66409Z" fill="url(#g1)" fill-rule="evenodd" stroke-width="0"/>
</svg>
