<svg xmlns="http://www.w3.org/2000/svg" viewBox="0 0 512 512">
  <rect width="100%" height="100%" fill="#1c68f3"/>
  <path d="m256,511.43861c141.47371,0,256-114.52633,256-256C510.87721,115.08771,396.35088.56139,256,.56139S0,115.08771,0,256.56139c0,140.35088,114.52632,254.87721,256,254.87721Z" fill="#1c68f3"/>
  <path d="m330.10527,303.7193c-16.84211,23.57895-43.78947,39.29825-75.22806,39.29825s-59.50877-15.71929-75.22808-39.29825h150.45614Z" fill="#fff" fill-rule="evenodd"/>
  <path d="m360.42096,304.84199c-19.0874,38.17578-59.50879,64-105.54395,64-56.14014,0-103.29785-38.17529-114.52637-89.82422h269.47412v-85.3335H98.80719v181.89453c0,16.84229,14.59619,30.31592,31.43848,30.31592h249.26318c17.96484,0,31.43848-13.47363,31.43848-30.31592v-70.73682h-50.52637Zm-39.29834-90.94727c23.5791,0,43.78955,16.84229,48.28076,40.4209h-26.94727c-3.36816-8.98242-11.22803-15.71924-21.3335-15.71924s-17.96484,6.73682-21.33301,15.71924h-26.94775c3.36865-22.45605,23.5791-40.4209,48.28076-40.4209Zm-132.49121,0c23.5791,0,43.78955,16.84229,47.1582,40.4209h-25.82471c-3.36816-8.98242-11.22803-15.71924-21.3335-15.71924s-17.96484,6.73682-21.33301,15.71924h-26.94775c3.36865-22.45605,23.5791-40.4209,48.28076-40.4209Z" fill="#fff" fill-rule="evenodd"/>
  <path d="m378.38599,99.36842c16.84211,0,31.43859,13.47368,31.43859,30.31579v37.05263H98.80702v-37.05263c0-16.84211,13.47368-30.31579,31.4386-30.31579h248.14036Z" fill="#fff" fill-rule="evenodd"/>
</svg>
