<svg viewBox="0 0 32 32" fill="none" xmlns="http://www.w3.org/2000/svg">
  <path fill-rule="evenodd" clip-rule="evenodd"
    d="M6.89866 23.3736H20.3209C21.1187 23.3736 21.7257 22.4253 21.2664 21.7366L14.5637 10.0749C14.0741 9.23102 13.1455 8.65723 12.0819 8.65723C10.9676 8.65723 9.98831 9.29853 9.51557 10.2436L4.41683 19.0869C3.37853 20.9403 4.79413 23.3736 6.89866 23.3736Z"
    fill="#0043FF" />
  <path fill-rule="evenodd" clip-rule="evenodd"
    d="M17.4678 12.9611C16.6743 11.5941 17.147 9.83894 18.5145 9.04574C19.8821 8.25254 21.6379 8.72508 22.4314 10.0921L27.6146 19.0704C28.4082 20.4374 27.9354 22.1926 26.5678 22.9858C25.2003 23.779 23.4444 23.3064 22.6509 21.9394L17.4678 12.9611Z"
    fill="#0043FF" />
</svg>