<svg xmlns="http://www.w3.org/2000/svg" viewBox="0 0 512 512"><rect x="0" y="0" width="512" height="512" fill="#60beff"/><path d="m256,0C114.61426,0,0,114.61426,0,256s114.61426,256,256,256,256-114.61426,256-256S397.38568,0,256,0Z" fill="#60beff"/><path d="m171.82465,106.39415l171.60462,99.02988v101.01047L81.00011,154.91879l84.10466-48.52464c2.09697-1.1319,4.62291-1.1319,6.71988,0Z" fill="#3ca9e5"/><polygon points="343.42927 104.41355 255.92931 154.91879 343.42927 205.42402 343.42927 104.41355" fill="#2853c3"/><path d="m343.42927,104.41355l84.17541,48.52464c2.05736,1.25149,3.33667,3.46368,3.39531,5.87106v198.05975l-87.57071-50.4345V104.41355Z" fill="#1a4199"/><path d="m430.92926,356.93974l-84.10466,48.52464c-2.18858,1.26358-4.88498,1.26358-7.07356,0l-171.5339-99.02988v-101.15195l262.71211,151.65719Z" fill="#2853c3"/><path d="m81.00011,154.91879v198.05975c-.01446,2.48316,1.27422,4.79205,3.39531,6.08327l84.10466,48.52464v-202.3039l-87.49997-50.36377Z" fill="#fff"/><polygon points="168.50008 407.44498 255.92931 356.93974 168.50008 306.4345 168.50008 407.44498" fill="#3ca9e5"/></svg>