<svg xmlns="http://www.w3.org/2000/svg" viewBox="0 0 512 512">
  <defs>
    <clipPath id="c">
      <circle cx="256" cy="256" r="256" fill="none" stroke-width="0" />
    </clipPath>
  </defs>
  <g clip-path="url(#c)">
    <path
      d="M132.99888-6.40241h106.60097c-7.83271,18.41499-13.29888,37.54856-16.40015,57.40053-27.70314-4.99319-44.10329,5.94022-49.20045,32.8003-5.46699,2.73308-10.93316,5.46699-16.40015,8.20008v-32.8003h-24.60022c-8.13119,1.40697-13.59819-1.32636-16.40015-8.20008,22.19432-14.62287,27.66132-33.75635,16.40015-57.40053Z"
      fill="#1e1e1e"
      fill-rule="evenodd"
      stroke-width="0"
    />
    <path
      d="M91.9985-6.40241h41.00037c11.26117,23.64418,5.79417,42.77766-16.40015,57.40053h-49.20045c-4.54833-33.49009,3.65174-38.95684,24.60022-16.40015,11.73431-3.90857,22.66747-9.37523,32.8003-16.40015-7.30955-8.93456-15.50962-8.93456-24.60022,0-7.26281-6.76473-9.99589-14.96478-8.20007-24.60023Z"
      fill="#cbcbcb"
      fill-rule="evenodd"
      stroke-width="0"
    />
    <path
      d="M370.80105,59.19819v-24.60023c24.45589-3.79549,49.05612-6.52882,73.80067-8.20008v24.60023h-24.60022v73.80068h-24.60022c1.33907-19.32594-.02787-38.45999-4.10004-57.40053-5.5006-6.17006-12.33374-8.9034-20.50019-8.20008Z"
      fill="#e0d091"
      fill-rule="evenodd"
      stroke-width="0"
    />
    <path
      d="M379.00112-6.40241h139.40127v262.40241c-13.48012-1.75071-25.78023.98237-36.90034,8.20008-2.2829-7.50963-6.38294-12.97662-12.30011-16.40015h-41.00037v-90.20083h24.60022v-24.60023c-27.72117-.33211-55.05449,2.4018-82.00075,8.20008h-41.00037v41.00038h-24.60022v-32.8003h-24.60022c-10.61498-19.73758-24.28124-37.50468-41.00037-53.30049,23.6974,15.76301,51.03153,25.32921,82.00075,28.70026,11.73021-.64944,22.66338,2.08446,32.8003,8.20008,8.11071-24.08936,13.57768-48.68959,16.40015-73.80068,8.16645-.70332,14.99958,2.03001,20.50019,8.20008,4.07217,18.94054,5.43911,38.07459,4.10004,57.40053h24.60022V50.99812h24.60022v-24.60023c-24.74455,1.67126-49.34478,4.40459-73.80067,8.20008-4.45345-.49192-7.18655-3.22534-8.20007-8.20008,11.09633-8.39442,16.5625-19.32782,16.40015-32.8003Z"
      fill="#171716"
      fill-rule="evenodd"
      stroke-width="0"
    />
    <path
      d="M239.59985-6.40241h139.40127c.16235,13.47248-5.30382,24.40588-16.40015,32.8003,1.01353,4.97474,3.74663,7.70815,8.20007,8.20008v24.60023c-10.59287-14.39007-18.79294-30.79022-24.60022-49.20045-8.25175,3.58893-8.25175,9.05559,0,16.40015-13.66705,5.46674-27.33332,10.93341-41.00037,16.40015,6.34603,9.93177,13.17917,9.93177,20.50019,0,17.76709,12.30011,16.40015,21.86689-4.10004,28.70026,8.62893,14.07543,3.16196,22.27551-16.40015,24.60023,19.99669,4.37392,25.46289,13.94013,16.40015,28.70026-30.96921-3.37105-58.30335-12.93726-82.00075-28.70026,16.71914,15.79581,30.38539,33.56291,41.00037,53.30049-5.34235,4.84296-10.80933,10.30995-16.40015,16.40015-10.13694-6.11562-21.07009-8.84953-32.8003-8.20008v-32.8003c-1.81549-10.12546-7.28248-18.32553-16.40015-24.60023,13.05124-14.14431,10.31816-22.34472-8.20007-24.60023,8.6191-5.92333,14.08609-14.1234,16.40015-24.60023,3.10127-19.85197,8.56744-38.98554,16.40015-57.40053Z"
      fill="#c7c7c6"
      fill-rule="evenodd"
      stroke-width="0"
    />
    <path
      d="M59.1982-6.40241h32.8003c-1.79582,9.63545.93727,17.83549,8.20007,24.60023,9.0906-8.93456,17.29068-8.93456,24.60022,0-10.13283,7.02492-21.06599,12.49158-32.8003,16.40015-20.94849-22.55669-29.14856-17.08994-24.60022,16.40015h49.20045c2.80196,6.87371,8.26896,9.60704,16.40015,8.20008v32.8003c-16.62401-1.32923-33.02416.0369-49.20045,4.10004,7.77367,3.95899,15.97375,5.32595,24.60022,4.10004-25.81138,17.79826-53.14477,17.79826-82.00075,0C35.2808,63.93619,46.21421,28.40256,59.1982-6.40241Z"
      fill="#777674"
      fill-rule="evenodd"
      stroke-width="0"
    />
    <path
      d="M91.9985,67.39827c12.11807-2.14858,23.05205.58475,32.8003,8.20008-12.91102,9.27347-26.57809,10.63959-41.00037,4.10004,4.55924-3.13718,7.29233-7.23722,8.20007-12.30011Z"
      fill="#f4ecb8"
      fill-rule="evenodd"
      stroke-width="0"
    />
    <path
      d="M370.80105,59.19819c-2.82247,25.11109-8.28944,49.71131-16.40015,73.80068-10.13692-6.11562-21.07009-8.84952-32.8003-8.20008,9.06274-14.76014,3.59654-24.32635-16.40015-28.70026,19.56211-2.32472,25.02908-10.52479,16.40015-24.60023,20.50019-6.83337,21.86713-16.40015,4.10004-28.70026-7.32102,9.93177-14.15416,9.93177-20.50019,0,13.66705-5.46674,27.33332-10.93341,41.00037-16.40015-8.25175-7.34456-8.25175-12.81122,0-16.40015,5.80728,18.41024,14.00736,34.81039,24.60022,49.20045Z"
      fill="#666"
      fill-rule="evenodd"
      stroke-width="0"
    />
    <path
      d="M173.99925,83.79842v32.8003c-5.46699,0-8.20007,2.73308-8.20007,8.20008-7.66297-8.7544-10.39605-19.68838-8.20007-32.8003,5.46699-2.73308,10.93316-5.46699,16.40015-8.20008Z"
      fill="#77745d"
      fill-rule="evenodd"
      stroke-width="0"
    />
    <path
      d="M26.3979,100.19857c28.85598,17.79826,56.18937,17.79826,82.00075,0,7.41287,5.81385,10.14595,14.01393,8.20007,24.60023h-24.60022v32.8003H1.79768c-4.27161-25.71789,3.92847-44.85113,24.60022-57.40053Z"
      fill="#dcdbd3"
      fill-rule="evenodd"
      stroke-width="0"
    />
    <path
      d="M132.99888,59.19819h24.60022v32.8003c-2.19597,13.11192.53711,24.0459,8.20007,32.8003v24.60023h-32.8003V59.19819Z"
      fill="#dfd6a3"
      fill-rule="evenodd"
      stroke-width="0"
    />
    <path
      d="M206.79955,75.59834c18.51824,2.25551,21.25132,10.45591,8.20007,24.60023,9.11767,6.27469,14.58466,14.47477,16.40015,24.60023-10.84132,1.39401-20.40753-1.33989-28.70026-8.20008-6.39278-15.47272-5.02582-29.13979,4.10004-41.00038Z"
      fill="#242422"
      fill-rule="evenodd"
      stroke-width="0"
    />
    <path
      d="M223.1997,50.99812c-2.31406,10.47683-7.78105,18.6769-16.40015,24.60023-9.12586,11.86059-10.49282,25.52766-4.10004,41.00038,8.29273,6.86019,17.85895,9.59409,28.70026,8.20008v16.40015c-27.91633,12.00409-47.04957,3.80401-57.40052-24.60023v-32.8003c5.09716-26.86008,21.49731-37.79349,49.20045-32.8003Z"
      fill="#d9cd96"
      fill-rule="evenodd"
      stroke-width="0"
    />
    <path
      d="M132.99888,91.99849v57.40053h32.8003v-24.60023c0-5.46699,2.73308-8.20008,8.20007-8.20008,10.35096,28.40424,29.48419,36.60431,57.40052,24.60023v16.40015c-25.48747-1.02829-41.88762,9.90486-49.20045,32.8003-5.46699-8.20008-10.93316-16.40015-16.40015-24.60023h-24.60022c4.27142,32.64368,7.00451,65.44398,8.20007,98.4009,10.5863,1.94589,18.78637-.78721,24.60022-8.20008,5.46699-5.46699,10.93316-10.93316,16.40015-16.40015,29.99834,22.79048,58.6986,20.05656,86.10079-8.20008,2.2829,7.50963,6.38294,12.97662,12.30011,16.40015v57.40053h-8.20007c-13.89665,4.1935-27.56374,9.66051-41.00037,16.40015,17.98604,15.43254,12.51905,19.53258-16.40015,12.30011-10.93316-10.93317-10.93316-21.86713,0-32.8003,19.68427-1.52356,38.81751-5.6236,57.40052-12.30011-30.34191-23.22506-59.04217-20.49118-86.10079,8.20008-5.55638,17.20047-4.18942,33.60062,4.10004,49.20045-5.46699,8.20008-10.93316,16.40015-16.40015,24.60023v-90.20083h-24.60022c-18.33044-2.41657-34.7306.31653-49.20045,8.20008h-24.60022v-16.40015c14.39933-8.62731,19.86632-22.29436,16.40015-41.00038h32.8003v-24.60023c-54.66719-2.73308-54.66719-5.46699,0-8.20008v-24.60023h-65.6006c-21.86689-5.46699-43.7337-10.93316-65.6006-16.40015h90.20082v-32.8003h24.60022c1.94588-10.5863-.7872-18.78638-8.20007-24.60023-8.62648,1.22591-16.82655-.14105-24.60022-4.10004,16.17629-4.06313,32.57644-5.42927,49.20045-4.10004Z"
      fill="#21201d"
      fill-rule="evenodd"
      stroke-width="0"
    />
    <path
      d="M-6.40239-6.40241H59.1982c-12.984,34.80497-23.9174,70.3386-32.8003,106.60098C5.72615,112.74797-2.47393,131.88121,1.79768,157.5991c21.86689,5.46699,43.73371,10.93316,65.6006,16.40015-4.83337,36.66007.6333,69.46037,16.40015,98.4009v16.40015c-1.67036,28.02375-1.67036,58.09099,0,90.20083h24.60022c-17.47436,6.67323-36.60817,10.77327-57.40052,12.30011,4.55892,3.13734,7.29224,7.23738,8.20007,12.30011-7.43468,17.68592-12.90134,36.81998-16.40015,57.40053-1.4278,19.36038-4.16113,38.49444-8.20007,57.40053H-6.40239V-6.40241Z"
      fill="#0c0c0b"
      fill-rule="evenodd"
      stroke-width="0"
    />
    <path
      d="M370.80105,141.19894v24.60023h-8.20007c-2.63387-12.69453-10.83395-18.16153-24.60022-16.40015,2.19597,13.11193-.53709,24.0459-8.20007,32.8003v-41.00038h41.00037Z"
      fill="#776d4d"
      fill-rule="evenodd"
      stroke-width="0"
    />
    <path
      d="M362.60097,165.79917h41.00037v49.20045c-10.93317-2.73308-21.86713-5.46699-32.8003-8.20008-6.56581-12.64287-9.29888-26.30994-8.20007-41.00038Z"
      fill="#1e1d1b"
      fill-rule="evenodd"
      stroke-width="0"
    />
    <path
      d="M428.20157,231.39977c-13.76627,1.76138-21.96635-3.70562-24.60022-16.40015v-49.20045h-32.8003v-24.60023c26.94625-5.79827,54.27958-8.53218,82.00075-8.20008v24.60023h-24.60022v73.80068Z"
      fill="#deca82"
      fill-rule="evenodd"
      stroke-width="0"
    />
    <path
      d="M67.39828,173.99925h65.6006v24.60023c-54.66719,2.73308-54.66719,5.46699,0,8.20008v24.60023h-32.8003c3.46617,18.70602-2.00082,32.37307-16.40015,41.00038-15.76685-28.94053-21.23352-61.74083-16.40015-98.4009Z"
      fill="#d2c287"
      fill-rule="evenodd"
      stroke-width="0"
    />
    <path
      d="M165.79918,165.79917c5.46699,8.20008,10.93316,16.40015,16.40015,24.60023-1.43255,17.39072,1.30053,33.79087,8.20007,49.20045-5.46699,5.46699-10.93316,10.93316-16.40015,16.40015-1.84009-30.16644-4.574-60.23366-8.20007-90.20083Z"
      fill="#605d4a"
      fill-rule="evenodd"
      stroke-width="0"
    />
    <path
      d="M165.79918,165.79917c3.62607,29.96717,6.35998,60.03439,8.20007,90.20083-5.81385,7.41286-14.01392,10.14596-24.60022,8.20008-1.19557-32.95692-3.92865-65.75723-8.20007-98.4009h24.60022Z"
      fill="#e0d293"
      fill-rule="evenodd"
      stroke-width="0"
    />
    <path
      d="M280.60022,149.39902h24.60022v32.8003h24.60022c7.66298-8.7544,10.39605-19.68837,8.20007-32.8003,13.76627-1.76138,21.96635,3.70562,24.60022,16.40015-1.0988,14.69044,1.63427,28.3575,8.20007,41.00038v16.40015c-5.60392,13.74743-16.53791,19.21442-32.8003,16.40015v-32.8003h-24.60022v41.00038h-24.60022c-5.91717-3.42353-10.01721-8.89052-12.30011-16.40015-27.40219,28.25664-56.10245,30.99055-86.10079,8.20008-6.89954-15.40958-9.63263-31.80973-8.20007-49.20045,7.31283-22.89544,23.71298-33.8286,49.20045-32.8003,11.73021-.64945,22.66336,2.08446,32.8003,8.20008,5.59082-6.0902,11.0578-11.55719,16.40015-16.40015Z"
      fill="#dfcf91"
      fill-rule="evenodd"
      stroke-width="0"
    />
    <path
      d="M214.99963,182.19932c58.72811.92497,61.46121,9.12505,8.20007,24.60023,7.18326,6.15661,15.38334,10.25665,24.60022,12.30011-38.88803,16.92823-49.8212,4.62812-32.8003-36.90034Z"
      fill="#33312a"
      fill-rule="evenodd"
      stroke-width="0"
    />
    <path
      d="M370.80105,206.79955c10.93317,2.73308,21.86713,5.46699,32.8003,8.20008,2.63387,12.69453,10.83395,18.16153,24.60022,16.40015v16.40015c-11.96143-.55268-22.89542,2.1804-32.8003,8.20008-8.2952-11.24805-16.49527-22.1812-24.60022-32.8003v-16.40015Z"
      fill="#696967"
      fill-rule="evenodd"
      stroke-width="0"
    />
    <path
      d="M370.80105,223.1997c8.10495,10.6191,16.30502,21.55226,24.60022,32.8003h-49.20045v41.00038h-32.8003v-32.8003h-24.60022v-16.40015h24.60022v-41.00038h24.60022v32.8003c16.26239,2.81427,27.19637-2.65272,32.8003-16.40015Z"
      fill="#ebeae6"
      fill-rule="evenodd"
      stroke-width="0"
    />
    <path
      d="M469.20195,247.79992c5.91717,3.42353,10.01721,8.89052,12.30011,16.40015,11.12011-7.2177,23.42022-9.95078,36.90034-8.20008v262.40241h-229.6021v-24.60023c32.26236-3.92702,62.3296,1.53999,90.20082,16.40015,10.13692-6.11562,21.07009-8.84953,32.8003-8.20008v-155.80143h32.8003v-73.80068h24.60022v-24.60023Z"
      fill="#141414"
      fill-rule="evenodd"
      stroke-width="0"
    />
    <path
      d="M108.39865,288.8003c14.46985-7.88354,30.87001-10.61664,49.20045-8.20008v41.00038c-5.46699-5.46698-10.93316-10.93317-16.40015-16.40015-5.60392-13.74741-16.53791-19.21442-32.8003-16.40015Z"
      fill="#827147"
      fill-rule="evenodd"
      stroke-width="0"
    />
    <path
      d="M428.20157,247.79992h41.00037v24.60023h-24.60022c-7.97948,20.07296-10.71258,41.94011-8.20007,65.6006-10.5863,1.94589-18.78637-.78721-24.60022-8.20008v-49.20045h-32.8003v73.80068c-24.60022,2.7331-35.5334-8.20008-32.8003-32.8003h-24.60022v24.60023c-5.81385,7.41286-14.01392,10.14596-24.60022,8.20008,2.41657-18.33046-.31653-34.73061-8.20007-49.20045v-41.00038h24.60022v32.8003h32.8003v-41.00038h49.20045c9.90488-6.01968,20.83886-8.75276,32.8003-8.20008Z"
      fill="#dcc88b"
      fill-rule="evenodd"
      stroke-width="0"
    />
    <path
      d="M83.79843,288.8003h24.60022c16.26239-2.81427,27.19637,2.65274,32.8003,16.40015-43.73346,5.46698-43.73346,10.93317,0,16.40015v24.60023h-32.8003v32.8003h-24.60022c-1.67036-32.10984-1.67036-62.17708,0-90.20083Z"
      fill="#d6b96c"
      fill-rule="evenodd"
      stroke-width="0"
    />
    <path
      d="M280.60022,305.20045v41.00038c-27.99915,31.92125-55.33247,31.92125-82.00075,0-8.28946-15.59983-9.65642-31.99998-4.10004-49.20045,27.05861-28.69125,55.75888-31.42513,86.10079-8.20008-18.58302,6.67651-37.71625,10.77655-57.40052,12.30011-10.93316,10.93317-10.93316,21.86713,0,32.8003,28.9192,7.23247,34.38619,3.13243,16.40015-12.30011,13.43664-6.73964,27.10372-12.20665,41.00037-16.40015Z"
      fill="#cbb372"
      fill-rule="evenodd"
      stroke-width="0"
    />
    <path
      d="M157.5991,280.60023h24.60022v90.20083h-24.60022v-90.20083Z"
      fill="#d5b96e"
      fill-rule="evenodd"
      stroke-width="0"
    />
    <path
      d="M141.19895,305.20045c5.46699,5.46698,10.93316,10.93317,16.40015,16.40015v49.20045h24.60022c5.46699-8.20008,10.93316-16.40015,16.40015-24.60023,26.66828,31.92125,54.0016,31.92125,82.00075,0,13.73102,24.65925,19.19803,51.99258,16.40015,82.00075h-8.20007c2.33865-14.66172-.39442-28.3288-8.20007-41.00038-6.06478,27.35791-11.53095,54.69123-16.40015,82.00075-20.24434,5.47846-39.37757,10.94465-57.40052,16.40015h-49.20045c2.66994-35.94831-.06395-71.48171-8.20007-106.60098-7.91798,15.54734-10.65108,31.94749-8.20007,49.20045-7.93932,17.28083-10.67321,36.41408-8.20007,57.40053-5.45551-18.02294-10.92168-37.15618-16.40015-57.40053-8.03607,21.20948-10.76998,43.07583-8.20007,65.6006h-41.00037c.631-30.46165-2.10234-60.52886-8.20007-90.20083-.90783-5.06274-3.64116-9.16277-8.20007-12.30011,20.79236-1.52685,39.92617-5.62689,57.40052-12.30011v-32.8003h32.8003v-24.60023c-43.73346-5.46698-43.73346-10.93317,0-16.40015Z"
      fill="#060605"
      fill-rule="evenodd"
      stroke-width="0"
    />
    <path
      d="M411.80142,329.80068c-9.54653,56.56495-17.7466,111.23157-24.60022,164.00151-14.1886-4.30996-25.12258-12.51004-32.8003-24.60023,17.36119-34.2435,20.09429-69.7769,8.20007-106.60098-13.88192,14.58464-30.28207,18.68468-49.20045,12.30011,10.93317-5.46698,21.86713-10.93317,32.8003-16.40015-6.09922-8.51661-14.2993-12.61664-24.60022-12.30011v-24.60023h24.60022c-2.7331,24.60023,8.20007,35.5334,32.8003,32.8003v-73.80068h32.8003v49.20045Z"
      fill="#dfdfdf"
      fill-rule="evenodd"
      stroke-width="0"
    />
    <path
      d="M59.1982,403.60136c6.09774,29.67197,8.83107,59.73917,8.20007,90.20083-12.11881-7.76956-20.31888-18.70354-24.60022-32.8003,3.49881-20.58055,8.96547-39.71461,16.40015-57.40053Z"
      fill="#5b5b5b"
      fill-rule="evenodd"
      stroke-width="0"
    />
    <path
      d="M444.60172,272.40015v73.80068h-32.8003v155.80143c-11.73021-.64945-22.66338,2.08446-32.8003,8.20008-27.87123-14.86017-57.93846-20.32717-90.20082-16.40015v24.60023h-24.60022c1.81551-10.12544,7.28248-18.32552,16.40015-24.60023-24.01064-8.0697-48.61087-10.80279-73.80067-8.20008,18.02295-5.4555,37.15618-10.92169,57.40052-16.40015,4.8692-27.30952,10.33537-54.64284,16.40015-82.00075,7.80566,12.67157,10.53872,26.33866,8.20007,41.00038-9.12586,11.86059-10.4928,25.52764-4.10004,41.00038,19.68757,9.03893,40.18776,10.4059,61.50056,4.10004-12.30749-10.26239-25.97373-18.46246-41.00037-24.60023-6.16973-5.5006-8.90364-12.33374-8.20007-20.50019,2.79788-30.00818-2.66913-57.3415-16.40015-82.00075v-41.00038h8.20007c7.88354,14.46984,10.61664,30.86999,8.20007,49.20045,10.5863,1.94589,18.78637-.78721,24.60022-8.20008,10.30092-.31653,18.501,3.78351,24.60022,12.30011-10.93317,5.46698-21.86713,10.93317-32.8003,16.40015,18.91838,6.38457,35.31853,2.28453,49.20045-12.30011,11.89421,36.82408,9.16111,72.35748-8.20007,106.60098,7.67772,12.09019,18.6117,20.29026,32.8003,24.60023,6.85362-52.76994,15.0537-107.43655,24.60022-164.00151,5.81385,7.41286,14.01392,10.14596,24.60022,8.20008-2.51251-23.66049.22059-45.52765,8.20007-65.6006Z"
      fill="#7b7a77"
      fill-rule="evenodd"
      stroke-width="0"
    />
    <path
      d="M288.8003,428.20158h8.20007c-.70357,8.16645,2.03034,14.99958,8.20007,20.50019,15.02664,6.13776,28.69288,14.33784,41.00037,24.60023-21.3128,6.30587-41.81299,4.9389-61.50056-4.10004-6.39276-15.47274-5.02582-29.13979,4.10004-41.00038Z"
      fill="#353535"
      fill-rule="evenodd"
      stroke-width="0"
    />
    <path
      d="M157.5991,485.60211c-7.85896,3.713-14.69208,9.17998-20.50019,16.40015-20.97743.12628-41.47762-2.60682-61.50056-8.20008h32.8003c-2.56991-22.52478.16401-44.39112,8.20007-65.6006,5.47847,20.24434,10.94464,39.37759,16.40015,57.40053,12.24353-6.65928,17.71052-17.59326,16.40015-32.8003-.15991-10.05412-2.8938-18.2542-8.20007-24.60023-2.45101-17.25296.28209-33.65311,8.20007-49.20045,8.13612,35.11927,10.87002,70.65267,8.20007,106.60098Z"
      fill="#646464"
      fill-rule="evenodd"
      stroke-width="0"
    />
    <path
      d="M141.19895,428.20158c5.30627,6.34603,8.04017,14.54611,8.20007,24.60023,1.31037,15.20704-4.15662,26.14102-16.40015,32.8003-2.47314-20.98645.26076-40.1197,8.20007-57.40053Z"
      fill="#c2c2c2"
      fill-rule="evenodd"
      stroke-width="0"
    />
    <path
      d="M42.79805,461.00188c4.28134,14.09676,12.48142,25.03074,24.60022,32.8003h8.20007c20.02294,5.59326,40.52313,8.32636,61.50056,8.20008,5.80811-7.22017,12.64123-12.68715,20.50019-16.40015h49.20045c25.18981-2.60272,49.79003.13038,73.80067,8.20008-9.11767,6.27471-14.58464,14.47479-16.40015,24.60023H34.59798c4.03895-18.90609,6.77228-38.04015,8.20007-57.40053Z"
      fill="#cacac9"
      fill-rule="evenodd"
      stroke-width="0"
    />
  </g>
</svg>
