<svg xmlns="http://www.w3.org/2000/svg" viewBox="0 0 512 512"><rect x="0" y="0" width="512" height="512" fill="#000"/><path d="m207.95813,254.76068c-.00574-11.49525.23562-22.99729-.08563-34.48355-.23748-8.49082,2.97016-12.59703,11.8674-12.51504,24.26568.22365,48.53596.21479,72.80184.0024,8.66768-.07586,12.18445,3.48523,12.07006,12.24928-.31662,24.26363-.25744,48.53543-.02979,72.80104.07459,7.95033-2.76066,11.77119-11.12832,11.6957-24.69146-.22277-49.38809-.24826-74.07869.01883-8.26785.08945-11.5752-3.46057-11.46029-11.45193.18361-12.76984.04914-25.54424.04342-38.31672Z" fill="#fff"/><path d="m159.07479,207.80908c-12.34741-.00311-24.69804-.17227-37.04098.06254-7.01282.13344-10.01365-2.79246-9.97088-9.83904.15508-25.54535-.24664-51.10116.48096-76.62682.08966-3.14579,5.64808-8.69956,8.7962-8.7893,25.52572-.72749,51.08177-.3125,76.62687-.49054,7.00906-.04884,10.01213,2.79494,9.97045,9.84147-.14857,25.11969-.19373,50.24211.03521,75.36062.06945,7.61951-2.88566,10.77568-10.58059,10.57484-12.76451-.33316-25.54404-.09068-38.31725-.09379Z" fill="#fff"/><path d="m353.11828,400.46273c-12.3623-.00465-24.72758-.16941-37.08578.05555-7.73047.14066-11.80957-2.25492-11.67889-10.97352.37053-24.71906.34205-49.45004.0175-74.17035-.11145-8.48789,3.47859-11.1251,11.51086-11.02852,24.29479.29223,48.60037.3868,72.89111-.04223,9.15176-.1616,11.92449,3.77732,11.83973,12.21678-.23977,23.86963-.3498,47.74768.05082,71.61303.16137,9.61258-3.88723,12.81348-13.02063,12.44551-11.49109-.46293-23.015-.1116-34.52473-.11625Z" fill="#fff"/><path d="m304.47965,159.99998c0-11.92659.35707-23.86749-.11959-35.775-.345-8.61808,2.49703-12.3416,11.62719-12.18419,24.27193.41847,48.5608.42378,72.83244-.00287,9.12746-.16044,11.89945,3.71528,11.80574,12.18336-.26391,23.85024-.26391,47.70722,0,71.55747.09371,8.46805-2.67836,12.34381-11.80578,12.18334-24.27164-.42664-48.56051-.42131-72.83242-.00285-9.1302.1574-11.97217-3.56619-11.62719-12.18424.47668-11.90752.11961-23.84842.11961-35.77502Z" fill="#fff"/><path d="m112.11334,352.15598c.00432-12.35367.18955-24.71117-.06478-37.05961-.15392-7.47275,2.69099-10.81467,10.48822-10.73602,25.13083.25354,50.26647.19979,75.39874.03377,7.02816-.04641,10.02553,2.89469,9.99072,9.89498-.12498,25.13273-.19109,50.26793.0526,75.39898.07363,7.59543-2.91855,10.85707-10.51488,10.8118-24.70643-.14738-49.41568-.19523-74.12089.03594-8.09726.07574-11.60147-3.01488-11.33614-11.32199.39418-12.34113.1021-24.70414.10641-37.05785Z" fill="#fff"/></svg>