<svg xmlns="http://www.w3.org/2000/svg" viewBox="0 0 512 512">
  <rect width="512" height="512" fill="#fff" />
  <g transform="translate(51.2, 51.2) scale(0.8)">
    <path
      d="m256,36.57141c-121.14286,0-219.42858,98.28572-219.42858,219.42859s98.28572,219.42858,219.42858,219.42858h131.4286c-38.85714,22.85714-83.42856,36.57144-131.42857,36.57144-141.71431-.00004-256.00002-115.4286-256.00002-256.00004C0,114.28569,114.28572-.00002,256-.00002s256,114.28572,256,256c0,12.57143-1.14284,25.14287-2.28572,36.57144h-36.57144c2.28572-11.42857,3.42856-24,3.42856-36.57144-1.14284-121.14285-99.42854-219.42857-220.5714-219.42857Z"
      fill="#06070a" fill-rule="evenodd" stroke-width="0" />
    <path
      d="m466.28571,402.28571c-9.14285,12.57141-20.57142,25.14287-31.99999,36.57144h-178.28572c-100.57143,0-182.85715-82.28572-182.85715-182.85715s82.28571-182.85715,182.85715-182.85715,182.85717,82.28571,182.85717,182.85715c0,12.57143-1.14284,25.14287-3.42856,36.57144h-37.71428c3.42856-11.42857,4.57145-24,4.57145-36.57144,0-81.14286-65.14287-146.28572-146.28571-146.28572s-146.28572,65.14286-146.28572,146.28572,65.14286,146.28571,146.28572,146.28571h210.28565Z"
      fill="#06070a" fill-rule="evenodd" stroke-width="0" />
    <path
      d="m486.85713,365.71427h0c5.71429-11.42857,10.28573-24,13.71429-36.57144h-245.71425c-40,0-73.14285-33.14285-73.14285-73.14285s33.14285-73.14285,73.14285-73.14285,73.14285,33.14285,73.14285,73.14285c0,13.71429-3.42856,26.28571-10.28571,36.57144h40c4.57142-11.42857,5.71429-24,5.71429-36.57144,0-60.57144-49.14285-109.71429-109.71429-109.71429s-109.71429,49.14285-109.71429,109.71429,49.14285,109.71429,109.71429,109.71429h233.14281Z"
      fill="#06070a" fill-rule="evenodd" stroke-width="0" />
  </g>
</svg>