<svg xmlns="http://www.w3.org/2000/svg" viewBox="0 0 294 294">
  <rect width="294" height="294" fill="#001f7b" />
  <g transform="translate(29.4, 29.4) scale(0.8)">
    <circle cx="147" cy="147" r="142.5" fill="#fff" />
    <linearGradient id="g1" x1="38.457" x2="273.578" y1="186.006" y2="100.918" gradientUnits="userSpaceOnUse">
      <stop offset="0" stop-color="#01207b" />
      <stop offset=".963" stop-color="#00cff6" />
    </linearGradient>
    <path fill="url(#g1)"
      d="M179.2 268.1c5.9 3.5 18.3-2.7 21.4-4.1 11.3-4.9 25.1-13.6 37.5-26.1 52.3-52.3 50.4-138.4-5.8-188.1-47-41.6-117.9-43.2-167-2.8C49.9 59.6 36 77.9 28.7 95.7c-3.1 7.6-5 15.8 2.5 20.4 5.2 3.2 12 1.9 16.3-2.4l17.9-17.8c5.8-5.8 15.8-5 20.4 2.6 3.2 5.2 1.8 12-2.5 16.3l-47 46.8c-5.8 5.8-5 15.8 2.5 20.4 5.2 3.2 12 1.9 16.3-2.4l10.2-10.1c5.8-5.8 15.8-5 20.4 2.6 3.2 5.2 1.8 12-2.5 16.3l-29.4 29.1c-5.8 5.8-5 15.8 2.5 20.4 5.2 3.2 12 1.9 16.3-2.4l28.6-28.4c11.5-11.4 14.6-28.8 7.9-43.5-5.2-11.4-5.3-24.8.6-35.9 15.3-28.4 53.4-29.7 71-4.2 8.8 12.7 9.6 29.9 1.8 43.3-6.6 11.3-72.1 73.7-72.1 73.7-5.8 5.8-5 15.8 2.5 20.4 5.2 3.2 12 1.9 16.3-2.4L196 192c5.8-5.8 15.8-5 20.4 2.6 3.2 5.2 1.8 12-2.5 16.3l-37.4 37.3c-5.6 5.4-4.9 15.4 2.7 19.9M122 145.9c.5-13.8 12.1-24.5 25.9-23.9 13.8.5 24.5 12.1 23.9 25.9-.5 13.8-12.1 24.5-25.9 23.9-13.7-.6-24.4-12.1-23.9-25.9" />
  </g>
</svg>