<svg xmlns="http://www.w3.org/2000/svg" viewBox="0 0 92 92">
  <rect width="92" height="92" fill="#fff"/>
  <g transform="translate(18.4, 18.4) scale(0.6) translate(0 32.66)">
    <path fill="#000" fill-rule="evenodd" d="M89.6424,26.68L71.2022,25.3529L70.9829,2.02273L92,0.137284L89.6424,26.68ZM78.0556,6.11397L78.1653,21.4813L81.6925,21.5911L83.0175,4.89668L78.0556,6.11397ZM58.4001,10.0954L69,8.31977L69.1096,25.243L58.2904,25.5725L58.4001,10.0954ZM58.9483,8.54858L58.2904,3.34988L69,2.35224L68.3329,6.99265L58.9483,8.54858ZM39.7588,1.69325L50.4319,3.45968L48.778,19.4951L56.6182,19.9345L56.6182,25.4261L39.7224,24.6572L39.7588,1.69325ZM30.3742,18.168C30.4206,18.122,30.4469,18.0595,30.4473,17.9941C30.4473,17.9392,30.3834,17.7104,30.3834,17.7104C30.4043,17.4173,30.4627,17.1282,30.557,16.8501C31.3082,16.6991,32.011,16.366,32.6039,15.8799C32.4246,15.8517,32.255,15.7793,32.1105,15.6694C32.4174,15.6872,32.7254,15.6595,33.0242,15.587C33.6782,14.9698,34.1897,14.217,34.5229,13.3812C31.7815,13.4361,30.7398,12.2096,30.7398,12.2096L30.5661,11.8893C31.2508,11.6777,31.8022,11.1658,32.0648,10.4981C32.0999,10.286,32.0999,10.0695,32.0648,9.85741C32.0648,9.35402,31.6262,7.72485,31.6262,7.72485C32.0987,7.02144,32.2699,6.15766,32.1014,5.32685C32.0009,4.98821,31.9094,4.76856,31.7084,4.77769C31.7084,4.77769,30.0728,5.79362,30.0728,5.79362C29.2534,5.40976,28.3062,5.40976,27.4867,5.79362L25.8693,4.78682C25.5952,4.68616,25.3576,5.31767,25.3576,5.31767C25.0663,6.14394,25.2408,7.06329,25.8145,7.72482C25.6351,8.41448,25.4978,9.11442,25.4033,9.82079C25.3833,10.0492,25.4081,10.2793,25.4764,10.4981C25.6774,11.3676,26.8928,11.8893,26.8928,11.8893L26.7923,12.2371C26.2642,13.3025,26.0427,14.4942,26.1526,15.6785C26.1638,16.1353,26.3954,16.5583,26.774,16.8134C26.8471,16.8683,26.5912,16.5571,26.6552,16.4931C26.7191,16.429,26.8379,16.5937,26.8653,16.6029C26.8927,16.612,26.975,16.8134,26.975,16.8134C27.2034,17.4999,27.0481,17.7287,27.0481,17.7287C26.8928,17.9941,27.0481,18.2412,27.1121,18.2229L26.4907,23.2661L19.3632,24.1813L21.9035,4.16445L37.1363,2.50782L38.0501,24.6298L30.3286,23.5864L30.3742,18.168ZM10.2709,19.248L10.4902,25.4353L1.5443,26.6525L0,0L18.3305,1.99527L18.2209,17.9209L10.2709,19.248ZM11.3766,4.64954L8.2789,4.3109L9.6039,14.4886L11.4863,14.3788L11.3766,4.64954ZM28.4462,16.9233C28.6226,16.9345,28.7996,16.9345,28.9762,16.9233C28.9762,17.1978,29.0401,17.5914,29.095,17.8385L28.3274,17.7653C28.3822,17.4999,28.4371,16.9507,28.4371,16.9507L28.4462,16.9233Z"/>
  </g>
</svg>
