<svg version="1.1" xmlns="http://www.w3.org/2000/svg" width="447" height="447">
  <style>
    .bg {
      fill: #1fc7d5;
    }
  </style>
  <rect class="bg" width="447" height="447" />
  <g transform="translate(89.4, 89.4) scale(0.6)">
    <path
      d="M0 0 C147.51 0 295.02 0 447 0 C447 147.51 447 295.02 447 447 C299.49 447 151.98 447 0 447 C0 299.49 0 151.98 0 0 Z "
      fill="#D0874E" />
    <path
      d="M0 0 C147.51 0 295.02 0 447 0 C447 147.51 447 295.02 447 447 C299.49 447 151.98 447 0 447 C0 299.49 0 151.98 0 0 Z M271.76171875 33.6953125 C265.68815554 41.64077214 264.84827593 49.00344003 264.88647461 58.74731445 C264.88625557 60.21144524 264.88625557 60.21144524 264.8860321 61.70515442 C264.88672758 64.9245528 264.8945029 68.143893 264.90234375 71.36328125 C264.90420923 73.59815947 264.90563252 75.8330381 264.90663147 78.06791687 C264.91044643 83.94513074 264.92026802 89.82231983 264.93133545 95.69952393 C264.94157151 101.69876775 264.9461338 107.69801558 264.95117188 113.69726562 C264.96189118 125.46485463 264.97895537 137.23242525 265 149 C264.08403549 148.75885216 264.08403549 148.75885216 263.14956665 148.51283264 C258.66790435 147.44362052 253.96274658 147.59723131 249.375 147.4375 C248.19728027 147.3964917 247.01956055 147.3554834 245.80615234 147.31323242 C236.79778857 147.03066068 227.79025426 146.86669246 218.77764893 146.82376099 C217.37719604 146.81643491 215.97675497 146.80592388 214.57635498 146.79171753 C205.97109873 146.71235158 197.52635285 147.15421956 188.96630859 148.0144043 C188.00323288 148.10875511 187.04015717 148.20310593 186.04789734 148.30031586 C183.69832202 148.53088166 181.3490507 148.76415945 179 149 C179.00666183 147.77970596 179.01332367 146.55941193 179.02018738 145.30213928 C179.08109549 133.78222953 179.12601925 122.26235261 179.15543652 110.74231815 C179.17106881 104.82024976 179.19226276 98.89831174 179.22631836 92.97631836 C179.25899842 87.25750389 179.27687133 81.53881454 179.28463173 75.81991386 C179.2901597 73.64191151 179.30095442 71.46391573 179.31719017 69.28596687 C179.33907913 66.22703566 179.34196211 63.16861652 179.34057617 60.10961914 C179.351362 59.21625351 179.36214783 58.32288788 179.3732605 57.40245056 C179.31723507 45.91785377 174.85355705 37.37332322 167.15234375 28.98828125 C158.24454568 20.55605351 147.78026242 17.57923815 135.79296875 17.7890625 C125.08784604 18.38440403 114.92426529 24.11458156 107.6015625 31.87109375 C99.4387712 42.7216334 97.81860737 53.80620712 99 67 C100.14734586 74.474692 101.8346129 81.84796375 103.43212891 89.23632812 C104.12967481 92.63109149 104.62676463 95.99958793 105.0625 99.4375 C105.70036296 104.35140726 106.6752056 109.11936763 107.8125 113.9375 C110.12623102 123.784053 111.64063804 133.75481843 113.16137695 143.74780273 C114.42612334 151.93191565 116.01395891 159.95980539 118 168 C117.25830566 168.13124268 116.51661133 168.26248535 115.75244141 168.39770508 C113.28791352 168.93699817 111.25675138 169.61869988 108.9609375 170.63671875 C108.22109619 170.96357666 107.48125488 171.29043457 106.71899414 171.62719727 C105.94547607 171.97709717 105.17195801 172.32699707 104.375 172.6875 C103.57247803 173.04835693 102.76995605 173.40921387 101.94311523 173.78100586 C83.05984263 182.36569502 66.09294853 193.75525023 51 208 C50.25105469 208.68449219 49.50210938 209.36898437 48.73046875 210.07421875 C32.23988265 225.69839928 20.38181322 247.63336039 19.7253418 270.60058594 C19.70570091 272.56176994 19.69741291 274.52309348 19.69921875 276.484375 C19.69493362 277.54303772 19.6906485 278.60170044 19.68623352 279.69244385 C19.680529 281.9176767 19.67996106 284.14292818 19.68432617 286.36816406 C19.68747893 289.72754603 19.66400168 293.08603939 19.63867188 296.4453125 C19.59157475 311.59718095 20.10227314 325.75539504 27.0625 339.5625 C27.45824219 340.36349121 27.85398437 341.16448242 28.26171875 341.98974609 C48.15219751 381.12176111 89.15701357 403.64676337 129.3203125 417.11328125 C132.53261024 418.13537599 135.75587985 419.08410368 139 420 C140.13824219 420.32742188 141.27648437 420.65484375 142.44921875 420.9921875 C150.82641967 423.25061784 159.23999898 424.79334936 167.8125 426.125 C168.83045654 426.28355469 169.84841309 426.44210937 170.8972168 426.60546875 C187.48988729 429.07575139 203.78861477 430.35558185 220.5625 430.25 C221.47720062 430.24623352 222.39190125 430.24246704 223.33432007 430.23858643 C253.74961112 430.0924306 282.74437661 426.78422713 312 418 C312.9178125 417.73058594 313.835625 417.46117187 314.78125 417.18359375 C341.49011369 408.81831762 366.7292536 396.2678175 388 378 C388.8559375 377.2678125 389.711875 376.535625 390.59375 375.78125 C411.39806531 357.54536868 424.9115819 334.59837728 427.8190918 306.80175781 C428.23509364 300.35906258 428.10025406 293.89059559 428.0625 287.4375 C428.0574746 285.93685045 428.05291353 284.43619928 428.04882812 282.93554688 C428.03790576 279.29033023 428.02069856 275.64517578 428 272 C427.34 272 426.68 272 426 272 C426.03480469 270.85724609 426.03480469 270.85724609 426.0703125 269.69140625 C426.08835937 268.65886719 426.10640625 267.62632812 426.125 266.5625 C426.15980469 265.04849609 426.15980469 265.04849609 426.1953125 263.50390625 C425.76614496 255.80464061 423.49479185 249.09598751 420.3125 242.125 C419.77967407 240.94828735 419.77967407 240.94828735 419.23608398 239.74780273 C401.88630956 202.22944721 365.70954655 181.14268795 329 166 C329.40494688 159.03212099 330.48528971 152.50457833 332.14575195 145.73071289 C333.02116139 141.90758297 333.74704701 138.07431584 334.4140625 134.2109375 C334.54208252 133.47764221 334.67010254 132.74434692 334.80200195 131.98883057 C335.73066087 126.6379796 336.62200639 121.28124483 337.5 115.921875 C337.62363922 115.16766266 337.74727844 114.41345032 337.87466431 113.63638306 C338.37713035 110.5672098 338.87921363 107.49799474 339.375 104.42773438 C340.77187444 95.79184918 342.33536582 87.28187766 344.37182617 78.76855469 C345.82177232 72.37819738 346.18154883 66.03438825 346.1875 59.5 C346.19974609 58.79230469 346.21199219 58.08460937 346.22460938 57.35546875 C346.25793871 45.20137134 341.34194469 35.79827013 333.1640625 27.0078125 C324.14316905 18.63824709 312.64930097 16.37500361 300.6875 16.65234375 C288.24161666 17.82573741 279.66939353 24.46710264 271.76171875 33.6953125 Z "
      fill="#643004" />
    <path class="bg"
      d="M0 0 C45.54 0 91.08 0 138 0 C138 147.51 138 295.02 138 447 C67.71 447 -2.58 447 -75 447 C-75 446.67 -75 446.34 -75 446 C-73.8346875 445.96261719 -72.669375 445.92523438 -71.46875 445.88671875 C-57.86006408 445.37137689 -44.480489 443.89718661 -31 442 C-29.62956543 441.81002441 -29.62956543 441.81002441 -28.23144531 441.61621094 C-25.67311037 441.25663579 -23.11752986 440.8822949 -20.5625 440.5 C-19.45539673 440.34072021 -19.45539673 440.34072021 -18.32592773 440.17822266 C-13.70099143 439.45351 -9.44228247 438.23590595 -5.02514648 436.69140625 C-2.62890015 435.87330262 -0.22187594 435.29412363 2.25 434.75 C33.19654421 427.21173923 63.01931167 412.77209488 88 393 C88.97066406 392.24589844 89.94132813 391.49179687 90.94140625 390.71484375 C95.87319772 386.80296017 100.32663008 382.86556895 104.33203125 378.00390625 C105.46943883 376.63741892 106.65784104 375.31219518 107.88671875 374.02734375 C114.18468789 367.40767088 118.48307582 359.87566267 123 352 C123.53109375 351.15050781 124.0621875 350.30101562 124.609375 349.42578125 C134.56466443 332.05995334 135.64017865 310.61895926 135.41162109 291.16040039 C135.37468017 287.9093531 135.37060649 284.65944053 135.37109375 281.40820312 C135.3612731 279.30207363 135.34962072 277.19595169 135.3359375 275.08984375 C135.33371185 274.13754379 135.33148621 273.18524384 135.32919312 272.2040863 C135.23755017 265.62781883 134.35450068 259.43046608 133 253 C132.73960937 251.74832031 132.47921875 250.49664062 132.2109375 249.20703125 C123.60884535 214.27610566 96.61267365 188.08654307 66.89550781 169.69775391 C58.21910053 164.51028311 49.26376276 160.0449649 40 156 C39.50032748 147.76011727 41.17108659 140.04305371 42.82015991 132.02178955 C43.65112121 127.9765383 44.45368527 123.92565602 45.2578125 119.875 C45.41450912 119.08864166 45.57120575 118.30228333 45.73265076 117.49209595 C46.98442967 111.17399196 48.07441129 104.84488672 49.00048828 98.47070312 C49.57926904 94.52521173 50.2598056 90.62557028 51.0625 86.71875 C54.40841814 70.27364174 57.34025644 52.76350154 50 37 C49.63777344 36.14535156 49.27554688 35.29070313 48.90234375 34.41015625 C42.93372032 21.27918471 32.14094859 10.2320998 18.64453125 4.7734375 C12.55036583 2.99109665 6.25976398 2.01385134 0 1 C0 0.67 0 0.34 0 0 Z "
      transform="translate(309,0)" />
    <path class="bg"
      d="M0 0 C44.22 0 88.44 0 134 0 C134 0.33 134 0.66 134 1 C133.39414063 1.10957031 132.78828125 1.21914063 132.1640625 1.33203125 C114.95548637 4.58842335 101.31157666 11.08992463 90.9609375 25.921875 C89.15364943 28.89044179 87.54407637 31.88727311 86 35 C85.34837891 36.22203125 85.34837891 36.22203125 84.68359375 37.46875 C78.58943337 50.88864323 81.63179239 67.97470683 84.57226562 81.90869141 C85.32104135 85.56965767 85.930935 89.2548591 86.5625 92.9375 C87.33651346 97.36718501 88.14184194 101.78560363 89.0625 106.1875 C89.8012472 109.77995614 90.33302176 113.36395668 90.8125 117 C91.47130138 121.87621018 92.31110514 126.67774731 93.2734375 131.50390625 C93.61991333 133.24317383 93.61991333 133.24317383 93.97338867 135.01757812 C94.44429941 137.35522732 94.92344871 139.69123409 95.41137695 142.02539062 C95.63011475 143.11142578 95.84885254 144.19746094 96.07421875 145.31640625 C96.37718872 146.77735718 96.37718872 146.77735718 96.6862793 148.26782227 C97.02139342 151.18631424 96.92457952 153.21245278 96 156 C93.58080875 157.52454694 91.40372376 158.66978642 88.8125 159.8125 C87.34097876 160.50600576 85.8709496 161.20268536 84.40234375 161.90234375 C83.29028564 162.42610596 83.29028564 162.42610596 82.15576172 162.96044922 C50.79623274 178.08263205 21.2688314 204.20620576 9.09228516 237.48046875 C4.4716411 250.76753826 4.4716411 250.76753826 2.85473633 264.64135742 C2.84835648 265.74988571 2.84197662 266.858414 2.83540344 268.00053406 C2.83429062 269.19016251 2.8331778 270.37979095 2.83203125 271.60546875 C2.82870285 272.83985184 2.82537445 274.07423492 2.82194519 275.34602356 C2.81688516 277.95764799 2.81453658 280.56927888 2.81469727 283.1809082 C2.8148184 287.15518782 2.79437072 291.12928154 2.77539062 295.10351562 C2.77245505 297.64583239 2.77047135 300.18815047 2.76953125 302.73046875 C2.76234573 303.90997604 2.75516022 305.08948334 2.74775696 306.30473328 C2.76640999 313.12108902 3.37296918 319.38045372 5 326 C5.26039063 327.14726562 5.52078125 328.29453125 5.7890625 329.4765625 C14.9497105 363.97881619 41.26226256 391.08675467 71.35058594 408.84204102 C78.40128851 412.89018061 85.67128657 416.48769128 93 420 C94.68609375 420.81984375 94.68609375 420.81984375 96.40625 421.65625 C113.098292 429.59712435 130.97807612 435.00329597 149 439 C149.76344727 439.17031738 150.52689453 439.34063477 151.31347656 439.51611328 C171.26465489 443.80751404 191.68503539 444.69816247 212 446 C212 446.33 212 446.66 212 447 C142.04 447 72.08 447 0 447 C0 299.49 0 151.98 0 0 Z " />
    <path
      d="M0 0 C0.66 0 1.32 0 2 0 C2.05022543 4.17682421 2.0861004 8.35347868 2.10986328 12.53051758 C2.11979131 13.94526235 2.13333825 15.35998734 2.15087891 16.7746582 C2.26254398 26.02643839 1.74093362 34.88047458 0 44 C-0.22300781 45.21816406 -0.44601562 46.43632812 -0.67578125 47.69140625 C-7.7825866 79.73743039 -31.84164063 103.10867752 -58.5546875 120.30859375 C-78.40264083 132.78076377 -100.3897285 141.6843249 -123.04736328 147.49755859 C-124.72145352 147.928326 -126.39058587 148.37828198 -128.05859375 148.83203125 C-131.02777002 149.61959999 -134.00299013 150.32540927 -137 151 C-137.70334473 151.15855469 -138.40668945 151.31710937 -139.13134766 151.48046875 C-200.96285969 165.10978899 -271.91045842 158.66021218 -329 131 C-329.7110791 130.65743164 -330.4221582 130.31486328 -331.15478516 129.96191406 C-347.54442292 121.95914668 -361.97084104 111.7475489 -375 99 C-375.89460938 98.15566406 -376.78921875 97.31132812 -377.7109375 96.44140625 C-393.93829366 80.82318508 -405.78310791 58.60887298 -406.28097534 35.81704712 C-406.30085399 32.39746369 -406.25188489 28.98137817 -406.1875 25.5625 C-406.17239277 24.13738428 -406.15871527 22.71225268 -406.14648438 21.28710938 C-406.11403259 17.85773237 -406.06260184 14.4289754 -406 11 C-405.01 11 -404.02 11 -403 11 C-402.84144531 11.87140625 -402.68289063 12.7428125 -402.51953125 13.640625 C-396.65408246 43.58357907 -377.83290608 66.23359176 -353 83 C-323.82011087 102.23508074 -291.31468169 113.8074763 -257 120 C-255.92508301 120.19754883 -254.85016602 120.39509766 -253.74267578 120.59863281 C-184.17646289 132.82499728 -105.43519151 121.11073972 -46.875 80.1875 C-25.2665993 64.6480224 -6.25916501 42.52263104 -1.37109375 15.703125 C-0.65553523 10.49084607 -0.31268044 5.24974007 0 0 Z "
      fill="#FCDA8F" transform="translate(426,273)" />
    <path class="bg"
      d="M0 0 C51.15 0 102.3 0 155 0 C155 0.33 155 0.66 155 1 C154.17757812 1.15855469 153.35515625 1.31710938 152.5078125 1.48046875 C140.75520257 3.93684565 132.09047147 8.18628014 123 16 C122.39414062 16.49886719 121.78828125 16.99773438 121.1640625 17.51171875 C111.57387777 26.12552721 105.39231731 39.41828599 104.70004272 52.22879028 C104.52183375 57.30122375 104.5056323 62.37416926 104.48828125 67.44921875 C104.47140872 69.3168097 104.45325507 71.18438947 104.43388367 73.05195618 C104.38665689 77.93277492 104.35667158 82.81354832 104.33044434 87.69451904 C104.30049997 92.68901519 104.25401777 97.68335552 104.20898438 102.67773438 C104.12326264 112.45174094 104.05577991 122.22577986 104 132 C103.40900009 131.92935333 102.81800018 131.85870667 102.20909119 131.78591919 C96.2906083 131.09927962 90.51949902 130.84919351 84.5625 130.875 C83.70462891 130.87113281 82.84675781 130.86726562 81.96289062 130.86328125 C75.83023345 130.8721243 69.72953282 131.15462463 63.60913086 131.50830078 C62.7788311 131.55539688 61.94853134 131.60249298 61.09307098 131.65101624 C59.06199136 131.76636296 57.03098766 131.88304517 55 132 C54.99453156 130.56871765 54.99453156 130.56871765 54.98895264 129.10852051 C54.95176319 120.04816223 54.89373392 110.98813633 54.81609726 101.92803192 C54.7768462 97.27183266 54.74454942 92.61581619 54.72900391 87.95947266 C54.71368813 83.45287671 54.67898474 78.94678411 54.63169098 74.44041443 C54.61702911 72.73437413 54.60896789 71.0282619 54.60811615 69.32215881 C54.58865833 49.86181165 51.20509878 32.88289622 37.34765625 18.28515625 C26.34274566 7.57322165 14.86243354 3.46704362 0 1 C0 0.67 0 0.34 0 0 Z "
      transform="translate(143,0)" />
    <path
      d="M0 0 C7.51658835 5.22893103 12.19673185 12.19231551 14.0625 21.125 C16.02502187 33.53753148 15.52792 45.99082977 7.9375 56.5625 C4.61124881 60.55400143 0.87290037 64.70118967 -4.515625 65.23828125 C-10.62625145 65.39689041 -14.40314953 65.28260856 -19.125 61 C-19.62515625 60.56042969 -20.1253125 60.12085938 -20.640625 59.66796875 C-28.0521227 52.27518696 -30.60590344 41.60888702 -30.75 31.4375 C-30.56397425 20.10521896 -26.87930097 11.06566174 -19.1875 2.70703125 C-13.55833864 -1.95195268 -6.74574507 -2.15863842 0 0 Z "
      fill="#633002" transform="translate(307.125,232)" />
    <path
      d="M0 0 C7.37126648 5.07798358 12.30941122 12.57140458 14.0625 21.3125 C15.83743916 33.08146593 15.11512871 46.9754065 7.8125 56.9375 C3.03314717 61.81186979 -0.48209832 65.06946362 -7.4375 65.25 C-13.94462323 65.18204049 -16.89184746 63.006872 -21.64453125 58.72265625 C-27.91525854 51.85471684 -30.56171972 42.39100767 -30.75 33.25 C-30.20861848 21.73661968 -27.88822883 11.68678483 -19.5703125 3.30859375 C-13.74633069 -1.7765247 -7.21061189 -2.4035373 0 0 Z "
      fill="#633001" transform="translate(152.1875,232.0625)" />
  </g>
</svg>