<svg xmlns="http://www.w3.org/2000/svg"
  viewBox="0 0 512 512">
  <path
    d="m512,256.02784c0,63.39672-23.7274,124.93973-66.3626,172.02376-42.6352,47.08403-101.21228,76.74341-164.609,83.04594,2.96594-36.33256-8.15629-72.66524-31.51298-100.84157-23.35669-28.17633-56.35261-46.34261-92.68523-50.79155V19.86583C195.758,3.55325,238.02244-3.12009,280.28693.95802c41.89373,4.07817,82.30447,18.16628,117.52486,41.52297,35.22039,23.35669,64.13819,55.24037,83.78747,92.31452,20.01999,37.44485,30.40074,78.96777,30.40074,121.23232h0Z"
    fill="#dedede" stroke-width="0" />
  <path
    d="m156.8302,20.2366v339.22793c36.33262,4.07817,69.6993,22.24445,92.68523,50.79155,23.35669,28.17633,34.47892,64.5089,31.51298,100.84157-8.15629.74153-16.68334,1.11218-25.21039,1.11218-42.26447,0-83.78744-10.3807-120.86153-30.03004-37.07409-20.01999-68.9578-48.56708-92.31449-83.78747,22.24445-21.50293,51.16226-35.22039,81.93373-38.55703h0V36.17847c10.01002-5.93188,20.76151-11.49299,32.25448-15.94187h0Z"
    fill="#152e51" stroke-width="0" />
  <path
    d="m.00679,256.02784C.00679,211.53893,11.49975,168.16219,33.37347,129.60516S86.76016,58.79363,124.94646,36.17847v323.28606c-30.77151,3.33665-59.68928,17.0541-82.30447,38.9278C14.46569,356.12788-.36395,306.81927.00679,256.02784H.00679Z"
    fill="#dedede" stroke-width="0" />
</svg>