<svg xmlns="http://www.w3.org/2000/svg"
  viewBox="0 0 512 512">
  <rect x="0" y="0" width="512" height="512"  fill="#3d8130" />
  <path d="m157.11215,409.20737l3.72974.6781c-2.93845-.91576-6.28649-1.94304-9.50408-2.92385l5.77434,2.24574Z"
    fill="none" />
  <polygon points="369.99566 221.82927 369.9945 221.78977 369.96927 221.78977 369.99566 221.82927" fill="#3d8130" />
  <path d="m372.61912,268.10929l-.00963-.01361c.00066.00631.00199.01361.00266.02025l.00697-.00664Z" fill="#3d8130" />
  <polygon points="353.45032 339.42572 353.47439 339.41277 353.40867 339.33709 353.45032 339.42572" fill="#3d8130" />
  <path
    d="m152.09657,203.01794l-11.54835,22.39635-11.90117,23.45317-8.37756,21.99075-5.58681,23.39409-3.50138,25.56084-2.10966,22.13348-2.42398,14.54455,2.3951,11.29111,4.14862,9.68066,7.56436,13.4094,17.59187,11.03753,12.99019,5.05176c3.21759.98081,6.56563,2.00809,9.50408,2.92385l15.40388,2.80104,22.03589,1.04952,18.19563-.00133c2.05224,0,20.4563-1.04089,20.64185-1.05151l.03651-.00199.03651.00066,23.43658.3505,22.59749-2.78145,9.81442-4.06132,6.69391-8.0327.27134-10.57783c-.36046-.87294-1.74555-4.2618-2.0695-5.55693-.33739-.89219-4.78921-6.19886-8.89302-10.79523l-.08099-.10356c-1.77011-2.58629-4.73909-7.14947-4.73909-8.64508,0-1.53478,1.82222-5.86429,2.18733-6.71665l.18952-.44278,9.36102-2.73034,6.19372,4.47356,5.62365-3.12399,6.32764-6.31304,10.97795-8.13526,9.97125-5.69833,7.94955-1.5142,10.40374,7.05985-.66881-.76938,4.33681-3.76791,3.9815-6.63566v-6.90053l-.7503-2.00112-5.11997,4.14463-9.12154,2.55376-.15301-.00332-13.96735-.34984-20.29682,2.13687-6.42456.67644-4.92795-.67644-13.08744-1.79633-14.78751-2.81531-23.94773-3.87346-.1102-.04647-22.92476-9.53196-20.05867-11.61573-12.27524-8.30387-1.18295-5.91474,1.56532-5.47993,4.8619-3.64576,11.41259,2.58031,24.86216,7.70377c12.20886,2.49733,30.78055,6.22409,32.0395,6.28449h.00066c.57156,0,3.04831.39764,8.9843,1.37214,6.39403,1.04952,15.15063,2.48738,16.96189,2.48738,3.11901,0,26.97015,1.32103,28.43822,1.40268,1.26742-.02124,20.71968-.3505,22.78519-.3505,1.37911,0,8.85253-2.4502,13.43014-4.05867l6.78071-8.13658,6.52978-11.34156c.13459-.89119.59712-4.97177-1.16287-9.65078-1.28285-3.41077-3.74451-7.13885-8.38602-10.18417-2.01921,3.75729-4.55355,6.21048-7.56801,7.30049-1.26394.45738-2.47875.62467-3.57888.62467-2.91173,0-5.02388-1.171-5.1442-1.23937l1.00222-1.77575c.03319.01859,3.33841,1.82421,7.05504.46269,2.70711-.98977,4.99699-3.37193,6.83033-7.09205-2.50779.97616-5.00031,1.25763-7.01902,1.25763-2.51642,0-4.29682-.4295-4.45547-.46933l.24728-.98911.24595-.98977c.077.01792,7.78592,1.85475,13.63593-2.60089,4.13517-3.14988,6.4239-8.66765,6.81008-16.41058l-6.73258,7.85512-8.09858,3.66236c-3.64991.91277-15.64402,3.89005-16.73702,3.89005-.42585,0-1.95532-.23765-5.89665-.86564-4.85045-.7727-12.18048-1.94104-14.10161-1.94104-3.41176,0-8.16828-3.66037-8.69935-4.07725l-.57056-.44875,3.81056-11.05014,10.48273-11.88723,11.14125-7.90624,13.76969.00597,13.02205,1.44715,5.60689,6.3688,2.693,4.03942v-10.82909l-10.80884-3.93055c-1.16868-.1706-11.9191-1.72862-14.48481-1.72862-2.48721,0-12.098,1.46773-13.66166,1.7087l-13.85035,9.00288-1.11125-1.71003,14.21645-9.24054.21541-.03386c.46169-.07169,11.33824-1.76646,14.19139-1.76646,2.8485,0,14.3937,1.69343,14.88377,1.76513l.20015.05045,11.73522,4.28304,1.12818.64458.09426-.75411-5.45537-4.81411-9.87914-4.76897-11.96026-1.02562-13.78264,2.41236-5.50117,2.40705-.81751-1.86802,5.84653-2.52654,14.16451-2.47875,12.59886,1.08005.51928.2506-3.78517-5.91043-10.66446-9.41712.10671-.12082-41.5771,1.15507s-5.40409.68441-11.62585,1.46342l5.88885,8.51198,3.0201,5.28476-1.52134,5.32526-1.96096-.56027,1.28534-4.49945-2.57185-4.50011-6.28997-9.08586.36577-.25292c-7.76185.96953-16.10091,1.99681-16.58716,1.99681-.92107,0-34.33902,2.49999-35.65473,2.49999s-7.76252-.7893-8.2886-1.05251c-.52642-.26321-22.76113-8.42037-23.55076-8.94679-.7893-.52609-8.55181-8.02539-8.55181-8.02539l-15.24788-4.71088-13.27398,16.41722-14.67632,21.31563Zm162.32759,45.90661c.23666.10489,2.49236,1.11856,5.6663,3.11802l11.41724,1.34293,6.50256-1.36882.42021,1.99548-6.8295,1.43786-7.86259-.92538c2.95322,2.16641,6.24649,4.98504,9.31406,8.48908,1.91615,2.18898,3.74501,4.6435,5.34617,7.37915l-1.75982,1.03027c-1.86172-3.18042-4.06829-5.9798-6.36615-8.40942-3.77704-3.99361-7.80135-6.9855-10.95024-9.0082l-.01875-.00199-5.79143-3.25742.91194-1.82155Zm-114.33422-37.46002l9.07524-8.70814,7.91818-6.47833,11.29244-2.17206,11.92905-.3505,12.65993-.00066,10.54331.3505,21.32792.35581,6.70802,4.12173,8.1731,7.47674,4.72598,5.81716,2.15181,11.83545-2.00643.36511-2.05821-11.32032-4.3481-5.35247-7.94125-7.24971-5.9944-3.66369-16.65089-.27781,7.26099,3.98199c3.88839,2.01075,10.55824,5.62465,11.29808,7.10433.46302.84439,5.78397,6.04684,10.65914,10.58612l.11003.12015,7.53598,9.68929,1.08968,7.98988-2.0207.27615-1.01533-7.44686-7.14914-9.19208c-2.48705-2.31611-10.31196-9.66738-11.03355-11.11055-.55032-.78199-5.84968-3.84558-10.43278-6.21678l-10.6847-5.85898-10.28242-.34254-12.59621.00066-11.8162.34785-10.54231,2.03995-7.48802,6.12717-8.49837,8.15783-.90347,5.42085,1.84944,1.61776,4.45829-2.37718,7.41102-9.17615,13.36459-5.05707,17.42525-1.77774,14.68163,1.43255,19.12034,9.91366,7.94308,4.69196,7.59473,10.12675,3.45043,11.04151,5.06869,3.25742v4.51472l-4.67271,4.28238-8.44726,3.51964-3.61091,2.95471-3.79147,6.16102-1.87864,3.0523-.24695.13011c-2.53219,1.33297-6.91713,3.55482-8.13725,3.62452-.88356.16397-6.54306,2.74428-11.54071,5.16262l-.14438.05643c-.3754.11551-9.21166,2.83058-11.35916,3.18905l-.33557-2.01141c1.91681-.31997,10.15032-2.83722,11.02127-3.10408,5.04512-2.43958,11.24398-5.3299,12.30213-5.3299.62666-.08431,4.07659-1.73393,6.99679-3.26207l.9277-1.50756,4.62923-7.52188,1.07541-.87991c-3.18208-.29308-7.42496-.78664-8.51165-1.40832-.53306-.17923-3.49175-.57289-19.15121-.57289-3.91362,0-13.14619-2.10501-14.35569-2.50796-1.02496-.34187-10.39859-3.11934-10.49319-3.14723l-.23765-.07037-.17857-.17193c-.08696-.08298-8.76125-8.38021-15.24224-12.13285l1.02197-1.76446c6.24632,3.61655,14.12866,10.99836,15.45168,12.25433,1.50358.44543,9.34708,2.77282,10.32258,3.0981,1.12022.37307,10.06966,2.40307,13.71111,2.40307,18.9036,0,19.7231.54633,20.21301.87294.66881.35183,5.19448.91874,8.99193,1.23539l-.05842.69802,1.54872-1.26692,8.39316-3.49707,3.74766-3.43533v-2.50331l-2.59973-1.67086.118.31466-8.65902,3.21494-12.01801,1.41064c-.57488.01726-3.23651.09028-6.14542.09028-3.36231,0-7.05454-.09758-8.24081-.49323-1.6224-.54102-11.65423-2.74162-16.73188-3.82964l-.14206-.03054-.12746-.06904c-6.34424-3.41541-14.05332-7.70709-14.74968-8.75196-.48526-.57023-4.35872-2.63408-7.65962-4.20604l-.07534-.03983-11.10723-6.479-1.52316.28545-.24695-1.31804-3.47184-2.02535-5.38168,2.87008-3.76426-3.29393,1.20154-7.20921Zm4.56982,47.92665l.47862,1.9822-6.79498,1.64033-3.37957.81585-.19716-.81585-.28146-1.16635,10.17455-2.45618Zm4.35971,9.47819l-.51945,1.97224c-.02854-.0073-2.89597-.72955-6.98915.03651-3.77123.70499-9.39753,2.85912-14.78453,9.11507l-1.5454-1.33032c11.16465-12.96463,23.32638-9.92893,23.83853-9.79351Z"
    fill="#3d8130" />
  <path
    d="m222.67183,218.32125c.60409-.07236,14.81639-1.76181,16.61006-1.76181.68574,0,2.71242.18123,5.27879.41091,3.52229.31532,9.41778.84307,10.26981.67047,1.43056-.35781,15.39957-1.63435,16.98778-1.77907l8.31814-.59413-1.72762-1.02097-18.72171-9.70522-14.0875-1.37413-16.95758,1.72995-12.59787,4.76631-6.44846,7.9839,4.05203,2.36357,9.02413-1.68978Z"
    fill="#3d8130" />
  <path
    d="m271.98324,217.8944c-6.15405.55961-15.69198,1.483-16.66583,1.72663-.90547.2257-4.10613-.00863-10.93862-.61935-2.31544-.20712-4.50244-.40295-5.0969-.40295-1.38542,0-12.22745,1.25464-16.33524,1.74322l-6.60745,1.23904,9.03508,5.27049c2.81332,1.34028,7.56735,3.71746,8.40842,4.85195.75743.76075,7.62743,4.67205,13.92453,8.06489,1.61245.34586,14.76096,3.17643,16.80722,3.85885,1.40367.46734,9.08852.43149,13.63676.30072l11.76111-1.38475,7.11545-2.66761-.36826-.23666-3.56677-11.41392-7.14017-9.52001-4.21566-2.49136.07003.97915-9.82371.70167Z"
    fill="#3d8130" />
  <path
    d="m364.42512,217.14958l-4.95633-5.61734-12.18297-1.35355h-12.95053l-10.5141,7.46147-9.96312,11.33758-3.20116,9.28302c1.62738,1.17963,4.84647,3.20896,6.86352,3.20896,2.08261,0,8.92472,1.09068,14.42257,1.96693,2.55509.40693,5.1973.8278,5.58299.83975.89816-.05974,10.34333-2.3566,16.14505-3.80641l7.42861-3.37691,5.85848-6.83481-.52974-3.17843-18.24774-7.43425-23.32273-.69636.06074-2.03796,23.69049.70698,19.64344,8.00249.84473,5.06769c.01261-.28279.0229-.56824.03054-.85701l-.00033-5.62796-4.70242-7.05388Z"
    fill="#3d8130" />
  <path
    d="m342.55784,334.43868l-6.78619,1.29248-9.6229,5.49918-10.76702,7.98789-3.00931,3.00948,6.80527,4.76332.46883,3.75065-4.56268,4.56252-1.44184-1.44184,3.85736-3.85753-.23284-1.86271-6.35785-4.45066-1.89009,1.89026-3.98415,2.21355-1.12968,5.36675,5.56556,4.94687,8.05294-.32196c1.53179-1.09997,3.9795-2.72768,5.16262-2.81597.52957-.18853,2.32424-1.53478,3.51997-2.43162,2.73797-2.05323,3.80376-2.80203,4.59322-2.8339.74449-.16861,4.12156-2.2172,6.85572-4.04008l.31101-.20712,9.84628,1.13582,3.4038,3.40346-.67213.72026c-2.13687,2.29022-4.51123,5.25157-4.64002,6.01033.0005.39398-.12812.88024-.33009,1.40135l2.27877-1.25331,10.82842-7.68584,1.18029,1.66356-10.9748,7.78077-5.12561,2.81896c-.20081.30603-.37473.55928-.49489.73121l-.3671-.2569-7.83703,4.31026-5.41073,7.77745-1.85607,4.64085,3.86151,5.46964,4.27159,4.92928,5.05425.63197,4.68001-1.00272-.05792-1.04188,5.24029-8.18173,9.82371-9.47288,1.41562,1.4684-9.73642,9.38857-4.67072,7.33932.30486,5.4879,4.98521,3.42736,6.55185.6552,3.73638-1.14976-.70814-1.06213.52293-.58815c.23002-.25889,5.64572-6.35021,6.70719-7.41102.8117-.81187,5.37073-6.0568,7.66792-8.71677l1.54341,1.33297c-.27317.31598-6.70271,7.75886-7.76932,8.82564-.83261.83244-4.68599,5.14735-6.10177,6.7359l3.47051,5.20643h5.90711l5.1442-2.25105,4.15028-6.19952,5.61353-5.96453,1.48499,1.39803-5.55494,5.90213-4.32868,6.49294-6.08286,2.6613h-7.42496l-3.06109-4.59172-4.71022,1.44914-7.48221-.74814-6.24184-4.29167-.22438-4.03942-4.70491,1.0077-6.1728-.77137-4.71055-5.43545-7.00625-4.20338-7.32854-8.06157-1.79849-12.58957,2.01871-.2881,1.54308,10.80253,8.70532-6.86667,9.37015-9.02346,5.36326-7.44886-2.58164-.29806c-2.85796,1.89458-6.32316,4.04273-7.51856,4.1682-.52244.18056-2.3259,1.53345-3.52611,2.43361-2.80037,2.10036-3.85122,2.83523-4.64632,2.83523-.52376.07634-2.66362,1.41263-4.31208,2.61151l-.2501.18189-9.4908.38038-7.06483-6.27985,1.00919-4.79386-.66267.36809-6.43668-4.64881-7.47707,2.18069c-.81751,1.95897-1.83549,4.70856-1.83549,5.47196.0863.78531,2.31544,4.46692,4.34577,7.43956,2.71142,3.03836,8.93683,10.13073,9.30659,11.60909.27234,1.09001,1.57726,4.31756,2.05705,5.46931l.08364.20114-.34818,13.57735,3.90018,5.84968c2.00875,1.17233,16.74598,9.77027,18.40191,10.76403,1.18444.71096,11.78683,3.72874,18.25305,5.48059l21.89898,2.08576,17.62805-2.419,15.143-6.88393,8.20861-7.87968-1.91532-7.02201-10.09837-18.80436-7.30049-11.12449-12.46228-13.84686-18.73399-10.25089-2.82942-6.01232-9.24352-6.27255Z"
    fill="#3d8130" />
  <path
    d="m358.47138,293.87923l-.26437.09294c-2.01954.71296-12.20338,4.26844-14.37312,4.26844-2.07248,0-22.58073.34785-22.78768.35117l-.03684.00066-.03701-.00199c-.25226-.01394-25.26825-1.40201-28.36188-1.40201-1.97789,0-10.11381-1.33563-17.29248-2.51459-3.99959-.65653-8.13592-1.33563-8.6723-1.34492-1.43188,0-27.30738-5.27746-32.47996-6.33561l-.09758-.02523-24.87145-7.70709-10.37801-2.34266-3.5588,2.6686-1.24103,4.34478.92173,4.60965,11.55266,7.81529,19.90964,11.52611,22.63268,9.40118,23.73962,3.84093,14.76328,2.81133,17.7185,2.43095,26.60737-2.80137.06638.00133,13.88055.34785,8.42104-2.35859,7.0796-5.73019,5.79807-8.86813,1.25265-4.07062-1.88296-4.5738c-8.35664,7.61017-9.34559,7.86043-9.76845,7.96598l-8.62218,2.13488-23.90873,1.05483-.05128-.00266-25.03625-1.41861-24.80971-4.54326-20.03378.35183-.1321-.03319-20.78225-5.28808-18.43958-6.40664-9.82371-5.96453,1.05848-1.74322,9.73078,5.9081,18.1007,6.26524,20.52534,5.21904,19.96341-.3505.09991.01792,24.84722,4.5499,24.79527,1.3967,23.70377-1.0462,8.32013-2.07978c.52692-.20911,3.277-2.37386,9.17-7.7509.78299-.71428,1.34891-1.23738,1.53992-1.41463l7.6178-10.38764,2.58861-4.85327c-.28312-1.15706-.94895-3.97502-.98679-5.03915-.21575-.58616-1.75401-2.49435-3.41226-4.35971.00033,1.63635-.17359,2.66396-.18056,2.70146l-.0317.1726-6.8539,11.87329-7.19643,8.63579Z"
    fill="#983b1f" />
  <path
    d="m405.13244,399.9894l-10.22948-19.04799-7.41351-11.30439-12.84116-14.28499-18.45552-10.09821-2.74245-5.82811-.53837.29142s1.71036,6.18359,2.89447,6.84145,17.23523,8.81502,18.02469,9.20967c.78946.39498,14.73557,16.97218,14.73557,16.97218l11.18307,19.47184,6.70984,14.99861s-8.55181,8.81502-9.07806,8.94679c-.52625.13144-17.10362,8.15716-17.62988,8.15716s-16.57754,1.8418-17.49844,1.57859c-.9209-.26288-20.65595-1.97357-22.23488-2.10501-1.57876-.13144-19.86649-7.36787-19.86649-7.36787l-15.78807-9.47255-4.47323-6.97322-6.3152,7.10466s-8.94646,4.47323-10.13073,4.47323c-1.18394,0-23.02434,2.89464-24.73437,2.89464h-43.94366s-43.41691-.78963-45.25871-1.71036c-.59778-.29872-4.14596-1.44284-8.66599-2.85149l-3.72974-.6781-5.77434-2.24574c-7.08906-2.16044-13.53785-4.09219-13.53785-4.09219l-17.89292-11.57789s-7.49931-13.02537-7.76252-13.68323c-.26321-.65753-4.86788-11.57789-4.86788-12.10397,0-.52642-1.57892-9.20967-1.57892-9.20967l3.15785-19.86649,1.44715-20.91933,3.42072-22.76113s5.65717-22.89257,5.78894-23.94507c.13144-1.05251,9.34111-23.68186,9.34111-23.68186l9.73609-17.4986,12.76183-26.44506,14.07788-19.86649,13.6829-16.31433.93467.28877.03386-.04182-1.58589-1.28252-13.3324,16.48958-14.7822,21.46433-11.64759,22.57094-11.92839,23.50694-8.46385,22.20119-5.65253,23.63307-3.53158,25.75136-2.10202,22.06842-2.48173,14.88974,2.49601,11.76708,4.27043,10.0139,7.89462,14.00751,18.11231,11.36413,19.11802,7.45483,19.48379,3.56079,22.28549,1.06943h18.24409c2.0831,0,19.55183-.98645,20.72084-1.05217l23.47043.3505.07003.00066,22.87464-2.81465.13741-.01726,10.53468-4.36005,5.3938-6.47236,4.49348,6.73988.20363.11883c.16845.09825,16.85518,9.83201,18.5838,10.86958,1.82321,1.09399,17.11541,5.2529,18.85315,5.72356l22.39088,2.14683,18.01042-2.47145.1477-.02058,15.57283-7.0791.15866-.07169,9.33381-8.9604-2.29503-8.41473Z" />
  <path
    d="m165.4293,181.31064l-14.07788,19.86649-12.76183,26.44506-9.73609,17.4986s-9.20967,22.62936-9.34111,23.68186c-.13177,1.05251-5.78894,23.94507-5.78894,23.94507l-3.42072,22.76113-1.44715,20.91933-3.15785,19.86649s1.57892,8.68325,1.57892,9.20967c0,.52609,4.60467,11.44645,4.86788,12.10397.26321.65786,7.76252,13.68323,7.76252,13.68323l17.89292,11.57789s6.44879,1.93175,13.53785,4.09219l-12.99019-5.05176-17.59187-11.03753-7.56436-13.4094-4.14862-9.68066-2.3951-11.29111,2.42398-14.54455,2.10966-22.13348,3.50138-25.56084,5.58681-23.39409,8.37756-21.99075,11.90117-23.45317,11.54835-22.39635,14.67632-21.31563,13.27398-16.41722-.93467-.28877-13.6829,16.31433Z" />
  <path
    d="m343.00493,332.27724l-7.94955,1.5142-9.97125,5.69833-10.97795,8.13526-6.32764,6.31304-5.62365,3.12399-6.19372-4.47356-9.36102,2.73034-.18952.44278c-.36511.85236-2.18733,5.18187-2.18733,6.71665,0,1.49561,2.96899,6.05879,4.73909,8.64508l.08099.10356c4.10381,4.59637,8.55563,9.90304,8.89302,10.79523.32395,1.29514,1.70903,4.684,2.0695,5.55693l-.27134,10.57783-6.69391,8.0327-9.81442,4.06132-22.59749,2.78145-23.43658-.3505-.03651-.00066-.03651.00199c-.18554.01062-18.58961,1.05151-20.64185,1.05151l-18.19563.00133-22.03589-1.04952-15.40388-2.80104c4.52003,1.40865,8.06821,2.55276,8.66599,2.85149,1.8418.92073,45.25871,1.71036,45.25871,1.71036h43.94366c1.71003,0,23.55042-2.89464,24.73437-2.89464,1.18428,0,10.13073-4.47323,10.13073-4.47323l6.3152-7.10466,4.47323,6.97322,15.78807,9.47255s18.28773,7.23643,19.86649,7.36787c1.57892.13144,21.31398,1.84213,22.23488,2.10501.9209.26321,16.97218-1.57859,17.49844-1.57859s17.10362-8.02572,17.62988-8.15716c.52625-.13177,9.07806-8.94679,9.07806-8.94679l-6.70984-14.99861-11.18307-19.47184s-13.94611-16.5772-14.73557-16.97218c-.78946-.39465-16.84058-8.55181-18.02469-9.20967s-2.89447-6.84145-2.89447-6.84145l.53837-.29142-.04166-.08862-10.40374-7.05985Zm11.62585,14.4463l18.73399,10.25089,12.46228,13.84686,7.30049,11.12449,10.09837,18.80436,1.91532,7.02201-8.20861,7.87968-15.143,6.88393-17.62805,2.419-21.89898-2.08576c-6.46622-1.75185-17.06861-4.76963-18.25305-5.48059-1.65593-.99376-16.39316-9.5917-18.40191-10.76403l-3.90018-5.84968.34818-13.57735-.08364-.20114c-.47978-1.15175-1.78471-4.3793-2.05705-5.46931-.36975-1.47835-6.59517-8.57073-9.30659-11.60909-2.03033-2.97264-4.25948-6.65425-4.34577-7.43956,0-.76341,1.01799-3.513,1.83549-5.47196l7.47707-2.18069,6.43668,4.64881.66267-.36809-1.00919,4.79386,7.06483,6.27985,9.4908-.38038.2501-.18189c1.64846-1.19888,3.78832-2.53517,4.31208-2.61151.7951,0,1.84595-.73486,4.64632-2.83523,1.20021-.90016,3.00367-2.25304,3.52611-2.43361,1.19539-.12546,4.6606-2.27362,7.51856-4.1682l2.58164.29806-5.36326,7.44886-9.37015,9.02346-8.70532,6.86667-1.54308-10.80253-2.01871.2881,1.79849,12.58957,7.32854,8.06157,7.00625,4.20338,4.71055,5.43545,6.1728.77137,4.70491-1.0077.22438,4.03942,6.24184,4.29167,7.48221.74814,4.71022-1.44914,3.06109,4.59172h7.42496l6.08286-2.6613,4.32868-6.49294,5.55494-5.90213-1.48499-1.39803-5.61353,5.96453-4.15028,6.19952-5.1442,2.25105h-5.90711l-3.47051-5.20643c1.41579-1.58855,5.26916-5.90345,6.10177-6.7359,1.06661-1.06678,7.49615-8.50966,7.76932-8.82564l-1.54341-1.33297c-2.29719,2.65997-6.85622,7.90491-7.66792,8.71677-1.06147,1.0608-6.47717,7.15212-6.70719,7.41102l-.52293.58815.70814,1.06213-3.73638,1.14976-6.55185-.6552-4.98521-3.42736-.30486-5.4879,4.67072-7.33932,9.73642-9.38857-1.41562-1.4684-9.82371,9.47288-5.24029,8.18173.05792,1.04188-4.68001,1.00272-5.05425-.63197-4.27159-4.92928-3.86151-5.46964,1.85607-4.64085,5.41073-7.77745,7.83703-4.31026.3671.2569c.12015-.17193.29408-.42518.49489-.73121l5.12561-2.81896,10.9748-7.78077-1.18029-1.66356-10.82842,7.68584-2.27877,1.25331c.20197-.52111.33059-1.00736.33009-1.40135.12878-.75876,2.50314-3.72011,4.64002-6.01033l.67213-.72026-3.4038-3.40346-9.84628-1.13582-.31101.20712c-2.73416,1.82288-6.11123,3.87147-6.85572,4.04008-.78946.03186-1.85524.78067-4.59322,2.8339-1.19573.89684-2.9904,2.24309-3.51997,2.43162-1.18311.08829-3.63083,1.716-5.16262,2.81597l-8.05294.32196-5.56556-4.94687,1.12968-5.36675,3.98415-2.21355,1.89009-1.89026,6.35785,4.45066.23284,1.86271-3.85736,3.85753,1.44184,1.44184,4.56268-4.56252-.46883-3.75065-6.80527-4.76332,3.00931-3.00948,10.76702-7.98789,9.6229-5.49918,6.78619-1.29248,9.24352,6.27255,2.82942,6.01232Zm-27.39949,44.67056l-2.74229-1.64564-6.01763-6.61873,9.15341-7.22017,9.54872-9.18876,6.20118-8.58567,3.49773.40394,1.51287,1.51221c-1.93308,2.12758-4.51854,5.23564-4.51854,6.63699,0,.50385-.71611,1.89889-1.55104,3.23286l-8.65537,4.76034-5.74994,8.26537-2.42033,5.98046,1.74123,2.4668Z" />
  <path
    d="m351.72784,187.626l5.13109,6.70968s2.49982,3.94714,3.42089,4.21035c.9209.26321,9.20967,5.13109,9.20967,5.13109l3.42072,3.81537-.65786,2.23678-2.63143-.78963.37357,12.85012h.82149v-11.57523l2.25836,1.29049.60741-4.85925-6.47335-5.71161-6.99878-3.37857.27101-.17359-5.44442-8.50169-10.87821-9.60564-1.24319,1.40732,1.05068-.02921,7.76235,6.97322Z" />
  <path
    d="m368.70003,240.25259s-3.68393,7.36787-4.07858,7.63108c-.39481.26288-3.68393,1.71036-3.68393,1.71036l.26321,1.8418s4.07858,3.02608,4.34163,3.55216c.16115.32229,2.44257,4.68798,4.18795,8.02572h1.78637c-1.34658-4.01286-4.09933-8.49572-9.58739-12.0283.19185-.42983.37755-.87493.55812-1.33264.33922-.21774.67611-.44643,1.00786-.69835,4.85112-3.68493,7.43209-10.1002,7.67157-19.09578v-6.27255l-1.17117-1.75683.28312,9.74007-1.57876,8.68325Z" />
  <path
    d="m353.47256,190.21993l3.78517,5.91043-.51928-.2506-12.59886-1.08005-14.16451,2.47875-5.84653,2.52654.81751,1.86802,5.50117-2.40705,13.78264-2.41236,11.96026,1.02562,9.87914,4.76897,5.45537,4.81411-.09426.75411-1.12818-.64458-11.73522-4.28304-.20015-.05045c-.49007-.07169-12.03527-1.76513-14.88377-1.76513-2.85315,0-13.7297,1.69476-14.19139,1.76646l-.21541.03386-14.21645,9.24054,1.11125,1.71003,13.85035-9.00288c1.56366-.24097,11.17444-1.7087,13.66166-1.7087,2.56571,0,13.31613,1.55801,14.48481,1.72862l10.80884,3.93055v10.82909l-2.693-4.03942-5.60689-6.3688-13.02205-1.44715-13.76969-.00597-11.14125,7.90624-10.48273,11.88723-3.81056,11.05014.57056.44875c.53107.41689,5.28759,4.07725,8.69935,4.07725,1.92113,0,9.25116,1.16834,14.10161,1.94104,3.94133.62798,5.4708.86564,5.89665.86564,1.093,0,13.08711-2.97728,16.73702-3.89005l8.09858-3.66236,6.73258-7.85512c-.38618,7.74293-2.67491,13.2607-6.81008,16.41058-5.85002,4.45564-13.55893,2.61882-13.63593,2.60089l-.24595.98977-.24728.98911c.15866.03983,1.93905.46933,4.45547.46933,2.01871,0,4.51123-.28146,7.01902-1.25763-1.83334,3.72011-4.12322,6.10227-6.83033,7.09205-3.71663,1.36152-7.02185-.4441-7.05504-.46269l-1.00222,1.77575c.12032.06837,2.23247,1.23937,5.1442,1.23937,1.10014,0,2.31495-.16729,3.57888-.62467,3.01446-1.09001,5.5488-3.5432,7.56801-7.30049,4.64151,3.04533,7.10316,6.77341,8.38602,10.18417h.31864c-1.74538-3.33775-4.0268-7.70343-4.18795-8.02572-.26304-.52609-4.34163-3.55216-4.34163-3.55216l-.26321-1.8418s3.28912-1.44748,3.68393-1.71036c.39465-.26321,4.07858-7.63108,4.07858-7.63108l1.57876-8.68325-.28312-9.74007-.02639-.0395h.02523l-.37357-12.85012,2.63143.78963.65786-2.23678-3.42072-3.81537s-8.28877-4.86788-9.20967-5.13109c-.92107-.26321-3.42089-4.21035-3.42089-4.21035l-5.13109-6.70968-7.76235-6.97322-1.05068.02921-.10671.12082,10.66446,9.41712Zm15.62477,40.46851l-.84473-5.06769-19.64344-8.00249-23.69049-.70698-.06074,2.03796,23.32273.69636,18.24774,7.43425.52974,3.17843-5.85848,6.83481-7.42861,3.37691c-5.80172,1.44981-15.24689,3.74667-16.14505,3.80641-.38569-.01195-3.0279-.43282-5.58299-.83975-5.49785-.87626-12.33997-1.96693-14.42257-1.96693-2.01705,0-5.23614-2.02933-6.86352-3.20896l3.20116-9.28302,9.96312-11.33758,10.5141-7.46147h12.95053l12.18297,1.35355,4.95633,5.61734,4.70242,7.05388.00033,5.62796c-.00763.28877-.01792.57421-.03054.85701Z" />
  <polygon points="305.22461 328.42105 311.64917 327.7446 300.29666 327.7446 305.22461 328.42105" />
  <path
    d="m362.12162,328.13925c-.26304.52642-6.05199,9.86753-6.05199,9.86753l-2.59525,1.406.60309.6937,4.5811-3.98033,4.43888-7.39774v-.9838h-.90879c-.0146.19185-.03585.33225-.06705.39465Z" />
  <path
    d="m362.12162,328.13925c.0312-.0624.05244-.2028.06705-.39465h-1.13051v.41954l-3.9815,6.63566-4.33681,3.76791.66881.76938.06572.07568,2.59525-1.406s5.78894-9.34111,6.05199-9.86753Z" />
  <path
    d="m371.72611,266.82909l.88339,1.26659c-.15368-1.50457-.47597-3.24348-1.09283-5.08196h-1.78637c1.10511,2.11298,1.99581,3.81537,1.99581,3.81537Z" />
  <path
    d="m378.17274,278.01233c-.13144.52642-1.31555,4.47323-1.57876,5.13109-.26304.65786-9.73592,13.55146-9.73592,13.55146l2.23661,4.47323s.39481,3.15752.1316,3.68393c-.26321.52609-8.55181,13.41969-8.55181,13.41969l1.31571,3.5525s.30603,4.49414.19849,5.92038h.90879v-6.85141l-1.11739-2.97928-.01195.00465.87559-.70897,6.13065-9.37662,1.55403-5.05043-2.44705-5.93665c.19268-.17824.30403-.28146.30403-.28146l7.84666-10.6691,3.06906-5.73219-.09509-.38104c-.42452-1.69742-1.02213-4.37531-1.02213-5.01525,0-.3598,0-1.45379-5.18602-7.01073l-.37872.35316,3.05396,4.37731s2.63126,4.99932,2.49966,5.52573Z" />
  <path
    d="m369.7303,263.01371h-.31864c1.75998,4.67902,1.29746,8.75959,1.16287,9.65078l-6.52978,11.34156-6.78071,8.13658c-4.57762,1.60846-12.05103,4.05867-13.43014,4.05867-2.06551,0-21.51777.32926-22.78519.3505-1.46806-.08165-25.3192-1.40268-28.43822-1.40268-1.81126,0-10.56787-1.43786-16.96189-2.48738-5.93598-.9745-8.41274-1.37214-8.9843-1.37214h-.00066c-1.25896-.06041-19.83064-3.78716-32.0395-6.28449l-24.86216-7.70377-11.41259-2.58031-4.8619,3.64576-1.56532,5.47993,1.18295,5.91474,12.27524,8.30387,20.05867,11.61573,22.92476,9.53196.1102.04647,23.94773,3.87346,14.78751,2.81531,13.08744,1.79633h11.35252l20.29682-2.13687,13.96735.34984.15301.00332,9.12154-2.55376,5.11997-4.14463.7503,2.00112v6.48099h1.13051c.10754-1.42624-.19849-5.92038-.19849-5.92038l-1.31571-3.5525s8.2886-12.8936,8.55181-13.41969c.26321-.52642-.1316-3.68393-.1316-3.68393l-2.23661-4.47323s9.47288-12.8936,9.73592-13.55146c.26321-.65786,1.44732-4.60467,1.57876-5.13109.1316-.52642-2.49966-5.52573-2.49966-5.52573l-3.05396-4.37731-.00697.00664c-.00066-.00664-.00199-.01394-.00266-.02025l-.88339-1.26659s-.8907-1.7024-1.99581-3.81537Zm2.82311,10.18384c.00697-.03751.18089-1.06512.18056-2.70146,1.65825,1.86537,3.19652,3.77355,3.41226,4.35971.03784,1.06412.70366,3.88209.98679,5.03915l-2.58861,4.85327-7.6178,10.38764c-.19102.17724-.75693.70034-1.53992,1.41463-5.893,5.37704-8.64309,7.54179-9.17,7.7509l-8.32013,2.07978-23.70377,1.0462-24.79527-1.3967-24.84722-4.5499-.09991-.01792-19.96341.3505-20.52534-5.21904-18.1007-6.26524-9.73078-5.9081-1.05848,1.74322,9.82371,5.96453,18.43958,6.40664,20.78225,5.28808.1321.03319,20.03378-.35183,24.80971,4.54326,25.03625,1.41861.05128.00266,23.90873-1.05483,8.62218-2.13488c.42286-.10555,1.4118-.35581,9.76845-7.96598l1.88296,4.5738-1.25265,4.07062-5.79807,8.86813-7.0796,5.73019-8.42104,2.35859-13.88055-.34785-.06638-.00133-26.60737,2.80137-17.7185-2.43095-14.76328-2.81133-23.73962-3.84093-22.63268-9.40118-19.90964-11.52611-11.55266-7.81529-.92173-4.60965,1.24103-4.34478,3.5588-2.6686,10.37801,2.34266,24.87145,7.70709.09758.02523c5.17258,1.05815,31.04807,6.33561,32.47996,6.33561.53638.00929,4.67271.68839,8.6723,1.34492,7.17868,1.17897,15.3146,2.51459,17.29248,2.51459,3.09362,0,28.10962,1.38807,28.36188,1.40201l.03701.00199.03684-.00066c.20695-.00332,20.7152-.35117,22.78768-.35117,2.16973,0,12.35358-3.55548,14.37312-4.26844l.26437-.09294,7.19643-8.63579,6.8539-11.87329.0317-.1726Z" />
  <path
    d="m201.51087,270.87813c4.09319-.76606,6.96061-.04381,6.98915-.03651l.51945-1.97224c-.51215-.13542-12.67387-3.17112-23.83853,9.79351l1.5454,1.33032c5.38699-6.25595,11.0133-8.41008,14.78453-9.11507Z" />
  <polygon
    points="198.3434 263.01371 205.13838 261.37339 204.65976 259.39118 194.48521 261.84736 194.76667 263.01371 198.3434 263.01371" />
  <polygon points="194.96383 263.82956 198.3434 263.01371 194.76667 263.01371 194.96383 263.82956" />
  <path
    d="m319.3224,254.00552c3.14889,2.0227,7.1732,5.01458,10.95024,9.0082h2.7798c-3.06757-3.50404-6.36083-6.32266-9.31406-8.48908l7.86259.92538,6.8295-1.43786-.42021-1.99548-6.50256,1.36882-11.41724-1.34293c-3.17395-1.99946-5.42965-3.01313-5.6663-3.11802l-.91194,1.82155,5.79143,3.25742.01875.00199Z" />
  <path
    d="m336.63878,271.42313l1.75982-1.03027c-1.60116-2.73565-3.43002-5.19017-5.34617-7.37915h-2.7798c2.29785,2.42962,4.50443,5.229,6.36615,8.40942Z" />
  <path
    d="m208.03435,219.0976l3.47184,2.02535.24695,1.31804,1.52316-.28545,11.10723,6.479.07534.03983c3.3009,1.57195,7.17436,3.63581,7.65962,4.20604.69636,1.04487,8.40544,5.33654,14.74968,8.75196l.12746.06904.14206.03054c5.07765,1.08802,15.10947,3.28862,16.73188,3.82964,1.18627.39564,4.8785.49323,8.24081.49323,2.90891,0,5.57054-.07302,6.14542-.09028l12.01801-1.41064,8.65902-3.21494-.118-.31466,2.59973,1.67086v2.50331l-3.74766,3.43533-8.39316,3.49707-1.54872,1.26692.05842-.69802c-3.79745-.31665-8.32312-.88356-8.99193-1.23539-.48991-.32661-1.30941-.87294-20.21301-.87294-3.64145,0-12.5909-2.03-13.71111-2.40307-.9755-.32528-8.819-2.65267-10.32258-3.0981-1.32302-1.25597-9.20535-8.63778-15.45168-12.25433l-1.02197,1.76446c6.48099,3.75264,15.15528,12.04987,15.24224,12.13285l.17857.17193.23765.07037c.0946.02788,9.46823,2.80535,10.49319,3.14723,1.2095.40295,10.44207,2.50796,14.35569,2.50796,15.65946,0,18.61815.39365,19.15121.57289,1.08669.62168,5.32957,1.11524,8.51165,1.40832l-1.07541.87991-4.62923,7.52188h2.39477l3.79147-6.16102,3.61091-2.95471,8.44726-3.51964,4.67271-4.28238v-4.51472l-5.06869-3.25742-3.45043-11.04151-7.59473-10.12675-7.94308-4.69196-19.12034-9.91366-14.68163-1.43255-17.42525,1.77774-13.36459,5.05707-7.41102,9.17615-4.45829,2.37718-1.84944-1.61776.90347-5.42085,8.49837-8.15783,7.48802-6.12717,10.54231-2.03995,11.8162-.34785,12.59621-.00066,10.28242.34254,10.6847,5.85898c4.58309,2.37121,9.88246,5.43479,10.43278,6.21678.72159,1.44317,8.5465,8.79444,11.03355,11.11055l7.14914,9.19208,1.01533,7.44686,2.0207-.27615-1.08968-7.98988-7.53598-9.68929-.11003-.12015c-4.87518-4.53928-10.19612-9.74173-10.65914-10.58612-.73984-1.47968-7.40969-5.09358-11.29808-7.10433l-7.26099-3.98199,16.65089.27781,5.9944,3.66369,7.94125,7.24971,4.3481,5.35247,2.05821,11.32032,2.00643-.36511-2.15181-11.83545-4.72598-5.81716-8.1731-7.47674-6.70802-4.12173-21.32792-.35581-10.54331-.3505-12.65993.00066-11.92905.3505-11.29244,2.17206-7.91818,6.47833-9.07524,8.70814-1.20154,7.20921,3.76426,3.29393,5.38168-2.87008Zm77.91824-.39266l7.14017,9.52001,3.56677,11.41392.36826.23666-7.11545,2.66761-11.76111,1.38475c-4.54824.13077-12.23309.16662-13.63676-.30072-2.04626-.68242-15.19477-3.513-16.80722-3.85885-6.29711-3.39284-13.1671-7.30414-13.92453-8.06489-.84107-1.13449-5.59511-3.51167-8.40842-4.85195l-9.03508-5.27049,6.60745-1.23904c4.10779-.48858,14.94982-1.74322,16.33524-1.74322.59446,0,2.78145.19583,5.0969.40295,6.83249.61073,10.03315.84506,10.93862.61935.97384-.24363,10.51177-1.16702,16.66583-1.72663l9.82371-.70167-.07003-.97915,4.21566,2.49136Zm-69.90844-9.04139l12.59787-4.76631,16.95758-1.72995,14.0875,1.37413,18.72171,9.70522,1.72762,1.02097-8.31814.59413c-1.58822.14472-15.55723,1.42126-16.98778,1.77907-.85203.1726-6.74752-.35515-10.26981-.67047-2.56637-.22969-4.59305-.41091-5.27879-.41091-1.79367,0-16.00598,1.68945-16.61006,1.76181l-9.02413,1.68978-4.05203-2.36357,6.44846-7.9839Z" />
  <path
    d="m279.60901,264.52128c-2.9202,1.52814-6.37013,3.17776-6.99679,3.26207-1.05815,0-7.25701,2.89032-12.30213,5.3299-.87095.26686-9.10445,2.78411-11.02127,3.10408l.33557,2.01141c2.1475-.35847,10.98376-3.07354,11.35916-3.18905l.14438-.05643c4.99766-2.41834,10.65715-4.99865,11.54071-5.16262,1.22012-.0697,5.60506-2.29155,8.13725-3.62452l.24695-.13011,1.87864-3.0523h-2.39477l-.9277,1.50756Z" />
  <path d="m289.23855,182.6164l-1.31074.90746c.59944-.07501,1.19523-.14969,1.78405-.22338l-.47331-.68408Z" />
  <path
    d="m293.85201,192.86264l2.57185,4.50011-1.28534,4.49945,1.96096.56027,1.52134-5.32526-3.0201-5.28476-5.88885-8.51198c-.58882.07369-1.18461.14837-1.78405.22338l-.36577.25292,6.28997,9.08586Z" />
  <path
    d="m355.06755,190.48554l8.93764-.86493s22.19996,6.63116,23.06489,7.49609,12.10907,5.76622,12.10907,5.76622l6.59421.57248.8595-6.01697-4.85891-6.95289-14.12724-10.3792-16.14542-7.7844-10.09089-3.45973-3.57796-50.99064-8.53111-12.72612-12.68569-10.3792-16.43373-8.07271-17.01036-.28831-32.00253,4.03636-29.40773,5.76622-1.74386-5.04085s-5.17561-1.30199-6.90547-1.30199-17.28455,4.81897-17.28455,4.81897l-9.52838,4.98361-2.01818,5.76622-13.55062,7.49609-10.95582,13.83893-6.34284,13.26231s-3.17142,13.26231-3.17142,14.12724,1.72987,8.07271,2.88311,8.64933,10.09089,2.88311,10.09089,2.88311l11.65934,5.76793,16.88346,9.80087,21.04671,6.91947s19.89347-1.44156,21.91165-1.44156,32.00253-3.17142,33.7324-3.17142,34.59733-2.5948,35.46227-2.5948,20.47009-.28831,20.47009-.28831l7.7844,6.91947,2.88311,2.88311Z"
    fill="#c82727" />
  <polyline
    points="347.2546 218.80727 349.88593 224.33308 351.46474 230.64829 350.67534 234.59529 347.2546 243.27871 336.46611 245.12064 319.09928 241.96304 316.99421 235.91096 317.78361 230.38515 319.62555 221.70174 324.09882 216.7022 326.9933 218.281 346.20206 218.80727" />
  <path
    d="m268.05133,218.01787l3.15761,6.05208.26313,7.36775-1.5788,6.57834-3.42074,5.26268-5.52581.26313-21.0507-6.31521-8.42028-7.36775,1.05254-4.73641,2.89447-4.47327,3.8593-3.06989,14.8232.43856s13.41982,1.05254,13.94609,0Z" />
  <path
    d="m403.96891,191.3491l-8.24247-7.16805-11.78334-7.86508-19.39567-7.05255-2.74395-1.05085-.81834-16.71395c-.9843-8.15517-2.44871-20.64583-2.44871-21.63029,0-1.42126-.67512-11.56594-.70399-11.99677l-.01494-.22637-5.78828-10.4912-9.66788-10.02585-14.8622-8.49306-12.28769-3.64244h-16.98745l-16.65736,2.11895c-6.7359,1.12254-17.20187,2.79274-18.4273,2.79274-1.81591,0-15.82575,3.17245-17.44915,3.54221l-4.88713,1.27821.79427-.3973-1.57992-3.1605-5.15399-1.9822-7.60685.72424-12.23508,2.86974-9.19938,5.88752-1.87466,4.87319,1.27588.49024-5.14337,1.34525-.15335.03983-10.78395,6.83016-7.46479,8.53156-6.77573,11.37807-5.40558,18.61981v6.72661l3.47649,6.17961,21.92039,7.77812,7.33368,6.63566,16.28213,7.43292,14.36532,3.60859,26.86593-1.76845,38.91149-4.2067,27.6705-2.10169,23.04475.34918,24.34271,3.47781,19.15719,9.05599.87161-1.84412-19.43566-9.18743-24.71147-3.53026-23.33086-.36179-27.79546,2.11165-38.90137,4.20604-26.50481,1.74455-13.78778-3.44728-15.91005-7.26365-7.40172-6.69673-21.58449-7.65863-2.83921-5.04711v-5.90478l5.18652-17.97922,6.55169-11.03487,7.20888-8.23815,10.26682-6.50223,45.42434-11.8806c5.92536-1.34691,15.77098-3.48379,16.96521-3.48379,1.78703,0,17.03027-2.53185,18.72404-2.81465l16.42535-2.09704h16.62898l11.67348,3.43334,14.50489,8.28927,9.27788,9.62091,5.43877,9.8579c.24529,3.69157.68441,10.57417.68441,11.63498,0,1.42326,2.21122,19.7855,2.45833,21.82015l.76789,15.7275-11.79015-4.51538-23.29452-2.47078-17.63436-1.7638-17.30709,1.41263-19.99859,2.10567-23.28688,5.28476-17.45446,4.18944-11.70734.68839-14.96011-2.99189,7.62311,5.54366,6.17397,3.6378,14.17679,3.5442,13.90395.38104.07103.00133,12.39573-1.41728,17.54573-2.80734,17.14644-2.79938,19.23054-1.39869,13.27199-.69835,16.01494,1.04155,21.71758,2.8027,28.00125,5.32725,4.87452,3.24946,7.84699,6.82353,2.24773,5.13739-.54384,3.80641-4.18031.27881-8.23516-3.77256-15.0864-5.96453-11.85354-3.59598-10.37851,1.07408.20977,2.02867,9.97025-1.03159,11.3414,3.43666,14.99728,5.92735,8.65504,3.96772,6.34523-.42352.8595-6.01697-2.66396-6.08933Zm-197.94464-87.52886l1.46076-3.79712,8.34237-5.3392,11.69174-2.75158,7.05952-.67246,3.96839,1.52681,1.11789,2.23579-33.64067,8.79776Zm155.89323,71.35792l-.19052,1.00172.13044-1.01102-21.8165-2.81398-16.19882-1.05616-13.41255.70632-19.29642,1.40334-17.27854,2.81664-17.49694,2.80071-12.20853,1.39537-13.49968-.34586-13.78214-3.44529-5.79492-3.40944-.05576-.04049,6.09099,1.21813,12.05983-.70964,17.70804-4.23325,23.09703-5.24892,19.91429-2.09704,17.09881-1.39604,17.44417,1.74455,23.02318,2.44224,16.38137,6.27387,19.18158,6.97488,2.18965,1.45977-23.28804-4.43041Z" />
  <ellipse cx="259.95481" cy="229.48615" rx="6.25456" ry="5.26268"
    transform="translate(-54.64199 83.64635) rotate(-16.56647)" fill="#fff" />
  <circle cx="245.15869" cy="231.43769" r="2.63134" fill="#fff" />
  <circle cx="243.57989" cy="223.28054" r="2.63134" fill="#fff" />
  <circle cx="328.30896" cy="234.85843" r="2.3682" fill="#fff" />
  <circle cx="328.04583" cy="225.64874" r="2.63134" fill="#fff" />
  <circle cx="342.25505" cy="230.91142" r="4.73641" fill="#fff" />
</svg>