<svg xmlns="http://www.w3.org/2000/svg"
  viewBox="0 0 512 512">
  <rect width="512" height="512" fill="#572878" />
  <path
    d="M256,442.60959c102.82139,0,186.60959-83.7882,186.60959-186.60964,0-102.75112-83.7882-186.60956-186.60959-186.60956-102.75117,0-186.60961,83.85845-186.60961,186.60956,0,102.82144,83.85845,186.60964,186.60961,186.60964h0Z"
    fill="#fbb34b" fill-rule="evenodd" />
  <path
    d="M256,409.10837c84.27982,0,153.10837-68.82857,153.10837-153.10841s-68.82855-153.0381-153.10837-153.0381S102.96185,171.72013,102.96185,255.99995s68.75831,153.10841,153.03815,153.10841h0Z"
    fill="#572878" fill-rule="evenodd" />
  <path
    d="M300.52783,266.11354v-33.50122h21.77231c17.3476,0,31.5347-14.25735,31.5347-31.60492v-18.33086h-32.86914v16.9964h-70.58436v.07024h-60.68148c-17.34762,0-31.53472,14.1871-31.53472,31.53472v18.33083h32.86914v-16.99642h20.43787v38.06637h0v79.0826c0,2.66885,1.82606,4.07351,4.07353,3.16049l24.72207-9.55173c2.24748-.8428,4.07353-3.72236,4.07353-6.32096v-70.93556h0v-33.50122h23.31743v38.06637h0v79.0826c0,2.66885,1.82606,4.07351,4.14376,3.16049l24.65185-9.55173c2.24745-.8428,4.07351-3.72236,4.07351-6.32096v-70.93556h0ZM270.81921,158.79722h26.61837c1.68559,0,3.09025,1.40471,3.09025,3.16049v21.1402c0,1.68559-1.40466,3.0903-3.09025,3.0903h-26.61837c-1.75584,0-3.16049-1.40471-3.16049-3.0903v-21.1402c0-1.75579,1.40466-3.16049,3.16049-3.16049h0ZM214.63264,158.79722h26.54815c1.75581,0,3.16049,1.40471,3.16049,3.16049v21.1402c0,1.68559-1.40468,3.0903-3.16049,3.0903h-26.54815c-1.75584,0-3.16049-1.40471-3.16049-3.0903v-21.1402c0-1.75579,1.40466-3.16049,3.16049-3.16049h0Z"
    fill="#fbb34b" fill-rule="evenodd" />
</svg>