<svg xmlns="http://www.w3.org/2000/svg" viewBox="0 0 512 512"><rect x="0" y="0" width="512" height="512" fill="#fff" /><path d="m313.46479,128.723h-114.92958c16.51538-8.40499,35.67031-12.6616,57.46479-12.76995,21.79447.10835,40.9494,4.36496,57.46479,12.76995Z" fill="#7dc900" fill-rule="evenodd"/><path d="m198.53521,128.723h57.46479c-17.47824,3.52132-34.50505,9.90629-51.07981,19.15493-2.12811,4.25687-4.25687,8.51309-6.38498,12.76995,8.97663,10.71208,17.48973,21.35327,25.53991,31.92488h-51.07981c-10.1502-14.81953-25.0489-21.2045-44.69484-19.15493v-25.53991c12.66269,2.19132,21.17641-2.06554,25.53991-12.76995,13.45571-6.18193,28.35377-8.31069,44.69484-6.38498Z" fill="#e9fd7e" fill-rule="evenodd"/><path d="m256,128.723h57.46479c16.34107-1.92571,31.23914.20304,44.69484,6.38498,4.36349,10.70442,12.87722,14.96128,25.53991,12.76995,8.5131,0,12.76995,4.25687,12.76995,12.76995-10.35389,3.97401-18.86696,10.35899-25.53991,19.15493-12.66269-2.19133-21.17642,2.06554-25.53991,12.76995-18.43852-3.25762-33.3366.99925-44.69484,12.76995h-44.69484c-6.71763-11.21202-17.35947-15.46889-31.92488-12.76995-8.05017-10.57161-16.56327-21.21281-25.53991-31.92488,2.12811-4.25687,4.25687-8.51309,6.38498-12.76995,16.57476-9.24864,33.60158-15.63361,51.07981-19.15493Z" fill="#b3e804" fill-rule="evenodd"/><path d="m153.84037,135.10798c-4.36349,10.70442-12.87722,14.96128-25.53991,12.76995,4.36349-10.70442,12.87722-14.96128,25.53991-12.76995Z" fill="#9ddb02" fill-rule="evenodd"/><path d="m358.15963,135.10798c12.66269-2.19132,21.17642,2.06554,25.53991,12.76995-12.66269,2.19132-21.17642-2.06554-25.53991-12.76995Z" fill="#5ba600" fill-rule="evenodd"/><path d="m128.30047,147.87793v25.53991c19.64593-2.04957,34.54463,4.3354,44.69484,19.15493-18.92954,5.20823-35.95636,13.72132-51.07981,25.53991-8.51328-4.25687-17.02662-8.51309-25.53991-12.76995v-12.76995c5.61201-18.39831,16.25366-33.29701,31.92488-44.69484Z" fill="#a9e203" fill-rule="evenodd"/><path d="m396.46948,160.64789v19.15493h-25.53991c6.67295-8.79594,15.18602-15.18092,25.53991-19.15493Z" fill="#ecff83" fill-rule="evenodd"/><path d="m396.46948,160.64789c6.38498,6.38498,12.76995,12.76995,19.15493,19.15493-17.02681,4.25687-17.02681,8.51309,0,12.76995-5.21398,22.22291-15.85517,41.37784-31.92488,57.46479h-44.69484c16.6635-4.19748,31.56158-12.71057,44.69484-25.53991-11.24459-9.04495-19.75766-19.6868-25.53991-31.92488,8.5131,0,12.76995-4.25687,12.76995-12.76995h25.53991v-19.15493Z" fill="#59a200" fill-rule="evenodd"/><path d="m370.92958,179.80282c0,8.51309-4.25685,12.76995-12.76995,12.76995h-12.76995c4.36349-10.70442,12.87722-14.96128,25.53991-12.76995Z" fill="#ecff83" fill-rule="evenodd"/><path d="m415.62441,179.80282v12.76995c-17.02681-4.25687-17.02681-8.51309,0-12.76995Z" fill="#496769" fill-rule="evenodd"/><path d="m96.37559,192.57277v38.30986c-7.62034-3.00349-11.87701-9.38847-12.76995-19.15493.89294-9.76646,5.14961-16.15144,12.76995-19.15493Z" fill="#549b00" fill-rule="evenodd"/><path d="m172.9953,192.57277v12.76995c10.42091,16.8142,23.19087,31.71226,38.30986,44.69484-18.35234.31223-36.44354-1.81589-54.2723-6.38498-15.80856-4.11703-27.51478-12.63077-35.11737-25.53991,15.12345-11.81859,32.15027-20.33168,51.07981-25.53991Z" fill="#ecff83" fill-rule="evenodd"/><path d="m172.9953,192.57277h51.07981v12.76995h-51.07981v-12.76995Z" fill="#f6f4e5" fill-rule="evenodd"/><path d="m224.07512,192.57277c14.56541-2.69894,25.20725,1.55793,31.92488,12.76995h-31.92488v-12.76995Z" fill="#ecff83" fill-rule="evenodd"/><path d="m345.38967,192.57277c-11.35824,11.77071-26.25631,16.02757-44.69484,12.76995,11.35824-11.77071,26.25631-16.02757,44.69484-12.76995Z" fill="#ecff83" fill-rule="evenodd"/><path d="m345.38967,192.57277h12.76995c5.78224,12.23809,14.29532,22.87993,25.53991,31.92488-13.13326,12.82933-28.03133,21.34242-44.69484,25.53991h-38.30986c-11.17563-7.40275-17.56061-18.04395-19.15493-31.92488,10.71909,1.37149,17.10407-2.88537,19.15493-12.76995,18.43852,3.25762,33.3366-.99925,44.69484-12.76995Z" fill="#467f00" fill-rule="evenodd"/><path d="m415.62441,192.57277c7.62047,3.00349,11.87669,9.38847,12.76995,19.15493-9.97845,22.28357-20.62028,43.56725-31.92488,63.84977,2.19133-12.66269-2.06555-21.17642-12.76995-25.53991,16.06971-16.08695,26.71091-35.24188,31.92488-57.46479Z" fill="#496767" fill-rule="evenodd"/><path d="m96.37559,205.34272c8.51328,4.25687,17.02662,8.51309,25.53991,12.76995,7.60259,12.90914,19.30881,21.42287,35.11737,25.53991,17.82877,4.56908,35.91996,6.69721,54.2723,6.38498h12.76995v12.76995h-38.30986v31.92488c-10.608-11.66917-21.24984-24.43913-31.92488-38.30986-20.62156-6.12703-39.77655-14.64011-57.46479-25.53991v-25.53991Z" fill="#f6f4e5" fill-rule="evenodd"/><path d="m172.9953,205.34272h51.07981c6.71763,11.21202,17.35947,15.46889,31.92488,12.76995-6.2113,10.53138-12.59628,21.17258-19.15493,31.92488h-25.53991c-15.11899-12.98258-27.88894-27.88064-38.30986-44.69484Z" fill="#69be00" fill-rule="evenodd"/><path d="m224.07512,205.34272h31.92488v12.76995c-14.56541,2.69894-25.20725-1.55793-31.92488-12.76995Z" fill="#f6f4e5" fill-rule="evenodd"/><path d="m256,205.34272h44.69484c-2.05086,9.88458-8.43584,14.14145-19.15493,12.76995h-25.53991v-12.76995Z" fill="#ecff83" fill-rule="evenodd"/><path d="m256,218.11268h25.53991c1.59432,13.88094,7.9793,24.52214,19.15493,31.92488h-63.84977c6.55865-10.7523,12.94363-21.3935,19.15493-31.92488Z" fill="#b6eb04" fill-rule="evenodd"/><path d="m96.37559,230.88263c17.68824,10.89979,36.84323,19.41288,57.46479,25.53991,10.67504,13.87073,21.31688,26.64069,31.92488,38.30986-2.19133,12.66269,2.06554,21.17642,12.76995,25.53991,13.21243,11.4438,21.72552,26.34185,25.53991,44.69484-18.25592-12.31918-37.41085-22.96101-57.46479-31.92488-14.1855-20.6356-31.21232-39.79053-51.07981-57.46479-8.29402-14.41855-14.679-29.31726-19.15493-44.69484Z" fill="#d8f36b" fill-rule="evenodd"/><path d="m224.07512,250.03756h57.46479v12.76995h-38.30986v44.69484c-2.66509-16.97702-9.05007-31.87507-19.15493-44.69484v-12.76995Z" fill="#ecff83" fill-rule="evenodd"/><path d="m281.53991,250.03756h57.46479c-4.36349,10.70442-12.87722,14.96128-25.53991,12.76995,2.19133,12.66269-2.06555,21.17642-12.76995,25.53991v-25.53991h-19.15493v-12.76995Z" fill="#69be00" fill-rule="evenodd"/><path d="m339.0047,250.03756h31.92488c-14.55391,20.96315-31.58072,40.11808-51.07981,57.46479-8.29408,14.41856-14.67906,29.31725-19.15493,44.69484-17.02681,4.25685-17.02681,8.5131,0,12.76995v12.76995h-12.76995c-5.96677-6.8166-8.09487-15.33033-6.38498-25.53991-1.81653-12.22531.31223-22.86651,6.38498-31.92488,11.21202-6.71764,15.46888-17.35947,12.76995-31.92488,10.7044-4.36349,14.96128-12.87722,12.76995-25.53991,12.66269,2.19133,21.17642-2.06554,25.53991-12.76995Z" fill="#457c00" fill-rule="evenodd"/><path d="m370.92958,250.03756h12.76995v25.53991c-8.5131,0-12.76995,4.25685-12.76995,12.76995-9.88458,2.05086-14.14146,8.43584-12.76995,19.15493-8.5131,0-12.76995,4.25685-12.76995,12.76995-6.0785,6.0785-12.46347,12.46347-19.15493,19.15493,2.91731,5.09202,7.17416,7.22078,12.76995,6.38498-6.67295,8.79595-15.18602,15.18093-25.53991,19.15493,0-8.5131-4.25685-12.76995-12.76995-12.76995,4.47587-15.37759,10.86085-30.27627,19.15493-44.69484,19.49909-17.34671,36.5259-36.50164,51.07981-57.46479Z" fill="#496767" fill-rule="evenodd"/><path d="m224.07512,262.80751c10.10486,12.81976,16.48984,27.71781,19.15493,44.69484,2.01127,24.71879-.11748,48.1306-6.38498,70.23474,0-8.5131-4.25687-12.76995-12.76995-12.76995-3.81439-18.35298-12.32748-33.25103-25.53991-44.69484,2.19133-12.66269-2.06554-21.17642-12.76995-25.53991v-31.92488h38.30986Z" fill="#b6eb04" fill-rule="evenodd"/><path d="m281.53991,262.80751h19.15493v25.53991c-11.21202,6.71764-15.46888,17.35947-12.76995,31.92488-6.07275,9.05837-8.2015,19.69957-6.38498,31.92488-8.5131,12.76995-17.02681,25.53991-25.53991,38.30986,3.8112-30.60957-.44567-58.2776-12.76995-83.0047v-44.69484h38.30986Z" fill="#65a35a" fill-rule="evenodd"/><path d="m383.69953,250.03756c10.7044,4.36349,14.96128,12.87722,12.76995,25.53991h-12.76995v-25.53991Z" fill="#5ca600" fill-rule="evenodd"/><path d="m383.69953,275.57746v12.76995h-12.76995c0-8.5131,4.25685-12.76995,12.76995-12.76995Z" fill="#69be00" fill-rule="evenodd"/><path d="m383.69953,275.57746h12.76995c0,8.5131-4.25685,12.76995-12.76995,12.76995v-12.76995Z" fill="#496769" fill-rule="evenodd"/><path d="m300.69484,288.34742c2.69892,14.56541-1.55793,25.20724-12.76995,31.92488-2.69892-14.56541,1.55793-25.20724,12.76995-31.92488Z" fill="#69be00" fill-rule="evenodd"/><path d="m185.76526,294.73239c10.70442,4.36349,14.96128,12.87722,12.76995,25.53991-10.70442-4.36349-14.96128-12.87722-12.76995-25.53991Z" fill="#f6f4e5" fill-rule="evenodd"/><path d="m370.92958,288.34742h12.76995c-6.71126,4.61188-10.96811,10.99685-12.76995,19.15493h-12.76995c-1.3715-10.71909,2.88537-17.10407,12.76995-19.15493Z" fill="#5f9d2b" fill-rule="evenodd"/><path d="m243.23005,307.50235c12.32429,24.7271,16.58115,52.39513,12.76995,83.0047v12.76995h-12.76995c-5.35188-2.18176-7.48064-6.43861-6.38498-12.76995v-12.76995c6.26749-22.10414,8.39625-45.51595,6.38498-70.23474Z" fill="#eafd7f" fill-rule="evenodd"/><path d="m358.15963,307.50235v12.76995h-12.76995c0-8.5131,4.25685-12.76995,12.76995-12.76995Z" fill="#69be00" fill-rule="evenodd"/><path d="m358.15963,307.50235h12.76995c0,8.5131-4.25685,12.76995-12.76995,12.76995v-12.76995Z" fill="#496769" fill-rule="evenodd"/><path d="m345.38967,320.2723h12.76995c0,8.5131-4.25685,12.76995-12.76995,12.76995v-12.76995Z" fill="#496769" fill-rule="evenodd"/><path d="m166.61033,333.04225c20.05394,8.96387,39.20887,19.6057,57.46479,31.92488,8.51309,0,12.76995,4.25685,12.76995,12.76995v12.76995c-9.43572,1.67287-17.94944-.45525-25.53991-6.38498-17.75278-15.55125-32.65086-32.57806-44.69484-51.07981Z" fill="#95cc1c" fill-rule="evenodd"/><path d="m345.38967,320.2723v12.76995c1.09566,6.33134-1.03309,10.5882-6.38498,12.76995-5.59579.8358-9.85265-1.29295-12.76995-6.38498,6.69146-6.69146,13.07643-13.07643,19.15493-19.15493Z" fill="#4f8225" fill-rule="evenodd"/><path d="m281.53991,352.19718c-1.70989,10.20957.41821,18.7233,6.38498,25.53991v12.76995c-4.61188,6.71126-10.99685,10.96811-19.15493,12.76995h-12.76995v-12.76995c8.5131-12.76995,17.02681-25.53991,25.53991-38.30986Z" fill="#76c400" fill-rule="evenodd"/><path d="m300.69484,352.19718v12.76995c-17.02681-4.25685-17.02681-8.5131,0-12.76995Z" fill="#496769" fill-rule="evenodd"/><path d="m300.69484,352.19718c8.5131,0,12.76995,4.25685,12.76995,12.76995h-12.76995v-12.76995Z" fill="#427900" fill-rule="evenodd"/><path d="m300.69484,364.96714h12.76995c0,8.5131-4.25685,12.76995-12.76995,12.76995v-12.76995Z" fill="#496769" fill-rule="evenodd"/><path d="m287.92488,377.73709h12.76995c0,8.5131-4.25685,12.76995-12.76995,12.76995v-12.76995Z" fill="#496769" fill-rule="evenodd"/><path d="m243.23005,403.277h25.53991c-.76619,6.93537-5.02307,11.19159-12.76995,12.76995-7.7469-1.57837-12.00375-5.83459-12.76995-12.76995Z" fill="#427900" fill-rule="evenodd"/></svg>