<svg xmlns="http://www.w3.org/2000/svg"
  viewBox="0 0 512 512">
  <rect width="512" height="512" fill="#162f29" />
  <path
    d="M452,257.04959c0,1.98828-.02773,3.97441-.08532,5.96268h-95.33229v-4.34347h-91.75252c0-.90881.02773-1.81759.02773-2.69653,0-.88107,0-1.81759-.02773-2.69867h91.75252v-4.31361h95.24694c.11309,2.69653.17067,5.39307.17067,8.0896ZM263.21066,237.49119l89.79627-11.04425.53975,4.31572,94.82025-11.66934c-.90879-4.65493-1.98825-9.25439-3.20853-13.76831l-93.34401,11.49845.53975,4.31359-90.22293,11.10187c.39893,1.75999.768,3.52,1.07946,5.30773v-.05547ZM258.52586,220.1152l85.82186-21.43338,1.04961,4.20181,91.07412-22.73984c-1.8752-4.40042-3.88906-8.74411-6.04798-12.97407l-88.40319,22.08704,1.04958,4.2016-86.53013,21.63285c.7104,1.67467,1.3632,3.34933,1.98613,5.05387v-.02987ZM250.91839,203.84875l80.22829-30.29141,1.53385,4.05973,84.8832-32.05163c-2.75413-4.03136-5.64906-7.94902-8.71468-11.75318l-81.13704,30.6321,1.53171,4.05973-81.19251,30.66048c.99412,1.53302,1.9584,3.0944,2.86719,4.68416ZM240.38613,188.80234l70.85866-36.93439,1.98828,3.8609,78.35521-40.85227c-3.60534-3.49184-7.35361-6.81344-11.21494-10.02133l-73.64053,38.38229,1.98613,3.8609-72.0512,37.55903c1.248,1.36278,2.49813,2.72555,3.69066,4.14486h.02773ZM223.296,172.56362l64.15999-40.7953,2.32747,3.66208,70.80319-45.0255c-4.45651-2.83883-9.00052-5.47904-13.6832-7.94902l-64.64424,41.10785,2.32959,3.66229-66.00534,41.95926c1.61707,1.07882,3.17866,2.21439,4.74027,3.37834h-.02773ZM208.13547,163.08161l53.7696-44.08854,2.75413,3.34998,60.55467-49.68149c-5.13919-1.95883-10.41921-3.71883-15.7568-5.25184l-53.71307,44.06016,2.75413,3.34998-55.72821,45.70688c1.81696.79487,3.60555,1.6465,5.36554,2.55488ZM188.06421,155.27467l42.4702-42.27179,3.03786,3.06602,53.96908-53.62752c-5.84961-.96512-11.78242-1.67488-17.80054-2.12906l-46.02026,45.792,3.03786,3.06602-44.85461,44.62806c2.07253.42581,4.11647.90837,6.16042,1.47627ZM164.58625,151.72586l33.86859-41.05088,3.34997,2.75371,44.0896-53.42869c-6.7008.31232-13.31626.96533-19.81654,1.93045l-35.11787,42.55574,3.34998,2.7537-36.67904,44.4576c1.02207-.02837,2.07231-.05675,3.09438-.05675,1.30604,0,2.58348,0,3.86092.05675v.02837ZM144.288,152.94678l26.08981-40.36971,3.63371,2.35627,31.54069-48.82965c-7.21087,1.87371-14.25151,4.14486-21.12171,6.78507l-22.20052,34.37952,3.63392,2.35627-28.90049,44.74154c2.41323-.56768,4.85462-1.05024,7.32459-1.44769v.02839ZM121.74678,159.22069l18.76543-35.17439,3.80417,2.04416,24.84053-46.53014c-7.97738,3.88928-15.64245,8.28971-22.96681,13.17248l-14.2799,26.74283,3.83253,2.04416-22.08682,41.39158c2.61184-1.33441,5.30881-2.55509,8.06251-3.66229l.02838-.02839ZM105.5648,167.48203l7.97738-22.65472,4.0881,1.44788,15.50059-44.00341c-7.86368,6.24555-15.24502,13.05898-22.08683,20.41195l-6.67157,18.93569,4.08811,1.44788-10.44736,29.63841c2.4416-1.84535,4.93995-3.57718,7.5232-5.19531l.02838-.02837ZM85.664,183.69237l3.52021-16.46592,4.22997.90859,7.09739-33.15883c-7.46646,9.48202-14.08106,19.67382-19.73056,30.43349l3.15115.68118-6.47275,27.25376c2.52672-3.37835,5.28043-6.61462,8.20458-9.65228ZM71.04342,202.94038v-21.80311c-5.28043,13.93921-9.02784,31.28512-11.04342,48.28993,2.46997-9.42507,6.21718-18.31082,11.04342-26.48682ZM60.14187,283.08268c2.07253,14.50664,5.70624,28.50345,10.75968,41.81758v-16.096c-4.65579-7.9488-8.31808-16.58027-10.75968-25.72158ZM78.1408,319.56266l5.64949,26.34668-3.15115.68053c5.64928,10.78825,12.26411,20.95146,19.73057,30.43411l-7.09739-33.1584-4.22997.90882-3.57718-16.66562c-2.58346-2.72425-5.05322-5.56374-7.32437-8.57386v.02773ZM97.81462,339.15306l10.5041,29.80908-4.0881,1.44639,6.67157,18.93548c6.84181,7.35358,14.22293,14.16745,22.08682,20.41172l-15.50059-44.00212-4.08811,1.44639-8.00575-22.76693c-2.58347-1.64694-5.11019-3.3792-7.55158-5.22454l-.02837-.05547ZM113.48544,349.00267l22.14378,41.50612-3.83253,2.04375,14.27967,26.74346c7.32459,4.8832,14.98966,9.28213,22.96704,13.17119l-24.84053-46.53011-3.83275,2.04587-18.82197-35.25973c-2.75392-1.10719-5.45088-2.35736-8.0911-3.69069l.02838-.02985ZM136.79318,357.57653l28.92863,44.79788-3.63371,2.35732,22.20033,34.37865c6.87039,2.64108,13.91082,4.91309,21.12171,6.78617l-31.54048-48.82988-3.63394,2.35521-26.11818-40.42454c-2.46976-.39893-4.93973-.88105-7.35275-1.44854l.02839.02773ZM157.46069,360.30293l36.67882,44.45654-3.34976,2.75413,35.11743,42.55573c6.50028.96641,13.11574,1.61921,19.81654,1.93066l-44.08939-53.45706-3.34997,2.75413-33.86838-41.05173c-1.22069.05758-2.46997.05758-3.71904.05758-1.07882,0-2.18602,0-3.26484-.05758l.02858.05758ZM181.7903,358.2016l44.82729,44.59948-3.03786,3.06559,46.01813,45.79199c6.01815-.45439,11.95308-1.16266,17.80054-2.12907l-53.93921-53.65547-3.06559,3.09548-42.44289-42.24427c-2.01558.53975-4.0881,1.04961-6.16042,1.47627ZM202.6848,351.53066l55.67254,45.67894-2.75413,3.34932,53.71092,44.05973c5.3376-1.53385,10.61761-3.29385,15.7568-5.25225l-60.58241-49.68109-2.75412,3.34935-53.71243-44.05973c-1.76021.90879-3.54858,1.75999-5.36554,2.55573h.02837ZM218.46826,342.84372l65.92002,41.9307-2.32747,3.66077,64.64212,41.10934c4.6848-2.47041,9.25654-5.13919,13.68535-7.9488l-70.80322-45.02614-2.32747,3.66292-64.07466-40.74027c-1.56159,1.16481-3.12319,2.29974-4.7424,3.3792l.02773-.02773ZM236.63787,327.3984l71.96799,37.504-1.98825,3.85918,73.64264,38.38294c3.86136-3.20853,7.60749-6.53014,11.21283-10.02028l-78.35309-40.85332-1.98825,3.86133-70.77334-36.87894c-1.19253,1.4208-2.41493,2.81175-3.69066,4.14508h-.02987ZM248.02347,312.864l81.07946,30.63255-1.53385,4.05973,81.13704,30.63037c3.03789-3.80371,5.93281-7.72051,8.71468-11.75251l-84.8832-32.0512-1.53385,4.05973-80.11307-30.26348c-.90881,1.58932-1.87521,3.15094-2.8672,4.6848ZM256.512,296.96641l86.38719,21.57438-1.04958,4.20267,88.40319,22.08643c2.18665-4.2304,4.20267-8.57389,6.07575-12.97282l-91.07201-22.74134-1.05176,4.20267-85.70666-21.40586c-.62507,1.70241-1.3056,3.3792-1.98613,5.05387ZM262.1312,279.81865l90.08,11.07201-.53975,4.31576,93.34401,11.49652c1.2224-4.54186,2.29974-9.14134,3.20853-13.76852l-94.82025-11.66722-.53975,4.31361-89.65334-11.04212c-.31146,1.78773-.68053,3.54772-1.07946,5.30771v-.02773Z"
    fill="#fff" />
</svg>