<svg xmlns="http://www.w3.org/2000/svg" xmlns:xlink="http://www.w3.org/1999/xlink" viewBox="0 0 100 100">
  <rect width="100" height="100" fill="#7AC7FF"/>
  <g transform="translate(10 10) scale(0.15625 0.15625)">
<path d="M388.18334,325.26959c-12.95275-21.00395-26.34697-31.6273-26.48067-31.732-.68255-.5355-1.10835-1.33442-1.1707-2.19936-.06202-.86494.24308-1.71721.84193-2.34407,13.4329-14.06043,19.38644-30.42492,17.69557-48.63932-1.36343-14.68929-7.25629-26.26027-9.77275-31.20116-1.19804-2.35207-1.6015-3.14432-1.2804-4.42873.01467-.05869,1.39644-5.77249.7309-15.17578-.61419-8.67607-3.14866-22.36505-11.7337-38.3094-12.70775-23.59935-47.77918-31.88567-66.23182-34.66338-.89253,2.13655-2.72161,4.21925-4.5138,5.89165l6.90451,10.06884c.71889,1.04866.71789,2.4321-.00267,3.47976-.72089,1.04733-2.01097,1.54149-3.24902,1.24639l-8.81144-2.11467c-1.65019-.39612-2.66684-2.05498-2.27105-3.7055.39612-1.65019,2.05365-2.66717,3.7055-2.27105l1.04033.24975-3.93957-5.74481c-.90995-1.32742-.64187-3.13199.61486-4.13764,1.54332-1.23814,3.10269-2.81747,4.05278-4.03056-.2209-.11233-.41897-.25366-.60231-.41142-3.46117-.3076-9.69234-.11358-14.9881.3847-1.20371.11737-2.36208-.48949-2.9596-1.54015s-.52383-2.35407.18873-3.33072c4.74783-6.50605,6.07925-10.49731,6.40202-12.60097-8.62938,1.31508-21.89023,10.30558-26.71408,14.02608-.48582.37445-1.07334.59552-1.68553.63387-38.44478,2.40276-68.82601,15.14077-69.12844,15.26914-.14171.05869-11.21853,4.69648-22.91255,14.91537-15.52589,13.56727-24.7478,30.03513-27.4093,48.94608-5.63678,40.04962,8.86579,66.10849,16.65691,80.1089,1.25873,2.26138,2.34541,4.21399,3.15499,5.88385,5.1783,10.67936.89862,17.23209-2.47678,19.53882-15.82032,18.95397-35.71525,49.65831-41.39137,88.90067-2.23204,15.43111-1.54674,27.49599-.79158,34.0621h74.45695c1.00161-9.30122,3.22752-24.81232,7.86498-39.18839,6.57207-20.37308-3.20901-39.00895-3.30871-39.19501-.80125-1.4958-.23841-3.35839,1.25773-4.15998,1.4958-.80092,3.35839-.23807,4.15998,1.25773.45681.85294,11.10583,21.15133,3.74018,43.98452-4.32353,13.40289-6.49663,28.17629-7.51503,37.30113h217.69808c-3.52144-34.3617-12.17534-58.68549-19.02483-73.31647-7.86815-16.80729-15.11043-24.80048-15.18245-24.87917-1.14569-1.24973-1.065-3.19234.18239-4.34003,1.24773-1.14769,3.18734-1.07034,4.33703.17472,1.20475,1.30566,28.84388,31.99779,35.86571,102.36095h8.86859c.80134-43.84615-13.04632-75.84777-24.87238-95.02531Z" fill="#7eacf9" stroke-width="0"/><path d="M191.95073,420.11535h205.12846s-2.11473-67.14256-39.12244-104.15028c0,0-12.68836-10.04495,2.64341-24.31935,15.33177-14.2744,22.20463-34.3643,22.20463-34.3643l.52868-19.03254-12.3359-32.77826,1.76227-19.03254s-3.70077-34.89299-39.65112-39.65112c0,0-14.2744-2.11473-32.77826,19.56122,0,0-4.22945,5.28682-10.57363,0-6.34418-5.28682-38.06508-28.02012-74.54559-24.84791-29.98599,2.60833-51.39038,30.47159-53.37438,59.29867-2.15664,31.3355,13.00574,62.44577,34.34332,84.50259,47.05266,48.63871,13.21704,95.69137,13.21704,95.69137l-17.44649,39.12244Z" fill="#fffdf4" fill-rule="evenodd" stroke-width="0"/><path d="M393.2596,321.79316c-10.25323-16.56055-20.58949-26.77443-25.24195-30.94375,13.16381-14.86402,18.93863-32.02676,17.17141-51.06275-1.47213-15.861-7.96984-28.61902-10.41595-33.42186-.19906-.39146-.41346-.81226-.57752-1.14436.97731-4.98857,4.07562-27.46465-11.77104-56.89426-7.12558-13.23317-20.96961-23.55042-41.1483-30.66499-9.79304-3.45271-20.6463-5.97784-32.26712-7.53658-1.96033-.98427-5.95813-1.69628-14.55363-1.23785,5.81683-9.88611,4.07695-14.42121,3.2917-15.69728-.5235-.85093-1.42845-1.39411-2.42543-1.45646-11.18119-.69255-28.46297,11.69535-32.68263,14.86302-39.08965,2.61116-68.95672,15.15011-70.18377,15.67227-.48349.19873-11.97744,4.9869-24.41969,15.81198-20.88858,18.17406-27.63637,38.77888-29.61866,52.86399-5.9242,42.09159,9.23091,69.3235,17.37247,83.95345,1.21338,2.18002,2.26138,4.06328,2.99494,5.57642,4.16131,8.5827-.07636,11.56964-.5215,11.85173-.36011.18673-.56951.38279-.83026.69355-29.77871,35.51252-39.8819,69.98471-43.11425,92.65052-2.20686,15.4765-1.63647,27.58065-.86627,34.62495h6.20295c-.75515-6.56611-1.44045-18.63099.79158-34.0621,5.67612-39.24236,25.57106-69.9467,41.39137-88.90067,3.3754-2.30673,7.65508-8.85946,2.47678-19.53882-.80959-1.66986-1.89626-3.62247-3.15499-5.88385-7.79112-14.00041-22.29369-40.05929-16.65691-80.1089,2.66151-18.91096,11.88341-35.37881,27.4093-48.94608,11.69402-10.21889,22.77084-14.85668,22.91255-14.91537.30243-.12837,30.68367-12.86639,69.12844-15.26914.61219-.03835,1.19971-.25942,1.68553-.63387,4.82385-3.72051,18.0847-12.711,26.71408-14.02608-.32277,2.10366-1.65419,6.09492-6.40202,12.60097-.71256.97664-.78625,2.28005-.18873,3.33072s1.75589,1.65752,2.9596,1.54015c5.29575-.49828,11.52692-.6923,14.9881-.3847.18335.15776.38141.29909.60231.41142-.95009,1.21309-2.50946,2.79242-4.05278,4.03056-1.25673,1.00565-1.52481,2.81022-.61486,4.13764l3.93957,5.74481-1.04033-.24975c-1.65185-.39612-3.30938.62086-3.7055,2.27105-.39579,1.65052.62086,3.30938,2.27105,3.7055l8.81144,2.11467c1.23806.29509,2.52813-.19906,3.24902-1.24639.72056-1.04766.72156-2.4311.00267-3.47976l-6.90451-10.06884c1.79219-1.6724,3.62127-3.7551,4.5138-5.89165,18.45265,2.77771,53.52407,11.06403,66.23182,34.66338,8.58504,15.94436,11.1195,29.63333,11.7337,38.3094.66554,9.4033-.71623,15.1171-.7309,15.17578-.3211,1.2844.08236,2.07665,1.2804,4.42873,2.51646,4.94089,8.40932,16.51187,9.77275,31.20116,1.69087,18.2144-4.26268,34.57889-17.69557,48.63932-.59886.62686-.90395,1.47913-.84193,2.34407.06235.86494.48815,1.66386,1.1707,2.19936.13371.1047,13.52793,10.72805,26.48067,31.732,11.82606,19.17754,25.67371,51.17916,24.87238,95.02531h6.14589c.80567-45.41631-13.62075-78.60122-25.94201-98.50174Z" fill="#11151f" stroke-width="0"/><path d="M363.98438,317.75923c-1.24739,1.14769-1.32809,3.09031-.18239,4.34003.07202.07869,7.3143,8.07188,15.18245,24.87917,6.84949,14.63098,15.50338,38.95477,19.02483,73.31647h6.17786c-7.02184-70.36316-34.66096-101.05529-35.86571-102.36095-1.1497-1.24506-3.08931-1.32242-4.33703-.17472Z" fill="#11151f" stroke-width="0"/><path d="M184.08605,339.00925c-.80159-1.4958-2.66417-2.05865-4.15998-1.25773-1.49614.80159-2.05898,2.66417-1.25773,4.15998.0997.18606,9.88078,18.82193,3.30871,39.19501-4.63746,14.37607-6.86337,29.88716-7.86498,39.18839h6.19912c1.0184-9.12483,3.19151-23.89824,7.51503-37.30113,7.36565-22.83319-3.28337-43.13159-3.74018-43.98452Z" fill="#11151f" stroke-width="0"/><ellipse cx="234.96831" cy="205.13191" rx="17.25213" ry="19.55236" fill="#060606" stroke-width="0"/><circle cx="227.68457" cy="214.2825" r="3.877" fill="#fffef3" stroke-width="0"/><ellipse cx="240.35789" cy="200.96434" rx="8.87235" ry="11.26644" fill="#fffef3" stroke-width="0"/><ellipse cx="345.40278" cy="204.15185" rx="13.25888" ry="18.23658" fill="#060606" stroke-width="0"/><circle cx="339.39909" cy="211.65963" r="3.877" fill="#fffef3" stroke-width="0"/><ellipse cx="348.7023" cy="198.77021" rx="6.54608" ry="8.91342" transform="translate(-20.73451 41.86472) rotate(-6.67269)" fill="#fffef3" stroke-width="0"/><path d="M305.49915,241.08271l3.73043-1.64949,3.03549-2.72077,1.89457-2.02442,1.39191-2.09039,1.00733-1.88374,1.27924-2.24353.37851-1.20994c-.66256-.79395-4.04754-4.71154-6.96766-5.47823l-1.52618-.68659-2.02074-.69971-3.806-.96997-.32144.02162c-1.1082-.07135-1.92178-.36626-3.18803-.35246-11.19737.12116-17.82464,4.83035-20.93333,7.85335-1.38247,1.34423-1.46411,3.46289-.16496,4.88016,3.5513,3.8735,11.58549,11.07728,22.03715,10.81577.518-.01279,1.01779-.05284,1.5088-.10467l-.23294-.69635,2.89785-.76063Z" fill="#f6b438" stroke-width="0"/><path d="M314.72349,228.9496c-9.11796,2.61708-18.61937,1.90102-27.97261,1.39198,8.64471,2.40537,19.8968,3.01273,27.97261-1.39198Z" fill="#010100" stroke-width="0"/><path d="M301.3366,219.13682l-.00552.13712c.80134.08629,1.60787.12274,2.40236.2495,2.3843.35251,4.71442,1.06222,6.87714,2.12309,2.79132,1.37359,5.39084,3.36022,7.27848,5.82513-2.71206,6.46359-7.80507,12.9031-15.07452,14.0894-9.29789,1.1873-17.74344-4.96893-23.77392-11.48971,1.96908-4.74017,6.98166-7.51845,11.66982-9.09104,1.47108-.49699,3.65805-.98429,5.19703-1.30937l-.01823-.13579c-5.38399.52174-10.9877,2.04717-15.03188,5.84084-1.45402,1.41606-2.68781,2.97159-3.34083,4.97161,0,0,.23512.27927.23512.2796,6.72513,7.85357,17.78407,14.96967,28.36609,11.03754,6.07897-2.54483,10.17315-8.29839,12.45828-14.29107-4.09167-5.23984-10.69289-8.03819-17.23942-8.23685Z" fill="#010100" stroke-width="0"/>
  </g>
</svg>
