<svg xmlns="http://www.w3.org/2000/svg"
  viewBox="0 0 512 512">
  <rect x="0" y="0" width="512" height="512" fill="#fff" />
  <path
    d="M306.47187,133.99053c-20.41378.00012-40.8272,7.78689-56.40074,23.36044l-106.01933,106.01933c-31.14733,31.14733-31.14245,81.64927.00476,112.79648,15.56866,15.56866,35.98232,23.3552,56.39086,23.36032,20.41342,0,40.82708-7.78701,56.40062-23.36056l106.01933-106.01933c31.14733-31.14733,31.14721-81.65404.005-112.79625-15.57367-15.57367-35.98709-23.36044-56.40051-23.36044ZM294.73299,320.71741l-46.66704,46.66704c-26.25362,26.25362-68.97379,26.25374-95.22729.00024-26.2585-26.2585-26.25838-68.97867-.00476-95.23229l46.66704-46.66704,95.23205,95.23205ZM354.08528,261.36512l-46.66704,46.66704-95.23205-95.23205,46.66704-46.66704c26.25838-26.25838,68.97855-26.2585,95.23706,0,26.2535,26.2535,26.25338,68.97367-.005,95.23205Z"
    fill="#1f3734" />
  <path
    d="M199.50329,225.48529l95.23217,95.23217-46.66704,46.66704c-26.25362,26.25362-68.97355,26.2535-95.22717-.00012-26.2585-26.2585-26.25862-68.97843-.005-95.23205l46.66704-46.66704Z"
    fill="#60ca89" />
  <path
    d="M354.09263,166.133c26.25362,26.25362,26.25374,68.97355-.00465,95.23193l-46.66728,46.66728-95.23217-95.23217,46.66728-46.66728c26.25838-26.25838,68.97832-26.25826,95.23682.00024Z"
    fill="#fff" />
  <path
    d="M281.07442,307.05642l13.66104,13.66104-46.66704,46.66704c-26.25362,26.25362-68.97355,26.2535-95.22717-.00012-7.97712-7.97712-13.5293-17.47152-16.65189-27.57091,2.41029,3.64956,5.22533,7.10877,8.43559,10.31904,25.78526,25.78526,67.58825,25.78514,93.3735-.00012l43.07597-43.07597Z"
    fill="#34805d" />
  <path
    d="M354.09263,166.133c26.25362,26.25362,26.25374,68.97355-.00465,95.23193l-46.66728,46.66728-13.66104-13.66104,45.18882-45.18882c12.89513-12.89513,19.34008-29.79097,19.33531-46.68669.00476-16.89572-6.4403-33.79144-19.33543-46.68657-.80986-.80986-1.63437-1.5953-2.47854-2.36133,6.36228,3.16143,12.3291,7.39155,17.6228,12.68525Z"
    fill="#b7caca" />
  <path
    d="M173.61544,354.62328c-.06736.06736-.13799.13228-.21205.1949-1.4535,1.23194-3.63062,1.05202-4.86239-.40154-1.80921-2.13492-3.45731-4.29754-4.89863-6.42776-1.06745-1.57785-.65427-3.72296.92415-4.79062,1.57827-1.06751,3.72311-.65376,4.7908.92433,1.30225,1.92481,2.79872,3.88743,4.44772,5.83332,1.16905,1.37953,1.06667,3.41109-.1896,4.66736Z"
    fill="#fff" />
  <path
    d="M163.53874,338.34654c-.33028.33028-.73327.59843-1.1971.77734-1.77773.68568-3.77469-.19946-4.46058-1.97734-3.46017-8.97018-3.64575-17.95406-.55174-26.70221.63631-1.79554,2.60677-2.73732,4.40293-2.10211,1.7964.63545,2.73741,2.60656,2.10217,4.40293-2.56547,7.25335-2.40704,14.42287.48432,21.91832.50677,1.31378.1555,2.74756-.77999,3.68306Z"
    fill="#fff" />
  <path
    d="M167.95624,304.3457c-1.13927,1.13927-2.95997,1.35574-4.35165.42753-1.58497-1.057-2.01295-3.19904-.95599-4.7844,1.22524-1.83702,2.621-3.69065,4.14835-5.5096,1.22337-1.46065,3.40129-1.64888,4.86048-.42369,1.45916,1.22521,1.64873,3.40126.42351,4.86042-1.36485,1.62547-2.60698,3.2745-3.69178,4.90151-.12912.19344-.27453.36982-.43292.52821Z"
    fill="#fff" />
</svg>