<svg width="512" height="512" viewBox="0 0 512 512" fill="none" xmlns="http://www.w3.org/2000/svg">
  <rect width="512" height="512" fill="#FFFFFF" />
  <path d="M151 197c-21-44-32-78-32-101 35 9 72 47 111 113 17-3 35-3 53 0 39-66 76-104 111-113 0 23-11 57-32 101 37 32 59 78 59 128 0 91-74 138-165 138S91 416 91 325c0-50 23-96 60-128Z" fill="#FCFDFD" />
  <path d="M151 197c-21-44-32-78-32-101 35 9 72 47 111 113 17-3 35-3 53 0 39-66 76-104 111-113 0 23-11 57-32 101 37 32 59 78 59 128 0 91-74 138-165 138S91 416 91 325c0-50 23-96 60-128Z" stroke="#072421" stroke-width="18" stroke-linejoin="round" />
  <path d="M139 121c23 17 45 45 68 84-17 5-32 12-46 22-13-36-20-72-22-106Z" fill="#F4B2CD" stroke="#072421" stroke-width="12" stroke-linejoin="round" />
  <path d="M373 121c-23 17-45 45-68 84 17 5 32 12 46 22 13-36 20-72 22-106Z" fill="#F4B2CD" stroke="#072421" stroke-width="12" stroke-linejoin="round" />
  <path d="M118 331c-1 61 51 103 138 103s139-42 138-103c-38 33-89 51-138 51s-100-18-138-51Z" fill="#91D0E1" />
  <path d="M117 322c33 39 84 60 139 60s106-21 139-60" stroke="#072421" stroke-width="14" stroke-linecap="round" />
  <path d="M189 290c0 17-11 31-25 31s-25-14-25-31 11-31 25-31 25 14 25 31Z" fill="#072421" />
  <path d="M373 290c0 17-11 31-25 31s-25-14-25-31 11-31 25-31 25 14 25 31Z" fill="#072421" />
  <path d="M171 273c-7-6-19-5-25 2" stroke="#EFF6F8" stroke-width="10" stroke-linecap="round" />
  <path d="M355 273c-7-6-19-5-25 2" stroke="#EFF6F8" stroke-width="10" stroke-linecap="round" />
  <path d="M224 330c10 9 21 13 32 13s22-4 32-13" stroke="#072421" stroke-width="12" stroke-linecap="round" />
  <path d="M256 313l-17-15h34l-17 15Z" fill="#D27DA1" stroke="#072421" stroke-width="10" stroke-linejoin="round" />
  <path d="M119 281l-58-16M118 316H57M128 351l-55 25" stroke="#072421" stroke-width="12" stroke-linecap="round" />
  <path d="M393 281l58-16M394 316h61M384 351l55 25" stroke="#072421" stroke-width="12" stroke-linecap="round" />
</svg>
