<svg xmlns="http://www.w3.org/2000/svg" viewBox="0 0 512 512"><rect x="0" y="0" width="512" height="512" fill="#e6dafe" stroke-width="0"/><path d="m303.3552,228.53909c0,20.68622-16.72693,37.45888-37.35672,37.45888v37.45863c41.2596,0,74.71345-33.54506,74.71345-74.9175s-33.45384-74.91752-74.71345-74.91752c-13.60115,0-26.37461,3.64267-37.35673,10.02965-22.33652,12.94372-37.35672,37.15393-37.35672,64.88787v187.2944l33.58878,33.67951,3.76795,3.77887v-224.75278c0-20.68623,16.72692-37.45864,37.35673-37.45864s37.35672,16.77241,37.35672,37.45864Z" stroke-width="0"/><path d="m266,78.70813c-27.21933,0-52.73194,7.30199-74.71345,20.05934-14.07433,8.14905-26.67855,18.53447-37.35672,30.68202-23.24869,26.41247-37.35672,61.10975-37.35672,99.09366v112.37615l37.35672,37.45835v-149.8345c0-33.27392,14.4291-63.17658,37.35672-83.76115,10.77957-9.65709,23.43461-17.28091,37.35672-22.19396,11.67512-4.16794,24.26256-6.42104,37.35672-6.42104,61.88941,0,112.07017,50.31773,112.07017,112.37614s-50.18075,112.37615-112.07017,112.37615v37.45835c82.53625,0,149.42689-67.08961,149.42689-149.8345s-66.89064-149.83502-149.42689-149.83502Z" stroke-width="0"/></svg>