<svg xmlns="http://www.w3.org/2000/svg" viewBox="0 0 512 512"><rect x="0" y="0" width="512" height="512" fill="#000"/><path d="m141.04755,55.29649l115.68808,135.5443,77.65367-45.67862S240.70153,19.87225,215.71812,28.72831c-23.49187,8.94929-74.67056,26.56818-74.67056,26.56818Z" fill="#fff"/><path d="m337.27915,145.16218s17.61889-30.9496,26.38172-72.24679c0,0,87.90802,35.33101,54.1618,123.79839l-80.54352-51.55159Z" fill="#fff"/><path d="m417.8227,196.80699l7.36451,92.84878,33.65303-4.38143s8.76283-2.9831,7.36451-19.11044c-1.49155-17.71212-4.38143-54.53468-4.38143-54.53468,0,0,1.49155-8.85606-19.01722-11.74594-24.9834-4.56784-24.9834-3.07629-24.9834-3.07629Z" fill="#fff"/><path d="m425.09398,289.65576l-67.39926,54.53468,30.76315,60.40766s7.36451,23.58507,29.2716-2.9831c20.50877-26.56818,29.2716-30.94961,27.78005-47.17017-1.3051-16.22056-5.77973-54.53468-20.41554-64.78906Z" fill="#fff"/><path d="m356.2964,344.09721l-92.28945-41.29719-80.54353,163.60403s-5.87297,11.74594,14.6358,13.23749c20.50877,2.9831,54.1618,10.34761,71.78069-7.36451,17.61889-16.12737,86.4165-128.17983,86.4165-128.17983Z" fill="#fff"/><path d="m264.00693,301.4017l-8.76283-109.06935-199.21471,13.3307s-11.74593,1.49155-10.25438,23.58509c1.49155,29.45804,4.38142,61.89918,4.38142,61.89918,0,0-1.49155,13.23749,24.89019,14.72901,26.38173,1.39833,186.07046,1.39833,188.96032-4.47463Z" fill="#fff"/></svg>