<svg xmlns="http://www.w3.org/2000/svg" xmlns:xlink="http://www.w3.org/1999/xlink" viewBox="0 0 512 512">
  <defs>
    <linearGradient id="g" x1="246.10626" y1="-13561.8143" x2="-154.61481" y2="-13721.20923"
      gradientTransform="translate(242.34 -13304.34821) scale(1 -1)" gradientUnits="userSpaceOnUse">
      <stop offset="0" stop-color="#c200fb" />
      <stop offset=".48966" stop-color="#3772ff" />
      <stop offset=".48976" stop-color="#3773fe" />
      <stop offset="1" stop-color="#5ac4be" />
    </linearGradient>
    <linearGradient id="g-2" x1="193.77905" y1="-13488.70203" x2="-166.76584" y2="-13632.11574"
      xlink:href="#g" />
    <linearGradient id="g-3" x1="186.89858" y1="-13471.4057" x2="-173.64546" y2="-13614.82018"
      xlink:href="#g" />
    <linearGradient id="g-4" x1="184.18335" y1="-13464.65026" x2="-176.35984" y2="-13608.06396"
      xlink:href="#g" />
  </defs>
  <rect width="512" height="512" fill="#141b33" />
  <path
    d="m336.49117,351.84622h-32.9894l-25.44744-44.62938c10.0675-.62037,19.99871-2.66189,29.50041-6.0644l28.93644,50.69379Z"
    fill="url(#g)" />
  <path
    d="m408.05151,206.84925v137.43382l-152.05236,88.23955-152.13527-88.23955v-176.56617l152.13527-88.3258,116.85921,67.86448,17.63929-10.23109L255.99914,58.92977l-169.77456,98.55604v197.02752l169.77456,98.55691,169.77624-98.55691v-157.89433l-17.72388,10.23026Z"
    fill="url(#g-2)" />
  <path
    d="m213.42822,344.3685h-25.44073v-85.76844h84.80357c8.02301-.08881,15.68828-3.35062,21.33832-9.07927,5.65001-5.72698,8.82977-13.46074,8.8509-21.52858.04568-3.9874-.71966-7.94436-2.25119-11.62393-1.53156-3.68125-3.79546-7.00648-6.65385-9.77442-2.76455-2.85671-6.07539-5.12229-9.733-6.66059-3.65758-1.53917-7.58662-2.31887-11.55119-2.2918h-84.80357v-26.08851h84.88728c14.86206.08962,29.08986,6.06523,39.59917,16.6295,10.50847,10.56599,16.45195,24.86991,16.54076,39.80975.09049,11.43789-3.37769,22.61614-9.92159,31.97111-6.0221,8.95155-14.50939,15.94368-24.42334,20.12052-9.81671,3.1307-20.06133,4.68423-30.36008,4.60474h-50.88147v59.67993Z"
    fill="url(#g-3)" />
  <path
    d="m390.3285,178.28879l17.55386,9.80487,17.55474-9.80487v-20.71756l-17.55474-10.23109-17.55386,10.23109v20.71756Z"
    fill="url(#g-4)" />
</svg>