<svg xmlns="http://www.w3.org/2000/svg" viewBox="0 0 512 512">
  <rect width="100%" height="100%" fill="#fbebeb"/>
  <circle cx="256" cy="256" r="256" fill="#fbebeb"/>
  <path d="M351.08379,98.88611l-.3345-.53684h-189.49856l-95.24014,157.65072,94.90563,157.11377.33451.53696h189.49856l95.24012-157.65072-94.90562-157.11389ZM189.63764,167.98133l-45.71332,75.67122h-43.39452l67.29892-111.39316,21.78649,35.72193h.02243ZM209.70675,354.24073h92.45257l21.63014,36.19205h-135.71286l21.63014-36.19205ZM302.40476,156.28278h-92.78709l-21.18414-34.71537h135.13294l-21.18415,34.71537h.02243ZM209.72917,331.02276l-45.75817-75.76091,45.75817-75.76093h92.51924l45.75819,75.76093-45.75819,75.76091h-92.51924ZM368.07569,243.65255l-45.69089-75.6488,21.78648-35.722,67.27681,111.37079h-43.3724ZM189.68186,342.63205l-22.00887,36.83989-68.01285-112.57838h44.26417l45.75754,75.73849ZM412.36191,266.87113l-68.07912,112.69051-22.00951-36.8405,45.82484-75.85001h44.26379Z" fill="#ae0822"/>
</svg>
