<svg xmlns="http://www.w3.org/2000/svg" viewBox="0 0 512 512">
  <rect width="512" height="512" fill="#cf1011" />
  <path d="M256,195.3792A60.6208,60.6208,0,1,1,195.3792,256,60.61452,60.61452,0,0,1,256,195.3792Z" fill="#fff"
    fill-rule="evenodd" />
  <path
    d="M257.4336,97.4848a159.99961,159.99961,0,0,1,55.5008,10.6496,158.34294,158.34294,0,0,1,48.3328,29.2864l.4096.4096h0A158.70137,158.70137,0,0,1,374.784,361.2672l-.4096.4096h0A158.55491,158.55491,0,0,1,137.4208,150.9376l13.7216,12.0832A140.14367,140.14367,0,0,0,360.8576,348.9792l.4096-.4096h0a140.23822,140.23822,0,0,0-12.288-197.4272l-.4096-.4096h0a139.51431,139.51431,0,0,0-42.1888-25.6,142.34944,142.34944,0,0,0-48.9472-9.4208l.2048-18.432Z"
    fill="#fff" fill-rule="evenodd" />
  <path
    d="M165.888,98.5088a39.85684,39.85684,0,1,1-28.0576,11.6736A39.45037,39.45037,0,0,1,165.888,98.5088Zm15.1552,24.7808a21.26286,21.26286,0,1,0,6.3488,15.1552A21.36094,21.36094,0,0,0,181.0432,123.2896Z"
    fill="#fff" />
</svg>