<svg xmlns="http://www.w3.org/2000/svg" viewBox="0 0 512 512">
  <rect width="100%" height="100%" fill="#fff"/>
  <circle cx="256" cy="256" r="256" fill="#fff"/>
  <g>
    <g>
      <path d="m305.71803,275.00044l77.24694-77.00704c5.79709-5.77498,9.04748-13.62616,9.02886-21.80885l.13085-62.24246c-.00727-3.19308-1.24084-6.26135-3.4458-8.57088l-148.19112,147.86401c-12.04469,11.93863-12.13068,31.38094-.19206,43.42564.06374.06431.12776.12832.19206.19206l104.4862,104.15905c12.0447,11.98448,31.52418,11.93567,43.50865-.10905,11.98447-12.04468,11.93565-31.52418-.10903-43.50865h0l-82.65554-82.39383Z" fill="#008c62"/>
      <path d="m380.0426,102.03445h-232.76586c-18.82104,0-32.71327,14.21937-32.71327,33.62925v242.84153c-.21836,17.06593,13.43931,31.07763,30.50524,31.296.27074.00346.54152.00336.81227-.0003h0c16.99256.29158,31.00412-13.24724,31.2957-30.23981.00604-.35194.00604-.70396,0-1.05588v-216.56187h154.84283l56.70301-56.4195c-2.29468-2.30073-5.43126-3.56167-8.67991-3.48941Z" fill="#00e6a0"/>
    </g>
  </g>
</svg>
