<svg xmlns="http://www.w3.org/2000/svg" viewBox="0 0 470.86 470.86">
  <defs>
    <style>
      .cls-2 {
        fill: #cffc79;
      }
    </style>
  </defs>
  <g id="katman_1" data-name="katman 1">
    <rect fill="#050e30" x="0" y="0" width="470.86" height="470.86"/>
    <g>
      <path class="cls-2" d="M395.79,250.36v.94c-6.92,76.72-67.91,136.77-142.44,144.32h-1.57l144.01-145.27Z"/>
      <path class="cls-2" d="M306.17,91.58c-4.09-1.89-8.17-3.77-12.26-5.35-8.18-3.14-16.66-5.66-25.47-7.55-10.69-2.2-21.38-3.46-32.7-3.46-5.34,0-10.69.31-16.03.63-37.1,3.77-70.11,19.81-95.58,44.33-1.58,1.57-3.46,3.46-5.03,5.03-24.21,25.47-39.94,59.11-43.39,95.9-.31,4.72-.63,9.43-.63,14.46,0,11.95,1.26,23.58,3.78,34.9,1.89,8.49,4.4,16.67,7.54,24.84,1.89,4.4,3.78,8.8,5.66,12.89,3.78,7.23,7.86,14.15,12.58,20.75l26.41-26.73,169.79-171.68,26.42-26.73c-6.29-4.4-13.52-8.49-21.08-12.26ZM115.63,266.09c-.32-.94-.63-2.2-.63-3.14-1.89-8.8-2.83-17.92-2.83-27.04,0-31.76,11.95-61.63,33.64-84.58l4.4-4.4c23.27-22.32,53.46-34.59,85.84-34.59,8.49,0,16.98.94,25.15,2.52,1.26.31,2.52.63,3.78.94l-149.35,150.3Z"/>
      <path class="cls-2" d="M180.4,386.83c-4.09-1.57-7.86-3.14-11.63-4.72-7.86-3.77-15.41-7.86-22.64-12.89l221.99-224.19c4.71,6.92,9.12,14.15,12.58,22.01,1.89,4.09,3.78,8.17,5.34,12.26l-205.64,207.52Z"/>
    </g>
  </g>
</svg>