<svg width="1024" height="1024" viewBox="0 0 1024 1024" fill="none" xmlns="http://www.w3.org/2000/svg">
<path d="M1024 0V1024H0V0H1024Z" fill="#008CFF"/>
<path d="M684.984 577.374C664.339 565.399 641.054 561.946 617.984 561.191C598.633 560.544 569.796 548.137 569.796 512.643C569.907 499.858 575.009 487.622 584.013 478.551C593.017 469.48 605.209 464.292 617.984 464.095C641.054 463.286 664.339 459.833 684.984 447.912C703.52 437.171 718.906 421.737 729.597 403.163C740.288 384.587 745.908 363.525 745.892 342.088C745.876 320.652 740.225 299.597 729.506 281.039C718.787 262.48 703.378 247.07 684.826 236.356C666.273 225.642 645.231 220.001 623.811 220C602.391 219.999 581.348 225.638 562.794 236.35C544.241 247.062 528.83 262.471 518.11 281.029C507.389 299.587 501.736 320.641 501.718 342.077C501.718 365.758 510.127 387.551 520.907 407.779C529.909 424.771 534.49 456.327 503.497 474.182C492.295 480.42 479.096 482.016 466.732 478.628C454.368 475.239 443.823 467.137 437.36 456.057C425.232 436.638 410.409 418.298 390.088 406.592C371.528 395.878 350.477 390.241 329.05 390.248C307.624 390.254 286.576 395.904 268.022 406.629C249.469 417.354 234.062 432.777 223.35 451.348C212.639 469.919 207 490.985 207 512.427C207 533.87 212.639 554.935 223.35 573.506C234.062 592.077 249.469 607.501 268.022 618.226C286.576 628.951 307.624 634.6 329.05 634.607C350.477 634.613 371.528 628.976 390.088 618.262C410.571 606.395 425.232 588.216 437.36 568.797C447.332 552.614 472.18 532.548 503.497 550.672C514.497 557.267 522.475 567.913 525.721 580.328C528.966 592.743 527.218 605.936 520.853 617.075C510.073 637.304 501.718 659.097 501.718 682.777C501.719 704.231 507.363 725.306 518.082 743.885C528.801 762.466 544.216 777.894 562.781 788.623C581.345 799.347 602.404 805 623.841 805C645.279 805.005 666.339 799.363 684.906 788.639C703.474 777.916 718.894 762.493 729.618 743.916C740.342 725.34 745.992 704.266 746 682.813C746.008 661.359 740.373 640.282 729.662 621.698C718.952 603.114 703.543 587.678 684.984 576.942V577.374Z" fill="white"/>
</svg>
