<svg xmlns="http://www.w3.org/2000/svg" viewBox="0 0 80 80">
  <rect width="80" height="80" fill="#4a21ef"/>
  <g transform="translate(20 20)">
    <path d="M17.5359 0C16.3185 -1.12678e-07 15.1509 0.483616 14.2901 1.34446L0.768219 14.8666C0.256067 15.3788 -4.19303e-06 16.05 0 16.7213C4.19313e-06 17.3926 0.256084 18.0638 0.768233 18.576L9.62954 27.4373V11.7495C9.62954 10.5788 10.5712 9.6297 11.7419 9.6297C16.6881 9.6297 28.7279 9.6297 30.3701 9.6297L39.9996 0.000136473L17.5359 0Z" fill="#fff"/>
    <path d="M9.62954 30.3702H28.2503C29.421 30.3702 30.3701 29.4211 30.3701 28.2503V12.5625L39.2314 21.4239C39.7436 21.936 39.9996 22.6073 39.9996 23.2786C39.9996 23.9499 39.7436 24.6211 39.2314 25.1333L25.7095 38.6554C24.8487 39.5163 23.6812 39.9999 22.4638 39.9999L0 39.9997L9.62954 30.3702Z" fill="#fff"/>
  </g>
</svg>
