<svg xmlns="http://www.w3.org/2000/svg" viewBox="0 0 512 512">
  <rect width="512" height="512" fill="#f00500" />
  <path
    d="m356.05173,263.77488c-.17091.91136-2.84804,3.64551-5.52518,5.63914-7.86063,5.75303-21.92993,11.10737-36.22709,13.67061-8.14543,1.48097-16.29079,1.70883-18.74014.51266-1.59493-.79747-1.82272-1.42402-1.25311-3.4746,1.19616-4.27206,5.06953-8.94286,11.10737-13.32886,3.0759-2.22149,15.55034-9.79728,21.36032-12.98707,9.56945-5.24041,17.31612-8.37325,22.55649-9.11374,1.65188-.22786,3.64551-.2848,4.27206,0,1.02532.39873,2.16454,3.41765,2.62019,7.06316.22786,1.93661.11389,10.48074-.17091,12.01869Z"
  />
  <path
    d="m221.85196,282.62891c-.34175.68354-2.05058,1.42402-3.98726,1.70883-1.93668.2848-7.86063.11393-11.22126-.2848-12.07568-1.5949-24.89187-5.29735-34.23346-9.85422-5.24037-2.56324-8.99984-5.12648-11.79087-7.91757l-1.59493-1.65188-.17091-2.16451c-.2848-3.7594-.22786-9.68335.22786-11.79091.2848-1.76577.91136-3.4746,1.76577-5.01255q.45571-.56961,2.50629-.56961c2.50629,0,4.61382.39873,8.03147,1.48097,7.00621,2.16451,17.43001,7.40491,30.13231,15.03768,10.48081,6.26569,14.41113,9.3416,17.43001,13.55668,2.05058,2.62022,3.41765,6.32268,2.90499,7.46189Z"
  />
  <path
    d="m302.50852,361.91844c0,.17088-.6835,2.90499-1.53792,6.15177-.85441,3.24678-1.53792,5.86696-1.53792,5.98089-.62656.05695-1.19616.11393-1.82272.05695h-1.82272l-2.50636,5.92394c-1.36707,3.24678-2.62019,6.26569-2.7911,6.72137l-.34175.79747-1.19616-1.93668-1.19616-1.93668v-15.77817l-.45571.11393c-.96831.22786-7.86063,1.13922-10.87951,1.42402-12.47444,1.25315-25.00583.96834-37.42326-.79747-1.99363-.2848-3.70246-.51266-3.7594-.45568-.05695.05695,0,3.70246.11389,8.20238l.17091,8.08845-.96831,1.48097c-.51266.79747-1.02532,1.48097-1.02532,1.53795-.17091.17088-.74052-.74048-2.05058-3.3607-1.42402-2.73411-2.44934-5.63914-3.18979-8.65806l-.3987-1.65188-1.76577.11393-1.76577.17088-.45571-2.10756c-.22786-1.13922-.51266-2.90499-.62656-3.87333l-.17091-1.82275-1.48097-1.31009c-.85441-.74048-1.70883-1.48097-1.87974-1.5949-.2848-.22786-.3987-.62656-.3987-.96834v-.68354l7.12011.05695,7.12011.05695.22786.74048.22786.74048,2.44934.11393c1.36707.05695,5.69609.17088,9.56945.2848l7.12011.17088,1.82272-2.84804,1.87974-2.84804h2.39233l-.05695-5.92394-.05695-5.92394-3.13285-1.36707c-10.08204-4.44294-16.00599-9.51247-18.22748-15.66424-.45571-1.25315-.45571-1.70883-.56961-7.40491-.05695-5.63914-.05695-6.15177.34175-7.40491.79747-2.84804,3.01895-5.06953,5.867-5.81001.96831-.2848,3.53155-.2848,16.97436-.2848l15.83515.05695,1.76577.85441c2.10752,1.02529,3.0759,1.76577,4.27206,3.3607,1.36707,1.82275,1.76577,3.24678,1.76577,6.72137,0,4.9556-.34175,9.22767-.85441,10.93649-.74052,2.33538-1.87974,4.55687-3.30376,6.5505-2.84804,3.64551-8.03147,7.29098-12.75925,8.94286l-1.36707.51266.05695,5.98089.05695,5.98089,1.25311.11393,1.25311.11393,1.70883,2.56324,1.65188,2.56324h7.63277c4.21512,0,7.91757.05695,8.25933.11393.56961.11393.6835.05695,1.25311-.91136l.6835-1.02529h6.5505c4.89855-.22775,6.37952-.11382,6.37952.05705Z"
  />
  <path
    d="m272.43323,378.26621c-1.08227.62656-1.82272.91136-1.99363.79747-.17091-.05695-.96831-.74048-1.82272-1.36707l-1.53792-1.25315-1.59493,1.70883c-3.4746,3.7594-3.58856,3.93031-4.61382,3.98726-1.59493.17088-1.93668-.11393-3.87337-3.01892-1.02532-1.48097-1.82272-2.73411-1.82272-2.73411,0,0-.74052-.11393-1.59493-.17088l-1.59493-.17088-.74052,1.53795-.74052,1.53795-1.31013-.39873c-1.02532-.34175-2.05058-.74048-3.01895-1.19616l-1.70883-.85441v-3.24678l15.15158.05695,15.15158.05695.05695,1.53795c.05709,1.82272.1141,1.76577-2.39219,3.18979Z"
  />
  <path
    d="m414.83539,308.77396c-.05695-.22786-.05695-.62656-.11389-1.25315-13.67061-1.48097-52.6888-2.39236-88.91589,27.51209,0,0-11.67698-53.54321-66.3594-53.54321s-74.96048,53.54321-74.96048,53.54321c-30.64497-32.98035-71.65676-30.58799-86.46658-28.42348,0,.34175-.05695.74048-.05695,1.08227-.45568,8.25933-.22786,12.18964,1.13922,17.37306,4.27206,16.23385,17.43004,34.11957,38.04985,51.66351,33.77782,28.70829,79.5743,49.44202,114.26348,51.83439,36.17015,2.44931,89.54245-18.68316,125.08604-49.55595,5.58219-4.9556,10.82256-10.19601,15.72118-15.77817,3.53155-4.10119,8.77199-11.16432,8.37322-11.16432-.11389,0,0-.11393.22786-.22786.17091-.11393.34175-.2848.22786-.39873-.05695-.05695.05695-.22786.22786-.2848s.2848-.17088.22786-.2848,0-.22786.22786-.2848c.17091-.05695.22786-.22786.17091-.34175-.05695-.11393,0-.22786.11389-.22786s.22786-.17088.22786-.2848.11389-.2848.22786-.2848c.11389,0,.22786-.11393.22786-.22786.17091-.45568.45571-.91136.74052-1.31009.85441-1.31009,4.27206-7.40491,4.72778-8.4302,3.24674-7.34797,5.29739-13.89846,6.26569-20.44896.34161-3.13281.62642-8.88588.39856-10.25292Z"
    fill="#fff"
  />
  <path
    d="m272.43323,378.26621c-1.08227.62656-1.82272.91136-1.99363.79747-.17091-.05695-.96831-.74048-1.82272-1.36707l-1.53792-1.25315-1.59493,1.70883c-3.4746,3.7594-3.58856,3.93031-4.61382,3.98726-1.59493.17088-1.93668-.11393-3.87337-3.01892-1.02532-1.48097-1.82272-2.73411-1.82272-2.73411,0,0-.74052-.11393-1.59493-.17088l-1.59493-.17088-.74052,1.53795-.74052,1.53795-1.31013-.39873c-1.02532-.34175-2.05058-.74048-3.01895-1.19616l-1.70883-.85441v-3.24678l15.15158.05695,15.15158.05695.05695,1.53795c.05709,1.82272.1141,1.76577-2.39219,3.18979Z"
  />
  <path
    d="m300.91366,368.01326c-.85441,3.24678-1.53792,5.86696-1.53792,5.98089-.62656.05695-1.19616.11393-1.82272.05695h-1.82272l-2.44941,5.98089c-1.36707,3.24678-2.62019,6.26569-2.7911,6.72137l-.34175.79747-1.19616-1.93668-1.19616-1.93668v-15.77817l-.45571.11393c-.96831.22786-7.86063,1.13922-10.87951,1.42402-12.47444,1.25315-25.00583.96834-37.42326-.79747-1.99363-.2848-3.70246-.51266-3.7594-.45568-.05695.05695,0,3.70246.11389,8.20238l.17091,8.08845-.96831,1.48097c-.51266.79747-1.02532,1.48097-1.02532,1.53795-.17091.17088-.74052-.74048-2.05058-3.3607-1.42402-2.73411-2.44934-5.63914-3.18979-8.65806l-.3987-1.65188-1.76577.11393-1.76577.17088-.45571-2.10756c-.22786-1.13922-.51266-2.90499-.62656-3.87333l-.17091-1.82275-1.48097-1.31009c-.85441-.74048-1.70883-1.48097-1.87974-1.5949-.2848-.22786-.3987-.62656-.3987-.96834v-.68354l7.12011.05695,7.12011.05695.22786.74048.22786.74048,2.44934.11393c1.36707.05695,5.69609.17088,9.56945.2848l7.12011.17088,1.82272-2.84804,1.87974-2.84804h2.39233l-.05695-5.92394-.05695-5.92394-3.13285-1.36707c-10.08204-4.44294-16.00599-9.51247-18.22748-15.66424-.45571-1.25315-.45571-1.70883-.56961-7.40491-.05695-5.63914-.05695-6.15177.34175-7.40491.79747-2.84804,3.01895-5.06953,5.867-5.81001.96831-.2848,3.53155-.2848,16.97436-.2848l15.83515.05695,1.76577.85441c2.10752,1.02529,3.0759,1.76577,4.27206,3.3607,1.36707,1.82275,1.76577,3.24678,1.76577,6.72137,0,4.9556-.34175,9.22767-.85441,10.93649-.74052,2.33538-1.87974,4.55687-3.30376,6.5505-2.84804,3.64551-8.03147,7.29098-12.75925,8.94286l-1.36707.51266.05695,5.98089.05695,5.98089,1.25311.11393,1.25311.11393,1.70883,2.56324,1.65188,2.56324h7.63277c4.21512,0,7.91757.05695,8.25933.11393.56961.11393.6835.05695,1.25311-.91136l.6835-1.02529h6.5505c5.06953,0,6.5505.05695,6.5505.22786-.17098-.05688-.91143,2.73418-1.76584,5.92401Z"
  />
  <path
    d="m97.90513,306.60942c-3.58853.51266-5.69609,1.08227-5.69609,1.08227"
    fill="none"
  />
  <path d="m419.79095,308.2613s-1.82272-.39873-5.06953-.74048" fill="none" />
  <path
    d="m414.37967,302.96395c-.11389-2.56324-.34175-6.15177-.51266-7.91757-2.44934-25.86025-9.05679-46.99271-21.58818-69.37832-.51266-.85441-.96831-1.70883-1.25311-2.39236-.11389-.17088-.17091-.34177-.22786-.45568h0c1.76577-5.29735,8.99984-27.45514,14.75288-52.80273,7.80361-34.40436,12.75925-74.61873-2.39233-86.69443,0,0-26.202-1.93667-61.28987,32.46768-9.51244,9.51247-18.22748,19.82237-25.97414,30.81583l-2.44934-.79745c-14.12632-4.61383-28.76524-7.46188-43.51811-8.4302-4.44298-.34177-21.01857-.34177-26.42985,0-16.34774,1.08225-28.87913,3.53158-43.11935,8.48717-.56961.22784-1.08227.39873-1.59493.56961-8.03147-10.93649-16.97436-21.18945-26.82855-30.58799-36.5119-34.57524-63.68224-32.58161-63.68224-32.58161-16.06297,12.47443-10.59471,54.51154-2.27843,90.05512,5.46823,23.52483,12.1896,44.20163,14.6959,51.66351-.17091.39873-.3987.85441-.62656,1.25315-13.27187,26.88553-20.44896,52.80273-22.15779,80.37176,14.86677-2.16451,55.82165-4.61382,86.52356,28.42348,0,0,20.27805-53.54321,74.96048-53.54321s66.3594,53.54321,66.3594,53.54321c36.22709-29.90445,75.24529-28.93611,88.91589-27.51209-.05695-1.13922-.17084-2.84804-.2848-4.55687Z"
    fill="#ffa409"
  />
  <path
    d="m131.45509,203.51028s-21.30338-53.25841-15.83515-83.6755h0c.91136-5.12648,2.62019-9.62638,5.29739-13.04403,0,0,24.15142,2.39236,63.11266,45.6826,0,0-7.40491,3.58853-17.31612,11.2213,0,0-.05695.05696-.11389.05696-10.76569,8.25931-24.55019,21.36031-35.14489,39.75868h0Z"
    fill="#ffa409"
  />
  <path
    d="m221.85196,282.62891c-.34175.68354-2.05058,1.42402-3.98726,1.70883-1.93668.2848-7.86063.11393-11.22126-.2848-12.07568-1.5949-24.89187-5.29735-34.23346-9.85422-5.24037-2.56324-8.99984-5.12648-11.79087-7.91757l-1.59493-1.65188-.17091-2.16451c-.2848-3.7594-.22786-9.68335.22786-11.79091.2848-1.76577.91136-3.4746,1.76577-5.01255q.45571-.56961,2.50629-.56961c2.50629,0,4.61382.39873,8.03147,1.48097,7.00621,2.16451,17.43001,7.40491,30.13231,15.03768,10.48081,6.26569,14.41113,9.3416,17.43001,13.55668,2.05058,2.62022,3.41765,6.32268,2.90499,7.46189Z"
  />
  <path
    d="m356.05173,263.77488c-.17091.91136-2.84804,3.64551-5.52518,5.63914-7.86063,5.75303-21.92993,11.10737-36.22709,13.67061-8.14543,1.48097-16.29079,1.70883-18.74014.51266-1.59493-.79747-1.82272-1.42402-1.25311-3.4746,1.19616-4.27206,5.06953-8.94286,11.10737-13.32886,3.0759-2.22149,15.55034-9.79728,21.36032-12.98707,9.56945-5.24041,17.31612-8.37325,22.55649-9.11374,1.65188-.22786,3.64551-.2848,4.27206,0,1.02532.39873,2.16454,3.41765,2.62019,7.06316.22786,1.93661.11389,10.48074-.17091,12.01869Z"
  />
  <path
    d="m346.59625,163.69464l-.11389-.05696c-9.56945-7.63275-16.74651-11.2213-16.74651-11.2213,37.65112-43.29026,60.94812-45.6826,60.94812-45.6826,2.56324,3.47462,4.21512,7.91756,5.12648,13.04403h0c5.29739,30.4171-15.26554,83.73247-15.26554,83.73247-8.60108-15.32247-20.16409-28.87916-33.94866-39.81564h0Z"
    fill="#ffa409"
  />
  <path
    d="m315.83738,146.60638c-.11389.11393-.17091.2848-.2848.39873"
    fill="none"
  />
  <path
    d="m390.74091,222.76304c-.2848.79745-.3987,1.19618-.3987,1.19618"
    fill="none"
  />
  <g>
    <path
      d="m395.86739,119.77781c-4.44298-.56961-25.46148-.68354-49.27115,43.91683l-.11389-.05696c-9.56945-7.63275-16.74651-11.2213-16.74651-11.2213,37.65112-43.29026,60.94812-45.6826,60.94812-45.6826,2.62019,3.4746,4.27206,7.91756,5.18342,13.04403Z"
      fill="#ff9300"
    />
  </g>
  <path
    d="m380.60192,203.51028c-8.65802-15.37943-20.16416-28.87916-34.00561-39.81564,23.80967-44.60035,44.77122-44.48644,49.27115-43.91683h0c5.29732,30.47406-15.26554,83.73247-15.26554,83.73247Z"
    fill="#ff8300"
  />
  <path
    d="m396.7218,119.94868c-.2848-.05696-.56961-.11393-.85441-.17088l.85441.17088Z"
    fill="#ff8300"
  />
  <path
    d="m200.49163,148.82785c-.56961-.79745-1.19616-1.5949-1.76577-2.39236"
    fill="none"
  />
  <path
    d="m120.68948,224.98451c.62656,1.93667,1.02532,2.96197,1.02532,2.96197"
    fill="none"
  />
  <g>
    <path
      d="m184.02993,152.41638s-7.40491,3.58853-17.31612,11.2213c0,0-.05695.05696-.11389.05696-24.66408-44.65731-46.36616-44.48644-51.03692-43.91683.91136-5.12648,2.62019-9.62638,5.29739-13.04403.05695,0,24.20837,2.39235,63.16954,45.6826Z"
      fill="#ff9300"
    />
  </g>
  <path
    d="m166.65687,163.69464c-10.82256,8.31629-24.60706,21.36032-35.20184,39.81564,0,0-21.30338-53.25841-15.83515-83.73247h0c4.61389-.56961,26.37298-.68354,51.03699,43.91683Z"
    fill="#ff8300"
  />
  <path
    d="m115.61995,119.77781c-.2848.05696-.62656.11393-.91136.17088l.91136-.17088Z"
    fill="#ff8300"
  />
  <path
    d="m322.95749,233.07296s-18.22748,1.13922-15.94904-13.101c2.27843-14.24022,16.51865-15.94904,20.50591-15.37943,3.98726.56961,19.9363,6.26569,17.08826,18.22748-2.84804,11.96178-6.8353,9.68335-9.11374,10.25296-2.27843.56961-12.53139,0-12.53139,0Z"
    fill="#fff"
  />
  <path
    d="m188.52985,233.07296s-18.22748,1.13922-15.94904-13.101c2.27843-14.24022,16.51865-15.94904,20.50591-15.37943,3.98726.56961,19.9363,6.26569,17.08826,18.22748-2.84804,11.96178-6.8353,9.68335-9.11374,10.25296-2.27843.56961-12.53139,0-12.53139,0Z"
    fill="#fff"
  />
</svg>
