<svg xmlns="http://www.w3.org/2000/svg" width="150" height="150" viewBox="0 0 150 150">
  <rect width="150" height="150" fill="#52606f"/>
  <g>
    <polygon fill="#e7edf4" points="59,28 91,28 105,51 45,51"/>
    <polygon fill="#b7c2cd" points="45,51 105,51 96,72 54,72"/>
    <polygon fill="#ffffff" points="62,35 84,35 91,47 55,47"/>
  </g>
  <g>
    <polygon fill="#e7edf4" points="29,68 61,68 75,91 15,91"/>
    <polygon fill="#aeb9c4" points="15,91 75,91 66,113 24,113"/>
    <polygon fill="#ffffff" points="32,75 54,75 61,87 25,87"/>
  </g>
  <g>
    <polygon fill="#d6dee8" points="89,68 121,68 135,91 75,91"/>
    <polygon fill="#9da8b5" points="75,91 135,91 126,113 84,113"/>
    <polygon fill="#ffffff" points="92,75 114,75 121,87 85,87"/>
  </g>
  <path fill="#25313d" opacity="0.28" d="M24 113h42l9-22h60l-9 22H84l-9-20-9 20z"/>
</svg>
