<svg xmlns="http://www.w3.org/2000/svg" viewBox="0 0 512 512">
  <defs>
    <linearGradient id="Degradado_sin_nombre_18" x1="0" y1="256" x2="512" y2="256" gradientUnits="userSpaceOnUse">
      <stop offset="0" stop-color="#869cfd" />
      <stop offset="1" stop-color="#b599ff" />
    </linearGradient>
  </defs>
  <rect x="0" y="0" width="512" height="512" fill="url(#Degradado_sin_nombre_18)" stroke-width="0" />
  <path
    d="M214.86921,100.5489c-58.02396-11.86818-70.22102,16.81346-62.30857,49.78118,5.63527,23.48373,21.93613,51.07321,30.87184,65.04704h-29.65018c-9.25432,0-16.75727,7.50246-16.75727,16.75727s7.50295,16.75727,16.75727,16.75727h129.64842c3.05317,0,5.52777-2.47459,5.52777-5.52777v-22.45851c0-3.05317-2.47459-5.52826-5.52777-5.52826h-72.86469c-8.5311-14.82313-22.32706-43.59811-7.89583-54.21531,19.78112-14.5529,139.45297,80.48785,168.13462,30.04795,28.68164-50.44039-97.9136-78.79218-155.93561-90.66085Z"
    fill="#fff" stroke-width="0" />
  <path
    d="M370.80482,320.79074c-28.68164-50.44039-148.3535,44.60036-168.13462,30.04746-13.98068-10.28638-1.46697-37.61442,7.08563-52.79184h73.67489c3.05317,0,5.52777-2.47459,5.52777-5.52777v-22.45851c0-3.05317-2.47459-5.52826-5.52777-5.52826h-129.64842c-9.25432,0-16.75727,7.50246-16.75727,16.75727s7.50295,16.75727,16.75727,16.75727h28.73833c-9.0999,14.38431-24.52018,40.95249-29.95999,63.62405-7.91245,32.96723,4.28461,61.64887,62.30857,49.78069,58.02201-11.86818,184.61725-40.22047,155.93561-90.66036Z"
    fill="#fff" stroke-width="0" />
</svg>