<svg xmlns="http://www.w3.org/2000/svg" viewBox="0 0 512 512"><rect x="0" y="0" width="512" height="512" fill="#fc6432"/><path d="M376.48503,220.14592c0-3.27912-2.65825-5.93737-5.93737-5.93737h-68.46774c-3.96793,0-6.30936-4.44957-4.06236-7.71996l45.00663-65.50466c2.8393-4.13244-.11931-9.75487-5.13316-9.75487h-14.30394c-3.15764,0-6.10724,1.57495-7.86381,4.19891l-48.15835,71.93883c-5.50642,8.6915-18.18666,8.69151-23.69308,0l-47.16627-71.86684c-1.74935-2.66546-4.72328-4.27088-7.91152-4.27088h-15.4824c-4.96706,0-7.93548,5.52951-5.19085,9.6694l43.52933,65.65776c2.17209,3.27629-.17711,7.65232-4.10801,7.65232h-67.65301c-3.27912,0-5.93737,2.65825-5.93737,5.93737v14.55437c0,2.87335,2.33112,5.2017,5.20446,5.19828l232.1367-.27595c2.86852-.00341,5.19211-2.32976,5.19211-5.19828v-14.27842Z" fill="#fff"/><path d="M376.48503,286.98172c0,3.27912-2.65825,5.93737-5.93737,5.93737h-68.46774c-3.96793,0-6.30936,4.44957-4.06236,7.71996l45.00663,65.50466c2.8393,4.13244-.11931,9.75487-5.13316,9.75487h-14.30394c-3.15764,0-6.10724-1.57495-7.86381-4.19891l-48.15835-71.93883c-5.50642-8.6915-18.18666-8.69151-23.69308,0l-47.16627,71.86684c-1.74935,2.66546-4.72328,4.27088-7.91152,4.27088h-15.4824c-4.96706,0-7.93548-5.52951-5.19085-9.6694l43.52933-65.65776c2.17209-3.27629-.17711-7.65232-4.10801-7.65232h-67.65301c-3.27912,0-5.93737-2.65825-5.93737-5.93737v-14.55437c0-2.87335,2.33112-5.2017,5.20446-5.19828l232.1367.27595c2.86852.00341,5.19211,2.32976,5.19211,5.19828v14.27842Z" fill="#fff"/></svg>