<svg xmlns="http://www.w3.org/2000/svg" xmlns:xlink="http://www.w3.org/1999/xlink" viewBox="0 0 100 100">
  <rect width="100" height="100" fill="#F04B23"/>
  <g transform="translate(10 10) scale(0.15625 0.15625)">
<defs><clipPath id="clippath"><circle cx="256" cy="256" r="256" fill="none"/></clipPath><mask id="mask" x="0" y="0" width="512" height="512" maskUnits="userSpaceOnUse"><g id="mask0"><circle cx="256" cy="256" r="256" fill="#fff"/></g></mask><mask id="mask-1" x="78.18565" y="74.32226" width="376.91179" height="361.14754" maskUnits="userSpaceOnUse"><g id="mask1"><circle cx="256.83057" cy="256.82489" r="174.79338" fill="#fff" stroke="#fff" stroke-width="7.70306"/></g></mask></defs><g clip-path="url(#clippath)"><rect x="0" y="0" width="512" height="5.95349" fill="#f5b745"/><rect x="0" y="5.95349" width="512" height="5.95349" fill="#f5b645"/><rect x="0" y="11.90698" width="512" height="5.95349" fill="#f5b645"/><rect x="0" y="17.86047" width="512" height="5.95349" fill="#f5b545"/><rect x="0" y="23.81395" width="512" height="5.95349" fill="#f5b545"/><rect x="0" y="29.76744" width="512" height="5.95349" fill="#f5b445"/><rect x="0" y="35.72093" width="512" height="5.95349" fill="#f5b445"/><rect x="0" y="41.67442" width="512" height="5.95349" fill="#f6b345"/><rect x="0" y="47.62791" width="512" height="5.95349" fill="#f6b345"/><rect x="0" y="53.5814" width="512" height="5.95349" fill="#f6b245"/><rect x="0" y="59.53488" width="512" height="5.95349" fill="#f6b245"/><rect x="0" y="65.48837" width="512" height="5.95349" fill="#f6b145"/><rect x="0" y="71.44186" width="512" height="5.95349" fill="#f6b145"/><rect x="0" y="77.39535" width="512" height="5.95349" fill="#f6b045"/><rect x="0" y="83.34884" width="512" height="5.95349" fill="#f6b045"/><rect x="0" y="89.30233" width="512" height="5.95349" fill="#f6af45"/><rect x="0" y="95.25581" width="512" height="5.95349" fill="#f6af45"/><rect x="0" y="101.2093" width="512" height="5.95349" fill="#f6ae45"/><rect x="0" y="107.16279" width="512" height="5.95349" fill="#f6ae45"/><rect x="0" y="113.11628" width="512" height="5.95349" fill="#f7ad45"/><rect x="0" y="119.06977" width="512" height="5.95349" fill="#f7ad45"/><rect x="0" y="125.02326" width="512" height="5.95349" fill="#f7ac45"/><rect x="0" y="130.97674" width="512" height="5.95349" fill="#f7ac46"/><rect x="0" y="136.93023" width="512" height="5.95349" fill="#f7ab46"/><rect x="0" y="142.88372" width="512" height="5.95349" fill="#f7ab46"/><rect x="0" y="148.83721" width="512" height="5.95349" fill="#f7aa46"/><rect x="0" y="154.7907" width="512" height="5.95349" fill="#f7aa46"/><rect x="0" y="160.74419" width="512" height="5.95349" fill="#f7a946"/><rect x="0" y="166.69767" width="512" height="5.95349" fill="#f7a946"/><rect x="0" y="172.65116" width="512" height="5.95349" fill="#f7a846"/><rect x="0" y="178.60465" width="512" height="5.95349" fill="#f7a746"/><rect x="0" y="184.55814" width="512" height="5.95349" fill="#f8a746"/><rect x="0" y="190.51163" width="512" height="5.95349" fill="#f8a646"/><rect x="0" y="196.46512" width="512" height="5.95349" fill="#f8a646"/><rect x="0" y="202.4186" width="512" height="5.95349" fill="#f8a546"/><rect x="0" y="208.37209" width="512" height="5.95349" fill="#f8a546"/><rect x="0" y="214.32558" width="512" height="5.95349" fill="#f8a446"/><rect x="0" y="220.27907" width="512" height="5.95349" fill="#f8a446"/><rect x="0" y="226.23256" width="512" height="5.95349" fill="#f8a346"/><rect x="0" y="232.18605" width="512" height="5.95349" fill="#f8a346"/><rect x="0" y="238.13953" width="512" height="5.95349" fill="#f8a246"/><rect x="0" y="244.09302" width="512" height="5.95349" fill="#f8a246"/><rect x="0" y="250.04651" width="512" height="5.95349" fill="#f8a146"/><rect x="0" y="256" width="512" height="5.95349" fill="#f9a146"/><rect x="0" y="261.95349" width="512" height="5.95349" fill="#f9a046"/><rect x="0" y="267.90698" width="512" height="5.95349" fill="#f9a046"/><rect x="0" y="273.86046" width="512" height="5.95349" fill="#f99f46"/><rect x="0" y="279.81395" width="512" height="5.95349" fill="#f99f46"/><rect x="0" y="285.76744" width="512" height="5.95349" fill="#f99e46"/><rect x="0" y="291.72093" width="512" height="5.95349" fill="#f99e46"/><rect x="0" y="297.67442" width="512" height="5.95349" fill="#f99d46"/><rect x="0" y="303.62791" width="512" height="5.95349" fill="#f99d46"/><rect x="0" y="309.5814" width="512" height="5.95349" fill="#f99c46"/><rect x="0" y="315.53488" width="512" height="5.95349" fill="#f99c46"/><rect x="0" y="321.48837" width="512" height="5.95349" fill="#f99b46"/><rect x="0" y="327.44186" width="512" height="5.95349" fill="#fa9b46"/><rect x="0" y="333.39535" width="512" height="5.95349" fill="#fa9a46"/><rect x="0" y="339.34884" width="512" height="5.95349" fill="#fa9946"/><rect x="0" y="345.30233" width="512" height="5.95349" fill="#fa9946"/><rect x="0" y="351.25581" width="512" height="5.95349" fill="#fa9846"/><rect x="0" y="357.2093" width="512" height="5.95349" fill="#fa9846"/><rect x="0" y="363.16279" width="512" height="5.95349" fill="#fa9746"/><rect x="0" y="369.11628" width="512" height="5.95349" fill="#fa9746"/><rect x="0" y="375.06977" width="512" height="5.95349" fill="#fa9646"/><rect x="0" y="381.02326" width="512" height="5.95349" fill="#fa9647"/><rect x="0" y="386.97674" width="512" height="5.95349" fill="#fa9547"/><rect x="0" y="392.93023" width="512" height="5.95349" fill="#fa9547"/><rect x="0" y="398.88372" width="512" height="5.95349" fill="#fb9447"/><rect x="0" y="404.83721" width="512" height="5.95349" fill="#fb9447"/><rect x="0" y="410.7907" width="512" height="5.95349" fill="#fb9347"/><rect x="0" y="416.74419" width="512" height="5.95349" fill="#fb9347"/><rect x="0" y="422.69767" width="512" height="5.95349" fill="#fb9247"/><rect x="0" y="428.65116" width="512" height="5.95349" fill="#fb9247"/><rect x="0" y="434.60465" width="512" height="5.95349" fill="#fb9147"/><rect x="0" y="440.55814" width="512" height="5.95349" fill="#fb9147"/><rect x="0" y="446.51163" width="512" height="5.95349" fill="#fb9047"/><rect x="0" y="452.46512" width="512" height="5.95349" fill="#fb9047"/><rect x="0" y="458.4186" width="512" height="5.95349" fill="#fb8f47"/><rect x="0" y="464.37209" width="512" height="5.95349" fill="#fb8f47"/><rect x="0" y="470.32558" width="512" height="5.95349" fill="#fc8e47"/><rect x="0" y="476.27907" width="512" height="5.95349" fill="#fc8e47"/><rect x="0" y="482.23256" width="512" height="5.95349" fill="#fc8d47"/><rect x="0" y="488.18605" width="512" height="5.95349" fill="#fc8d47"/><rect x="0" y="494.13953" width="512" height="5.95349" fill="#fc8c47"/><rect x="0" y="500.09302" width="512" height="5.95349" fill="#fc8c47"/><rect x="0" y="506.04651" width="512" height="5.95349" fill="#fc8b47"/></g><g mask="url(#mask)"><rect x="246.10409" y=".06326" width="8.98693" height="117.20039" fill="#fff"/><rect x="219.68651" y="1.96192" width="8.98693" height="115.30174" fill="#fff"/><rect x="280.79518" y="1.66016" width="8.98693" height="115.6035" fill="#fff"/><polygon points="192.62014 83.63931 158.3942 19.78949 166.31491 15.54368 192.08699 63.62253 192.08699 6.94109 201.07392 6.94109 201.07392 81.51641 192.62014 83.63931" fill="#fff"/><polygon points="316.11895 80.33301 307.66555 78.20949 307.66555 6.1867 316.65232 6.1867 316.65232 60.32098 341.51951 13.94617 349.43953 18.19321 316.11895 80.33301" fill="#fff"/><rect x="255.27037" y="417.85313" width="8.98693" height="94.11506" fill="#fff"/><rect x="281.68794" y="417.85313" width="8.98685" height="92.37971" fill="#fff"/><rect x="220.57928" y="417.85313" width="8.98693" height="92.29161" fill="#fff"/><polygon points="319.94665 505.06518 310.95988 505.06518 310.95988 455.85113 319.41343 453.72792 342.27252 496.36574 334.35219 500.61186 319.94665 473.74241 319.94665 505.06518" fill="#fff"/><polygon points="201.07392 505.06518 192.08699 505.06518 192.08699 475.38504 178.42311 500.86419 170.50324 496.61685 192.62052 455.3747 201.07392 457.49838 201.07392 505.06518" fill="#fff"/><rect x=".50452" y="267.65448" width="104.37517" height="8.98677" fill="#fff"/><rect x="3.52227" y="294.07205" width="101.35743" height="8.98677" fill="#fff"/><rect x=".66799" y="232.96339" width="104.21171" height="8.98677" fill="#fff"/><polygon points="20.69629 355.87618 16.44987 347.95585 47.11755 331.51335 9.97264 331.51335 9.97264 322.52658 65.00813 322.52658 67.13134 330.98013 20.69629 355.87618" fill="#fff"/><polygon points="76.56346 219.22921 3.32104 219.22921 3.32104 210.24243 58.66705 210.24243 7.01314 182.55857 7.01314 179.86868 11.50998 179.86239 13.6292 175.90821 78.68606 210.77535 76.56346 219.22921" fill="#fff"/><rect x="405.48168" y="258.48812" width="106.41212" height="8.98677" fill="#fff"/><rect x="405.48168" y="232.05796" width="105.78343" height="8.98677" fill="#fff"/><rect x="405.48168" y="293.16678" width="103.13038" height="8.98677" fill="#fff"/><polygon points="507.53073 212.62796 439.34301 212.62796 437.22072 204.17395 497.12035 172.04889 501.36862 179.9683 457.23766 203.64119 507.53073 203.64119 507.53073 212.62796" fill="#fff"/><polygon points="491.65201 354.97105 443.82135 329.33304 445.94426 320.87934 502.48863 320.87934 502.48863 329.86611 463.83875 329.86611 495.89781 347.05042 491.65201 354.97105" fill="#fff"/><rect x="69.63742" y="406.75832" width="96.66323" height="8.98697" transform="translate(-256.24661 203.86957) rotate(-45)" fill="#fff"/><rect x="90.55325" y="424.51882" width="94.04927" height="8.98697" transform="translate(-263.06188 222.93705) rotate(-45)" fill="#fff"/><rect x="45.71301" y="381.98798" width="95.95202" height="8.98697" transform="translate(-245.84279 179.44594) rotate(-45)" fill="#fff"/><polygon points="159.48919 492.68354 150.88583 490.0859 159.93615 460.11029 136.24752 483.799 129.89278 477.44425 166.23111 441.10592 173.71016 445.58212 159.48919 492.68354" fill="#fff"/><polygon points="44.24501 398.29712 37.89026 391.94237 64.00723 365.82532 29.06304 376.37354 26.46601 367.77018 78.53418 352.05292 83.01007 359.53197 44.24501 398.29712" fill="#fff"/><rect x="341.45667" y="113.08459" width="114.44523" height="8.98697" transform="translate(33.63021 316.34665) rotate(-45)" fill="#fff"/><rect x="322.93008" y="94.77713" width="113.38714" height="8.98697" transform="translate(40.99427 297.51015) rotate(-45)" fill="#fff"/><rect x="366.39439" y="138.59682" width="111.67123" height="8.98697" transform="translate(22.49772 340.49119) rotate(-45.00277)" fill="#fff"/><polygon points="347.99044 97.87111 340.51431 93.38539 341.13041 91.36103 361.63545 23.44682 370.2388 26.04447 354.29362 78.85568 393.94239 39.19723 400.29775 45.55106 347.99044 97.87111" fill="#fff"/><polygon points="430.73367 180.32286 426.25747 172.8438 474.4654 124.63572 480.82015 130.99047 445.26231 166.54846 490.8795 152.77069 493.47653 161.37404 430.73367 180.32286" fill="#fff"/><rect x="394.87098" y="356.23907" width="8.98697" height="98.06792" transform="translate(-169.60017 401.09567) rotate(-45.00006)" fill="#fff"/><rect x="413.22886" y="337.6897" width="8.98697" height="97.14333" transform="translate(-150.77999 408.50763) rotate(-45)" fill="#fff"/><rect x="369.31478" y="381.18252" width="8.98697" height="95.16933" transform="translate(-193.69828 389.90536) rotate(-45)" fill="#fff"/><polygon points="467.97727 397.9576 429.5518 359.53197 434.02846 352.05308 485.60608 367.63204 483.00752 376.23509 448.55925 365.83008 474.33202 391.60285 467.97727 397.9576" fill="#fff"/><polygon points="356.34177 490.99824 342.13346 443.93472 349.61251 439.45868 385.62391 475.47008 379.26917 481.82482 355.90678 458.46244 364.94513 488.4012 356.34177 490.99824" fill="#fff"/><rect x="101.22864" y="68.11848" width="8.98697" height="112.9516" transform="translate(-57.13617 111.24965) rotate(-45)" fill="#fff"/><rect x="83.51219" y="89.1406" width="8.98697" height="110.21309" transform="translate(-76.22187 104.47842) rotate(-45)" fill="#fff"/><rect x="125.94878" y="44.04239" width="8.98697" height="112.41805" transform="translate(-32.6828 121.59957) rotate(-45)" fill="#fff"/><polygon points="86.79457 188.58362 16.14235 167.24591 18.74061 158.64286 72.26447 174.80754 30.18251 132.72566 36.53726 126.37091 91.27107 181.10473 86.79457 188.58362" fill="#fff"/><polygon points="164.58394 102.82511 109.07056 47.31188 115.4253 40.95714 158.28691 83.81859 140.95257 26.42205 149.5557 23.82379 172.06292 98.34861 164.58394 102.82511" fill="#fff"/></g><circle cx="255.18079" cy="256.82489" r="174.79338" fill="#f8ba3a"/><path d="M255.18081,435.46981c-98.50515,0-178.64489-80.13975-178.64489-178.64489S156.67566,78.18002,255.18081,78.18002s178.64489,80.13975,178.64489,178.64489-80.13975,178.64489-178.64489,178.64489ZM255.18081,85.88301c-94.25765,0-170.94183,76.68425-170.94183,170.9419s76.68418,170.9419,170.94183,170.9419,170.9419-76.68425,170.9419-170.9419-76.68425-170.9419-170.9419-170.9419Z" fill="#fff"/><g mask="url(#mask-1)"><path d="M265.08971,74.32226l-23.12307,185.80673h23.12307l-9.08403,171.38121,168.51515-30.16819,30.57661-235.2879-74.26845-65.30605-115.73928-26.4258Z" fill="#fff" fill-rule="evenodd"/></g><path d="M93.39506,233.56415c3.97823,32.4005,25.05557,66.11059,57.44696,62.13292,109.93551-13.49859,94.48903-84.14323,93.00765-107.02394,7.95647,64.801,57.1722,88.58396,139.62355,78.46003,24.53845-3.01285,34.59184-50.97244,31.87483-73.09996-3.39627-27.65824-76.62706-31.7019-167.91211-20.49365-91.28618,11.20826-159.01376,19.52427-154.04087,60.0246Z" fill="#01c1ae"/><path d="M145.77619,303.0711c-14.97414.00092-28.91968-7.07461-39.77456-20.32361-10.22781-12.48355-17.37724-30.09655-19.61511-48.32274-4.07874-33.21867,33.5027-44.79971,45.85234-48.60546,28.31946-8.72692,68.18089-13.62121,114.33652-19.28833,63.47017-7.79278,170.70561-14.69456,175.78118,26.64167,2.76019,22.47952-6.84698,77.14119-38.02272,80.9692-43.23397,5.30857-77.54149,1.29391-101.96993-11.93238-13.44102-7.27737-24.02676-17.32321-31.69713-30.0413-1.40734,7.14306-3.79317,14.50746-7.67122,21.71545-14.37738,26.72317-45.0928,43.14924-91.29301,48.82204-1.98891.2442-3.96784.3653-5.92636.36546ZM331.04267,174.79511c-22.46156,0-49.97282,1.72905-82.74622,5.75307-45.48918,5.58515-84.77503,10.40869-111.89866,18.76723-34.24106,10.55174-37.22235,23.38587-35.99421,33.38812,1.92084,15.6445,7.94297,30.62256,16.52208,41.09387,6.43548,7.85464,17.39405,16.81578,33.05566,14.89103,41.3875-5.08171,68.4977-19.0429,80.57757-41.49586,9.944-18.48267,8.02424-38.72876,6.75397-52.12604-.20307-2.14102-.39477-4.16338-.50966-5.93726-.24681-3.81266,2.58375-7.13017,6.38782-7.48657,3.80376-.35563,7.20154,2.37754,7.66715,6.16994,3.65334,29.75473,16.15838,50.02785,38.2297,61.97787,21.79572,11.80084,53.26247,15.27813,93.52474,10.3341,18.18827-2.23311,28.26405-44.56717,25.72703-65.23092-1.3748-11.19594-26.33285-20.0986-77.29698-20.0986Z" fill="#01c1ae"/><path d="M257.85686,368.00399c38.301-3.12435,67.03331-34.04572,64.17635-69.06313l-138.69965,11.31634c2.85697,35.01738,36.22229,60.87227,74.52331,57.74679Z" fill="#fff"/><path d="M251.54895,371.47126c-16.96965,0-33.174-5.39759-46.21127-15.50007-14.79655-11.46562-23.74718-27.60788-25.2031-45.45311-.1442-1.76666,1.1712-3.31582,2.93793-3.45995l138.69973-11.31627c1.7662-.14397,3.31582,1.17127,3.45995,2.93793,1.456,17.84523-4.75954,35.22492-17.50172,48.93731-12.66835,13.63319-30.2878,22.00953-49.61266,23.58586-2.1985.17943-4.39039.2683-6.56886.2683ZM186.8848,313.18771c2.05806,14.75734,9.92267,28.05254,22.38481,37.70929,13.44048,10.41483,30.60214,15.3538,48.32627,13.90793h.00008c17.72297-1.44571,33.8578-9.10158,45.43208-21.55735,10.73179-11.54911,16.3372-25.9433,15.97589-40.83924l-132.11913,10.77937Z" fill="#fe9d51"/><path d="M313.80372,332.88969h-37.98703c-1.41808,0-2.56771-1.14963-2.56771-2.56771s1.14963-2.56771,2.56771-2.56771h37.98703c1.41808,0,2.56771,1.14963,2.56771,2.56771s-1.14963,2.56771-2.56771,2.56771Z" fill="#fe9a54"/><path d="M296.46734,251.86873c-29.72899-11.23101-41.5653-41.01461-43.76691-54.50297,0-18.16803,20.64499-20.64498,71.01897-20.64498s80.92899,4.129,83.40595,17.342c2.47808,23.12307-5.7799,57.80595-17.34089,63.587-11.56211,5.78103-56.15501,8.25799-93.31712-5.78105Z"/><path d="M357.11643,262.91136c-18.18689,0-40.63341-2.79488-60.87598-10.44215h0c-29.66962-11.20868-41.86846-40.87792-44.17355-54.99996-.00837-19.29048,22.94075-21.39036,71.6525-21.39036,56.5568,0,81.68937,5.34295,84.03698,17.86549,2.46703,23.0023-5.67049,58.27188-17.68483,64.27959-5.44026,2.71998-17.69941,4.6874-32.95513,4.6874ZM296.69417,251.26831c36.89641,13.93848,81.05454,11.68142,92.80334,5.80725,11.3901-5.69551,19.35663-40.85704,16.98968-62.94439-2.17325-11.5815-27.70197-16.7685-82.76778-16.7685-51.93717,0-70.37709,3.02204-70.37709,20.00313,2.25544,13.76549,14.2311,42.90121,43.35185,53.90252Z"/><path d="M209.02457,267.35844c23.85692-15.72296,36.24505-46.04247,28.81309-71.64247-4.23366-14.58061-27.47507-11.00458-71.02008-4.12899-38.81302,6.12808-68.54179,23.12192-65.23848,37.987,1.65069,24.35527,20.43848,50.077,31.38048,54.50295,10.94201,4.42598,46.24498,2.93548,76.065-16.71849Z"/><path d="M147.87622,286.80958c-6.58106,0-11.86768-.80689-15.15733-2.13764-11.34444-4.58855-30.10231-30.29701-31.78025-55.05445-.75064-3.34406.12325-6.94107,2.61123-10.59503,8.25716-12.12746,33.64222-23.40782,63.16764-28.06958,43.40787-6.85389,67.31913-10.6291,71.73662,4.5841,7.51113,25.87285-4.71717,56.30354-29.07631,72.3574-21.27332,14.02105-45.30131,18.9152-61.5016,18.9152ZM216.57169,186.23294c-11.72923,0-28.28953,2.61468-49.65395,5.98806-29.19734,4.61004-54.23643,15.67106-62.30665,27.52393-2.28061,3.34959-3.08988,6.60969-2.4054,9.6899,1.6071,23.60413,19.90029,49.55955,30.99454,54.04695,11.1634,4.51533,45.93046,2.81023,75.47108-16.65937h0c23.90121-15.7521,35.9081-45.58143,28.54985-70.9275-2.04892-7.0565-8.9431-9.66197-20.64947-9.66197Z"/><path d="M415.38333,118.91484l14.49757,39.18051,39.17938,14.49757-39.17938,14.49757-14.49757,39.17936-14.49757-39.17936-39.18051-14.49757,39.18051-14.49757,14.49757-39.18051Z" fill="#fff"/>
  </g>
</svg>
