<svg viewBox="0 0 56 56" xmlns="http://www.w3.org/2000/svg">
  <defs>
    <linearGradient id="g1" x1="7.98" y1="9.88" x2="33.4" y2="56" gradientUnits="userSpaceOnUse">
      <stop stop-color="#01C48C"/>
      <stop offset="1" stop-color="#23A285"/>
    </linearGradient>
  </defs>
  <rect width="56" height="56" fill="url(#g1)"/>
  <path d="M12 32.69v-9.38l4-2.23v-4.3L24.13 12 27 13.7v12.84l12.3 7.09 3.2-1.72V24.2l-3.27-1.8L36 24.25v.06a1.42 1.42 0 1 1-.64-1.18l3.13-1.8v-3.6l-6.76-3.91-1.24.7v1.18l6.62 3.81v.76l-.65.36-5.97-3.44v9.8l-1.5-.8v-12.5L31.73 12 40 16.78v4.3l4 2.23v9.38l-4 2.26v4.32L31.73 44 29 42.54V29.48l-12.26-7.07-3.24 1.79v7.7l3.22 1.74 3.16-1.83v-.06a1.42 1.42 0 1 1 .64 1.19l-3.02 1.74v3.83l6.76 3.8 1.24-.68v-1.28l-6.66-3.84v-.75l.65-.36 6.01 3.46v-9.68l1.5.9v12.46L24.13 44 16 39.27v-4.32l-4-2.26Zm5.5-12.41 8-4.62v-1.14l-1.24-.7-6.76 3.9v2.55Zm8-3.12-7.4 4.26 7.4 4.26v-8.52Zm5 13.18v8.5l7.38-4.24-7.38-4.26Zm0 10v1.3l1.24.66 6.76-3.8v-2.77l-8 4.61Z" fill="#fff"/>
</svg>
