<svg xmlns="http://www.w3.org/2000/svg" xmlns:xlink="http://www.w3.org/1999/xlink" viewBox="0 0 100 100">
  <rect width="100" height="100" fill="#FC7A4A"/>
  <g transform="translate(10 10) scale(0.15625 0.15625)">
<path d="M130.59557,226.97634c54.75517-1.59932,185.35425-7.60859,214.50052-50.13559,22.1588-32.31797-26.74663-65.96997-49.99007-78.13065-23.24346-12.1957-55.57895-17.64339-55.57895-17.64339,65.07251,7.3631,167.9441,43.10704,135.92523,108.09304-28.67471,58.16725-178.17331,66.07496-244.89177,66.07496v-28.27588h.03503v.01752Z" fill="#fff"/><path d="M130.60271,371.7942v-27.63049c82.7854-2.75808,193.47173-5.4609,250.85074-60.14788,1.55892,48.1765-64.62786,69.90822-115.28351,78.96793-43.84472,7.83762-90.58493,10.06752-135.54971,8.81044h-.01752Z" fill="#fff"/><path d="M378.89753,224.97685c-45.44272,46.55023-133.2332,60.31225-248.337,60.31225v27.87839c121.04031,0,247.98667-18.45222,248.337-88.19065Z" fill="#fff"/>
  </g>
</svg>
