<svg xmlns="http://www.w3.org/2000/svg" viewBox="0 0 512 512">
  <rect width="100%" height="100%" fill="#14c8ff"/>
  <circle cx="256" cy="256" r="256" fill="#14c8ff"/>
  <path d="m401.28,183.64799c10.12799,8.20799,16.51199,25.18401,14.272,37.64799l-21.76001,120.384c-2.272,12.54401-14.272,26.35199-26.62399,30.68799l-118.70401,41.67999c-12.35201,4.336-30.72,1.20001-40.832-7.008l-96.928-78.672c-10.128-8.20801-16.528-25.104-14.24-37.64801l21.76-120.384c2.25601-12.54396,14.256-26.33597,26.62402-30.68797l118.71999-41.696c12.36801-4.352,30.72-1.184,40.84799,7.008l96.86401,78.688Zm-100.97598,54.048l4.832-24.48-45.31201.08,6.39999-32.256h-14.64c-10.56042,16.18355-25.94159,28.63737-43.968,35.60001l-4.112,21.104h19.808s-6.70399,30.30402-8.96001,41.48801c-5.60001,28.48001,8.48,48.672,30.112,48.672h36.608l6.39999-27.04001h-30.62399c-13.60001,0-12.88-7.44-10.24001-20.64001l8.43201-42.592,45.26402.064Z" fill="#fff"/>
</svg>
