<svg xmlns="http://www.w3.org/2000/svg" xmlns:xlink="http://www.w3.org/1999/xlink" viewBox="0 0 512 512">
  <defs>
    <linearGradient id="g" x1="74.98066" y1="437.01935" x2="437.01932" y2="74.9807"
      gradientUnits="userSpaceOnUse">
      <stop offset="0" stop-color="#4a87d8" />
      <stop offset="1" stop-color="#46218b" />
    </linearGradient>
  </defs>
  <rect width="512" height="512" fill="url(#g)" />
  <circle cx="254.13746" cy="256.73713" r="220.27922" fill="#fff" />
  <path
    d="m306.93335,204.6001c0,37.8667-30.40009,68.2666-68.26672,68.2666s-68.26666-30.3999-68.26666-68.2666,30.39996-68.26685,68.26666-68.26685,68.26672,30.40015,68.26672,68.26685Zm205.06665,51.3999c0,141.38489-114.61511,256-256,256S0,397.38489,0,256,114.61505,0,256,0s256,114.61523,256,256Zm-273.33337,51c56.53333,0,102.40002-45.8667,102.40002-102.3999s-45.86664-102.40015-102.40002-102.40015-102.39996,45.8667-102.39996,102.40015,45.86664,102.3999,102.39996,102.3999Zm97.60004,5.33325c-6.40009-6.93335-17.60004-6.93335-24,0l-68.26666,68.26672c-6.93335,6.40002-6.93335,17.06665,0,24,6.39996,6.93335,17.06665,6.93335,24,0l68.26666-68.26672c6.93335-6.3999,6.93335-17.06665,0-24Zm39.46661-193.06665c0-9.59985-8-17.06665-17.06665-17.06665-9.59998,0-17.06665,7.4668-17.06665,17.06665s7.46667,17.06665,17.06665,17.06665,17.06665-7.46655,17.06665-17.06665Z"
    fill="url(#g)" />
</svg>