<svg xmlns="http://www.w3.org/2000/svg" viewBox="0 0 56 56">
  <rect x="0" y="0" width="56" height="56" fill="#222"/>
  <g transform="translate(-8.76,-8.76) scale(1.3128)">
  <path d="M39 17v1.28H28.2v-.64H17V17h22Z" fill="url(#a)"/><path d="M12.66 21.38h30.68v.64H12.66v-.64Z" fill="url(#b)"/><path d="M11.2 25.54h33.6v.65H11.2v-.65Z" fill="url(#c)"/><path d="M11.73 23.4h32.54v.65H11.73v-.64Z" fill="url(#d)"/><path d="M42 19v1.33H25.58v-.6H14V19h28Z" fill="url(#e)"/><path d="M24 21.38h19v1.07H24v-1.07Z" fill="url(#f)"/><path d="M23.13 23.4h21.14v.97H23.13v-.96Z" fill="url(#g)"/><path d="M22.61 25.54h22.18v.86H22.61v-.86Z" fill="url(#h)"/><path d="M11 27.68h34v.64H11v-.64Z" fill="url(#i)"/><path d="M12.66 34h30.68v.64H12.66V34Z" fill="url(#j)"/><path d="M11.73 32h32.54v.64H11.73V32Z" fill="url(#k)"/><path d="M11.2 29.82h33.6v.64H11.2v-.64Z" fill="url(#l)"/><path d="M11.2 29.6H33.4v.86H11.21v-.86Z" fill="url(#m)"/><path d="M11.73 31.63h21.14v.96H11.73v-.96Z" fill="url(#n)"/><path d="M12.66 33.57h19.28v1.07H12.66v-1.07Z" fill="url(#o)"/><path d="M30.42 36.3H42v.7H14v-1.28h16.42v.59Z" fill="url(#p)"/><path d="M27.8 38.36H39V39H17v-1.28h10.8v.64Z" fill="url(#q)"/><defs><linearGradient id="a" x1="16.98" y1="39" x2="40.57" y2="18.8" gradientUnits="userSpaceOnUse"><stop stop-color="#F2E500"/><stop offset="1" stop-color="#9ED706"/></linearGradient><linearGradient id="b" x1="16.78" y1="39.11" x2="40.43" y2="18.5" gradientUnits="userSpaceOnUse"><stop stop-color="#F2E500"/><stop offset="1" stop-color="#9ED706"/></linearGradient><linearGradient id="c" x1="16.78" y1="39" x2="40.43" y2="18.39" gradientUnits="userSpaceOnUse"><stop stop-color="#F2E500"/><stop offset="1" stop-color="#9ED706"/></linearGradient><linearGradient id="d" x1="16.78" y1="39" x2="40.43" y2="18.39" gradientUnits="userSpaceOnUse"><stop stop-color="#F2E500"/><stop offset="1" stop-color="#9ED706"/></linearGradient><linearGradient id="e" x1="16.61" y1="41.59" x2="42.93" y2="21.11" gradientUnits="userSpaceOnUse"><stop stop-color="#F2E500"/><stop offset="1" stop-color="#9ED706"/></linearGradient><linearGradient id="f" x1="16.82" y1="39.11" x2="40.43" y2="18.84" gradientUnits="userSpaceOnUse"><stop stop-color="#F2E500"/><stop offset="1" stop-color="#9ED706"/></linearGradient><linearGradient id="g" x1="16.78" y1="39" x2="40.43" y2="18.39" gradientUnits="userSpaceOnUse"><stop stop-color="#F2E500"/><stop offset="1" stop-color="#9ED706"/></linearGradient><linearGradient id="h" x1="16.78" y1="39" x2="40.43" y2="18.39" gradientUnits="userSpaceOnUse"><stop stop-color="#F2E500"/><stop offset="1" stop-color="#9ED706"/></linearGradient><linearGradient id="i" x1="16.78" y1="39" x2="40.43" y2="18.39" gradientUnits="userSpaceOnUse"><stop stop-color="#F2E500"/><stop offset="1" stop-color="#9ED706"/></linearGradient><linearGradient id="j" x1="16.78" y1="38.91" x2="40.43" y2="18.3" gradientUnits="userSpaceOnUse"><stop stop-color="#F2E500"/><stop offset="1" stop-color="#9ED706"/></linearGradient><linearGradient id="k" x1="16.78" y1="39.05" x2="40.43" y2="18.44" gradientUnits="userSpaceOnUse"><stop stop-color="#F2E500"/><stop offset="1" stop-color="#9ED706"/></linearGradient><linearGradient id="l" x1="16.78" y1="39" x2="40.43" y2="18.39" gradientUnits="userSpaceOnUse"><stop stop-color="#F2E500"/><stop offset="1" stop-color="#9ED706"/></linearGradient><linearGradient id="m" x1="16.78" y1="39" x2="40.43" y2="18.39" gradientUnits="userSpaceOnUse"><stop stop-color="#F2E500"/><stop offset="1" stop-color="#9ED706"/></linearGradient><linearGradient id="n" x1="16.78" y1="39" x2="40.43" y2="18.39" gradientUnits="userSpaceOnUse"><stop stop-color="#F2E500"/><stop offset="1" stop-color="#9ED706"/></linearGradient><linearGradient id="o" x1="16.78" y1="38.91" x2="40.43" y2="18.3" gradientUnits="userSpaceOnUse"><stop stop-color="#F2E500"/><stop offset="1" stop-color="#9ED706"/></linearGradient><linearGradient id="p" x1="16.61" y1="39.31" x2="41.97" y2="18.62" gradientUnits="userSpaceOnUse"><stop stop-color="#F2E500"/><stop offset="1" stop-color="#9ED706"/></linearGradient><linearGradient id="q" x1="16.98" y1="39" x2="40.57" y2="18.8" gradientUnits="userSpaceOnUse"><stop stop-color="#F2E500"/><stop offset="1" stop-color="#9ED706"/></linearGradient></defs>
  </g>
</svg>
