<svg xmlns="http://www.w3.org/2000/svg" xmlns:xlink="http://www.w3.org/1999/xlink" viewBox="0 0 100 100">
  <rect width="100" height="100" fill="#1c2731"/>
  <g transform="translate(10 10) scale(0.15625 0.15625)">
<defs><linearGradient id="Degradado_sin_nombre_25" x1="-5402.65989" y1="4836.0811" x2="-5404.50243" y2="4836.0811" gradientTransform="translate(540607.32224 483864.11017) scale(100 -100)" gradientUnits="userSpaceOnUse"><stop offset="0" stop-color="#3f9"/><stop offset="1" stop-color="#0cf"/></linearGradient><linearGradient id="Degradado_sin_nombre_25-2" x1="-5252.09378" y1="4867.22135" x2="-5268.14759" y2="4866.67509" gradientTransform="translate(149682.36817 267930.11017) scale(28.40287 -55)" xlink:href="#Degradado_sin_nombre_25"/></defs><circle id="path-2" cx="256.00108" cy="255.99939" r="250.98009" fill="#1c2731"/><g id="path-2-2"><path d="M256,512C114.84314,512,0,397.15959,0,256.00061S114.84314,0,256,0s256,114.84164,256,256.00061-114.84314,255.99939-256,255.99939ZM256,10.03919C120.37745,10.03919,10.03922,120.37594,10.03922,256.00061s110.33824,245.9602,245.96078,245.9602,245.96078-110.33797,245.96078-245.9602S391.62255,10.03919,256,10.03919Z" fill="url(#Degradado_sin_nombre_25)"/></g><polygon id="path-5" points="235.53124 386.50888 200.7854 386.50888 200.7854 110.43111 235.53124 110.43111 324.47307 160.6614 324.47307 198.61738 292.74859 253.00206 343.35666 386.50888 306.34479 386.50888 256.11438 251.1137 295.01462 183.51051 235.53124 149.89776 235.53124 386.50888" fill="url(#Degradado_sin_nombre_25-2)" fill-rule="evenodd"/>
  </g>
</svg>
