<svg xmlns="http://www.w3.org/2000/svg" viewBox="0 0 64 64">
  <rect width="64" height="64" fill="#221140" />
  <g transform="translate(8.5 8.5)">
    <path
      d="M23.5 0C10.5416 0 0 10.5416 0 23.5C0 36.4584 10.5416 47 23.5 47C36.4584 47 47 36.4584 47 23.5C47 10.5416 36.4568 0 23.5 0ZM43.6123 19.0482C42.4918 19.7612 39.843 21.1596 35.1332 22.1413C36.6675 15.914 36.8293 10.8668 36.6858 7.6883C40.1224 10.56 42.6124 14.5278 43.6123 19.0482ZM33.492 41.5071C31.1288 42.823 28.483 43.6887 25.6679 43.9848C27.2129 41.7986 30.1838 36.9683 33.1211 28.7212C34.292 35.7027 33.6523 40.5132 33.492 41.5071ZM13.8789 28.7212C16.8162 36.9667 19.7856 41.7971 21.3321 43.9848C18.517 43.6887 15.8712 42.823 13.508 41.5071C13.3492 40.5132 12.708 35.7027 13.8789 28.7212ZM13.398 5.55249C15.6331 4.28994 18.1277 3.43195 20.778 3.07929C19.1398 5.54944 16.4956 10.1844 13.8774 17.5353C12.9003 11.7126 13.1843 7.39976 13.398 5.55249ZM33.1211 17.5368C30.5028 10.1875 27.8586 5.55097 26.2205 3.08082C28.8723 3.43195 31.3654 4.28994 33.6004 5.55402C33.8142 7.40129 34.0966 11.7141 33.1211 17.5368ZM23.4969 42.0154C21.923 39.7239 18.8773 34.6111 15.9613 25.8633C15.946 25.816 15.9308 25.7702 15.9155 25.7228C18.1582 25.9717 20.6787 26.1213 23.5 26.1213C26.3213 26.1213 28.8525 25.9702 31.086 25.7183C31.0707 25.7656 31.0555 25.8144 31.0387 25.8618C28.1365 34.5699 25.0755 39.7102 23.4969 42.0139V42.0154ZM15.2423 22.7153C15.459 21.9565 15.6987 21.1825 15.9613 20.3932C18.8635 11.6866 21.923 6.54635 23.5015 4.24108C23.9488 4.89144 24.5122 5.76623 25.1549 6.88222C26.6465 9.46992 28.8785 13.9141 31.0372 20.3932C31.2997 21.1795 31.5379 21.9535 31.7547 22.7107C29.396 23.0237 26.6587 23.2206 23.4985 23.2206C20.3383 23.2206 17.6132 23.0252 15.2407 22.7153H15.2423ZM10.3126 7.68677C10.1691 10.8684 10.3294 15.9216 11.8683 22.1565C7.38449 21.2436 4.67008 19.9597 3.35256 19.1994C4.32963 14.6148 6.83642 10.5905 10.3126 7.68677ZM2.90067 23.5C2.90067 23.0893 2.91441 22.6817 2.93731 22.2756C4.71588 23.1672 7.54021 24.2771 11.6363 25.0755C10.1936 31.3868 10.16 36.3988 10.3554 39.3483C5.80287 35.5668 2.89914 29.8662 2.89914 23.5H2.90067ZM36.6431 39.3483C36.837 36.3973 36.8049 31.3807 35.3592 25.0618C39.5499 24.2282 42.3513 23.0603 44.0535 22.1504C44.0825 22.5962 44.0993 23.0466 44.0993 23.5C44.0993 29.8662 41.1956 35.5668 36.6431 39.3483Z"
      fill="#fff"
    />
  </g>
</svg>
