<svg xmlns="http://www.w3.org/2000/svg" viewBox="0 0 512 512">
  <rect width="100%" height="100%" fill="#fd303f"/>
  <circle cx="258.78261" cy="258.85597" r="220.27922" fill="#fff"/>
  <path d="m256,0C114.61523,0,0,114.61511,0,256s114.61523,256,256,256,256-114.61511,256-256S397.38477,0,256,0Zm-83.94775,306.46509c-.01074,6.01099-3.31982,9.10498-9.47559,9.11438-18.22266.02771-36.44531.00989-54.66797.00989v-.01953c-17.70166,0-35.40332.00342-53.10498-.00171-6.97852-.00195-9.9502-2.93726-9.95166-9.85107-.00635-29.00476-.00586-58.00952,0-87.01416.00098-6.02441,1.9751-7.95654,8.09277-7.96533,4.90527-.00696,9.81055-.02539,14.71533.00562,4.94043.03149,7.19727,2.27612,7.20166,7.24805.02051,21.43359.0708,42.86768-.06494,64.30054-.01758,2.85352.72412,3.49561,3.51074,3.47778,20.15332-.12769,40.30762-.1167,60.46094-.00952,2.61719.01392,3.37793-.62866,3.36279-3.32153-.11816-21.18188-.07227-42.36487-.06787-63.54761.00146-6.32373,1.84814-8.146,8.21777-8.15356,5.01172-.00586,10.02393-.04053,15.03516.01196,4.2627.04468,6.73633,2.46143,6.7417,6.78223.03564,29.64453.04736,59.28906-.00586,88.93359Zm150.55615,2.58203c-.00391,5.22119-2.14355,7.25098-7.44971,7.2627-5.01172.01099-10.02344.00879-15.03516.00061-5.46387-.00879-7.59473-2.09839-7.59766-7.47363-.00732-13.75525-.00244-27.51062-.00244-41.26599v-4.21167c-8.78223,5.44727-17.04736,10.4209-25.1543,15.64087-10.52783,6.77905-10.44482,6.81763-20.9873.11499-7.53711-4.79224-15.16016-9.45044-22.76367-14.13794-.67578-.41675-1.29688-1.40906-2.1875-.92896-.89648.48315-.42334,1.54883-.42383,2.34448-.01318,13.78149.01953,27.56311.01367,41.34473-.00293,6.8689-1.76855,8.57422-8.74561,8.57471-4.79834.00049-9.59668.02734-14.39502-.00806-4.58057-.03394-7.0166-2.30347-7.02246-6.79834-.03662-29.64331-.01709-59.28662-.02051-88.93005,0-3.47546,1.30908-6.2439,4.44287-7.90784,3.27783-1.74048,6.3457-1.01099,9.2832.99207,15.38525,10.49133,30.78223,20.96643,46.1792,31.44104,5.61035,3.81677,6.39062,3.85229,11.96387.07397,15.59033-10.56934,31.1377-21.2019,46.74414-31.7467,4.81934-3.2561,10.23584-1.72937,12.55322,3.27649.56689,1.22522.60645,2.46631.60693,3.73242.01074,29.53662.01953,59.07336-.00195,88.61011Zm97.17822-25.33557c-.10498,4.04565-2.34326,6.29407-6.41748,6.34753-5.54297.07275-11.08936.08923-16.63184-.00879-4.11133-.07275-6.2959-2.30273-6.34961-6.40796-.07324-5.54346-.07959-11.08936.00488-16.63245.0625-4.08069,2.27197-6.27234,6.41113-6.33948,5.54297-.09009,11.08984-.0957,16.63232.00232,4.11768.07275,6.24365,2.28491,6.3501,6.40662.06836,2.6637.0127,5.33069.01367,7.99622.00146,2.87878.06152,5.75916-.01318,8.63599Zm40.50049,31.86438c-4.58057.00708-9.16162.00623-13.74219.00024-5.9668-.00781-8.12598-2.10986-8.12988-8.02148-.01465-20.3584-.00391-40.71692-.00732-61.07544-.00098-4.94238-1.0166-5.96436-5.99072-5.96655-18.43994-.0083-36.87988-.00903-55.31982.00073-4.73438.00244-5.87549,1.12109-5.87793,5.81323-.01172,20.42932.00146,40.85864-.00439,61.28784-.00146,5.99854-2.00098,7.95117-8.1084,7.96448-4.90039.01062-9.80078.04468-14.70068.00574-4.75928-.03784-7.17041-2.28491-7.17773-7.0238-.04736-29.73816-.05469-59.47668.00391-89.21484.01025-5.3855,3.46191-8.58972,8.95996-8.59851,18.22656-.0293,36.45361-.01099,54.68018-.01123,17.80029-.00024,35.60059-.00366,53.40088.00146,7.45605.0022,10.15576,2.73157,10.15674,10.26099.00293,28.77905.00244,57.55811,0,86.33716-.00049,6.29468-1.91602,8.23047-8.14258,8.23999Z" fill="#fd303f"/>
</svg>
