<svg xmlns="http://www.w3.org/2000/svg"
  viewBox="0 0 512 512">
  <rect x="0" y="0" width="512" height="512" fill="#000" />
  <path
    d="M356.59587,338.44398c-5.24498,5.13927-20.90536,14.82881-23.01787,17.51557-2.21755,2.82034-5.08442,13.0113-7.89628,17.83016-33.30685,57.07998-115.60113,30.41218-155.57543-5.00706-63.4517-56.22141-67.56093-157.04762-8.35725-218.09642,38.2752-39.46807,127.58434-73.40894,163.13925-13.8649,2.90315,4.86193,6.48582,16.03512,9.21081,19.08827,2.61291,2.92757,13.60506,8.93812,18.07435,12.79737,51.336,44.32882,52.5515,122.5779,4.42241,169.73701ZM331.25018,156.8232c-88.15264-47.52557-190.06725,31.93912-163.67616,129.59447,13.91971,51.50733,63.98138,86.07696,117.09884,82.38004,9.00412-.62668,41.85083-7.94318,46.75524-14.98807,2.0844-2.99411,5.25742-14.95776,6.47405-19.25239,16.21976-57.25511,13.63399-121.94553-6.65196-177.73406Z"
    fill="#fff" />
  <path
    d="M331.25018,156.8232c20.28595,55.78853,22.87172,120.47895,6.65196,177.73406-1.21662,4.29463-4.38965,16.25828-6.47405,19.25239-4.90441,7.04488-37.75112,14.36139-46.75524,14.98807-53.11746,3.69691-103.17913-30.87271-117.09884-82.38004-26.39109-97.65535,75.52353-177.12005,163.67616-129.59447Z" />
</svg>