<svg xmlns="http://www.w3.org/2000/svg" xmlns:xlink="http://www.w3.org/1999/xlink" viewBox="0 0 100 100">
  <rect width="100" height="100" fill="#6042dd"/>
  <g transform="translate(10 10) scale(0.15625 0.15625)">
<path d="M512,256c0,141.38499-114.61502,256-256,256S0,397.38499,0,256,114.61499,0,256,0s256,114.61502,256,256" fill="#6042dd"/><path d="M256,0C114.61523,0,0,114.61523,0,256s114.61523,256,256,256,256-114.61523,256-256S397.38477,0,256,0Z" fill="#6042dd"/><path d="M409.82529,115.6957l-133.92871,284.59909h-40.58446L102.17474,115.6957h79.8345c22.65776,0,43.26658,13.11797,52.85817,33.6454l50.76944,108.65414-19.48054,40.0137-62.90982-130.65629c-3.22296-6.69371-9.99545-10.94947-17.42467-10.94947h-25.55694l95.73514,200.85906,108.55929-229.93177c3.35378-7.1034,10.50427-11.63479,18.35959-11.63479h26.90639" fill="#fff"/>
  </g>
</svg>
