<svg xmlns="http://www.w3.org/2000/svg" viewBox="0 0 512 512"><rect width="512" height="512" fill="#fff"/><path d="M198.481 314.391c-6.007-4.466-13.257-8.207-21.274-10.48-8.017-2.273-16.801-3.077-25.391-2.124-8.589.952-16.984 3.662-24.308 7.637-7.324 3.974-13.578 9.214-18.46 14.888-4.896 5.662-9.161 12.617-12.017 20.445-2.857 7.828-4.305 16.529-3.987 25.165.318 8.637 2.403 17.208 5.827 24.804 3.425 7.597 8.19 14.219 13.49 19.506 5.286 5.299 11.909 10.064 19.505 13.489 7.597 3.425 16.168 5.509 24.804 5.828 8.636.318 17.338-1.13 25.166-3.987 7.828-2.857 14.783-7.122 20.445-12.017 5.674-4.882 10.913-11.136 14.888-18.46 3.974-7.324 6.684-15.719 7.637-24.308.953-8.589.149-17.374-2.124-25.391-2.273-8.017-6.015-15.267-10.48-21.274l14.75-14.751 10.737 10.737h6.099l7.36-7.36v-6.098l-10.737-10.737 15.588-15.588 15.588 15.588-10.737 10.737v6.098l7.36 7.36h6.099l10.737-10.737 14.75 14.751c-4.465 6.007-8.207 13.257-10.48 21.274-2.273 8.017-3.077 16.802-2.124 25.391.953 8.589 3.663 16.984 7.637 24.308 3.975 7.324 9.214 13.578 14.888 18.46 5.662 4.895 12.617 9.16 20.445 12.017 7.828 2.857 16.53 4.305 25.166 3.987 8.636-.319 17.207-2.403 24.804-5.828 7.597-3.425 14.219-8.19 19.505-13.489 5.299-5.287 10.065-11.909 13.49-19.506 3.424-7.596 5.509-16.167 5.827-24.804.318-8.636-1.13-17.337-3.986-25.165-2.857-7.828-7.122-14.783-12.018-20.445-4.882-5.674-11.136-10.914-18.46-14.888-7.324-3.975-15.718-6.685-24.308-7.637-8.589-.953-17.373-.149-25.39 2.124-8.017 2.273-15.267 6.014-21.274 10.48l-14.477-14.5 10.732-10.731v-6.098l-7.623-7.623h-6.099l-10.737 10.737-15.594-15.583 81.752-81.752 33.094 33.094v-34.433h34.433l-33.093-33.094 33.093-33.093v-6.098l-7.623-7.623h-6.098L255.891 256.872 106.721 107.594h-6.098L93 115.217v6.098l33.093 33.093L93 187.502h34.433v34.433l33.093-33.094 81.753 81.752-15.594 15.583-10.737-10.737h-6.099l-7.623 7.623v6.098l10.732 10.731-14.477 14.5Zm132.663 75.731c-3.366 6.905-2.667 16.473 1.667 22.816 3.982 6.569 12.405 11.162 20.084 10.953 7.679.209 16.102-4.384 20.084-10.953 4.334-6.343 5.033-15.911 1.667-22.816l.838-.903c6.905 3.384 16.487 2.699 22.84-1.634 6.58-3.978 11.184-12.41 10.973-20.097.211-7.686-4.393-16.118-10.973-20.097-6.353-4.332-15.935-5.018-22.84-1.633l-.838-.903c3.366-6.905 2.667-16.474-1.667-22.816-3.982-6.569-12.405-11.163-20.084-10.953-7.679-.21-16.102 4.384-20.084 10.953-4.334 6.342-5.033 15.911-1.667 22.816l-.838.903c-6.905-3.385-16.488-2.699-22.84 1.633-6.58 3.979-11.184 12.411-10.974 20.097-.21 7.687 4.394 16.119 10.974 20.097 6.352 4.333 15.935 5.018 22.84 1.634l.838.903Zm-151.958 22.816c4.334-6.343 5.033-15.911 1.667-22.816l.838-.903c6.905 3.384 16.487 2.699 22.84-1.634 6.579-3.978 11.184-12.41 10.973-20.097.211-7.686-4.394-16.118-10.973-20.097-6.353-4.332-15.935-5.018-22.84-1.633l-.838-.903c3.366-6.905 2.667-16.474-1.667-22.816-3.982-6.569-12.405-11.163-20.084-10.953-7.679-.21-16.102 4.384-20.084 10.953-4.334 6.342-5.033 15.911-1.667 22.816l-.838.903c-6.904-3.385-16.487-2.699-22.839 1.633-6.58 3.979-11.184 12.411-10.974 20.097-.21 7.687 4.394 16.119 10.974 20.097 6.352 4.333 15.935 5.018 22.839 1.634l.838.903c-3.366 6.905-2.667 16.473 1.667 22.816 3.982 6.569 12.405 11.162 20.084 10.953 7.679.209 16.102-4.384 20.084-10.953Z" fill="#d30" fill-rule="evenodd"/><path d="m255.891 107.594 39.187-39.187 19.404 19.405v65.41l-53.74 53.74h-9.702l-53.74-53.74v-65.41l19.405-19.405 39.186 39.187Zm-39.186-25.465 34.335 34.335v63.055l-34.335-34.334V82.129Zm44.039 34.335 34.335-34.335v63.056l-34.335 34.334v-63.055Z" fill="#d30" fill-rule="evenodd"/></svg>
