<svg xmlns="http://www.w3.org/2000/svg" viewBox="0 0 126 126">
  <rect width="126" height="126" fill="#0A0A0A"/>
  <path fill="#F7F7F7" fill-rule="evenodd" d="M102.231 77.268c-.014 5.086-2.04 9.958-5.635 13.555-3.596 3.596-8.468 5.623-13.553 5.639H68.642v14.333h-9.576V96.462H44.664c-5.085-.016-9.958-2.043-13.553-5.639-3.595-3.596-5.622-8.469-5.636-13.555h9.593a9.627 9.627 0 0 0 2.819 6.778 9.625 9.625 0 0 0 6.777 2.818h38.379a9.596 9.596 0 1 0 0-19.192H44.664c-5.064-.04-9.906-2.08-13.473-5.675a19.194 19.194 0 0 1-5.567-13.518c0-5.064 2.001-9.923 5.567-13.518 3.567-3.595 8.409-5.636 13.473-5.676h14.402V14.958h9.576v14.333h14.401c5.084.016 9.955 2.042 13.551 5.637a19.242 19.242 0 0 1 5.637 13.55h-9.593a9.626 9.626 0 0 0-2.818-6.777 9.623 9.623 0 0 0-6.777-2.819H44.664a9.596 9.596 0 0 0 0 19.193h38.379c5.085.016 9.957 2.043 13.553 5.639 3.595 3.596 5.621 8.469 5.635 13.554Z" clip-rule="evenodd"/>
</svg>
