<svg xmlns="http://www.w3.org/2000/svg" xmlns:xlink="http://www.w3.org/1999/xlink" viewBox="0 0 100 100">
  <rect width="100" height="100" fill="#236d66"/>
  <g transform="translate(10 10) scale(0.15625 0.15625)">
<defs><linearGradient id="Degradado_sin_nombre_14" x1="68.20804" y1="1009.70512" x2="446.44637" y2="1253.72984" gradientTransform="translate(0 -878)" gradientUnits="userSpaceOnUse"><stop offset="0" stop-color="#44bcc3"/><stop offset="1" stop-color="#236d66"/></linearGradient><linearGradient id="Degradado_sin_nombre_14-2" x1="144.52668" y1="891.41119" x2="522.76501" y2="1135.43592" xlink:href="#Degradado_sin_nombre_14"/></defs><circle cx="256" cy="256" r="256" fill="#236d66" stroke-width="0"/><path d="M324.73838,265.11139c30.01505-10.49306,58.19991-28.30687,79.79608-47.70683h0c.8541-.73207,1.34214-1.83019,1.46416-3.05031.12202-1.09811-.24404-2.31824-.97608-3.17232-.73208-.9761-1.70817-1.58616-2.80627-1.70817-1.0981-.24403-2.31823,0-3.29435.61006-21.59619,12.93331-45.51062,23.18235-70.03509,29.40498.73208-9.27294.61006-18.6679-.61006-28.06284-2.80629-20.7421-9.76099-41.36219-24.40247-57.10179-16.22767-17.93582-42.82637-24.6465-65.7647-17.44777-27.57479,8.17483-50.51312,33.06535-51.3672,62.71436-1.09811,39.04395,35.26158,70.76717,72.23133,74.42754,4.27043.48805,8.66289.73207,13.05532.73207-6.8327,14.8855-15.61759,29.16096-25.13455,42.3383-29.03895-47.95086-72.71937-87.23884-124.45261-108.71302-12.20123-5.24654-24.64649-9.27294-37.45779-12.07923-4.39245-.85409-8.54087-1.70817-13.05532-2.19622-1.09811-.12201-2.19622.24403-3.17232.85409-.9761.61006-1.58616,1.58616-1.83019,2.68427-.36604,1.09811-.24403,2.19622.24402,3.17232s1.34214,1.83019,2.31823,2.19622c28.91693,14.27544,55.51563,32.94334,78.69798,55.39362,30.01504,28.91694,53.68544,63.81246,69.54705,102.24638,6.9547,16.59369,28.79493,22.69431,43.43639,11.95722,2.19623-1.70817,4.27043-3.53835,6.10062-5.61258,13.05532-14.15344,24.64649-29.77101,34.40748-46.4867,10.00503-16.83773,18.17985-35.74965,23.06035-55.39363ZM259.8278,341.12508h0l.36604.73208c-.12202-.24402-.24404-.48806-.36604-.73208ZM282.15607,245.34538c2.31823-9.76099,3.41635-19.766,3.05031-29.77102-.9761-17.93582-7.9308-43.31439-29.28297-43.68043-18.42387-.24403-35.26158,17.20375-30.01505,35.62761,7.80878,26.96474,31.11315,36.72573,56.24771,37.82383Z" fill="#fff" fill-rule="evenodd" stroke-width="0"/><path d="M418.6879,199.10269c1.83019,8.78489,4.75847,14.39746,13.29934,13.17733,7.32074-.9761,13.29934-8.29684,13.29934-15.61758s-5.9786-11.95721-13.29934-10.8591c-9.15093,1.46414-14.7635,6.10062-13.29934,13.29935Z" fill="#fff" stroke-width="0"/>
  </g>
</svg>
