<svg xmlns="http://www.w3.org/2000/svg" xmlns:xlink="http://www.w3.org/1999/xlink" viewBox="0 0 512 512"><rect x="0" y="0" width="512" height="512" fill="#25211e"/><defs><linearGradient id="g1" x1="81.38766" y1="230.22898" x2="449.07154" y2="230.22898" gradientUnits="userSpaceOnUse"><stop offset="0" stop-color="#e9ca71"/><stop offset=".89105" stop-color="#f5c131"/></linearGradient></defs><path d="M512.00147,256c0,141.37988-114.61987,256-256,256C114.61157,512,.00147,397.37988.00147,256S114.61157,0,256.00147,0c52.97998,0,102.2002,16.1001,143.04004,43.65991,18.55005,12.52002,35.37012,27.41016,50.03003,44.23022,39.19995,44.97998,62.92993,103.76978,62.92993,168.10986Z" fill="#25211e"/><g><path d="M449.07154,87.89014l-.47998,1.19995-91.94019,226.23999c-4.21973,10.37988-12.46973,16.42993-21.72998,18.36987-10.37988,2.15991-22.37988.13013-29.13989-8.66992l-41.55005-54.07007-50.91992,125.22998c-4.85986,11.93994-14.25,19.59009-26.75,20.52002-11.41992.86011-23.56006-4.58984-29.54004-15.86987l-71.72998-135.31006c-8.37012-15.79004-2.89014-34.13989,12.69995-42.65015,13.79004-7.52002,33.04004-3.40991,41.13013,11.84009l41.18994,77.67993,47-115.59985c3.91992-9.64014,12.12988-16.01001,20.57007-18.09009,9.6499-2.37988,22.34985-1.44995,28.86987,6.95996l43.06006,55.53003,72.48999-178.82007,6.73999-18.71997c18.55005,12.52002,35.37012,27.41016,50.03003,44.23022Z" fill="url(#g1)"/></g></svg>