<svg xmlns="http://www.w3.org/2000/svg" viewBox="0 0 512 512">
  <rect x="0" y="0" width="512" height="512" fill="#15254d" />
  <path d="M348.15368,151.57469h0c-.84952,0-1.68334.21821-2.41585.63892h0s-13.21724,7.45029-18.8283,10.49733c-4.59791,2.5017-4.93301,5.50201-4.90185,6.52288-.03116,1.01314.30394,4.0213,4.90185,6.51504,5.61106,3.04716,18.8283,10.50518,18.8283,10.50518v-.00785c.73251.42084,1.56633.63904,2.41585.64689,1.28593,0,2.50931-.50657,3.42114-1.39497.90398-.89625,1.41055-2.10418,1.41055-3.36668,0-.83382-.21809-1.65207-.64689-2.37684-.42856-.71705-1.03645-1.31709-1.76896-1.73792v-.00773l-16.27974-8.77511,16.27974-8.78284v-.00785c.73251-.42072,1.34824-1.01302,1.76896-1.7378.4288-.72478.64689-1.54302.65474-2.37696,0-1.26239-.51442-2.47031-1.4184-3.36656-.90398-.8884-2.13521-1.38713-3.42114-1.38713h0ZM237.44468,154.11516c-2.18206,0-4.34082.42868-6.35926,1.24693-2.01844.81824-3.84971,2.02617-5.39273,3.54588-1.54302,1.5196-2.76664,3.31983-3.60046,5.29926-.84167,1.98728-1.27023,4.11477-1.27023,6.25794,0,2.15091.42856,4.27839,1.27023,6.25783.83382,1.98728,2.05744,3.78752,3.60046,5.30711,1.54302,1.51972,3.37429,2.71979,5.39273,3.54588,2.01844.81824,4.1772,1.23908,6.35926,1.23908,2.18991,0,4.34843-.42084,6.36687-1.23908,2.01059-.82609,3.84995-2.02617,5.39297-3.54588,1.54302-1.5196,2.76641-3.31983,3.60023-5.30711.83406-1.97944,1.26262-4.10692,1.26262-6.25783,0-4.33297-1.74565-8.49447-4.86285-11.55721-3.11744-3.07047-7.3491-4.79281-11.75984-4.79281ZM408.27757,208.62026c-2.08075,0-4.13034.48315-5.98516,1.40282-1.85481.91956-3.46015,2.2521-4.69923,3.89656l-.02331-.02343-26.40309,36.51859.04661.01558c-1.6988,2.23665-2.62609,4.94859-2.64178,7.73854.0157,2.78995.94298,5.49416,2.64178,7.73081l-.04661.01558,26.40309,36.51847.02331-.01558c1.23908,1.64434,2.84441,2.977,4.69923,3.89656,1.85481.91968,3.90441,1.39497,5.98516,1.40282,1.74565,0,3.48345-.34295,5.09664-.99757,1.62103-.66235,3.08604-1.62876,4.32536-2.84441,1.23908-1.21577,2.22083-2.66533,2.89126-4.25508.6702-1.58976,1.01291-3.29652,1.01291-5.01102-.00761-2.70421-.85713-5.33827-2.447-7.54376l.0157-.00773-20.9012-28.8891,20.9012-28.8891-.0157-.00785c1.58987-2.20537,2.43939-4.83943,2.447-7.54364,0-1.72234-.34271-3.42899-1.01291-5.01887-.67043-1.58976-1.65218-3.03146-2.89126-4.24724-1.23932-1.2235-2.70433-2.18206-4.32536-2.84441-1.61318-.66247-3.35098-.99757-5.09664-.99757h0ZM220.0971,327.58221c-3.69393,0-6.69436,3.09389-6.69436,6.90472.00785,2.63405,1.4574,5.03432,3.74863,6.19552,38.77081,23.91708,72.85001,21.74287,72.85001,21.74287,0,0,34.07944,2.17422,72.85001-21.74287,2.29123-1.16119,3.74078-3.56146,3.74078-6.19552,0-3.81082-2.99258-6.90472-6.69436-6.90472-1.41055,0-2.7821.46757-3.92771,1.32482l-.58434.38183s-29.07627,20.10626-65.38438,19.49065c-36.31596.61562-65.39199-19.49065-65.39199-19.49065l-.58458-.38183c-1.13776-.85725-2.51716-1.32482-3.92771-1.32482Z" fill="#fff" />
  <path d="M309.2114,204.29513c-1.23123.00773-2.46246.07789-3.68608.19478-.6702.07016-1.33255.14805-2.00274.24936-.7639.10131-1.52756.22605-2.29123.36625-.61573.13247-1.22362.27279-1.83912.42868-.79506.18705-1.58987.39741-2.37708.63904-.55319.1792-1.11422.37398-1.66764.57661-.81051.28064-1.61318.58458-2.408.91968-.50657.22594-1.02099.45972-1.51972.70908-.81051.3741-1.60533.77936-2.39254,1.20804-.45972.25709-.91183.52988-1.3637.8104-.79506.47542-1.58203.98199-2.34569,1.50414-.39765.28837-.79506.58446-1.18462.8884-.77936.57661-1.54302,1.1845-2.28338,1.81581-.34295.30394-.67805.60789-1.01314.91956-.7482.68577-1.48071,1.39497-2.18206,2.12748-.28825.31179-.56888.63131-.84952.95083-.70135.77924-1.37155,1.57418-2.01844,2.40027-.24924.32725-.49088.66235-.72466.99745-.63904.85725-1.24693,1.74565-1.81581,2.64975-.20263.32725-.39741.66235-.58458.99745-.56103.93526-1.09091,1.90155-1.58964,2.88353-.15601.3351-.31179.6702-.46757,1.0053-.47542,1.01302-.91183,2.04175-1.31709,3.09377-.12462.32737-.23378.65462-.3508.98984-.38171,1.06761-.72466,2.15864-1.03645,3.25752-.08562.3351-.16363.6702-.24163,1.0053-.2804,1.11434-.52203,2.23665-.72466,3.35883-.0547.34283-.10131.67793-.14817,1.01302-.17147,1.14561-.30394,2.29907-.39741,3.45242-.05446.73251-.10131,1.47286-.12462,2.20549h-.00785v.29609c-.01546.31167-.02331.62346-.03116.93514,0,.11689.00785.24163.0157.36625h.01546v46.88345h.00785c.039,3.55361,1.4184,6.95145,3.84186,9.45303,2.4237,2.49386,5.68906,3.89656,9.10236,3.89656,3.40568,0,6.67105-1.4027,9.09475-3.89656,2.4237-2.50158,3.80309-5.89942,3.84186-9.45303h.00785v-48.38747c.24163-3.87313,1.68334-7.55933,4.10704-10.50518,2.4237-2.938,5.70452-4.97201,9.33614-5.79799.04685-.01558.08562-.02343.13247-.03116.42072-.09358.85713-.16374,1.28593-.21821.14032-.02343.2804-.04685.42072-.06243.3508-.03116.69374-.05458,1.0443-.06231.24948-.02343.49088-.03116.73251-.039h0c.28064.00785.56127.02343.84167.04673.31179.00785.62358.02343.93514.05458.16386.02343.32749.04673.49111.07801.41287.04673.81813.11689,1.22338.20263.0547.00773.10916.02331.16363.03888.50657.11689,1.00553.24936,1.50426.41311,3.28083,1.08318,6.17994,3.18736,8.29969,6.01619,2.12736,2.8368,3.38214,6.27352,3.60023,9.86614v48.38747h.00785c.039,3.55361,1.4184,6.95145,3.8421,9.45303,2.4237,2.49386,5.69667,3.89656,9.10236,3.89656,3.40545,0,6.67866-1.4027,9.10236-3.89656,2.4237-2.50158,3.80309-5.89942,3.84186-9.45303h.00785v-46.88345h.0157c.00785-.12462.00785-.24936.01546-.36625-.00761-.31167-.01546-.62346-.03116-.93514v-.29609h-.00785c-.03116-.73263-.06992-1.47298-.12462-2.20549-.09347-1.16904-.22594-2.33011-.40526-3.48357-.04661-.31952-.09347-.63904-.14032-.95856-.20263-1.13776-.44402-2.27553-.72466-3.38999-.07801-.3351-.16363-.6702-.24163-.99745-.31179-1.09888-.6545-2.18206-1.03645-3.25752-.11677-.33522-.23378-.66247-.35056-.98984-.40526-1.05203-.84952-2.08848-1.33278-3.10935-.14793-.32737-.29609-.65462-.45187-.98199-.49896-.98972-1.02884-1.95601-1.58987-2.89899-.19478-.3351-.38956-.66247-.58458-.98972-.57649-.9041-1.17677-1.7925-1.81581-2.64975-.23378-.3351-.47518-.6702-.72466-.99745-.64689-.82609-1.31709-1.62103-2.01844-2.40027-.28064-.31952-.56103-.63904-.84952-.95083-.70135-.73251-1.43386-1.44171-2.18206-2.12748-.3351-.31167-.6702-.61562-1.01314-.91956-.74012-.63904-1.50402-1.2392-2.29099-1.82366-.38195-.29609-.77936-.59219-1.17677-.87283-.77151-.52988-1.55872-1.03645-2.36139-1.51187-.44426-.28052-.89613-.5533-1.34824-.8104-.78697-.42868-1.58987-.83394-2.40015-1.20804-.49896-.24936-1.0053-.48315-1.51187-.70908-.79506-.3351-1.59772-.63904-2.41585-.91968-.54558-.20263-1.10685-.39741-1.66788-.57661-.77936-.24163-1.57418-.45199-2.37684-.63904-.60789-.1559-1.21577-.29621-1.83151-.42868-.76366-.1402-1.52733-.26494-2.29884-.36625-.66235-.10131-1.32493-.1792-1.99513-.24936-1.22338-.11689-2.45485-.18705-3.69393-.19478h0ZM104.90696,205.19126c-3.4366,0-6.72528,1.4184-9.15682,3.95887-2.43154,2.53286-3.79525,5.96958-3.79525,9.54662.00785,1.0053.11677,2.00286.3351,2.977l-.03116.00773,18.36834,78.10266.03116-.00773c.7482,2.85999,2.36923,5.385,4.62907,7.18523,2.25222,1.80023,5.01102,2.7821,7.85567,2.7821,2.75095,0,5.42389-.91183,7.6371-2.61063,2.22107-1.69119,3.85756-4.07588,4.69138-6.81125l.0157.08574,13.69242-40.75798,13.68481,40.75798.0157-.08574c.83382,2.73537,2.47816,5.12006,4.69138,6.81125,2.21322,1.6988,4.89401,2.61063,7.63734,2.61063,2.84441,0,5.60321-.98187,7.86304-2.7821,2.25222-1.80023,3.8811-4.32524,4.62146-7.18523l.039.00773,18.36049-78.10266-.02331-.00773c.21048-.97414.3194-1.97171.32725-2.977,0-3.57704-1.3637-7.01376-3.79525-9.54662-2.4237-2.54047-5.72022-3.95887-9.15682-3.95887-3.07843,0-6.04747,1.14561-8.38555,3.23421-2.34569,2.08075-3.89656,4.96417-4.37959,8.13595l-.03116-.00773-7.60619,32.25566-11.63522-34.67151-.04661.01558c-.00785-.01558-.0157-.039-.02354-.06243-.12462-.34283-.25709-.67793-.40502-1.01302-.03139-.07801-.06255-.1559-.10131-.23378-.14817-.32737-.31179-.64689-.49111-.95083-.039-.08574-.08562-.16363-.12462-.24151-.17932-.29621-.3741-.59231-.57673-.88067-.04685-.07789-.10131-.1559-.15578-.23378-.20263-.27279-.41311-.53773-.63143-.79494-.06992-.08574-.14008-.16363-.21024-.24936-.22617-.24163-.45211-.48315-.69374-.7092-.07777-.07789-.15578-.15578-.23378-.22594-.24139-.21821-.48303-.42868-.74036-.62346-.09347-.07789-.18693-.1559-.28825-.22605-.24163-.1792-.49872-.35068-.75605-.5143-.10892-.07789-.22594-.14805-.34271-.21821-.24948-.14805-.50657-.28837-.77151-.41299-.12486-.07016-.25733-.14032-.3898-.20263-.24924-.11689-.50657-.21821-.76366-.31179-.14817-.06231-.30394-.12462-.45972-.1792-.24948-.08574-.49872-.1559-.75605-.22605-.16363-.04673-.32725-.08574-.49088-.13247-.24948-.05458-.49872-.10131-.7482-.1402-.17932-.03127-.35841-.05458-.54558-.08574-.23378-.02343-.46757-.039-.70135-.05458-.25709-.02343-.52203-.03116-.77936-.039h-.00761c-.26494.00785-.53012.01558-.79506.039-.22594.01558-.45187.03116-.67805.05458-.19478.03116-.38956.06231-.57649.09347-.24163.039-.47542.08574-.7092.13247-.17147.039-.3508.08574-.52227.14032-.24924.06231-.49088.1402-.74036.21821-.15578.05458-.31155.11689-.45972.1792-.25709.09358-.51442.1949-.76366.31179-.13247.06231-.26494.13247-.3898.20263-.26494.12462-.51418.26494-.77151.41299-.11677.07016-.23378.14805-.35056.22594-.25733.1559-.49872.32737-.74036.49884-.10131.07789-.20263.16363-.30394.24151-.24948.1949-.49111.39753-.7249.61573-.08562.07016-.16363.14805-.24139.22594-.24163.22605-.46757.46757-.68589.7092-.07801.08574-.14817.17147-.21809.25721-.21833.24936-.4288.5143-.62358.78709-.05446.07789-.11677.1559-.17147.24163-.19478.28825-.38956.57661-.56103.87283-.04685.08562-.09347.16363-.13247.24151-.17932.31179-.3351.62346-.49111.95083-.03116.07789-.06992.16363-.10131.24151-.14793.3351-.2804.6702-.40502,1.0053-.00785.02343-.0157.04685-.02354.06243l-.039-.01558-11.63498,34.67151-7.61404-32.25566-.02331.00773c-.49088-3.17178-2.04175-6.0552-4.37959-8.13595-2.34593-2.0886-5.31496-3.23421-8.39339-3.23421h0ZM236.32238,205.19126c-3.38999,0-6.64751,1.39497-9.0712,3.88098-2.41585,2.48601-3.8107,5.86042-3.8654,9.39857h-.00761v78.69485h.03116c.22594,3.41341,1.6831,6.61635,4.08349,8.94646,2.39254,2.33796,5.55659,3.63162,8.82957,3.63162,3.28083,0,6.43727-1.30139,8.82957-3.63162,2.39254-2.33784,3.84995-5.53305,4.07588-8.94646h.04685v-78.69485h-.00785c-.0547-3.53815-1.44171-6.91256-3.8654-9.39857-2.41585-2.48601-5.68121-3.88098-9.07905-3.88098h0Z" fill="#fbc509" />
</svg>
