<svg xmlns="http://www.w3.org/2000/svg" viewBox="0 0 512 512"><rect x="0" y="0" width="512" height="512" fill="#fff"/><path d="m431.90114,185.5261c-5.0354-12.61121-11.38655-24.54212-18.91695-35.6565-34.06885-50.26404-91.68192-83.33472-157.00675-83.33472-104.61072,0-189.44254,84.83182-189.44254,189.44254,0,104.65613,84.83182,189.48767,189.44254,189.48767,65.37024,0,122.98332-33.07068,157.05216-83.38012,7.48499-11.1141,13.83614-22.9996,18.87154-35.61109,8.75533-21.77494,13.56397-45.59135,13.56397-70.49646s-4.80863-48.67639-13.56397-70.45133Zm-25.2227,51.08056h-216.93347c3.3118-11.65873,9.57214-22.09253,17.91907-30.43973,12.74744-12.74744,30.34892-20.64083,49.81022-20.64083h133.23603c8.16557,15.65084,13.65451,32.84391,15.96814,51.08056ZM255.07009,103.14414c43.18717,0,82.2006,17.91879,109.9637,46.72546h-102.75061c-29.30562,0-55.84407,11.8855-75.0332,31.07463-14.87944,14.87972-25.35865,34.11425-29.26021,55.66243h-54.57345c9.52645-75.25996,73.80826-133.46252,151.65377-133.46252Zm0,305.71171c-77.8455,0-142.12731-58.20256-151.65377-133.50793h54.57345c9.02778,49.35669,52.3055,86.73706,104.29341,86.73706h102.79602c-27.7631,28.85208-66.77681,46.77087-110.00911,46.77087Zm2.40418-82.38196c-32.20874,0-59.33667-21.59359-67.72929-51.12597h216.93347c-2.31364,18.23665-7.80258,35.47514-16.01355,51.12597h-133.19062Z" fill="#1e1e1b"/></svg>