<svg xmlns="http://www.w3.org/2000/svg" viewBox="0 0 512 512">
  <rect width="512" height="512" fill="#171412"/>
  <path d="M200.98764 251.85689c1.04858.1828 1.76589 1.31994 1.61486 2.5385-.16027 1.21856-1.13306 2.06131-2.18164 1.87853l-55.6073-9.96097c5.96891 8.448 15.0825 15.41377 24.36608 17.74898l64.46592 12.79437-81.48428 48.04916c9.92563 4.76213 21.15481 3.83797 30.37234-2.39666l1.69062-1.21856 30.04213-21.71956c.83097-.59903 1.93586-.30462 2.45555.65997.51917.97484.26419 2.24409-.56678 2.85338l-31.17517 22.54234c8.59392 4.13234 18.36852 2.79244 25.86727-3.42222l23.73325-21.27256c.77466-.70094 1.89848-.52787 2.49344.37581.60416.90366.45312 2.20312-.32103 2.90406l-24.22425 21.70931c8.43366 1.07622 19.55891-1.65531 26.49088-7.58528 8.01792-7.45319 18.02855-18.31784 26.79295-23.27297 5.43028-3.06637 11.47444-4.63053 19.03925-3.50309 5.15684 2.07153 10.58713 3.05613 16.03634 2.89381 3.58863.71066 6.73381 3.13753 8.68866 6.65087 1.13356-5.64581-.96309-12.19481-5.74209-13.87059.06606-2.05106-.78387-3.94956-2.19084-5.06675l-1.29384-.74137-34.54669-19.72941c-16.21605-9.26055-32.43161-18.53081-48.64716-27.79136-7.28166-3.93984-14.88384-7.02669-22.68467-9.20986-4.72217-1.31994-8.87756-2.03109-13.68473-2.92455l-116.78669-21.77023c6.4128 9.5145 14.88384 14.74355 24.97997 16.60211l82.43814 15.2105c1.04806.19302 1.75667 1.33017 1.58669 2.54873s-1.14278 2.04083-2.19136 1.84831l-65.43872-12.07347c4.83584 7.48339 11.92806 12.53019 19.83284 14.14452l1.25593.22375 74.52416 13.35244Z" fill="#eaac08" fill-rule="evenodd"/>
  <path d="m409.49556 224.00409-66.24153 12.48973c-1.01991.18278-1.97378-.64-2.12481-1.85805-.16025-1.21856.53862-2.35572 1.55853-2.5385l84.71397-15.97236c8.33947-1.95994 15.7435-7.72761 20.59778-16.12492l-121.07419 23.54739h-.00972c-9.70856 1.88877-16.18687 4.50816-25.00813 9.49402l-39.47625 22.30836 32.75216 18.51083c18.51031-3.88862 35.51025-6.57969 54.03031-10.46884 8.85863-2.15245 16.64053-8.48845 21.53269-17.61741l-56.58009 10.67213c-1.01991.18278-1.97378-.6395-2.12481-1.85805-.16075-1.21856.53813-2.35572 1.55803-2.5385l73.51347-13.86036c8.4905-1.85805 16.31947-6.80345 22.40153-14.17522l-.01894-.01025Z" fill="#eaac08" fill-rule="evenodd"/>
</svg>
