<svg xmlns="http://www.w3.org/2000/svg"
  viewBox="0 0 512 512">
  <circle cx="256" cy="256" r="256" fill="#fff" stroke-width="0" />
  <path
    d="m276.30129,233.27373v147.17561c.39233.04271.71505.10873,1.03774.10857,14.86605-.00748,29.73432.13339,44.59752-.07857,13.69183-.19528,26.38694-4.10392,38.02826-11.33353,10.53256-6.541,19.01443-15.14008,25.23616-25.85653,10.27693-17.7011,20.41478-35.48292,30.61805-53.22676,9.96983-17.33771,19.94669-34.67133,29.92315-52.0052,8.33856-14.48808,16.69118-28.96805,25.01006-43.4674,1.16881-2.03716,2.53204-3.73962,4.99069-4.21582,3.78874-.73384,7.19207,1.29961,8.12774,5.04738,1.18736,4.75586,2.35173,9.52277,3.32688,14.32532,2.73167,13.45322,4.18921,27.05306,4.51659,40.78027.29981,12.57204-.42948,25.07807-2.11211,37.53673-2.75623,20.40742-8.14413,40.09748-16.12785,59.07167-10.18281,24.20052-24.05327,46.08038-41.5202,65.68063-14.43279,16.19549-30.79599,30.13707-49.05366,41.8411-15.86327,10.16914-32.7092,18.32044-50.54171,24.43753-13.96176,4.78931-28.24455,8.22739-42.84695,10.32965-8.83418,1.27178-17.71921,1.98586-26.64361,2.26477-13.47507.42112-26.88671-.33567-40.22163-2.23577-24.02975-3.42401-46.99829-10.38331-68.87397-20.9358-20.07591-9.68428-38.41094-21.96096-55.00902-36.82748-13.99057-12.53109-26.3218-26.52884-36.98552-41.99701-13.24033-19.20564-23.40401-39.92279-30.49162-62.1381-4.4973-14.09627-7.59735-28.50362-9.34759-43.20428-1.27871-10.74016-1.87727-21.51531-1.68244-32.32225.30784-17.07464,2.31846-33.95188,6.21283-50.5934,4.65945-19.9109,11.75411-38.90819,21.36362-56.95948,9.31155-17.49159,20.66104-33.54696,34.04203-48.16474,13.06357-14.27105,27.67732-26.72939,43.836-37.36211,22.80567-15.00654,47.49364-25.70332,74.03292-32.10074,15.60186-3.7609,31.42625-5.88341,47.47174-6.48288,10.47156-.39123,20.91371-.09727,31.33222.88763,21.61975,2.04378,42.57004,6.98735,62.80857,14.8741,26.92192,10.49121,51.10341,25.44678,72.55802,44.79194,16.07337,14.49301,29.95472,30.86437,41.41782,49.22291,4.54782,7.28341,3.90564,14.6986-.35038,22.04271-11.48206,19.81345-22.86935,39.68187-34.29234,59.52959-8.82768,15.33833-17.65207,30.67852-26.47855,46.01755-9.78325,17.00175-19.5669,34.00329-29.35234,51.00385-.29293.50892-.60751,1.00532-1.12178,1.85357v-147.93528h-1.49828c-28.19508,0-56.39016.00535-84.58521-.02245-.97766-.00097-1.48708.28325-1.98361,1.14825-13.26892,23.11511-26.57489,46.20896-39.87296,69.30733-14.55297,25.27802-29.10415,50.55704-43.65864,75.83419-.14684.25507-.32789.49043-.67414,1.00341v-147.20047h-87.35205v217.74172c.16461.02782.3627.09058.56074.09049,15.28869-.00707,30.588.33529,45.86334-.12197,18.34034-.54897,34.32998-7.4175,47.98208-19.70082,7.4017-6.65962,12.73-14.83886,17.6108-23.4156,10.65102-18.71634,21.46091-37.34231,32.20599-56.00518,9.06436-15.74365,18.1287-31.48731,27.19423-47.23028.16683-.28971.3485-.57087.52322-.85602.08307.01582.16611.03162.24916.04743Z"
    stroke-width="0" />
</svg>