<svg xmlns="http://www.w3.org/2000/svg" xmlns:xlink="http://www.w3.org/1999/xlink"
  height="240" viewBox="0 0 240 240">
  <rect width="240" height="240" fill="#fff" />
  <g transform="translate(54.025 53.748) translate(-24, -24) scale(1.4)">
    <path
      d="M34.8,75.542c34,0,34-.507,39.767-2.217C82.1,71.089,53.294,51.148,34.8,51.148S1.312,56.61,1.312,63.346,16.3,75.542,34.8,75.542"
      transform="translate(1.461 56.964)"></path>
    <path
      d="M113.467,28.784l1.564,1.685-1.365,1.847c-44.345,59.959-69.891,87.105-80.73,83.466-6.6-2.219-13.221-8.888-19.843-18.573-2.327-3.405-4.513-6.99-6.5-10.556-1.323-2.376-2.443-4.542-3.025-5.762a14.361,14.361,0,0,1-1.3-3.775l-.03-.152c-.1-.535-.14-.7-.218-1A60.455,60.455,0,0,1,89.893,7.656l.23.144q10.967,7.638,23.344,20.985m-26.4-16.356A54.925,54.925,0,0,0,7.375,74.546c.12.452.175.706.3,1.361l.025.135A9,9,0,0,0,8.571,78.5c.531,1.114,1.6,3.175,2.864,5.449,1.911,3.428,4.01,6.872,6.233,10.127,5.984,8.749,11.915,14.726,17.032,16.445,6.827,2.293,32.523-24.908,73.132-79.648A139.482,139.482,0,0,0,87.067,12.429"
      transform="translate(0 0.001)"></path>
    <path
      d="M84.146,9.507A54.925,54.925,0,0,0,4.453,71.625c.12.452.175.706.3,1.361l.025.135a9,9,0,0,0,.869,2.462c.531,1.114,1.6,3.175,2.864,5.449,1.911,3.428,4.01,6.872,6.233,10.127,5.984,8.749,11.915,14.726,17.032,16.445C38.607,109.9,64.3,82.7,104.911,27.956A139.482,139.482,0,0,0,84.146,9.507"
      transform="translate(2.921 2.922)" fill="#ec1c79"></path>
    <path
      d="M65.677,126.107a60.431,60.431,0,1,1,60.431-60.431,60.43,60.43,0,0,1-60.431,60.431m0-5.544A54.886,54.886,0,1,0,10.79,65.677a54.887,54.887,0,0,0,54.886,54.886"
      transform="translate(5.842 5.843)"></path>
    <path
      d="M62.755,117.642A54.886,54.886,0,1,0,7.869,62.755a54.887,54.887,0,0,0,54.886,54.886"
      transform="translate(8.764 8.765)" fill="#fff"></path>
    <path
      d="M18.239,50.72,10.974,28.832H17.34l3.788,12.574,4.189-12.636H30.5l4.191,12.636,3.788-12.574h6.242L37.456,50.72H32.21L27.833,38.209,23.485,50.72Zm28.873-.154V28.832h17.48v5.124H53.075v3.291H63.506V42H53.075v3.445H64.746v5.124Zm26.02,0V34.11H66.613V28.832H85.672V34.11H79.153V50.565Zm15.181,0V28.832h6.024v8.133h7.73V28.832h6.026V50.565h-6.026V42.307h-7.73v8.258Z"
      transform="translate(12.222 32.043)" fill-rule="evenodd"></path>
    <path
      d="M2.609,28.806a3.105,3.105,0,0,1,2.777-5.555l8.869,4.437a3.1,3.1,0,1,1-2.775,5.553Z"
      transform="translate(0.993 25.531)"></path>
    <path
      d="M2.172,35.787a3.1,3.1,0,1,1,2.6-5.637l8.871,4.092a3.105,3.105,0,0,1-2.6,5.639Z"
      transform="translate(0.409 33.26)"></path>
  </g>
</svg>