<svg xmlns="http://www.w3.org/2000/svg" viewBox="0 0 512 512"><circle cx="256" cy="256" r="155.72062" fill="#fff" stroke-width="0"/><g><g><path d="M511.98947,231.50977C453.21428-109.2634,8.2022-43.32052.21533,231.50977c25.59895,13.31145,41.77748,21.50312,41.77748,21.50312,0,0-13.51624,8.19166-41.98227,26.21332,51.19789,334.21985,488.63269,285.68424,511.97893-.40958-27.85165-16.9977-43.00623-26.00853-43.00623-26.00853,0,0,13.10666-6.14375,43.00623-21.29832ZM293.06727,350.49368l-41.77748-71.67705-42.39186,71.67705-32.15228-2.25271,60.41351-101.78141-54.47456-87.85558,32.76665-2.86708,38.70561,65.12372,38.70561-62.25664,30.51394.81917-50.78831,86.42204,55.9081,104.03412-35.83853.81917.40958-.20479Z" fill="#b7b5b1" stroke-width="0"/><path d="M491.30552,218.19832C411.6416-84.68841,46.08864-2.77178,21.10407,218.19832c50.78831,28.46603,62.25664,35.22415,62.25664,35.22415,0,0-19.65999,12.49229-62.46143,39.72957,54.47456,291.21362,448.69834,235.10073,470.40624-.40958-39.72957-24.98457-63.2806-39.52477-63.2806-39.52477,0,0,53.65539-29.89957,63.2806-35.01936ZM293.06727,350.69847l-41.77748-71.67705-42.39186,71.67705-31.94749-2.25271,60.41351-101.78141-54.47456-87.85558,32.76665-2.86708,38.70561,65.12372,38.70561-62.25664,30.51394.81917-50.58352,86.42204,55.9081,104.03412-35.83853.81917v-.20479Z" fill="#244b81" stroke-width="0"/></g></g></svg>