<svg xmlns="http://www.w3.org/2000/svg" viewBox="0 0 512 512">
  <rect width="512" height="512" fill="#0657f9" />
  <path
    d="M149.20236,100.83052l-20.19679,20.5344,49.24879,50.05441,49.248,50.0544v93.22321h57.21199v-93.21841l49.25043-50.0616,49.24957-50.06159-20.35037-20.6776-20.3504-20.6776-42.90881,43.6104c-23.60001,23.9864-43.1752,43.61121-43.49921,43.61121-.32478,0-19.83119-19.55841-43.34799-43.4632-23.51759-23.9048-42.89279-43.4632-43.0584-43.4632-.16481,0-9.388,9.24001-20.49681,20.5352ZM128.04637,217.67372c-7.164,12.61121-13.7664,35.0616-15.5856,53.00002-.8984,8.84637-.4232,28.15439.9048,36.82959,12.4272,81.16638,87.85919,136.33759,167.2392,122.31918,52.33121-9.24078,95.3624-46.76398,112.0896-97.73999,5.504-16.77521,7.28799-28.12079,7.3056-46.46078.0184-19.85123-2.2056-33.04482-8.6424-51.25681-2.20639-6.24561-7.88321-18.584-8.54959-18.584-.26721,0-10.14081,9.81519-21.94,21.81279-19.84082,20.1712-21.4328,21.94159-21.15762,23.5296.164.94479.73041,3.6944,1.25842,6.10959,1.53439,7.02081,2.13278,16.52161,1.5408,24.44083-.62402,8.32239-1.608,13.45117-4.09842,21.35199-7.99438,25.36719-29.16879,47.09518-54.4552,55.87839-9.65759,3.3544-15.0784,4.1824-27.5528,4.2088-12.67999.02802-17.4624-.6568-27.29041-3.9064-26.73679-8.83838-48.52559-31.6456-56.37279-59.00558-2.548-8.88641-3.28081-14.5632-3.248-25.17841.0304-9.8688.34079-12.3952,2.944-23.98001.20959-.93439-4.528-6.06879-21.49121-23.28558l-21.75999-22.08641-1.1384,2.0032Z"
    fill="#fff"
    fill-rule="evenodd"
  />
</svg>
