<svg xmlns="http://www.w3.org/2000/svg" viewBox="-8 -8 52 52">
  <defs>
    <linearGradient id="g1" x1="17.019" x2="17.309" y1="25.259" y2="-0.032" gradientUnits="userSpaceOnUse">
      <stop offset="0.431" stop-color="#498FFD"/>
      <stop offset="1" stop-color="#16D1D6"/>
    </linearGradient>
    <radialGradient id="g2" cx="0" cy="0" r="1" gradientTransform="matrix(15.7034 -4.38794 4.36952 15.7204 10.068 7.708)" gradientUnits="userSpaceOnUse">
      <stop stop-color="#18CFD7"/>
      <stop offset="1" stop-color="#18CFD7" stop-opacity="0"/>
    </radialGradient>
    <radialGradient id="g3" cx="0" cy="0" r="1" gradientTransform="matrix(-5.40609 2.83925 -2.82734 -5.41193 19.593 14.935)" gradientUnits="userSpaceOnUse">
      <stop stop-color="#4990FE"/>
      <stop offset="0.354" stop-color="#4990FE"/>
      <stop offset="1" stop-color="#4990FE" stop-opacity="0"/>
    </radialGradient>
    <radialGradient id="g4" cx="0" cy="0" r="1" gradientTransform="matrix(7.72298 -8.00153 7.96795 7.73133 12.127 23.195)" gradientUnits="userSpaceOnUse">
      <stop stop-color="#4990FE"/>
      <stop offset="0.406" stop-color="#4990FE"/>
      <stop offset="1" stop-color="#4990FE" stop-opacity="0"/>
    </radialGradient>
    <linearGradient id="g5" x1="25.256" x2="25.35" y1="36.1" y2="10.289" gradientUnits="userSpaceOnUse">
      <stop stop-color="#2950FF"/>
      <stop offset="0.822" stop-color="#498FFD"/>
    </linearGradient>
    <radialGradient id="g6" cx="0" cy="0" r="1" gradientTransform="matrix(-6.95068 8.51776 -8.4059 -6.89575 25.256 25.26)" gradientUnits="userSpaceOnUse">
      <stop offset="0.337" stop-color="#2950FF"/>
      <stop offset="0.792" stop-color="#2950FF" stop-opacity="0"/>
    </radialGradient>
  </defs>
  <rect x="-8" y="-8" width="52" height="52" fill="#0D1119"/>
  <path fill="url(#g1)" fill-rule="evenodd" d="M20.979 0h4.141c1.419 0 2.613 0 3.59.08 1.022.085 1.995.27 2.92.747a7.54 7.54 0 0 1 3.271 3.315c.472.937.653 1.923.737 2.959.08.99.08 2.2.08 3.637v3.98c0 1.439 0 2.648-.08 3.638-.084 1.036-.265 2.022-.736 2.96a7.54 7.54 0 0 1-3.272 3.314c-.925.478-1.898.662-2.92.746-.977.081-2.171.081-3.59.081H12.752a2.16 2.16 0 0 1-1.99-1.34 2.21 2.21 0 0 1 .45-2.377l10.215-10.543 3.078 3.063-6.613 6.826h7.142c1.528 0 2.544-.002 3.324-.067.756-.062 1.098-.172 1.314-.284a3.2 3.2 0 0 0 1.386-1.404c.11-.218.218-.566.28-1.33.064-.792.065-1.821.065-3.37v-3.805c0-1.549-.001-2.578-.065-3.369-.062-.765-.17-1.112-.28-1.33a3.2 3.2 0 0 0-1.386-1.405c-.216-.111-.558-.222-1.314-.284-.78-.065-1.796-.067-3.324-.067h-3.968c-1.545 0-2.573.002-3.362.068-.764.063-1.11.176-1.326.288-.6.313-1.086.812-1.388 1.424-.108.22-.215.571-.268 1.346-.055.8-.044 1.842-.025 3.407l.021 1.798-4.313.053-.023-1.886c-.018-1.453-.032-2.675.037-3.676.072-1.046.244-2.044.711-2.993A7.54 7.54 0 0 1 14.406.84C15.337.353 16.32.167 17.35.081 18.338 0 19.544 0 20.979 0" clip-rule="evenodd"/>
  <path fill="url(#g2)" fill-rule="evenodd" d="M20.979 0h4.141c1.419 0 2.613 0 3.59.08 1.022.085 1.995.27 2.92.747a7.54 7.54 0 0 1 3.271 3.315c.472.937.653 1.923.737 2.959.08.99.08 2.2.08 3.637v3.98c0 1.439 0 2.648-.08 3.638-.084 1.036-.265 2.022-.736 2.96a7.54 7.54 0 0 1-3.272 3.314c-.925.478-1.898.662-2.92.746-.977.081-2.171.081-3.59.081H12.752a2.16 2.16 0 0 1-1.99-1.34 2.21 2.21 0 0 1 .45-2.377l10.215-10.543 3.078 3.063-6.613 6.826h7.142c1.528 0 2.544-.002 3.324-.067.756-.062 1.098-.172 1.314-.284a3.2 3.2 0 0 0 1.386-1.404c.11-.218.218-.566.28-1.33.064-.792.065-1.821.065-3.37v-3.805c0-1.549-.001-2.578-.065-3.369-.062-.765-.17-1.112-.28-1.33a3.2 3.2 0 0 0-1.386-1.405c-.216-.111-.558-.222-1.314-.284-.78-.065-1.796-.067-3.324-.067h-3.968c-1.545 0-2.573.002-3.362.068-.764.063-1.11.176-1.326.288-.6.313-1.086.812-1.388 1.424-.108.22-.215.571-.268 1.346-.055.8-.044 1.842-.025 3.407l.021 1.798-4.313.053-.023-1.886c-.018-1.453-.032-2.675.037-3.676.072-1.046.244-2.044.711-2.993A7.54 7.54 0 0 1 14.406.84C15.337.353 16.32.167 17.35.081 18.338 0 19.544 0 20.979 0" clip-rule="evenodd"/>
  <path fill="url(#g3)" fill-rule="evenodd" d="M20.979 0h4.141c1.419 0 2.613 0 3.59.08 1.022.085 1.995.27 2.92.747a7.54 7.54 0 0 1 3.271 3.315c.472.937.653 1.923.737 2.959.08.99.08 2.2.08 3.637v3.98c0 1.439 0 2.648-.08 3.638-.084 1.036-.265 2.022-.736 2.96a7.54 7.54 0 0 1-3.272 3.314c-.925.478-1.898.662-2.92.746-.977.081-2.171.081-3.59.081H12.752a2.16 2.16 0 0 1-1.99-1.34 2.21 2.21 0 0 1 .45-2.377l10.215-10.543 3.078 3.063-6.613 6.826h7.142c1.528 0 2.544-.002 3.324-.067.756-.062 1.098-.172 1.314-.284a3.2 3.2 0 0 0 1.386-1.404c.11-.218.218-.566.28-1.33.064-.792.065-1.821.065-3.37v-3.805c0-1.549-.001-2.578-.065-3.369-.062-.765-.17-1.112-.28-1.33a3.2 3.2 0 0 0-1.386-1.405c-.216-.111-.558-.222-1.314-.284-.78-.065-1.796-.067-3.324-.067h-3.968c-1.545 0-2.573.002-3.362.068-.764.063-1.11.176-1.326.288-.6.313-1.086.812-1.388 1.424-.108.22-.215.571-.268 1.346-.055.8-.044 1.842-.025 3.407l.021 1.798-4.313.053-.023-1.886c-.018-1.453-.032-2.675.037-3.676.072-1.046.244-2.044.711-2.993A7.54 7.54 0 0 1 14.406.84C15.337.353 16.32.167 17.35.081 18.338 0 19.544 0 20.979 0" clip-rule="evenodd"/>
  <path fill="url(#g4)" fill-rule="evenodd" d="M20.979 0h4.141c1.419 0 2.613 0 3.59.08 1.022.085 1.995.27 2.92.747a7.54 7.54 0 0 1 3.271 3.315c.472.937.653 1.923.737 2.959.08.99.08 2.2.08 3.637v3.98c0 1.439 0 2.648-.08 3.638-.084 1.036-.265 2.022-.736 2.96a7.54 7.54 0 0 1-3.272 3.314c-.925.478-1.898.662-2.92.746-.977.081-2.171.081-3.59.081H12.752a2.16 2.16 0 0 1-1.99-1.34 2.21 2.21 0 0 1 .45-2.377l10.215-10.543 3.078 3.063-6.613 6.826h7.142c1.528 0 2.544-.002 3.324-.067.756-.062 1.098-.172 1.314-.284a3.2 3.2 0 0 0 1.386-1.404c.11-.218.218-.566.28-1.33.064-.792.065-1.821.065-3.37v-3.805c0-1.549-.001-2.578-.065-3.369-.062-.765-.17-1.112-.28-1.33a3.2 3.2 0 0 0-1.386-1.405c-.216-.111-.558-.222-1.314-.284-.78-.065-1.796-.067-3.324-.067h-3.968c-1.545 0-2.573.002-3.362.068-.764.063-1.11.176-1.326.288-.6.313-1.086.812-1.388 1.424-.108.22-.215.571-.268 1.346-.055.8-.044 1.842-.025 3.407l.021 1.798-4.313.053-.023-1.886c-.018-1.453-.032-2.675.037-3.676.072-1.046.244-2.044.711-2.993A7.54 7.54 0 0 1 14.406.84C15.337.353 16.32.167 17.35.081 18.338 0 19.544 0 20.979 0" clip-rule="evenodd"/>
  <path fill="url(#g5)" fill-rule="evenodd" d="M7.36 31.562c.78.065 1.796.066 3.324.066h4.034c1.394 0 2.32 0 3.034-.055.692-.052 1.009-.145 1.207-.237a3.2 3.2 0 0 0 1.56-1.581c.092-.202.184-.523.235-1.224.053-.723.055-1.662.055-3.074h4.314v.08c0 1.31 0 2.414-.067 3.32-.07.945-.22 1.85-.615 2.72a7.54 7.54 0 0 1-3.683 3.732c-.86.4-1.751.553-2.685.623-.893.068-1.982.068-3.276.068h-4.2c-1.419 0-2.612 0-3.59-.08-1.021-.086-1.995-.27-2.92-.747a7.54 7.54 0 0 1-3.271-3.315C.345 30.921.163 29.935.08 28.9c-.08-.99-.08-2.2-.08-3.637V21.28c0-1.437 0-2.647.08-3.637.083-1.036.265-2.022.736-2.96a7.54 7.54 0 0 1 3.271-3.314c.925-.478 1.899-.662 2.92-.746.978-.081 2.171-.081 3.59-.081h12.369c1.191 0 2.157.978 2.157 2.186s-.966 2.185-2.157 2.185H10.684c-1.528 0-2.545.002-3.325.067-.755.062-1.098.172-1.313.284-.597.308-1.082.8-1.386 1.404-.11.218-.219.566-.28 1.33-.064.792-.066 1.821-.066 3.37v3.805c0 1.549.002 2.578.065 3.369.062.765.171 1.112.28 1.33.305.605.79 1.097 1.387 1.405.215.111.558.222 1.313.284" clip-rule="evenodd"/>
  <path fill="url(#g6)" fill-rule="evenodd" d="M7.36 31.562c.78.065 1.796.066 3.324.066h4.034c1.394 0 2.32 0 3.034-.055.692-.052 1.009-.145 1.207-.237a3.2 3.2 0 0 0 1.56-1.581c.092-.202.184-.523.235-1.224.053-.723.055-1.662.055-3.074h4.314v.08c0 1.31 0 2.414-.067 3.32-.07.945-.22 1.85-.615 2.72a7.54 7.54 0 0 1-3.683 3.732c-.86.4-1.751.553-2.685.623-.893.068-1.982.068-3.276.068h-4.2c-1.419 0-2.612 0-3.59-.08-1.021-.086-1.995-.27-2.92-.747a7.54 7.54 0 0 1-3.271-3.315C.345 30.921.163 29.935.08 28.9c-.08-.99-.08-2.2-.08-3.637V21.28c0-1.437 0-2.647.08-3.637.083-1.036.265-2.022.736-2.96a7.54 7.54 0 0 1 3.271-3.314c.925-.478 1.899-.662 2.92-.746.978-.081 2.171-.081 3.59-.081h12.369c1.191 0 2.157.978 2.157 2.186s-.966 2.185-2.157 2.185H10.684c-1.528 0-2.545.002-3.325.067-.755.062-1.098.172-1.313.284-.597.308-1.082.8-1.386 1.404-.11.218-.219.566-.28 1.33-.064.792-.066 1.821-.066 3.37v3.805c0 1.549.002 2.578.065 3.369.062.765.171 1.112.28 1.33.305.605.79 1.097 1.387 1.405.215.111.558.222 1.313.284" clip-rule="evenodd"/>
</svg>
